%TF.GenerationSoftware,KiCad,Pcbnew,(6.0.8)*%
%TF.CreationDate,2022-10-05T23:25:23+02:00*%
%TF.ProjectId,DMX_ControllerBoard,444d585f-436f-46e7-9472-6f6c6c657242,rev?*%
%TF.SameCoordinates,Original*%
%TF.FileFunction,Copper,L1,Top*%
%TF.FilePolarity,Positive*%
%FSLAX46Y46*%
G04 Gerber Fmt 4.6, Leading zero omitted, Abs format (unit mm)*
G04 Created by KiCad (PCBNEW (6.0.8)) date 2022-10-05 23:25:23*
%MOMM*%
%LPD*%
G01*
G04 APERTURE LIST*
G04 Aperture macros list*
%AMRoundRect*
0 Rectangle with rounded corners*
0 $1 Rounding radius*
0 $2 $3 $4 $5 $6 $7 $8 $9 X,Y pos of 4 corners*
0 Add a 4 corners polygon primitive as box body*
4,1,4,$2,$3,$4,$5,$6,$7,$8,$9,$2,$3,0*
0 Add four circle primitives for the rounded corners*
1,1,$1+$1,$2,$3*
1,1,$1+$1,$4,$5*
1,1,$1+$1,$6,$7*
1,1,$1+$1,$8,$9*
0 Add four rect primitives between the rounded corners*
20,1,$1+$1,$2,$3,$4,$5,0*
20,1,$1+$1,$4,$5,$6,$7,0*
20,1,$1+$1,$6,$7,$8,$9,0*
20,1,$1+$1,$8,$9,$2,$3,0*%
G04 Aperture macros list end*
%TA.AperFunction,SMDPad,CuDef*%
%ADD10RoundRect,0.250000X-0.450000X0.350000X-0.450000X-0.350000X0.450000X-0.350000X0.450000X0.350000X0*%
%TD*%
%TA.AperFunction,SMDPad,CuDef*%
%ADD11R,0.300000X0.800000*%
%TD*%
%TA.AperFunction,ComponentPad*%
%ADD12R,1.600000X1.600000*%
%TD*%
%TA.AperFunction,ComponentPad*%
%ADD13C,1.600000*%
%TD*%
%TA.AperFunction,SMDPad,CuDef*%
%ADD14RoundRect,0.250000X-0.337500X-0.475000X0.337500X-0.475000X0.337500X0.475000X-0.337500X0.475000X0*%
%TD*%
%TA.AperFunction,SMDPad,CuDef*%
%ADD15R,0.900000X1.200000*%
%TD*%
%TA.AperFunction,ComponentPad*%
%ADD16R,2.600000X2.600000*%
%TD*%
%TA.AperFunction,ComponentPad*%
%ADD17C,2.600000*%
%TD*%
%TA.AperFunction,ComponentPad*%
%ADD18RoundRect,0.250000X0.750000X-0.600000X0.750000X0.600000X-0.750000X0.600000X-0.750000X-0.600000X0*%
%TD*%
%TA.AperFunction,ComponentPad*%
%ADD19O,2.000000X1.700000*%
%TD*%
%TA.AperFunction,SMDPad,CuDef*%
%ADD20R,1.500000X2.400000*%
%TD*%
%TA.AperFunction,SMDPad,CuDef*%
%ADD21RoundRect,0.249999X-0.350001X-0.450001X0.350001X-0.450001X0.350001X0.450001X-0.350001X0.450001X0*%
%TD*%
%TA.AperFunction,SMDPad,CuDef*%
%ADD22RoundRect,0.200000X0.800000X-0.200000X0.800000X0.200000X-0.800000X0.200000X-0.800000X-0.200000X0*%
%TD*%
%TA.AperFunction,SMDPad,CuDef*%
%ADD23RoundRect,0.150000X-0.150000X0.825000X-0.150000X-0.825000X0.150000X-0.825000X0.150000X0.825000X0*%
%TD*%
%TA.AperFunction,SMDPad,CuDef*%
%ADD24RoundRect,0.150000X0.825000X0.150000X-0.825000X0.150000X-0.825000X-0.150000X0.825000X-0.150000X0*%
%TD*%
%TA.AperFunction,SMDPad,CuDef*%
%ADD25RoundRect,0.250000X0.250000X0.475000X-0.250000X0.475000X-0.250000X-0.475000X0.250000X-0.475000X0*%
%TD*%
%TA.AperFunction,SMDPad,CuDef*%
%ADD26RoundRect,0.250000X-0.475000X0.250000X-0.475000X-0.250000X0.475000X-0.250000X0.475000X0.250000X0*%
%TD*%
%TA.AperFunction,SMDPad,CuDef*%
%ADD27RoundRect,0.250000X-0.250000X-0.475000X0.250000X-0.475000X0.250000X0.475000X-0.250000X0.475000X0*%
%TD*%
%TA.AperFunction,SMDPad,CuDef*%
%ADD28RoundRect,0.250000X-0.475000X0.337500X-0.475000X-0.337500X0.475000X-0.337500X0.475000X0.337500X0*%
%TD*%
%TA.AperFunction,SMDPad,CuDef*%
%ADD29R,2.500000X1.000000*%
%TD*%
%TA.AperFunction,SMDPad,CuDef*%
%ADD30R,1.000000X1.800000*%
%TD*%
%TA.AperFunction,SMDPad,CuDef*%
%ADD31RoundRect,0.250000X-0.462500X-0.625000X0.462500X-0.625000X0.462500X0.625000X-0.462500X0.625000X0*%
%TD*%
%TA.AperFunction,SMDPad,CuDef*%
%ADD32RoundRect,0.250000X0.400000X0.625000X-0.400000X0.625000X-0.400000X-0.625000X0.400000X-0.625000X0*%
%TD*%
%TA.AperFunction,SMDPad,CuDef*%
%ADD33RoundRect,0.249999X0.450001X-0.350001X0.450001X0.350001X-0.450001X0.350001X-0.450001X-0.350001X0*%
%TD*%
%TA.AperFunction,SMDPad,CuDef*%
%ADD34RoundRect,0.249999X-0.450001X0.350001X-0.450001X-0.350001X0.450001X-0.350001X0.450001X0.350001X0*%
%TD*%
%TA.AperFunction,SMDPad,CuDef*%
%ADD35RoundRect,0.200000X-0.200000X-0.800000X0.200000X-0.800000X0.200000X0.800000X-0.200000X0.800000X0*%
%TD*%
%TA.AperFunction,ComponentPad*%
%ADD36R,1.700000X1.700000*%
%TD*%
%TA.AperFunction,ComponentPad*%
%ADD37O,1.700000X1.700000*%
%TD*%
%TA.AperFunction,SMDPad,CuDef*%
%ADD38RoundRect,0.200000X0.200000X0.800000X-0.200000X0.800000X-0.200000X-0.800000X0.200000X-0.800000X0*%
%TD*%
%TA.AperFunction,SMDPad,CuDef*%
%ADD39R,1.500000X2.000000*%
%TD*%
%TA.AperFunction,SMDPad,CuDef*%
%ADD40R,3.800000X2.000000*%
%TD*%
%TA.AperFunction,SMDPad,CuDef*%
%ADD41RoundRect,0.250000X-0.650000X0.325000X-0.650000X-0.325000X0.650000X-0.325000X0.650000X0.325000X0*%
%TD*%
%TA.AperFunction,ViaPad*%
%ADD42C,0.800000*%
%TD*%
%TA.AperFunction,ViaPad*%
%ADD43C,1.000000*%
%TD*%
%TA.AperFunction,Conductor*%
%ADD44C,0.750000*%
%TD*%
%TA.AperFunction,Conductor*%
%ADD45C,0.250000*%
%TD*%
%TA.AperFunction,Conductor*%
%ADD46C,1.000000*%
%TD*%
G04 APERTURE END LIST*
D10*
%TO.P,R10,1*%
%TO.N,Net-(R10-Pad1)*%
X84582000Y-40122000D03*
%TO.P,R10,2*%
%TO.N,+5V*%
X84582000Y-42122000D03*
%TD*%
D11*
%TO.P,U5,1,VCCA*%
%TO.N,+5V*%
X81419000Y-43053000D03*
%TO.P,U5,2,1A*%
%TO.N,Button3_sense*%
X81919000Y-43053000D03*
%TO.P,U5,3,2A*%
%TO.N,Button4_sense*%
X82419000Y-43053000D03*
%TO.P,U5,4,GND*%
%TO.N,GND*%
X82919000Y-43053000D03*
%TO.P,U5,5,DIR*%
%TO.N,Net-(R10-Pad1)*%
X82919000Y-39953000D03*
%TO.P,U5,6,2B*%
%TO.N,B4*%
X82419000Y-39953000D03*
%TO.P,U5,7,1B*%
%TO.N,B3*%
X81919000Y-39953000D03*
%TO.P,U5,8,VCCB*%
%TO.N,+3V3*%
X81419000Y-39953000D03*
%TD*%
%TO.P,U3,1,VCCA*%
%TO.N,+5V*%
X68592000Y-43079000D03*
%TO.P,U3,2,1A*%
%TO.N,Button1_sense*%
X69092000Y-43079000D03*
%TO.P,U3,3,2A*%
%TO.N,Button2_sense*%
X69592000Y-43079000D03*
%TO.P,U3,4,GND*%
%TO.N,GND*%
X70092000Y-43079000D03*
%TO.P,U3,5,DIR*%
%TO.N,Net-(R6-Pad1)*%
X70092000Y-39979000D03*
%TO.P,U3,6,2B*%
%TO.N,B2*%
X69592000Y-39979000D03*
%TO.P,U3,7,1B*%
%TO.N,B1*%
X69092000Y-39979000D03*
%TO.P,U3,8,VCCB*%
%TO.N,+3V3*%
X68592000Y-39979000D03*
%TD*%
D10*
%TO.P,R6,1*%
%TO.N,Net-(R6-Pad1)*%
X71882000Y-40148000D03*
%TO.P,R6,2*%
%TO.N,+5V*%
X71882000Y-42148000D03*
%TD*%
D12*
%TO.P,C8,1*%
%TO.N,VCC*%
X27114500Y-27114500D03*
D13*
%TO.P,C8,2*%
%TO.N,GND*%
X27114500Y-24614500D03*
%TD*%
D12*
%TO.P,C12,1*%
%TO.N,+5V*%
X43751500Y-24511000D03*
D13*
%TO.P,C12,2*%
%TO.N,GND*%
X47251500Y-24511000D03*
%TD*%
D14*
%TO.P,C13,1*%
%TO.N,GND*%
X39031000Y-30797500D03*
%TO.P,C13,2*%
%TO.N,+5V*%
X41106000Y-30797500D03*
%TD*%
D15*
%TO.P,D6,1,K*%
%TO.N,Net-(D6-Pad1)*%
X33592500Y-30797500D03*
%TO.P,D6,2,A*%
%TO.N,GND*%
X36892500Y-30797500D03*
%TD*%
D16*
%TO.P,J3,1,Pin_1*%
%TO.N,GND*%
X25209500Y-32956500D03*
D17*
%TO.P,J3,2,Pin_2*%
%TO.N,VCC*%
X25209500Y-37956500D03*
%TD*%
D18*
%TO.P,J5,1,Pin_1*%
%TO.N,Net-(J5-Pad1)*%
X115684300Y-43954700D03*
D19*
%TO.P,J5,2,Pin_2*%
%TO.N,Net-(J5-Pad2)*%
X115684300Y-41454700D03*
%TD*%
D20*
%TO.P,L3,1*%
%TO.N,Net-(D6-Pad1)*%
X33762500Y-35877500D03*
%TO.P,L3,2*%
%TO.N,+5V*%
X39262500Y-35877500D03*
%TD*%
D21*
%TO.P,R3,1*%
%TO.N,+3V3*%
X67088000Y-28956000D03*
%TO.P,R3,2*%
%TO.N,RESET*%
X69088000Y-28956000D03*
%TD*%
D22*
%TO.P,SW1,1,A*%
%TO.N,RESET*%
X69088000Y-25463500D03*
%TO.P,SW1,2,B*%
%TO.N,GND*%
X69088000Y-21263500D03*
%TD*%
D23*
%TO.P,U2,1,RO*%
%TO.N,unconnected-(U2-Pad1)*%
X103644700Y-33847000D03*
%TO.P,U2,2,~{RE}*%
%TO.N,Net-(R1-Pad1)*%
X102374700Y-33847000D03*
%TO.P,U2,3,DE*%
X101104700Y-33847000D03*
%TO.P,U2,4,DI*%
%TO.N,RS485_DIN*%
X99834700Y-33847000D03*
%TO.P,U2,5,GND*%
%TO.N,GND*%
X99834700Y-38797000D03*
%TO.P,U2,6,A*%
%TO.N,Net-(J5-Pad1)*%
X101104700Y-38797000D03*
%TO.P,U2,7,B*%
%TO.N,Net-(J5-Pad2)*%
X102374700Y-38797000D03*
%TO.P,U2,8,VCC*%
%TO.N,+5V*%
X103644700Y-38797000D03*
%TD*%
D24*
%TO.P,U4,1,NC*%
%TO.N,unconnected-(U4-Pad1)*%
X39749500Y-28384500D03*
%TO.P,U4,2,NC*%
%TO.N,unconnected-(U4-Pad2)*%
X39749500Y-27114500D03*
%TO.P,U4,3,NC*%
%TO.N,unconnected-(U4-Pad3)*%
X39749500Y-25844500D03*
%TO.P,U4,4,FB*%
%TO.N,+5V*%
X39749500Y-24574500D03*
%TO.P,U4,5,~{ON}/OFF*%
%TO.N,GND*%
X34799500Y-24574500D03*
%TO.P,U4,6,GND*%
X34799500Y-25844500D03*
%TO.P,U4,7,VIN*%
%TO.N,VCC*%
X34799500Y-27114500D03*
%TO.P,U4,8,OUT*%
%TO.N,Net-(D6-Pad1)*%
X34799500Y-28384500D03*
%TD*%
D25*
%TO.P,C1,1*%
%TO.N,+5V*%
X62164000Y-37211000D03*
%TO.P,C1,2*%
%TO.N,GND*%
X60264000Y-37211000D03*
%TD*%
D26*
%TO.P,C3,1*%
%TO.N,+3V3*%
X73279000Y-34737000D03*
%TO.P,C3,2*%
%TO.N,GND*%
X73279000Y-36637000D03*
%TD*%
D27*
%TO.P,C4,1*%
%TO.N,+3V3*%
X61153000Y-23749000D03*
%TO.P,C4,2*%
%TO.N,GND*%
X63053000Y-23749000D03*
%TD*%
D21*
%TO.P,R1,1*%
%TO.N,Net-(R1-Pad1)*%
X103625900Y-31000700D03*
%TO.P,R1,2*%
%TO.N,+5V*%
X105625900Y-31000700D03*
%TD*%
D28*
%TO.P,C11,1*%
%TO.N,GND*%
X31940500Y-24807000D03*
%TO.P,C11,2*%
%TO.N,VCC*%
X31940500Y-26882000D03*
%TD*%
D29*
%TO.P,U8,1,~{RST}*%
%TO.N,RESET*%
X76537500Y-21392000D03*
%TO.P,U8,2,ADC*%
%TO.N,B4*%
X76537500Y-23392000D03*
%TO.P,U8,3,EN*%
%TO.N,Net-(R2-Pad2)*%
X76537500Y-25392000D03*
%TO.P,U8,4,GPIO16*%
%TO.N,unconnected-(U8-Pad4)*%
X76537500Y-27392000D03*
%TO.P,U8,5,GPIO14*%
%TO.N,B2*%
X76537500Y-29392000D03*
%TO.P,U8,6,GPIO12*%
%TO.N,ERROR_LED*%
X76537500Y-31392000D03*
%TO.P,U8,7,GPIO13*%
%TO.N,B1*%
X76537500Y-33392000D03*
%TO.P,U8,8,VCC*%
%TO.N,+3V3*%
X76537500Y-35392000D03*
D30*
%TO.P,U8,9,CS0*%
%TO.N,unconnected-(U8-Pad9)*%
X79137500Y-36892000D03*
%TO.P,U8,10,MISO*%
%TO.N,unconnected-(U8-Pad10)*%
X81137500Y-36892000D03*
%TO.P,U8,11,GPIO9*%
%TO.N,unconnected-(U8-Pad11)*%
X83137500Y-36892000D03*
%TO.P,U8,12,GPIO10*%
%TO.N,unconnected-(U8-Pad12)*%
X85137500Y-36892000D03*
%TO.P,U8,13,MOSI*%
%TO.N,unconnected-(U8-Pad13)*%
X87137500Y-36892000D03*
%TO.P,U8,14,SCLK*%
%TO.N,unconnected-(U8-Pad14)*%
X89137500Y-36892000D03*
D29*
%TO.P,U8,15,GND*%
%TO.N,GND*%
X91737500Y-35392000D03*
%TO.P,U8,16,GPIO15*%
%TO.N,Net-(R7-Pad2)*%
X91737500Y-33392000D03*
%TO.P,U8,17,GPIO2*%
%TO.N,RS485_DIN*%
X91737500Y-31392000D03*
%TO.P,U8,18,GPIO0*%
%TO.N,BOOT_MODE*%
X91737500Y-29392000D03*
%TO.P,U8,19,GPIO4*%
%TO.N,FACTORY_RESET*%
X91737500Y-27392000D03*
%TO.P,U8,20,GPIO5*%
%TO.N,B3*%
X91737500Y-25392000D03*
%TO.P,U8,21,GPIO3/RXD*%
%TO.N,RXD*%
X91737500Y-23392000D03*
%TO.P,U8,22,GPIO1/TXD*%
%TO.N,TXD*%
X91737500Y-21392000D03*
%TD*%
D31*
%TO.P,D1,1,K*%
%TO.N,GND*%
X51281000Y-31623000D03*
%TO.P,D1,2,A*%
%TO.N,Net-(D1-Pad2)*%
X54256000Y-31623000D03*
%TD*%
D32*
%TO.P,R8,1*%
%TO.N,Net-(D1-Pad2)*%
X54255000Y-35750500D03*
%TO.P,R8,2*%
%TO.N,ERROR_LED*%
X51155000Y-35750500D03*
%TD*%
D16*
%TO.P,J1,1,Pin_1*%
%TO.N,+5V*%
X44069000Y-50736500D03*
D17*
%TO.P,J1,2,Pin_2*%
%TO.N,GND*%
X49149000Y-50736500D03*
%TO.P,J1,3,Pin_3*%
%TO.N,Button1_sense*%
X54229000Y-50736500D03*
%TD*%
D16*
%TO.P,J2,1,Pin_1*%
%TO.N,+5V*%
X59309000Y-50736500D03*
D17*
%TO.P,J2,2,Pin_2*%
%TO.N,GND*%
X64389000Y-50736500D03*
%TO.P,J2,3,Pin_3*%
%TO.N,Button2_sense*%
X69469000Y-50736500D03*
%TD*%
D16*
%TO.P,J4,1,Pin_1*%
%TO.N,+5V*%
X74549000Y-50736500D03*
D17*
%TO.P,J4,2,Pin_2*%
%TO.N,GND*%
X79629000Y-50736500D03*
%TO.P,J4,3,Pin_3*%
%TO.N,Button3_sense*%
X84709000Y-50736500D03*
%TD*%
D16*
%TO.P,J6,1,Pin_1*%
%TO.N,+5V*%
X89789000Y-50736500D03*
D17*
%TO.P,J6,2,Pin_2*%
%TO.N,GND*%
X94869000Y-50736500D03*
%TO.P,J6,3,Pin_3*%
%TO.N,Button4_sense*%
X99949000Y-50736500D03*
%TD*%
D33*
%TO.P,R2,1*%
%TO.N,+3V3*%
X73215500Y-27416000D03*
%TO.P,R2,2*%
%TO.N,Net-(R2-Pad2)*%
X73215500Y-25416000D03*
%TD*%
D34*
%TO.P,R5,1*%
%TO.N,+3V3*%
X96583500Y-24590500D03*
%TO.P,R5,2*%
%TO.N,BOOT_MODE*%
X96583500Y-26590500D03*
%TD*%
D35*
%TO.P,SW2,1,A*%
%TO.N,BOOT_MODE*%
X96579000Y-29400500D03*
%TO.P,SW2,2,B*%
%TO.N,GND*%
X100779000Y-29400500D03*
%TD*%
D33*
%TO.P,R7,1*%
%TO.N,GND*%
X96393000Y-35417000D03*
%TO.P,R7,2*%
%TO.N,Net-(R7-Pad2)*%
X96393000Y-33417000D03*
%TD*%
D36*
%TO.P,J7,1,Pin_1*%
%TO.N,BOOT_MODE*%
X100711000Y-21844000D03*
D37*
%TO.P,J7,2,Pin_2*%
%TO.N,TXD*%
X103251000Y-21844000D03*
%TO.P,J7,3,Pin_3*%
%TO.N,RXD*%
X105791000Y-21844000D03*
%TO.P,J7,4,Pin_4*%
%TO.N,+3V3*%
X108331000Y-21844000D03*
%TO.P,J7,5,Pin_5*%
%TO.N,RESET*%
X110871000Y-21844000D03*
%TO.P,J7,6,Pin_6*%
%TO.N,GND*%
X113411000Y-21844000D03*
%TD*%
D34*
%TO.P,R9,1*%
%TO.N,+3V3*%
X117652800Y-27803600D03*
%TO.P,R9,2*%
%TO.N,FACTORY_RESET*%
X117652800Y-29803600D03*
%TD*%
D38*
%TO.P,SW3,1,A*%
%TO.N,FACTORY_RESET*%
X117681200Y-32879600D03*
%TO.P,SW3,2,B*%
%TO.N,GND*%
X113481200Y-32879600D03*
%TD*%
D36*
%TO.P,JP1,1,1*%
%TO.N,Net-(JP1-Pad1)*%
X107340400Y-38862000D03*
D37*
%TO.P,JP1,2,2*%
%TO.N,Net-(J5-Pad1)*%
X107340400Y-41402000D03*
%TD*%
D33*
%TO.P,R4,1*%
%TO.N,Net-(JP1-Pad1)*%
X110744000Y-38846000D03*
%TO.P,R4,2*%
%TO.N,Net-(J5-Pad2)*%
X110744000Y-36846000D03*
%TD*%
D39*
%TO.P,U1,1,GND*%
%TO.N,GND*%
X58787000Y-34646000D03*
%TO.P,U1,2,VO*%
%TO.N,+3V3*%
X61087000Y-34646000D03*
D40*
X61087000Y-28346000D03*
D39*
%TO.P,U1,3,VI*%
%TO.N,+5V*%
X63387000Y-34646000D03*
%TD*%
D27*
%TO.P,C2,1*%
%TO.N,+3V3*%
X61153000Y-25908000D03*
%TO.P,C2,2*%
%TO.N,GND*%
X63053000Y-25908000D03*
%TD*%
D41*
%TO.P,C6,1*%
%TO.N,+3V3*%
X68580000Y-34212000D03*
%TO.P,C6,2*%
%TO.N,GND*%
X68580000Y-37162000D03*
%TD*%
D26*
%TO.P,C5,1*%
%TO.N,+3V3*%
X70993000Y-34737000D03*
%TO.P,C5,2*%
%TO.N,GND*%
X70993000Y-36637000D03*
%TD*%
D42*
%TO.N,+3V3*%
X73279000Y-30734000D03*
%TO.N,B4*%
X82931000Y-38608000D03*
X86487000Y-34925000D03*
%TO.N,B3*%
X86868000Y-25400000D03*
X81407000Y-38608000D03*
%TO.N,GND*%
X83566000Y-44069000D03*
%TO.N,+5V*%
X80264000Y-43154000D03*
X84582000Y-43535000D03*
%TO.N,B2*%
X80899000Y-29337000D03*
X70358000Y-38481000D03*
%TO.N,B1*%
X78740000Y-34544000D03*
X68834000Y-38735000D03*
%TO.N,+5V*%
X67437000Y-43180000D03*
%TO.N,GND*%
X70612000Y-43815000D03*
%TO.N,+5V*%
X71882000Y-43561000D03*
%TO.N,GND*%
X102044500Y-29400500D03*
D43*
X32681333Y-21717000D03*
D42*
X113538000Y-30530800D03*
D43*
X34036000Y-23050500D03*
X33993666Y-21717000D03*
D42*
X64262000Y-23749000D03*
X64262000Y-25908000D03*
D43*
X35306000Y-21717000D03*
D42*
X89281000Y-34988500D03*
X58420000Y-36449000D03*
X98374200Y-38798500D03*
X66802000Y-37211000D03*
X49593500Y-31623000D03*
D43*
X71564500Y-21209000D03*
D42*
X98044000Y-35433000D03*
D43*
X35369500Y-23050500D03*
X32702500Y-23114000D03*
X31369000Y-21717000D03*
D42*
X58801000Y-37592000D03*
D43*
X31369000Y-23114000D03*
D42*
%TO.N,RESET*%
X78613000Y-21590000D03*
%TO.N,+3V3*%
X94932500Y-24257000D03*
%TO.N,+5V*%
X63500000Y-37719000D03*
X63881000Y-36449000D03*
X107086400Y-30988000D03*
X104978200Y-38798500D03*
%TO.N,BOOT_MODE*%
X98171000Y-26543000D03*
%TO.N,ERROR_LED*%
X73723500Y-31813500D03*
X51181000Y-33718500D03*
%TO.N,FACTORY_RESET*%
X115366800Y-29870400D03*
X93827600Y-27381200D03*
%TD*%
D44*
%TO.N,+3V3*%
X96583500Y-24590500D02*
X108505500Y-24590500D01*
X108505500Y-24590500D02*
X114439700Y-24590500D01*
X108331000Y-21844000D02*
X108331000Y-24416000D01*
X108331000Y-24416000D02*
X108505500Y-24590500D01*
X114439700Y-24590500D02*
X117652800Y-27803600D01*
X96583500Y-24590500D02*
X95266000Y-24590500D01*
X95266000Y-24590500D02*
X94932500Y-24257000D01*
X72517000Y-29972000D02*
X73215500Y-29273500D01*
X71660000Y-30829000D02*
X72517000Y-29972000D01*
X72517000Y-29972000D02*
X73279000Y-30734000D01*
X67088000Y-30829000D02*
X71660000Y-30829000D01*
X73215500Y-29273500D02*
X73215500Y-27416000D01*
D45*
%TO.N,B4*%
X86487000Y-34925000D02*
X86487000Y-30099000D01*
X79756000Y-23368000D02*
X79732000Y-23392000D01*
X82419000Y-39120000D02*
X82931000Y-38608000D01*
X82419000Y-39953000D02*
X82419000Y-39120000D01*
X86487000Y-30099000D02*
X79756000Y-23368000D01*
X79732000Y-23392000D02*
X76537500Y-23392000D01*
%TO.N,B3*%
X81919000Y-39953000D02*
X81919000Y-39120000D01*
X81919000Y-39120000D02*
X81407000Y-38608000D01*
X86868000Y-25400000D02*
X86876000Y-25392000D01*
X86876000Y-25392000D02*
X91737500Y-25392000D01*
%TO.N,+3V3*%
X81419000Y-39953000D02*
X78434000Y-39953000D01*
X78434000Y-39953000D02*
X76537500Y-38056500D01*
X76537500Y-38056500D02*
X76537500Y-35392000D01*
%TO.N,Net-(R10-Pad1)*%
X82919000Y-39953000D02*
X84413000Y-39953000D01*
X84413000Y-39953000D02*
X84582000Y-40122000D01*
%TO.N,Button3_sense*%
X81919000Y-43053000D02*
X81919000Y-47946500D01*
%TO.N,Button4_sense*%
X82419000Y-43053000D02*
X82419000Y-44573000D01*
X82419000Y-44573000D02*
X83947000Y-46101000D01*
X83947000Y-46101000D02*
X97917000Y-46101000D01*
X97917000Y-46101000D02*
X99949000Y-48133000D01*
X99949000Y-48133000D02*
X99949000Y-50736500D01*
%TO.N,GND*%
X82919000Y-43422000D02*
X83566000Y-44069000D01*
X82919000Y-43053000D02*
X82919000Y-43422000D01*
%TO.N,Button3_sense*%
X81919000Y-47946500D02*
X84709000Y-50736500D01*
%TO.N,+5V*%
X80365000Y-43053000D02*
X80264000Y-43154000D01*
X81419000Y-43053000D02*
X80365000Y-43053000D01*
X84582000Y-42122000D02*
X84582000Y-43535000D01*
%TO.N,B2*%
X80899000Y-29337000D02*
X80844000Y-29392000D01*
X80844000Y-29392000D02*
X76537500Y-29392000D01*
X69592000Y-39979000D02*
X69592000Y-39247000D01*
X69592000Y-39247000D02*
X70358000Y-38481000D01*
%TO.N,B1*%
X78740000Y-34544000D02*
X77588000Y-33392000D01*
X69092000Y-39979000D02*
X69092000Y-38993000D01*
X69092000Y-38993000D02*
X68834000Y-38735000D01*
X77588000Y-33392000D02*
X76537500Y-33392000D01*
%TO.N,+3V3*%
X68592000Y-39979000D02*
X67411000Y-39979000D01*
X65532000Y-34671000D02*
X65991000Y-34212000D01*
X67411000Y-39979000D02*
X65532000Y-38100000D01*
X65532000Y-38100000D02*
X65532000Y-34671000D01*
X65991000Y-34212000D02*
X68580000Y-34212000D01*
%TO.N,Button1_sense*%
X69092000Y-43079000D02*
X69092000Y-43779000D01*
X69092000Y-43779000D02*
X66135000Y-46736000D01*
X66135000Y-46736000D02*
X58229500Y-46736000D01*
X58229500Y-46736000D02*
X54229000Y-50736500D01*
%TO.N,Button2_sense*%
X69592000Y-43079000D02*
X69592000Y-50613500D01*
X69592000Y-50613500D02*
X69469000Y-50736500D01*
%TO.N,+5V*%
X67538000Y-43079000D02*
X67437000Y-43180000D01*
X68592000Y-43079000D02*
X67538000Y-43079000D01*
%TO.N,GND*%
X70092000Y-43295000D02*
X70612000Y-43815000D01*
X70092000Y-43079000D02*
X70092000Y-43295000D01*
%TO.N,+5V*%
X71882000Y-42148000D02*
X71882000Y-43561000D01*
%TO.N,Net-(R6-Pad1)*%
X70092000Y-39979000D02*
X71713000Y-39979000D01*
X71713000Y-39979000D02*
X71882000Y-40148000D01*
D44*
%TO.N,GND*%
X63053000Y-23749000D02*
X64262000Y-23749000D01*
X63053000Y-23749000D02*
X63053000Y-25908000D01*
X36766500Y-25844500D02*
X36892500Y-25970500D01*
D45*
X113481200Y-30587600D02*
X113538000Y-30530800D01*
X99834700Y-38797000D02*
X98375700Y-38797000D01*
D44*
X36892500Y-25208500D02*
X36258500Y-24574500D01*
D45*
X113481200Y-32879600D02*
X113481200Y-30587600D01*
X98375700Y-38797000D02*
X98374200Y-38798500D01*
X71510000Y-21263500D02*
X71564500Y-21209000D01*
D44*
X66851000Y-37162000D02*
X66802000Y-37211000D01*
D45*
X96393000Y-35417000D02*
X98028000Y-35417000D01*
D44*
X36892500Y-30797500D02*
X36892500Y-25970500D01*
X36892500Y-25970500D02*
X36892500Y-25208500D01*
X68580000Y-37162000D02*
X70468000Y-37162000D01*
X63053000Y-25908000D02*
X64262000Y-25908000D01*
D45*
X98028000Y-35417000D02*
X98044000Y-35433000D01*
X51281000Y-31623000D02*
X49593500Y-31623000D01*
D46*
X39031000Y-30797500D02*
X36892500Y-30797500D01*
D44*
X70993000Y-36637000D02*
X73279000Y-36637000D01*
X36258500Y-24574500D02*
X34799500Y-24574500D01*
D45*
X100779000Y-29400500D02*
X102044500Y-29400500D01*
X91737500Y-35392000D02*
X96368000Y-35392000D01*
X69088000Y-21263500D02*
X71510000Y-21263500D01*
D44*
X68580000Y-37162000D02*
X66851000Y-37162000D01*
D45*
X91737500Y-35392000D02*
X89684500Y-35392000D01*
D44*
X70468000Y-37162000D02*
X70993000Y-36637000D01*
X34799500Y-25844500D02*
X36766500Y-25844500D01*
D45*
X89684500Y-35392000D02*
X89281000Y-34988500D01*
X96368000Y-35392000D02*
X96393000Y-35417000D01*
D44*
%TO.N,VCC*%
X31940500Y-26882000D02*
X27347000Y-26882000D01*
X34799500Y-27114500D02*
X32173000Y-27114500D01*
X32173000Y-27114500D02*
X31940500Y-26882000D01*
X25209500Y-37956500D02*
X26305500Y-37956500D01*
X26305500Y-37956500D02*
X27114500Y-37147500D01*
X27347000Y-26882000D02*
X27114500Y-27114500D01*
X27114500Y-37147500D02*
X27114500Y-27114500D01*
%TO.N,Net-(D6-Pad1)*%
X34799500Y-28384500D02*
X34799500Y-29590500D01*
X34799500Y-29590500D02*
X33592500Y-30797500D01*
X33592500Y-35707500D02*
X33762500Y-35877500D01*
X33592500Y-30797500D02*
X33592500Y-35707500D01*
D45*
%TO.N,RESET*%
X76735500Y-21590000D02*
X76537500Y-21392000D01*
X73088500Y-21463000D02*
X76466500Y-21463000D01*
X69088000Y-28956000D02*
X69088000Y-25463500D01*
X69088000Y-25463500D02*
X73088500Y-21463000D01*
X76466500Y-21463000D02*
X76537500Y-21392000D01*
X78613000Y-21590000D02*
X76735500Y-21590000D01*
D44*
%TO.N,+3V3*%
X61087000Y-28346000D02*
X61087000Y-34646000D01*
X70993000Y-34737000D02*
X73279000Y-34737000D01*
X68580000Y-34212000D02*
X70468000Y-34212000D01*
X61087000Y-25974000D02*
X61153000Y-25908000D01*
X75882500Y-34737000D02*
X76537500Y-35392000D01*
X73279000Y-34737000D02*
X75882500Y-34737000D01*
X66478000Y-28346000D02*
X67088000Y-28956000D01*
X61087000Y-28346000D02*
X61087000Y-25974000D01*
X61153000Y-25908000D02*
X61153000Y-23749000D01*
X67088000Y-32720000D02*
X68580000Y-34212000D01*
X70468000Y-34212000D02*
X70993000Y-34737000D01*
X67088000Y-30829000D02*
X67088000Y-32720000D01*
X67088000Y-28956000D02*
X67088000Y-30829000D01*
X61087000Y-28346000D02*
X66478000Y-28346000D01*
D45*
%TO.N,+5V*%
X104976700Y-38797000D02*
X104978200Y-38798500D01*
D44*
X43751500Y-24511000D02*
X43751500Y-29972000D01*
X43751500Y-24511000D02*
X39813000Y-24511000D01*
X39370000Y-35877500D02*
X41106000Y-34141500D01*
X42926000Y-30797500D02*
X41106000Y-30797500D01*
X41106000Y-34141500D02*
X41106000Y-30797500D01*
D45*
X107073700Y-31000700D02*
X107086400Y-30988000D01*
D44*
X43751500Y-29972000D02*
X42926000Y-30797500D01*
D45*
X103644700Y-38797000D02*
X104976700Y-38797000D01*
D44*
X39813000Y-24511000D02*
X39749500Y-24574500D01*
D45*
X105625900Y-31000700D02*
X107073700Y-31000700D01*
D44*
X39262500Y-35877500D02*
X39370000Y-35877500D01*
D45*
%TO.N,Net-(J5-Pad1)*%
X109893100Y-43954700D02*
X107340400Y-41402000D01*
X107340400Y-41402000D02*
X101752400Y-41402000D01*
X101752400Y-41402000D02*
X101104700Y-40754300D01*
X101104700Y-40754300D02*
X101104700Y-38797000D01*
X115684300Y-43954700D02*
X109893100Y-43954700D01*
%TO.N,Net-(J5-Pad2)*%
X102374700Y-37426900D02*
X102955600Y-36846000D01*
X102955600Y-36846000D02*
X110744000Y-36846000D01*
X113960400Y-36846000D02*
X110744000Y-36846000D01*
X115684300Y-38569900D02*
X113960400Y-36846000D01*
X102374700Y-38797000D02*
X102374700Y-37426900D01*
X115684300Y-41454700D02*
X115684300Y-38569900D01*
%TO.N,Net-(R1-Pad1)*%
X102374700Y-33847000D02*
X102374700Y-32251900D01*
X101104700Y-33847000D02*
X101104700Y-31991300D01*
X101104700Y-31991300D02*
X102095300Y-31000700D01*
X102095300Y-31000700D02*
X103625900Y-31000700D01*
X102374700Y-32251900D02*
X103625900Y-31000700D01*
%TO.N,Net-(R2-Pad2)*%
X73215500Y-25416000D02*
X76513500Y-25416000D01*
X76513500Y-25416000D02*
X76537500Y-25392000D01*
%TO.N,Net-(R7-Pad2)*%
X91737500Y-33392000D02*
X96368000Y-33392000D01*
X96368000Y-33392000D02*
X96393000Y-33417000D01*
%TO.N,BOOT_MODE*%
X96583500Y-26590500D02*
X98123500Y-26590500D01*
X96570500Y-29392000D02*
X96579000Y-29400500D01*
X96579000Y-26595000D02*
X96583500Y-26590500D01*
X91737500Y-29392000D02*
X96570500Y-29392000D01*
X98123500Y-26590500D02*
X98171000Y-26543000D01*
X96579000Y-29400500D02*
X96579000Y-26595000D01*
%TO.N,RXD*%
X91737500Y-23392000D02*
X104243000Y-23392000D01*
X104243000Y-23392000D02*
X105791000Y-21844000D01*
%TO.N,TXD*%
X103251000Y-21844000D02*
X101981000Y-20574000D01*
X92555500Y-20574000D02*
X91737500Y-21392000D01*
X101981000Y-20574000D02*
X92555500Y-20574000D01*
%TO.N,Net-(D1-Pad2)*%
X54256000Y-35749500D02*
X54255000Y-35750500D01*
X54256000Y-31623000D02*
X54256000Y-35749500D01*
%TO.N,ERROR_LED*%
X76537500Y-31392000D02*
X74145000Y-31392000D01*
X51155000Y-35750500D02*
X51155000Y-33744500D01*
X74145000Y-31392000D02*
X73723500Y-31813500D01*
X51155000Y-33744500D02*
X51181000Y-33718500D01*
%TO.N,FACTORY_RESET*%
X117652800Y-32851200D02*
X117681200Y-32879600D01*
X117586000Y-29870400D02*
X117652800Y-29803600D01*
X115366800Y-29870400D02*
X117586000Y-29870400D01*
X117652800Y-29803600D02*
X117652800Y-32851200D01*
X91737500Y-27392000D02*
X93816800Y-27392000D01*
X93816800Y-27392000D02*
X93827600Y-27381200D01*
%TO.N,RS485_DIN*%
X99834700Y-32575500D02*
X98651200Y-31392000D01*
X99834700Y-33847000D02*
X99834700Y-32575500D01*
X98651200Y-31392000D02*
X91737500Y-31392000D01*
%TO.N,Net-(JP1-Pad1)*%
X110744000Y-38846000D02*
X107356400Y-38846000D01*
X107356400Y-38846000D02*
X107340400Y-38862000D01*
%TD*%
%TA.AperFunction,Conductor*%
%TO.N,GND*%
G36*
X36137121Y-20721002D02*
G01*
X36183614Y-20774658D01*
X36195000Y-20827000D01*
X36195000Y-23776534D01*
X36174998Y-23844655D01*
X36121342Y-23891148D01*
X36051068Y-23901252D01*
X36004861Y-23884988D01*
X35894721Y-23819852D01*
X35880290Y-23813607D01*
X35734435Y-23771231D01*
X35721833Y-23768930D01*
X35693416Y-23766693D01*
X35688486Y-23766500D01*
X35071615Y-23766500D01*
X35056376Y-23770975D01*
X35055171Y-23772365D01*
X35053500Y-23780048D01*
X35053500Y-25908000D01*
X33028223Y-25908000D01*
X32960102Y-25887998D01*
X32913609Y-25834342D01*
X32903505Y-25764068D01*
X32932999Y-25699488D01*
X32939050Y-25692982D01*
X33009239Y-25622671D01*
X33018253Y-25611257D01*
X33091260Y-25492817D01*
X33144032Y-25445323D01*
X33214103Y-25433899D01*
X33279227Y-25462173D01*
X33318727Y-25521167D01*
X33324519Y-25558571D01*
X33324601Y-25587206D01*
X33331870Y-25590500D01*
X34527385Y-25590500D01*
X34542624Y-25586025D01*
X34543829Y-25584635D01*
X34545500Y-25576952D01*
X34545500Y-23784616D01*
X34541025Y-23769377D01*
X34539635Y-23768172D01*
X34531952Y-23766501D01*
X33910517Y-23766501D01*
X33905580Y-23766695D01*
X33877164Y-23768930D01*
X33864569Y-23771230D01*
X33718710Y-23813607D01*
X33704279Y-23819852D01*
X33574822Y-23896411D01*
X33562396Y-23906051D01*
X33456051Y-24012396D01*
X33446411Y-24024822D01*
X33369852Y-24154279D01*
X33363605Y-24168714D01*
X33360225Y-24180348D01*
X33322011Y-24240182D01*
X33257514Y-24269858D01*
X33187211Y-24259953D01*
X33133424Y-24213613D01*
X33119705Y-24185067D01*
X33108913Y-24152718D01*
X33102739Y-24139538D01*
X33017437Y-24001693D01*
X33008401Y-23990292D01*
X32893671Y-23875761D01*
X32882260Y-23866749D01*
X32744257Y-23781684D01*
X32731076Y-23775537D01*
X32576790Y-23724362D01*
X32563414Y-23721495D01*
X32469062Y-23711828D01*
X32462645Y-23711500D01*
X32212615Y-23711500D01*
X32197376Y-23715975D01*
X32196171Y-23717365D01*
X32194500Y-23725048D01*
X32194500Y-24935000D01*
X32174498Y-25003121D01*
X32120842Y-25049614D01*
X32068500Y-25061000D01*
X30725616Y-25061000D01*
X30710377Y-25065475D01*
X30709172Y-25066865D01*
X30707501Y-25074548D01*
X30707501Y-25191595D01*
X30707838Y-25198114D01*
X30717757Y-25293706D01*
X30720649Y-25307100D01*
X30772088Y-25461284D01*
X30778261Y-25474462D01*
X30863563Y-25612307D01*
X30872599Y-25623708D01*
X30941838Y-25692827D01*
X30975917Y-25755110D01*
X30970914Y-25825930D01*
X30928416Y-25882803D01*
X30861918Y-25907671D01*
X30852820Y-25908000D01*
X30479000Y-25908000D01*
X30410879Y-25887998D01*
X30364386Y-25834342D01*
X30353000Y-25782000D01*
X30353000Y-24534885D01*
X30707500Y-24534885D01*
X30711975Y-24550124D01*
X30713365Y-24551329D01*
X30721048Y-24553000D01*
X31668385Y-24553000D01*
X31683624Y-24548525D01*
X31684829Y-24547135D01*
X31686500Y-24539452D01*
X31686500Y-23729616D01*
X31682025Y-23714377D01*
X31680635Y-23713172D01*
X31672952Y-23711501D01*
X31418405Y-23711501D01*
X31411886Y-23711838D01*
X31316294Y-23721757D01*
X31302900Y-23724649D01*
X31148716Y-23776088D01*
X31135538Y-23782261D01*
X30997693Y-23867563D01*
X30986292Y-23876599D01*
X30871761Y-23991329D01*
X30862749Y-24002740D01*
X30777684Y-24140743D01*
X30771537Y-24153924D01*
X30720362Y-24308210D01*
X30717495Y-24321586D01*
X30707828Y-24415938D01*
X30707500Y-24422355D01*
X30707500Y-24534885D01*
X30353000Y-24534885D01*
X30353000Y-20827000D01*
X30373002Y-20758879D01*
X30426658Y-20712386D01*
X30479000Y-20701000D01*
X36069000Y-20701000D01*
X36137121Y-20721002D01*
G37*
%TD.AperFunction*%
%TD*%
%TA.AperFunction,Conductor*%
%TO.N,+5V*%
G36*
X63583121Y-34412002D02*
G01*
X63629614Y-34465658D01*
X63641000Y-34518000D01*
X63641000Y-36135884D01*
X63645475Y-36151123D01*
X63646865Y-36152328D01*
X63654548Y-36153999D01*
X64181669Y-36153999D01*
X64188490Y-36153629D01*
X64239352Y-36148105D01*
X64254604Y-36144479D01*
X64375054Y-36099324D01*
X64390649Y-36090786D01*
X64441435Y-36052724D01*
X64507942Y-36027876D01*
X64577324Y-36042929D01*
X64627554Y-36093104D01*
X64643000Y-36153550D01*
X64643000Y-38228000D01*
X64622998Y-38296121D01*
X64569342Y-38342614D01*
X64517000Y-38354000D01*
X63117885Y-38354000D01*
X63049764Y-38333998D01*
X63003271Y-38280342D01*
X62993167Y-38210068D01*
X63014645Y-38160060D01*
X63012910Y-38158991D01*
X63101816Y-38014757D01*
X63107963Y-38001576D01*
X63159138Y-37847290D01*
X63162005Y-37833914D01*
X63171672Y-37739562D01*
X63172000Y-37733146D01*
X63172000Y-37483115D01*
X63167525Y-37467876D01*
X63166135Y-37466671D01*
X63158452Y-37465000D01*
X62036000Y-37465000D01*
X61967879Y-37444998D01*
X61921386Y-37391342D01*
X61910000Y-37339000D01*
X61910000Y-37083000D01*
X61930002Y-37014879D01*
X61983658Y-36968386D01*
X62036000Y-36957000D01*
X63153884Y-36957000D01*
X63169123Y-36952525D01*
X63170328Y-36951135D01*
X63171999Y-36943452D01*
X63171999Y-36688905D01*
X63171662Y-36682386D01*
X63161743Y-36586794D01*
X63158851Y-36573400D01*
X63107412Y-36419216D01*
X63101239Y-36406038D01*
X63058366Y-36336757D01*
X63039528Y-36268305D01*
X63060689Y-36200536D01*
X63115130Y-36154964D01*
X63130013Y-36149558D01*
X63130124Y-36149525D01*
X63131329Y-36148135D01*
X63133000Y-36140452D01*
X63133000Y-34518000D01*
X63153002Y-34449879D01*
X63206658Y-34403386D01*
X63259000Y-34392000D01*
X63515000Y-34392000D01*
X63583121Y-34412002D01*
G37*
%TD.AperFunction*%
%TD*%
%TA.AperFunction,Conductor*%
%TO.N,GND*%
G36*
X58983121Y-34412002D02*
G01*
X59029614Y-34465658D01*
X59041000Y-34518000D01*
X59041000Y-36135884D01*
X59045475Y-36151123D01*
X59046865Y-36152328D01*
X59054548Y-36153999D01*
X59256603Y-36153999D01*
X59324724Y-36174001D01*
X59371217Y-36227657D01*
X59381321Y-36297931D01*
X59363863Y-36346115D01*
X59326184Y-36407243D01*
X59320037Y-36420424D01*
X59268862Y-36574710D01*
X59265995Y-36588086D01*
X59256328Y-36682438D01*
X59256000Y-36688855D01*
X59256000Y-36938885D01*
X59260475Y-36954124D01*
X59261865Y-36955329D01*
X59269548Y-36957000D01*
X60392000Y-36957000D01*
X60460121Y-36977002D01*
X60506614Y-37030658D01*
X60518000Y-37083000D01*
X60518000Y-37339000D01*
X60497998Y-37407121D01*
X60444342Y-37453614D01*
X60392000Y-37465000D01*
X59274116Y-37465000D01*
X59258877Y-37469475D01*
X59257672Y-37470865D01*
X59256001Y-37478548D01*
X59256001Y-37733095D01*
X59256338Y-37739614D01*
X59266257Y-37835206D01*
X59269149Y-37848600D01*
X59320588Y-38002784D01*
X59326761Y-38015962D01*
X59415917Y-38160035D01*
X59413590Y-38161475D01*
X59435474Y-38215559D01*
X59422296Y-38285321D01*
X59373494Y-38336885D01*
X59310090Y-38354000D01*
X57657000Y-38354000D01*
X57588879Y-38333998D01*
X57542386Y-38280342D01*
X57531000Y-38228000D01*
X57531000Y-36153550D01*
X57551002Y-36085429D01*
X57604658Y-36038936D01*
X57674932Y-36028832D01*
X57732565Y-36052724D01*
X57783351Y-36090786D01*
X57798946Y-36099324D01*
X57919394Y-36144478D01*
X57934649Y-36148105D01*
X57985514Y-36153631D01*
X57992328Y-36154000D01*
X58514885Y-36154000D01*
X58530124Y-36149525D01*
X58531329Y-36148135D01*
X58533000Y-36140452D01*
X58533000Y-34518000D01*
X58553002Y-34449879D01*
X58606658Y-34403386D01*
X58659000Y-34392000D01*
X58915000Y-34392000D01*
X58983121Y-34412002D01*
G37*
%TD.AperFunction*%
%TD*%
M02*
