%TF.GenerationSoftware,KiCad,Pcbnew,(6.0.8)*%
%TF.CreationDate,2022-10-05T23:25:23+02:00*%
%TF.ProjectId,DMX_ControllerBoard,444d585f-436f-46e7-9472-6f6c6c657242,rev?*%
%TF.SameCoordinates,Original*%
%TF.FileFunction,Copper,L3,Inr*%
%TF.FilePolarity,Positive*%
%FSLAX46Y46*%
G04 Gerber Fmt 4.6, Leading zero omitted, Abs format (unit mm)*
G04 Created by KiCad (PCBNEW (6.0.8)) date 2022-10-05 23:25:23*
%MOMM*%
%LPD*%
G01*
G04 APERTURE LIST*
G04 Aperture macros list*
%AMRoundRect*
0 Rectangle with rounded corners*
0 $1 Rounding radius*
0 $2 $3 $4 $5 $6 $7 $8 $9 X,Y pos of 4 corners*
0 Add a 4 corners polygon primitive as box body*
4,1,4,$2,$3,$4,$5,$6,$7,$8,$9,$2,$3,0*
0 Add four circle primitives for the rounded corners*
1,1,$1+$1,$2,$3*
1,1,$1+$1,$4,$5*
1,1,$1+$1,$6,$7*
1,1,$1+$1,$8,$9*
0 Add four rect primitives between the rounded corners*
20,1,$1+$1,$2,$3,$4,$5,0*
20,1,$1+$1,$4,$5,$6,$7,0*
20,1,$1+$1,$6,$7,$8,$9,0*
20,1,$1+$1,$8,$9,$2,$3,0*%
G04 Aperture macros list end*
%TA.AperFunction,ComponentPad*%
%ADD10R,1.600000X1.600000*%
%TD*%
%TA.AperFunction,ComponentPad*%
%ADD11C,1.600000*%
%TD*%
%TA.AperFunction,ComponentPad*%
%ADD12R,2.600000X2.600000*%
%TD*%
%TA.AperFunction,ComponentPad*%
%ADD13C,2.600000*%
%TD*%
%TA.AperFunction,ComponentPad*%
%ADD14RoundRect,0.250000X0.750000X-0.600000X0.750000X0.600000X-0.750000X0.600000X-0.750000X-0.600000X0*%
%TD*%
%TA.AperFunction,ComponentPad*%
%ADD15O,2.000000X1.700000*%
%TD*%
%TA.AperFunction,ComponentPad*%
%ADD16R,1.700000X1.700000*%
%TD*%
%TA.AperFunction,ComponentPad*%
%ADD17O,1.700000X1.700000*%
%TD*%
%TA.AperFunction,ViaPad*%
%ADD18C,0.800000*%
%TD*%
%TA.AperFunction,ViaPad*%
%ADD19C,1.000000*%
%TD*%
G04 APERTURE END LIST*
D10*
%TO.N,VCC*%
%TO.C,C8*%
X27114500Y-27114500D03*
D11*
%TO.N,GND*%
X27114500Y-24614500D03*
%TD*%
D10*
%TO.N,+5V*%
%TO.C,C12*%
X43751500Y-24511000D03*
D11*
%TO.N,GND*%
X47251500Y-24511000D03*
%TD*%
D12*
%TO.N,GND*%
%TO.C,J3*%
X25209500Y-32956500D03*
D13*
%TO.N,VCC*%
X25209500Y-37956500D03*
%TD*%
D14*
%TO.N,Net-(J5-Pad1)*%
%TO.C,J5*%
X115684300Y-43954700D03*
D15*
%TO.N,Net-(J5-Pad2)*%
X115684300Y-41454700D03*
%TD*%
D12*
%TO.N,+5V*%
%TO.C,J1*%
X44069000Y-50736500D03*
D13*
%TO.N,GND*%
X49149000Y-50736500D03*
%TO.N,Button1_sense*%
X54229000Y-50736500D03*
%TD*%
D12*
%TO.N,+5V*%
%TO.C,J2*%
X59309000Y-50736500D03*
D13*
%TO.N,GND*%
X64389000Y-50736500D03*
%TO.N,Button2_sense*%
X69469000Y-50736500D03*
%TD*%
D12*
%TO.N,+5V*%
%TO.C,J4*%
X74549000Y-50736500D03*
D13*
%TO.N,GND*%
X79629000Y-50736500D03*
%TO.N,Button3_sense*%
X84709000Y-50736500D03*
%TD*%
D12*
%TO.N,+5V*%
%TO.C,J6*%
X89789000Y-50736500D03*
D13*
%TO.N,GND*%
X94869000Y-50736500D03*
%TO.N,Button4_sense*%
X99949000Y-50736500D03*
%TD*%
D16*
%TO.N,BOOT_MODE*%
%TO.C,J7*%
X100711000Y-21844000D03*
D17*
%TO.N,TXD*%
X103251000Y-21844000D03*
%TO.N,RXD*%
X105791000Y-21844000D03*
%TO.N,+3V3*%
X108331000Y-21844000D03*
%TO.N,RESET*%
X110871000Y-21844000D03*
%TO.N,GND*%
X113411000Y-21844000D03*
%TD*%
D16*
%TO.N,Net-(JP1-Pad1)*%
%TO.C,JP1*%
X107340400Y-38862000D03*
D17*
%TO.N,Net-(J5-Pad1)*%
X107340400Y-41402000D03*
%TD*%
D18*
%TO.N,+3V3*%
X73279000Y-30734000D03*
%TO.N,B4*%
X82931000Y-38608000D03*
X86487000Y-34925000D03*
%TO.N,B3*%
X86868000Y-25400000D03*
X81407000Y-38608000D03*
%TO.N,GND*%
X83566000Y-44069000D03*
%TO.N,+5V*%
X80264000Y-43154000D03*
X84582000Y-43535000D03*
%TO.N,B2*%
X80899000Y-29337000D03*
X70358000Y-38481000D03*
%TO.N,B1*%
X78740000Y-34544000D03*
X68834000Y-38735000D03*
%TO.N,+5V*%
X67437000Y-43180000D03*
%TO.N,GND*%
X70612000Y-43815000D03*
%TO.N,+5V*%
X71882000Y-43561000D03*
%TO.N,GND*%
X102044500Y-29400500D03*
D19*
X32681333Y-21717000D03*
D18*
X113538000Y-30530800D03*
D19*
X34036000Y-23050500D03*
X33993666Y-21717000D03*
D18*
X64262000Y-23749000D03*
X64262000Y-25908000D03*
D19*
X35306000Y-21717000D03*
D18*
X89281000Y-34988500D03*
X58420000Y-36449000D03*
X98374200Y-38798500D03*
X66802000Y-37211000D03*
X49593500Y-31623000D03*
D19*
X71564500Y-21209000D03*
D18*
X98044000Y-35433000D03*
D19*
X35369500Y-23050500D03*
X32702500Y-23114000D03*
X31369000Y-21717000D03*
D18*
X58801000Y-37592000D03*
D19*
X31369000Y-23114000D03*
D18*
%TO.N,RESET*%
X78613000Y-21590000D03*
%TO.N,+3V3*%
X94932500Y-24257000D03*
%TO.N,+5V*%
X63500000Y-37719000D03*
X63881000Y-36449000D03*
X107086400Y-30988000D03*
X104978200Y-38798500D03*
%TO.N,BOOT_MODE*%
X98171000Y-26543000D03*
%TO.N,ERROR_LED*%
X73723500Y-31813500D03*
X51181000Y-33718500D03*
%TO.N,FACTORY_RESET*%
X115366800Y-29870400D03*
X93827600Y-27381200D03*
%TD*%
%TA.AperFunction,Conductor*%
%TO.N,+5V*%
G36*
X118065018Y-20509960D02*
G01*
X118079851Y-20512270D01*
X118079855Y-20512270D01*
X118088724Y-20513651D01*
X118102789Y-20511812D01*
X118129004Y-20511136D01*
X118303580Y-20524875D01*
X118323106Y-20527968D01*
X118516913Y-20574496D01*
X118535708Y-20580604D01*
X118709035Y-20652397D01*
X118719846Y-20656875D01*
X118737462Y-20665851D01*
X118818660Y-20715608D01*
X118907406Y-20769991D01*
X118923388Y-20781601D01*
X119070508Y-20907251D01*
X119074954Y-20911048D01*
X119088932Y-20925026D01*
X119218380Y-21076586D01*
X119229991Y-21092568D01*
X119261276Y-21143618D01*
X119334136Y-21262512D01*
X119343112Y-21280128D01*
X119419386Y-21464262D01*
X119425496Y-21483066D01*
X119472027Y-21676867D01*
X119475120Y-21696394D01*
X119481180Y-21773365D01*
X119482717Y-21792888D01*
X119488298Y-21863786D01*
X119487650Y-21880849D01*
X119487800Y-21880851D01*
X119487691Y-21889820D01*
X119486309Y-21898695D01*
X119488775Y-21917552D01*
X119490435Y-21930244D01*
X119491499Y-21946583D01*
X119491413Y-33752882D01*
X119491261Y-54807628D01*
X119489761Y-54827013D01*
X119487450Y-54841851D01*
X119487450Y-54841856D01*
X119486069Y-54850724D01*
X119487908Y-54864789D01*
X119488584Y-54891007D01*
X119474845Y-55065572D01*
X119471752Y-55085100D01*
X119425225Y-55278897D01*
X119419114Y-55297702D01*
X119342847Y-55481823D01*
X119333871Y-55499440D01*
X119229732Y-55669376D01*
X119218110Y-55685371D01*
X119088677Y-55836915D01*
X119074696Y-55850896D01*
X118923147Y-55980328D01*
X118907152Y-55991949D01*
X118738189Y-56095487D01*
X118737213Y-56096085D01*
X118719600Y-56105059D01*
X118585264Y-56160700D01*
X118535470Y-56181325D01*
X118516664Y-56187435D01*
X118322874Y-56233955D01*
X118303347Y-56237048D01*
X118135614Y-56250246D01*
X118118893Y-56249611D01*
X118118891Y-56249801D01*
X118109921Y-56249691D01*
X118101047Y-56248309D01*
X118092144Y-56249473D01*
X118092137Y-56249473D01*
X118069477Y-56252436D01*
X118053141Y-56253500D01*
X74130053Y-56253217D01*
X21954326Y-56252880D01*
X21934943Y-56251380D01*
X21920109Y-56249070D01*
X21920106Y-56249070D01*
X21911236Y-56247689D01*
X21897171Y-56249528D01*
X21870956Y-56250204D01*
X21737849Y-56239728D01*
X21696386Y-56236465D01*
X21676857Y-56233372D01*
X21483057Y-56186844D01*
X21464254Y-56180734D01*
X21280120Y-56104464D01*
X21262503Y-56095487D01*
X21092573Y-55991353D01*
X21076578Y-55979732D01*
X20925026Y-55850295D01*
X20911045Y-55836314D01*
X20781608Y-55684762D01*
X20769987Y-55668767D01*
X20665853Y-55498837D01*
X20656876Y-55481220D01*
X20580606Y-55297086D01*
X20574496Y-55278283D01*
X20527968Y-55084483D01*
X20524875Y-55064954D01*
X20511969Y-54900963D01*
X20512954Y-54878638D01*
X20512294Y-54878579D01*
X20512729Y-54873731D01*
X20513536Y-54868932D01*
X20513689Y-54856380D01*
X20509733Y-54828756D01*
X20508460Y-54810894D01*
X20508460Y-52253503D01*
X21715943Y-52253503D01*
X21716502Y-52257747D01*
X21716502Y-52257751D01*
X21727685Y-52342695D01*
X21753468Y-52538534D01*
X21754601Y-52542674D01*
X21754601Y-52542676D01*
X21754999Y-52544131D01*
X21829329Y-52815836D01*
X21942123Y-53080276D01*
X22089761Y-53326961D01*
X22269513Y-53551328D01*
X22478051Y-53749223D01*
X22711517Y-53916986D01*
X22715312Y-53918995D01*
X22715313Y-53918996D01*
X22737069Y-53930515D01*
X22965592Y-54051512D01*
X23235573Y-54150311D01*
X23516464Y-54211555D01*
X23545041Y-54213804D01*
X23739482Y-54229107D01*
X23739491Y-54229107D01*
X23741939Y-54229300D01*
X23897471Y-54229300D01*
X23899607Y-54229154D01*
X23899618Y-54229154D01*
X24107748Y-54214965D01*
X24107754Y-54214964D01*
X24112025Y-54214673D01*
X24116220Y-54213804D01*
X24116222Y-54213804D01*
X24252784Y-54185523D01*
X24393542Y-54156374D01*
X24664543Y-54060407D01*
X24920012Y-53928550D01*
X24923513Y-53926089D01*
X24923517Y-53926087D01*
X25037618Y-53845895D01*
X25155223Y-53763241D01*
X25365822Y-53567540D01*
X25547913Y-53345068D01*
X25698127Y-53099942D01*
X25813683Y-52836698D01*
X25892444Y-52560206D01*
X25932951Y-52275584D01*
X25933045Y-52257751D01*
X25933970Y-52081169D01*
X42261001Y-52081169D01*
X42261371Y-52087990D01*
X42266895Y-52138852D01*
X42270521Y-52154104D01*
X42315676Y-52274554D01*
X42324214Y-52290149D01*
X42400715Y-52392224D01*
X42413276Y-52404785D01*
X42515351Y-52481286D01*
X42530946Y-52489824D01*
X42651394Y-52534978D01*
X42666649Y-52538605D01*
X42717514Y-52544131D01*
X42724328Y-52544500D01*
X43796885Y-52544500D01*
X43812124Y-52540025D01*
X43813329Y-52538635D01*
X43815000Y-52530952D01*
X43815000Y-52526384D01*
X44323000Y-52526384D01*
X44327475Y-52541623D01*
X44328865Y-52542828D01*
X44336548Y-52544499D01*
X45413669Y-52544499D01*
X45420490Y-52544129D01*
X45471352Y-52538605D01*
X45486604Y-52534979D01*
X45607054Y-52489824D01*
X45622649Y-52481286D01*
X45724724Y-52404785D01*
X45737285Y-52392224D01*
X45813786Y-52290149D01*
X45822324Y-52274554D01*
X45867478Y-52154106D01*
X45871105Y-52138851D01*
X45876631Y-52087986D01*
X45877000Y-52081172D01*
X45877000Y-51008615D01*
X45872525Y-50993376D01*
X45871135Y-50992171D01*
X45863452Y-50990500D01*
X44341115Y-50990500D01*
X44325876Y-50994975D01*
X44324671Y-50996365D01*
X44323000Y-51004048D01*
X44323000Y-52526384D01*
X43815000Y-52526384D01*
X43815000Y-51008615D01*
X43810525Y-50993376D01*
X43809135Y-50992171D01*
X43801452Y-50990500D01*
X42279116Y-50990500D01*
X42263877Y-50994975D01*
X42262672Y-50996365D01*
X42261001Y-51004048D01*
X42261001Y-52081169D01*
X25933970Y-52081169D01*
X25934435Y-51992383D01*
X25934435Y-51992376D01*
X25934457Y-51988097D01*
X25925831Y-51922572D01*
X25897492Y-51707322D01*
X25896932Y-51703066D01*
X25821071Y-51425764D01*
X25789725Y-51352275D01*
X25709963Y-51165276D01*
X25709961Y-51165272D01*
X25708277Y-51161324D01*
X25560639Y-50914639D01*
X25380887Y-50690272D01*
X25379574Y-50689026D01*
X47336050Y-50689026D01*
X47348947Y-50957519D01*
X47401388Y-51221156D01*
X47492220Y-51474146D01*
X47619450Y-51710931D01*
X47622241Y-51714668D01*
X47622245Y-51714675D01*
X47703887Y-51824006D01*
X47780281Y-51926310D01*
X47783590Y-51929590D01*
X47783595Y-51929596D01*
X47943374Y-52087986D01*
X47971180Y-52115550D01*
X47974942Y-52118308D01*
X47974945Y-52118311D01*
X48087299Y-52200692D01*
X48187954Y-52274495D01*
X48192089Y-52276671D01*
X48192093Y-52276673D01*
X48411718Y-52392224D01*
X48425840Y-52399654D01*
X48679613Y-52488275D01*
X48684206Y-52489147D01*
X48939109Y-52537542D01*
X48939112Y-52537542D01*
X48943698Y-52538413D01*
X49071370Y-52543429D01*
X49207625Y-52548783D01*
X49207630Y-52548783D01*
X49212293Y-52548966D01*
X49316607Y-52537542D01*
X49474844Y-52520213D01*
X49474850Y-52520212D01*
X49479497Y-52519703D01*
X49592985Y-52489824D01*
X49734918Y-52452456D01*
X49734920Y-52452455D01*
X49739441Y-52451265D01*
X49847626Y-52404785D01*
X49982120Y-52347002D01*
X49982122Y-52347001D01*
X49986414Y-52345157D01*
X50127661Y-52257751D01*
X50211017Y-52206169D01*
X50211021Y-52206166D01*
X50214990Y-52203710D01*
X50420149Y-52030030D01*
X50597382Y-51827934D01*
X50742797Y-51601861D01*
X50853199Y-51356778D01*
X50890209Y-51225551D01*
X50924893Y-51102572D01*
X50924894Y-51102569D01*
X50926163Y-51098068D01*
X50944043Y-50957519D01*
X50959688Y-50834545D01*
X50959688Y-50834541D01*
X50960086Y-50831415D01*
X50962571Y-50736500D01*
X50959043Y-50689026D01*
X52416050Y-50689026D01*
X52428947Y-50957519D01*
X52481388Y-51221156D01*
X52572220Y-51474146D01*
X52699450Y-51710931D01*
X52702241Y-51714668D01*
X52702245Y-51714675D01*
X52783887Y-51824006D01*
X52860281Y-51926310D01*
X52863590Y-51929590D01*
X52863595Y-51929596D01*
X53023374Y-52087986D01*
X53051180Y-52115550D01*
X53054942Y-52118308D01*
X53054945Y-52118311D01*
X53167299Y-52200692D01*
X53267954Y-52274495D01*
X53272089Y-52276671D01*
X53272093Y-52276673D01*
X53491718Y-52392224D01*
X53505840Y-52399654D01*
X53759613Y-52488275D01*
X53764206Y-52489147D01*
X54019109Y-52537542D01*
X54019112Y-52537542D01*
X54023698Y-52538413D01*
X54151370Y-52543429D01*
X54287625Y-52548783D01*
X54287630Y-52548783D01*
X54292293Y-52548966D01*
X54396607Y-52537542D01*
X54554844Y-52520213D01*
X54554850Y-52520212D01*
X54559497Y-52519703D01*
X54672985Y-52489824D01*
X54814918Y-52452456D01*
X54814920Y-52452455D01*
X54819441Y-52451265D01*
X54927626Y-52404785D01*
X55062120Y-52347002D01*
X55062122Y-52347001D01*
X55066414Y-52345157D01*
X55207661Y-52257751D01*
X55291017Y-52206169D01*
X55291021Y-52206166D01*
X55294990Y-52203710D01*
X55439741Y-52081169D01*
X57501001Y-52081169D01*
X57501371Y-52087990D01*
X57506895Y-52138852D01*
X57510521Y-52154104D01*
X57555676Y-52274554D01*
X57564214Y-52290149D01*
X57640715Y-52392224D01*
X57653276Y-52404785D01*
X57755351Y-52481286D01*
X57770946Y-52489824D01*
X57891394Y-52534978D01*
X57906649Y-52538605D01*
X57957514Y-52544131D01*
X57964328Y-52544500D01*
X59036885Y-52544500D01*
X59052124Y-52540025D01*
X59053329Y-52538635D01*
X59055000Y-52530952D01*
X59055000Y-52526384D01*
X59563000Y-52526384D01*
X59567475Y-52541623D01*
X59568865Y-52542828D01*
X59576548Y-52544499D01*
X60653669Y-52544499D01*
X60660490Y-52544129D01*
X60711352Y-52538605D01*
X60726604Y-52534979D01*
X60847054Y-52489824D01*
X60862649Y-52481286D01*
X60964724Y-52404785D01*
X60977285Y-52392224D01*
X61053786Y-52290149D01*
X61062324Y-52274554D01*
X61107478Y-52154106D01*
X61111105Y-52138851D01*
X61116631Y-52087986D01*
X61117000Y-52081172D01*
X61117000Y-51008615D01*
X61112525Y-50993376D01*
X61111135Y-50992171D01*
X61103452Y-50990500D01*
X59581115Y-50990500D01*
X59565876Y-50994975D01*
X59564671Y-50996365D01*
X59563000Y-51004048D01*
X59563000Y-52526384D01*
X59055000Y-52526384D01*
X59055000Y-51008615D01*
X59050525Y-50993376D01*
X59049135Y-50992171D01*
X59041452Y-50990500D01*
X57519116Y-50990500D01*
X57503877Y-50994975D01*
X57502672Y-50996365D01*
X57501001Y-51004048D01*
X57501001Y-52081169D01*
X55439741Y-52081169D01*
X55500149Y-52030030D01*
X55677382Y-51827934D01*
X55822797Y-51601861D01*
X55933199Y-51356778D01*
X55970209Y-51225551D01*
X56004893Y-51102572D01*
X56004894Y-51102569D01*
X56006163Y-51098068D01*
X56024043Y-50957519D01*
X56039688Y-50834545D01*
X56039688Y-50834541D01*
X56040086Y-50831415D01*
X56042571Y-50736500D01*
X56039043Y-50689026D01*
X62576050Y-50689026D01*
X62588947Y-50957519D01*
X62641388Y-51221156D01*
X62732220Y-51474146D01*
X62859450Y-51710931D01*
X62862241Y-51714668D01*
X62862245Y-51714675D01*
X62943887Y-51824006D01*
X63020281Y-51926310D01*
X63023590Y-51929590D01*
X63023595Y-51929596D01*
X63183374Y-52087986D01*
X63211180Y-52115550D01*
X63214942Y-52118308D01*
X63214945Y-52118311D01*
X63327299Y-52200692D01*
X63427954Y-52274495D01*
X63432089Y-52276671D01*
X63432093Y-52276673D01*
X63651718Y-52392224D01*
X63665840Y-52399654D01*
X63919613Y-52488275D01*
X63924206Y-52489147D01*
X64179109Y-52537542D01*
X64179112Y-52537542D01*
X64183698Y-52538413D01*
X64311370Y-52543429D01*
X64447625Y-52548783D01*
X64447630Y-52548783D01*
X64452293Y-52548966D01*
X64556607Y-52537542D01*
X64714844Y-52520213D01*
X64714850Y-52520212D01*
X64719497Y-52519703D01*
X64832985Y-52489824D01*
X64974918Y-52452456D01*
X64974920Y-52452455D01*
X64979441Y-52451265D01*
X65087626Y-52404785D01*
X65222120Y-52347002D01*
X65222122Y-52347001D01*
X65226414Y-52345157D01*
X65367661Y-52257751D01*
X65451017Y-52206169D01*
X65451021Y-52206166D01*
X65454990Y-52203710D01*
X65660149Y-52030030D01*
X65837382Y-51827934D01*
X65982797Y-51601861D01*
X66093199Y-51356778D01*
X66130209Y-51225551D01*
X66164893Y-51102572D01*
X66164894Y-51102569D01*
X66166163Y-51098068D01*
X66184043Y-50957519D01*
X66199688Y-50834545D01*
X66199688Y-50834541D01*
X66200086Y-50831415D01*
X66202571Y-50736500D01*
X66199043Y-50689026D01*
X67656050Y-50689026D01*
X67668947Y-50957519D01*
X67721388Y-51221156D01*
X67812220Y-51474146D01*
X67939450Y-51710931D01*
X67942241Y-51714668D01*
X67942245Y-51714675D01*
X68023887Y-51824006D01*
X68100281Y-51926310D01*
X68103590Y-51929590D01*
X68103595Y-51929596D01*
X68263374Y-52087986D01*
X68291180Y-52115550D01*
X68294942Y-52118308D01*
X68294945Y-52118311D01*
X68407299Y-52200692D01*
X68507954Y-52274495D01*
X68512089Y-52276671D01*
X68512093Y-52276673D01*
X68731718Y-52392224D01*
X68745840Y-52399654D01*
X68999613Y-52488275D01*
X69004206Y-52489147D01*
X69259109Y-52537542D01*
X69259112Y-52537542D01*
X69263698Y-52538413D01*
X69391370Y-52543429D01*
X69527625Y-52548783D01*
X69527630Y-52548783D01*
X69532293Y-52548966D01*
X69636607Y-52537542D01*
X69794844Y-52520213D01*
X69794850Y-52520212D01*
X69799497Y-52519703D01*
X69912985Y-52489824D01*
X70054918Y-52452456D01*
X70054920Y-52452455D01*
X70059441Y-52451265D01*
X70167626Y-52404785D01*
X70302120Y-52347002D01*
X70302122Y-52347001D01*
X70306414Y-52345157D01*
X70447661Y-52257751D01*
X70531017Y-52206169D01*
X70531021Y-52206166D01*
X70534990Y-52203710D01*
X70679741Y-52081169D01*
X72741001Y-52081169D01*
X72741371Y-52087990D01*
X72746895Y-52138852D01*
X72750521Y-52154104D01*
X72795676Y-52274554D01*
X72804214Y-52290149D01*
X72880715Y-52392224D01*
X72893276Y-52404785D01*
X72995351Y-52481286D01*
X73010946Y-52489824D01*
X73131394Y-52534978D01*
X73146649Y-52538605D01*
X73197514Y-52544131D01*
X73204328Y-52544500D01*
X74276885Y-52544500D01*
X74292124Y-52540025D01*
X74293329Y-52538635D01*
X74295000Y-52530952D01*
X74295000Y-52526384D01*
X74803000Y-52526384D01*
X74807475Y-52541623D01*
X74808865Y-52542828D01*
X74816548Y-52544499D01*
X75893669Y-52544499D01*
X75900490Y-52544129D01*
X75951352Y-52538605D01*
X75966604Y-52534979D01*
X76087054Y-52489824D01*
X76102649Y-52481286D01*
X76204724Y-52404785D01*
X76217285Y-52392224D01*
X76293786Y-52290149D01*
X76302324Y-52274554D01*
X76347478Y-52154106D01*
X76351105Y-52138851D01*
X76356631Y-52087986D01*
X76357000Y-52081172D01*
X76357000Y-51008615D01*
X76352525Y-50993376D01*
X76351135Y-50992171D01*
X76343452Y-50990500D01*
X74821115Y-50990500D01*
X74805876Y-50994975D01*
X74804671Y-50996365D01*
X74803000Y-51004048D01*
X74803000Y-52526384D01*
X74295000Y-52526384D01*
X74295000Y-51008615D01*
X74290525Y-50993376D01*
X74289135Y-50992171D01*
X74281452Y-50990500D01*
X72759116Y-50990500D01*
X72743877Y-50994975D01*
X72742672Y-50996365D01*
X72741001Y-51004048D01*
X72741001Y-52081169D01*
X70679741Y-52081169D01*
X70740149Y-52030030D01*
X70917382Y-51827934D01*
X71062797Y-51601861D01*
X71173199Y-51356778D01*
X71210209Y-51225551D01*
X71244893Y-51102572D01*
X71244894Y-51102569D01*
X71246163Y-51098068D01*
X71264043Y-50957519D01*
X71279688Y-50834545D01*
X71279688Y-50834541D01*
X71280086Y-50831415D01*
X71282571Y-50736500D01*
X71279043Y-50689026D01*
X77816050Y-50689026D01*
X77828947Y-50957519D01*
X77881388Y-51221156D01*
X77972220Y-51474146D01*
X78099450Y-51710931D01*
X78102241Y-51714668D01*
X78102245Y-51714675D01*
X78183887Y-51824006D01*
X78260281Y-51926310D01*
X78263590Y-51929590D01*
X78263595Y-51929596D01*
X78423374Y-52087986D01*
X78451180Y-52115550D01*
X78454942Y-52118308D01*
X78454945Y-52118311D01*
X78567299Y-52200692D01*
X78667954Y-52274495D01*
X78672089Y-52276671D01*
X78672093Y-52276673D01*
X78891718Y-52392224D01*
X78905840Y-52399654D01*
X79159613Y-52488275D01*
X79164206Y-52489147D01*
X79419109Y-52537542D01*
X79419112Y-52537542D01*
X79423698Y-52538413D01*
X79551370Y-52543429D01*
X79687625Y-52548783D01*
X79687630Y-52548783D01*
X79692293Y-52548966D01*
X79796607Y-52537542D01*
X79954844Y-52520213D01*
X79954850Y-52520212D01*
X79959497Y-52519703D01*
X80072985Y-52489824D01*
X80214918Y-52452456D01*
X80214920Y-52452455D01*
X80219441Y-52451265D01*
X80327626Y-52404785D01*
X80462120Y-52347002D01*
X80462122Y-52347001D01*
X80466414Y-52345157D01*
X80607661Y-52257751D01*
X80691017Y-52206169D01*
X80691021Y-52206166D01*
X80694990Y-52203710D01*
X80900149Y-52030030D01*
X81077382Y-51827934D01*
X81222797Y-51601861D01*
X81333199Y-51356778D01*
X81370209Y-51225551D01*
X81404893Y-51102572D01*
X81404894Y-51102569D01*
X81406163Y-51098068D01*
X81424043Y-50957519D01*
X81439688Y-50834545D01*
X81439688Y-50834541D01*
X81440086Y-50831415D01*
X81442571Y-50736500D01*
X81439043Y-50689026D01*
X82896050Y-50689026D01*
X82908947Y-50957519D01*
X82961388Y-51221156D01*
X83052220Y-51474146D01*
X83179450Y-51710931D01*
X83182241Y-51714668D01*
X83182245Y-51714675D01*
X83263887Y-51824006D01*
X83340281Y-51926310D01*
X83343590Y-51929590D01*
X83343595Y-51929596D01*
X83503374Y-52087986D01*
X83531180Y-52115550D01*
X83534942Y-52118308D01*
X83534945Y-52118311D01*
X83647299Y-52200692D01*
X83747954Y-52274495D01*
X83752089Y-52276671D01*
X83752093Y-52276673D01*
X83971718Y-52392224D01*
X83985840Y-52399654D01*
X84239613Y-52488275D01*
X84244206Y-52489147D01*
X84499109Y-52537542D01*
X84499112Y-52537542D01*
X84503698Y-52538413D01*
X84631370Y-52543429D01*
X84767625Y-52548783D01*
X84767630Y-52548783D01*
X84772293Y-52548966D01*
X84876607Y-52537542D01*
X85034844Y-52520213D01*
X85034850Y-52520212D01*
X85039497Y-52519703D01*
X85152985Y-52489824D01*
X85294918Y-52452456D01*
X85294920Y-52452455D01*
X85299441Y-52451265D01*
X85407626Y-52404785D01*
X85542120Y-52347002D01*
X85542122Y-52347001D01*
X85546414Y-52345157D01*
X85687661Y-52257751D01*
X85771017Y-52206169D01*
X85771021Y-52206166D01*
X85774990Y-52203710D01*
X85919741Y-52081169D01*
X87981001Y-52081169D01*
X87981371Y-52087990D01*
X87986895Y-52138852D01*
X87990521Y-52154104D01*
X88035676Y-52274554D01*
X88044214Y-52290149D01*
X88120715Y-52392224D01*
X88133276Y-52404785D01*
X88235351Y-52481286D01*
X88250946Y-52489824D01*
X88371394Y-52534978D01*
X88386649Y-52538605D01*
X88437514Y-52544131D01*
X88444328Y-52544500D01*
X89516885Y-52544500D01*
X89532124Y-52540025D01*
X89533329Y-52538635D01*
X89535000Y-52530952D01*
X89535000Y-52526384D01*
X90043000Y-52526384D01*
X90047475Y-52541623D01*
X90048865Y-52542828D01*
X90056548Y-52544499D01*
X91133669Y-52544499D01*
X91140490Y-52544129D01*
X91191352Y-52538605D01*
X91206604Y-52534979D01*
X91327054Y-52489824D01*
X91342649Y-52481286D01*
X91444724Y-52404785D01*
X91457285Y-52392224D01*
X91533786Y-52290149D01*
X91542324Y-52274554D01*
X91587478Y-52154106D01*
X91591105Y-52138851D01*
X91596631Y-52087986D01*
X91597000Y-52081172D01*
X91597000Y-51008615D01*
X91592525Y-50993376D01*
X91591135Y-50992171D01*
X91583452Y-50990500D01*
X90061115Y-50990500D01*
X90045876Y-50994975D01*
X90044671Y-50996365D01*
X90043000Y-51004048D01*
X90043000Y-52526384D01*
X89535000Y-52526384D01*
X89535000Y-51008615D01*
X89530525Y-50993376D01*
X89529135Y-50992171D01*
X89521452Y-50990500D01*
X87999116Y-50990500D01*
X87983877Y-50994975D01*
X87982672Y-50996365D01*
X87981001Y-51004048D01*
X87981001Y-52081169D01*
X85919741Y-52081169D01*
X85980149Y-52030030D01*
X86157382Y-51827934D01*
X86302797Y-51601861D01*
X86413199Y-51356778D01*
X86450209Y-51225551D01*
X86484893Y-51102572D01*
X86484894Y-51102569D01*
X86486163Y-51098068D01*
X86504043Y-50957519D01*
X86519688Y-50834545D01*
X86519688Y-50834541D01*
X86520086Y-50831415D01*
X86522571Y-50736500D01*
X86519043Y-50689026D01*
X93056050Y-50689026D01*
X93068947Y-50957519D01*
X93121388Y-51221156D01*
X93212220Y-51474146D01*
X93339450Y-51710931D01*
X93342241Y-51714668D01*
X93342245Y-51714675D01*
X93423887Y-51824006D01*
X93500281Y-51926310D01*
X93503590Y-51929590D01*
X93503595Y-51929596D01*
X93663374Y-52087986D01*
X93691180Y-52115550D01*
X93694942Y-52118308D01*
X93694945Y-52118311D01*
X93807299Y-52200692D01*
X93907954Y-52274495D01*
X93912089Y-52276671D01*
X93912093Y-52276673D01*
X94131718Y-52392224D01*
X94145840Y-52399654D01*
X94399613Y-52488275D01*
X94404206Y-52489147D01*
X94659109Y-52537542D01*
X94659112Y-52537542D01*
X94663698Y-52538413D01*
X94791370Y-52543429D01*
X94927625Y-52548783D01*
X94927630Y-52548783D01*
X94932293Y-52548966D01*
X95036607Y-52537542D01*
X95194844Y-52520213D01*
X95194850Y-52520212D01*
X95199497Y-52519703D01*
X95312985Y-52489824D01*
X95454918Y-52452456D01*
X95454920Y-52452455D01*
X95459441Y-52451265D01*
X95567626Y-52404785D01*
X95702120Y-52347002D01*
X95702122Y-52347001D01*
X95706414Y-52345157D01*
X95847661Y-52257751D01*
X95931017Y-52206169D01*
X95931021Y-52206166D01*
X95934990Y-52203710D01*
X96140149Y-52030030D01*
X96317382Y-51827934D01*
X96462797Y-51601861D01*
X96573199Y-51356778D01*
X96610209Y-51225551D01*
X96644893Y-51102572D01*
X96644894Y-51102569D01*
X96646163Y-51098068D01*
X96664043Y-50957519D01*
X96679688Y-50834545D01*
X96679688Y-50834541D01*
X96680086Y-50831415D01*
X96682571Y-50736500D01*
X96679043Y-50689026D01*
X98136050Y-50689026D01*
X98148947Y-50957519D01*
X98201388Y-51221156D01*
X98292220Y-51474146D01*
X98419450Y-51710931D01*
X98422241Y-51714668D01*
X98422245Y-51714675D01*
X98503887Y-51824006D01*
X98580281Y-51926310D01*
X98583590Y-51929590D01*
X98583595Y-51929596D01*
X98743374Y-52087986D01*
X98771180Y-52115550D01*
X98774942Y-52118308D01*
X98774945Y-52118311D01*
X98887299Y-52200692D01*
X98987954Y-52274495D01*
X98992089Y-52276671D01*
X98992093Y-52276673D01*
X99211718Y-52392224D01*
X99225840Y-52399654D01*
X99479613Y-52488275D01*
X99484206Y-52489147D01*
X99739109Y-52537542D01*
X99739112Y-52537542D01*
X99743698Y-52538413D01*
X99871370Y-52543429D01*
X100007625Y-52548783D01*
X100007630Y-52548783D01*
X100012293Y-52548966D01*
X100116607Y-52537542D01*
X100274844Y-52520213D01*
X100274850Y-52520212D01*
X100279497Y-52519703D01*
X100392985Y-52489824D01*
X100534918Y-52452456D01*
X100534920Y-52452455D01*
X100539441Y-52451265D01*
X100647626Y-52404785D01*
X100782120Y-52347002D01*
X100782122Y-52347001D01*
X100786414Y-52345157D01*
X100927661Y-52257751D01*
X100934526Y-52253503D01*
X114121143Y-52253503D01*
X114121702Y-52257747D01*
X114121702Y-52257751D01*
X114132885Y-52342695D01*
X114158668Y-52538534D01*
X114159801Y-52542674D01*
X114159801Y-52542676D01*
X114160199Y-52544131D01*
X114234529Y-52815836D01*
X114347323Y-53080276D01*
X114494961Y-53326961D01*
X114674713Y-53551328D01*
X114883251Y-53749223D01*
X115116717Y-53916986D01*
X115120512Y-53918995D01*
X115120513Y-53918996D01*
X115142269Y-53930515D01*
X115370792Y-54051512D01*
X115640773Y-54150311D01*
X115921664Y-54211555D01*
X115950241Y-54213804D01*
X116144682Y-54229107D01*
X116144691Y-54229107D01*
X116147139Y-54229300D01*
X116302671Y-54229300D01*
X116304807Y-54229154D01*
X116304818Y-54229154D01*
X116512948Y-54214965D01*
X116512954Y-54214964D01*
X116517225Y-54214673D01*
X116521420Y-54213804D01*
X116521422Y-54213804D01*
X116657984Y-54185523D01*
X116798742Y-54156374D01*
X117069743Y-54060407D01*
X117325212Y-53928550D01*
X117328713Y-53926089D01*
X117328717Y-53926087D01*
X117442818Y-53845895D01*
X117560423Y-53763241D01*
X117771022Y-53567540D01*
X117953113Y-53345068D01*
X118103327Y-53099942D01*
X118218883Y-52836698D01*
X118297644Y-52560206D01*
X118338151Y-52275584D01*
X118338245Y-52257751D01*
X118339635Y-51992383D01*
X118339635Y-51992376D01*
X118339657Y-51988097D01*
X118331031Y-51922572D01*
X118302692Y-51707322D01*
X118302132Y-51703066D01*
X118226271Y-51425764D01*
X118194925Y-51352275D01*
X118115163Y-51165276D01*
X118115161Y-51165272D01*
X118113477Y-51161324D01*
X117965839Y-50914639D01*
X117786087Y-50690272D01*
X117577549Y-50492377D01*
X117344083Y-50324614D01*
X117322243Y-50313050D01*
X117299054Y-50300772D01*
X117090008Y-50190088D01*
X116820027Y-50091289D01*
X116539136Y-50030045D01*
X116508085Y-50027601D01*
X116316118Y-50012493D01*
X116316109Y-50012493D01*
X116313661Y-50012300D01*
X116158129Y-50012300D01*
X116155993Y-50012446D01*
X116155982Y-50012446D01*
X115947852Y-50026635D01*
X115947846Y-50026636D01*
X115943575Y-50026927D01*
X115939380Y-50027796D01*
X115939378Y-50027796D01*
X115802817Y-50056076D01*
X115662058Y-50085226D01*
X115391057Y-50181193D01*
X115135588Y-50313050D01*
X115132087Y-50315511D01*
X115132083Y-50315513D01*
X115121994Y-50322604D01*
X114900377Y-50478359D01*
X114689778Y-50674060D01*
X114507687Y-50896532D01*
X114357473Y-51141658D01*
X114355747Y-51145591D01*
X114355746Y-51145592D01*
X114265019Y-51352275D01*
X114241917Y-51404902D01*
X114163156Y-51681394D01*
X114122649Y-51966016D01*
X114122627Y-51970305D01*
X114122626Y-51970312D01*
X114121391Y-52206169D01*
X114121143Y-52253503D01*
X100934526Y-52253503D01*
X101011017Y-52206169D01*
X101011021Y-52206166D01*
X101014990Y-52203710D01*
X101220149Y-52030030D01*
X101397382Y-51827934D01*
X101542797Y-51601861D01*
X101653199Y-51356778D01*
X101690209Y-51225551D01*
X101724893Y-51102572D01*
X101724894Y-51102569D01*
X101726163Y-51098068D01*
X101744043Y-50957519D01*
X101759688Y-50834545D01*
X101759688Y-50834541D01*
X101760086Y-50831415D01*
X101762571Y-50736500D01*
X101742650Y-50468437D01*
X101709652Y-50322604D01*
X101684361Y-50210831D01*
X101684360Y-50210826D01*
X101683327Y-50206263D01*
X101585902Y-49955738D01*
X101452518Y-49722364D01*
X101286105Y-49511269D01*
X101090317Y-49327091D01*
X100904877Y-49198446D01*
X100873299Y-49176539D01*
X100873296Y-49176537D01*
X100869457Y-49173874D01*
X100865264Y-49171806D01*
X100632564Y-49057051D01*
X100632561Y-49057050D01*
X100628376Y-49054986D01*
X100580745Y-49039739D01*
X100526621Y-49022414D01*
X100372370Y-48973038D01*
X100367763Y-48972288D01*
X100367760Y-48972287D01*
X100111674Y-48930581D01*
X100111675Y-48930581D01*
X100107063Y-48929830D01*
X99976719Y-48928124D01*
X99842961Y-48926373D01*
X99842958Y-48926373D01*
X99838284Y-48926312D01*
X99571937Y-48962560D01*
X99313874Y-49037778D01*
X99069763Y-49150315D01*
X99065854Y-49152878D01*
X98848881Y-49295131D01*
X98848876Y-49295135D01*
X98844968Y-49297697D01*
X98644426Y-49476688D01*
X98472544Y-49683354D01*
X98333096Y-49913156D01*
X98331287Y-49917470D01*
X98331285Y-49917474D01*
X98283698Y-50030958D01*
X98229148Y-50161045D01*
X98162981Y-50421577D01*
X98136050Y-50689026D01*
X96679043Y-50689026D01*
X96662650Y-50468437D01*
X96629652Y-50322604D01*
X96604361Y-50210831D01*
X96604360Y-50210826D01*
X96603327Y-50206263D01*
X96505902Y-49955738D01*
X96372518Y-49722364D01*
X96206105Y-49511269D01*
X96010317Y-49327091D01*
X95824877Y-49198446D01*
X95793299Y-49176539D01*
X95793296Y-49176537D01*
X95789457Y-49173874D01*
X95785264Y-49171806D01*
X95552564Y-49057051D01*
X95552561Y-49057050D01*
X95548376Y-49054986D01*
X95500745Y-49039739D01*
X95446621Y-49022414D01*
X95292370Y-48973038D01*
X95287763Y-48972288D01*
X95287760Y-48972287D01*
X95031674Y-48930581D01*
X95031675Y-48930581D01*
X95027063Y-48929830D01*
X94896719Y-48928124D01*
X94762961Y-48926373D01*
X94762958Y-48926373D01*
X94758284Y-48926312D01*
X94491937Y-48962560D01*
X94233874Y-49037778D01*
X93989763Y-49150315D01*
X93985854Y-49152878D01*
X93768881Y-49295131D01*
X93768876Y-49295135D01*
X93764968Y-49297697D01*
X93564426Y-49476688D01*
X93392544Y-49683354D01*
X93253096Y-49913156D01*
X93251287Y-49917470D01*
X93251285Y-49917474D01*
X93203698Y-50030958D01*
X93149148Y-50161045D01*
X93082981Y-50421577D01*
X93056050Y-50689026D01*
X86519043Y-50689026D01*
X86502650Y-50468437D01*
X86501733Y-50464385D01*
X87981000Y-50464385D01*
X87985475Y-50479624D01*
X87986865Y-50480829D01*
X87994548Y-50482500D01*
X89516885Y-50482500D01*
X89532124Y-50478025D01*
X89533329Y-50476635D01*
X89535000Y-50468952D01*
X89535000Y-50464385D01*
X90043000Y-50464385D01*
X90047475Y-50479624D01*
X90048865Y-50480829D01*
X90056548Y-50482500D01*
X91578884Y-50482500D01*
X91594123Y-50478025D01*
X91595328Y-50476635D01*
X91596999Y-50468952D01*
X91596999Y-49391831D01*
X91596629Y-49385010D01*
X91591105Y-49334148D01*
X91587479Y-49318896D01*
X91542324Y-49198446D01*
X91533786Y-49182851D01*
X91457285Y-49080776D01*
X91444724Y-49068215D01*
X91342649Y-48991714D01*
X91327054Y-48983176D01*
X91206606Y-48938022D01*
X91191351Y-48934395D01*
X91140486Y-48928869D01*
X91133672Y-48928500D01*
X90061115Y-48928500D01*
X90045876Y-48932975D01*
X90044671Y-48934365D01*
X90043000Y-48942048D01*
X90043000Y-50464385D01*
X89535000Y-50464385D01*
X89535000Y-48946616D01*
X89530525Y-48931377D01*
X89529135Y-48930172D01*
X89521452Y-48928501D01*
X88444331Y-48928501D01*
X88437510Y-48928871D01*
X88386648Y-48934395D01*
X88371396Y-48938021D01*
X88250946Y-48983176D01*
X88235351Y-48991714D01*
X88133276Y-49068215D01*
X88120715Y-49080776D01*
X88044214Y-49182851D01*
X88035676Y-49198446D01*
X87990522Y-49318894D01*
X87986895Y-49334149D01*
X87981369Y-49385014D01*
X87981000Y-49391828D01*
X87981000Y-50464385D01*
X86501733Y-50464385D01*
X86469652Y-50322604D01*
X86444361Y-50210831D01*
X86444360Y-50210826D01*
X86443327Y-50206263D01*
X86345902Y-49955738D01*
X86212518Y-49722364D01*
X86046105Y-49511269D01*
X85850317Y-49327091D01*
X85664877Y-49198446D01*
X85633299Y-49176539D01*
X85633296Y-49176537D01*
X85629457Y-49173874D01*
X85625264Y-49171806D01*
X85392564Y-49057051D01*
X85392561Y-49057050D01*
X85388376Y-49054986D01*
X85340745Y-49039739D01*
X85286621Y-49022414D01*
X85132370Y-48973038D01*
X85127763Y-48972288D01*
X85127760Y-48972287D01*
X84871674Y-48930581D01*
X84871675Y-48930581D01*
X84867063Y-48929830D01*
X84736719Y-48928124D01*
X84602961Y-48926373D01*
X84602958Y-48926373D01*
X84598284Y-48926312D01*
X84331937Y-48962560D01*
X84073874Y-49037778D01*
X83829763Y-49150315D01*
X83825854Y-49152878D01*
X83608881Y-49295131D01*
X83608876Y-49295135D01*
X83604968Y-49297697D01*
X83404426Y-49476688D01*
X83232544Y-49683354D01*
X83093096Y-49913156D01*
X83091287Y-49917470D01*
X83091285Y-49917474D01*
X83043698Y-50030958D01*
X82989148Y-50161045D01*
X82922981Y-50421577D01*
X82896050Y-50689026D01*
X81439043Y-50689026D01*
X81422650Y-50468437D01*
X81389652Y-50322604D01*
X81364361Y-50210831D01*
X81364360Y-50210826D01*
X81363327Y-50206263D01*
X81265902Y-49955738D01*
X81132518Y-49722364D01*
X80966105Y-49511269D01*
X80770317Y-49327091D01*
X80584877Y-49198446D01*
X80553299Y-49176539D01*
X80553296Y-49176537D01*
X80549457Y-49173874D01*
X80545264Y-49171806D01*
X80312564Y-49057051D01*
X80312561Y-49057050D01*
X80308376Y-49054986D01*
X80260745Y-49039739D01*
X80206621Y-49022414D01*
X80052370Y-48973038D01*
X80047763Y-48972288D01*
X80047760Y-48972287D01*
X79791674Y-48930581D01*
X79791675Y-48930581D01*
X79787063Y-48929830D01*
X79656719Y-48928124D01*
X79522961Y-48926373D01*
X79522958Y-48926373D01*
X79518284Y-48926312D01*
X79251937Y-48962560D01*
X78993874Y-49037778D01*
X78749763Y-49150315D01*
X78745854Y-49152878D01*
X78528881Y-49295131D01*
X78528876Y-49295135D01*
X78524968Y-49297697D01*
X78324426Y-49476688D01*
X78152544Y-49683354D01*
X78013096Y-49913156D01*
X78011287Y-49917470D01*
X78011285Y-49917474D01*
X77963698Y-50030958D01*
X77909148Y-50161045D01*
X77842981Y-50421577D01*
X77816050Y-50689026D01*
X71279043Y-50689026D01*
X71262650Y-50468437D01*
X71261733Y-50464385D01*
X72741000Y-50464385D01*
X72745475Y-50479624D01*
X72746865Y-50480829D01*
X72754548Y-50482500D01*
X74276885Y-50482500D01*
X74292124Y-50478025D01*
X74293329Y-50476635D01*
X74295000Y-50468952D01*
X74295000Y-50464385D01*
X74803000Y-50464385D01*
X74807475Y-50479624D01*
X74808865Y-50480829D01*
X74816548Y-50482500D01*
X76338884Y-50482500D01*
X76354123Y-50478025D01*
X76355328Y-50476635D01*
X76356999Y-50468952D01*
X76356999Y-49391831D01*
X76356629Y-49385010D01*
X76351105Y-49334148D01*
X76347479Y-49318896D01*
X76302324Y-49198446D01*
X76293786Y-49182851D01*
X76217285Y-49080776D01*
X76204724Y-49068215D01*
X76102649Y-48991714D01*
X76087054Y-48983176D01*
X75966606Y-48938022D01*
X75951351Y-48934395D01*
X75900486Y-48928869D01*
X75893672Y-48928500D01*
X74821115Y-48928500D01*
X74805876Y-48932975D01*
X74804671Y-48934365D01*
X74803000Y-48942048D01*
X74803000Y-50464385D01*
X74295000Y-50464385D01*
X74295000Y-48946616D01*
X74290525Y-48931377D01*
X74289135Y-48930172D01*
X74281452Y-48928501D01*
X73204331Y-48928501D01*
X73197510Y-48928871D01*
X73146648Y-48934395D01*
X73131396Y-48938021D01*
X73010946Y-48983176D01*
X72995351Y-48991714D01*
X72893276Y-49068215D01*
X72880715Y-49080776D01*
X72804214Y-49182851D01*
X72795676Y-49198446D01*
X72750522Y-49318894D01*
X72746895Y-49334149D01*
X72741369Y-49385014D01*
X72741000Y-49391828D01*
X72741000Y-50464385D01*
X71261733Y-50464385D01*
X71229652Y-50322604D01*
X71204361Y-50210831D01*
X71204360Y-50210826D01*
X71203327Y-50206263D01*
X71105902Y-49955738D01*
X70972518Y-49722364D01*
X70806105Y-49511269D01*
X70610317Y-49327091D01*
X70424877Y-49198446D01*
X70393299Y-49176539D01*
X70393296Y-49176537D01*
X70389457Y-49173874D01*
X70385264Y-49171806D01*
X70152564Y-49057051D01*
X70152561Y-49057050D01*
X70148376Y-49054986D01*
X70100745Y-49039739D01*
X70046621Y-49022414D01*
X69892370Y-48973038D01*
X69887763Y-48972288D01*
X69887760Y-48972287D01*
X69631674Y-48930581D01*
X69631675Y-48930581D01*
X69627063Y-48929830D01*
X69496719Y-48928124D01*
X69362961Y-48926373D01*
X69362958Y-48926373D01*
X69358284Y-48926312D01*
X69091937Y-48962560D01*
X68833874Y-49037778D01*
X68589763Y-49150315D01*
X68585854Y-49152878D01*
X68368881Y-49295131D01*
X68368876Y-49295135D01*
X68364968Y-49297697D01*
X68164426Y-49476688D01*
X67992544Y-49683354D01*
X67853096Y-49913156D01*
X67851287Y-49917470D01*
X67851285Y-49917474D01*
X67803698Y-50030958D01*
X67749148Y-50161045D01*
X67682981Y-50421577D01*
X67656050Y-50689026D01*
X66199043Y-50689026D01*
X66182650Y-50468437D01*
X66149652Y-50322604D01*
X66124361Y-50210831D01*
X66124360Y-50210826D01*
X66123327Y-50206263D01*
X66025902Y-49955738D01*
X65892518Y-49722364D01*
X65726105Y-49511269D01*
X65530317Y-49327091D01*
X65344877Y-49198446D01*
X65313299Y-49176539D01*
X65313296Y-49176537D01*
X65309457Y-49173874D01*
X65305264Y-49171806D01*
X65072564Y-49057051D01*
X65072561Y-49057050D01*
X65068376Y-49054986D01*
X65020745Y-49039739D01*
X64966621Y-49022414D01*
X64812370Y-48973038D01*
X64807763Y-48972288D01*
X64807760Y-48972287D01*
X64551674Y-48930581D01*
X64551675Y-48930581D01*
X64547063Y-48929830D01*
X64416719Y-48928124D01*
X64282961Y-48926373D01*
X64282958Y-48926373D01*
X64278284Y-48926312D01*
X64011937Y-48962560D01*
X63753874Y-49037778D01*
X63509763Y-49150315D01*
X63505854Y-49152878D01*
X63288881Y-49295131D01*
X63288876Y-49295135D01*
X63284968Y-49297697D01*
X63084426Y-49476688D01*
X62912544Y-49683354D01*
X62773096Y-49913156D01*
X62771287Y-49917470D01*
X62771285Y-49917474D01*
X62723698Y-50030958D01*
X62669148Y-50161045D01*
X62602981Y-50421577D01*
X62576050Y-50689026D01*
X56039043Y-50689026D01*
X56022650Y-50468437D01*
X56021733Y-50464385D01*
X57501000Y-50464385D01*
X57505475Y-50479624D01*
X57506865Y-50480829D01*
X57514548Y-50482500D01*
X59036885Y-50482500D01*
X59052124Y-50478025D01*
X59053329Y-50476635D01*
X59055000Y-50468952D01*
X59055000Y-50464385D01*
X59563000Y-50464385D01*
X59567475Y-50479624D01*
X59568865Y-50480829D01*
X59576548Y-50482500D01*
X61098884Y-50482500D01*
X61114123Y-50478025D01*
X61115328Y-50476635D01*
X61116999Y-50468952D01*
X61116999Y-49391831D01*
X61116629Y-49385010D01*
X61111105Y-49334148D01*
X61107479Y-49318896D01*
X61062324Y-49198446D01*
X61053786Y-49182851D01*
X60977285Y-49080776D01*
X60964724Y-49068215D01*
X60862649Y-48991714D01*
X60847054Y-48983176D01*
X60726606Y-48938022D01*
X60711351Y-48934395D01*
X60660486Y-48928869D01*
X60653672Y-48928500D01*
X59581115Y-48928500D01*
X59565876Y-48932975D01*
X59564671Y-48934365D01*
X59563000Y-48942048D01*
X59563000Y-50464385D01*
X59055000Y-50464385D01*
X59055000Y-48946616D01*
X59050525Y-48931377D01*
X59049135Y-48930172D01*
X59041452Y-48928501D01*
X57964331Y-48928501D01*
X57957510Y-48928871D01*
X57906648Y-48934395D01*
X57891396Y-48938021D01*
X57770946Y-48983176D01*
X57755351Y-48991714D01*
X57653276Y-49068215D01*
X57640715Y-49080776D01*
X57564214Y-49182851D01*
X57555676Y-49198446D01*
X57510522Y-49318894D01*
X57506895Y-49334149D01*
X57501369Y-49385014D01*
X57501000Y-49391828D01*
X57501000Y-50464385D01*
X56021733Y-50464385D01*
X55989652Y-50322604D01*
X55964361Y-50210831D01*
X55964360Y-50210826D01*
X55963327Y-50206263D01*
X55865902Y-49955738D01*
X55732518Y-49722364D01*
X55566105Y-49511269D01*
X55370317Y-49327091D01*
X55184877Y-49198446D01*
X55153299Y-49176539D01*
X55153296Y-49176537D01*
X55149457Y-49173874D01*
X55145264Y-49171806D01*
X54912564Y-49057051D01*
X54912561Y-49057050D01*
X54908376Y-49054986D01*
X54860745Y-49039739D01*
X54806621Y-49022414D01*
X54652370Y-48973038D01*
X54647763Y-48972288D01*
X54647760Y-48972287D01*
X54391674Y-48930581D01*
X54391675Y-48930581D01*
X54387063Y-48929830D01*
X54256719Y-48928124D01*
X54122961Y-48926373D01*
X54122958Y-48926373D01*
X54118284Y-48926312D01*
X53851937Y-48962560D01*
X53593874Y-49037778D01*
X53349763Y-49150315D01*
X53345854Y-49152878D01*
X53128881Y-49295131D01*
X53128876Y-49295135D01*
X53124968Y-49297697D01*
X52924426Y-49476688D01*
X52752544Y-49683354D01*
X52613096Y-49913156D01*
X52611287Y-49917470D01*
X52611285Y-49917474D01*
X52563698Y-50030958D01*
X52509148Y-50161045D01*
X52442981Y-50421577D01*
X52416050Y-50689026D01*
X50959043Y-50689026D01*
X50942650Y-50468437D01*
X50909652Y-50322604D01*
X50884361Y-50210831D01*
X50884360Y-50210826D01*
X50883327Y-50206263D01*
X50785902Y-49955738D01*
X50652518Y-49722364D01*
X50486105Y-49511269D01*
X50290317Y-49327091D01*
X50104877Y-49198446D01*
X50073299Y-49176539D01*
X50073296Y-49176537D01*
X50069457Y-49173874D01*
X50065264Y-49171806D01*
X49832564Y-49057051D01*
X49832561Y-49057050D01*
X49828376Y-49054986D01*
X49780745Y-49039739D01*
X49726621Y-49022414D01*
X49572370Y-48973038D01*
X49567763Y-48972288D01*
X49567760Y-48972287D01*
X49311674Y-48930581D01*
X49311675Y-48930581D01*
X49307063Y-48929830D01*
X49176719Y-48928124D01*
X49042961Y-48926373D01*
X49042958Y-48926373D01*
X49038284Y-48926312D01*
X48771937Y-48962560D01*
X48513874Y-49037778D01*
X48269763Y-49150315D01*
X48265854Y-49152878D01*
X48048881Y-49295131D01*
X48048876Y-49295135D01*
X48044968Y-49297697D01*
X47844426Y-49476688D01*
X47672544Y-49683354D01*
X47533096Y-49913156D01*
X47531287Y-49917470D01*
X47531285Y-49917474D01*
X47483698Y-50030958D01*
X47429148Y-50161045D01*
X47362981Y-50421577D01*
X47336050Y-50689026D01*
X25379574Y-50689026D01*
X25172349Y-50492377D01*
X25133394Y-50464385D01*
X42261000Y-50464385D01*
X42265475Y-50479624D01*
X42266865Y-50480829D01*
X42274548Y-50482500D01*
X43796885Y-50482500D01*
X43812124Y-50478025D01*
X43813329Y-50476635D01*
X43815000Y-50468952D01*
X43815000Y-50464385D01*
X44323000Y-50464385D01*
X44327475Y-50479624D01*
X44328865Y-50480829D01*
X44336548Y-50482500D01*
X45858884Y-50482500D01*
X45874123Y-50478025D01*
X45875328Y-50476635D01*
X45876999Y-50468952D01*
X45876999Y-49391831D01*
X45876629Y-49385010D01*
X45871105Y-49334148D01*
X45867479Y-49318896D01*
X45822324Y-49198446D01*
X45813786Y-49182851D01*
X45737285Y-49080776D01*
X45724724Y-49068215D01*
X45622649Y-48991714D01*
X45607054Y-48983176D01*
X45486606Y-48938022D01*
X45471351Y-48934395D01*
X45420486Y-48928869D01*
X45413672Y-48928500D01*
X44341115Y-48928500D01*
X44325876Y-48932975D01*
X44324671Y-48934365D01*
X44323000Y-48942048D01*
X44323000Y-50464385D01*
X43815000Y-50464385D01*
X43815000Y-48946616D01*
X43810525Y-48931377D01*
X43809135Y-48930172D01*
X43801452Y-48928501D01*
X42724331Y-48928501D01*
X42717510Y-48928871D01*
X42666648Y-48934395D01*
X42651396Y-48938021D01*
X42530946Y-48983176D01*
X42515351Y-48991714D01*
X42413276Y-49068215D01*
X42400715Y-49080776D01*
X42324214Y-49182851D01*
X42315676Y-49198446D01*
X42270522Y-49318894D01*
X42266895Y-49334149D01*
X42261369Y-49385014D01*
X42261000Y-49391828D01*
X42261000Y-50464385D01*
X25133394Y-50464385D01*
X24938883Y-50324614D01*
X24917043Y-50313050D01*
X24893854Y-50300772D01*
X24684808Y-50190088D01*
X24414827Y-50091289D01*
X24133936Y-50030045D01*
X24102885Y-50027601D01*
X23910918Y-50012493D01*
X23910909Y-50012493D01*
X23908461Y-50012300D01*
X23752929Y-50012300D01*
X23750793Y-50012446D01*
X23750782Y-50012446D01*
X23542652Y-50026635D01*
X23542646Y-50026636D01*
X23538375Y-50026927D01*
X23534180Y-50027796D01*
X23534178Y-50027796D01*
X23397617Y-50056076D01*
X23256858Y-50085226D01*
X22985857Y-50181193D01*
X22730388Y-50313050D01*
X22726887Y-50315511D01*
X22726883Y-50315513D01*
X22716794Y-50322604D01*
X22495177Y-50478359D01*
X22284578Y-50674060D01*
X22102487Y-50896532D01*
X21952273Y-51141658D01*
X21950547Y-51145591D01*
X21950546Y-51145592D01*
X21859819Y-51352275D01*
X21836717Y-51404902D01*
X21757956Y-51681394D01*
X21717449Y-51966016D01*
X21717427Y-51970305D01*
X21717426Y-51970312D01*
X21716191Y-52206169D01*
X21715943Y-52253503D01*
X20508460Y-52253503D01*
X20508460Y-43815000D01*
X69698496Y-43815000D01*
X69718458Y-44004928D01*
X69777473Y-44186556D01*
X69872960Y-44351944D01*
X69877378Y-44356851D01*
X69877379Y-44356852D01*
X69996325Y-44488955D01*
X70000747Y-44493866D01*
X70099843Y-44565864D01*
X70149352Y-44601834D01*
X70155248Y-44606118D01*
X70161276Y-44608802D01*
X70161278Y-44608803D01*
X70323681Y-44681109D01*
X70329712Y-44683794D01*
X70418761Y-44702722D01*
X70510056Y-44722128D01*
X70510061Y-44722128D01*
X70516513Y-44723500D01*
X70707487Y-44723500D01*
X70713939Y-44722128D01*
X70713944Y-44722128D01*
X70805239Y-44702722D01*
X70894288Y-44683794D01*
X70900319Y-44681109D01*
X71062722Y-44608803D01*
X71062724Y-44608802D01*
X71068752Y-44606118D01*
X71074649Y-44601834D01*
X71124157Y-44565864D01*
X71223253Y-44493866D01*
X71227675Y-44488955D01*
X71346621Y-44356852D01*
X71346622Y-44356851D01*
X71351040Y-44351944D01*
X71446527Y-44186556D01*
X71484724Y-44069000D01*
X82652496Y-44069000D01*
X82672458Y-44258928D01*
X82731473Y-44440556D01*
X82826960Y-44605944D01*
X82954747Y-44747866D01*
X83109248Y-44860118D01*
X83115276Y-44862802D01*
X83115278Y-44862803D01*
X83277681Y-44935109D01*
X83283712Y-44937794D01*
X83377113Y-44957647D01*
X83464056Y-44976128D01*
X83464061Y-44976128D01*
X83470513Y-44977500D01*
X83661487Y-44977500D01*
X83667939Y-44976128D01*
X83667944Y-44976128D01*
X83754887Y-44957647D01*
X83848288Y-44937794D01*
X83854319Y-44935109D01*
X84016722Y-44862803D01*
X84016724Y-44862802D01*
X84022752Y-44860118D01*
X84177253Y-44747866D01*
X84305040Y-44605944D01*
X84400527Y-44440556D01*
X84459542Y-44258928D01*
X84479504Y-44069000D01*
X84459542Y-43879072D01*
X84400527Y-43697444D01*
X84305040Y-43532056D01*
X84225254Y-43443444D01*
X84181675Y-43395045D01*
X84181674Y-43395044D01*
X84177253Y-43390134D01*
X84059113Y-43304300D01*
X84028094Y-43281763D01*
X84028093Y-43281762D01*
X84022752Y-43277882D01*
X84016724Y-43275198D01*
X84016722Y-43275197D01*
X83854319Y-43202891D01*
X83854318Y-43202891D01*
X83848288Y-43200206D01*
X83754888Y-43180353D01*
X83667944Y-43161872D01*
X83667939Y-43161872D01*
X83661487Y-43160500D01*
X83470513Y-43160500D01*
X83464061Y-43161872D01*
X83464056Y-43161872D01*
X83377112Y-43180353D01*
X83283712Y-43200206D01*
X83277682Y-43202891D01*
X83277681Y-43202891D01*
X83115278Y-43275197D01*
X83115276Y-43275198D01*
X83109248Y-43277882D01*
X83103907Y-43281762D01*
X83103906Y-43281763D01*
X83072887Y-43304300D01*
X82954747Y-43390134D01*
X82950326Y-43395044D01*
X82950325Y-43395045D01*
X82906747Y-43443444D01*
X82826960Y-43532056D01*
X82731473Y-43697444D01*
X82672458Y-43879072D01*
X82652496Y-44069000D01*
X71484724Y-44069000D01*
X71505542Y-44004928D01*
X71525504Y-43815000D01*
X71505542Y-43625072D01*
X71446527Y-43443444D01*
X71351040Y-43278056D01*
X71223253Y-43136134D01*
X71079873Y-43031962D01*
X71074094Y-43027763D01*
X71074093Y-43027762D01*
X71068752Y-43023882D01*
X71062724Y-43021198D01*
X71062722Y-43021197D01*
X70900319Y-42948891D01*
X70900318Y-42948891D01*
X70894288Y-42946206D01*
X70800888Y-42926353D01*
X70713944Y-42907872D01*
X70713939Y-42907872D01*
X70707487Y-42906500D01*
X70516513Y-42906500D01*
X70510061Y-42907872D01*
X70510056Y-42907872D01*
X70423113Y-42926353D01*
X70329712Y-42946206D01*
X70323682Y-42948891D01*
X70323681Y-42948891D01*
X70161278Y-43021197D01*
X70161276Y-43021198D01*
X70155248Y-43023882D01*
X70149907Y-43027762D01*
X70149906Y-43027763D01*
X70144127Y-43031962D01*
X70000747Y-43136134D01*
X69872960Y-43278056D01*
X69777473Y-43443444D01*
X69718458Y-43625072D01*
X69698496Y-43815000D01*
X20508460Y-43815000D01*
X20508460Y-41368695D01*
X105977651Y-41368695D01*
X105977948Y-41373848D01*
X105977948Y-41373851D01*
X105983411Y-41468590D01*
X105990510Y-41591715D01*
X105991647Y-41596761D01*
X105991648Y-41596767D01*
X105998254Y-41626077D01*
X106039622Y-41809639D01*
X106077861Y-41903811D01*
X106105714Y-41972404D01*
X106123666Y-42016616D01*
X106240387Y-42207088D01*
X106386650Y-42375938D01*
X106558526Y-42518632D01*
X106751400Y-42631338D01*
X106960092Y-42711030D01*
X106965160Y-42712061D01*
X106965163Y-42712062D01*
X107072417Y-42733883D01*
X107178997Y-42755567D01*
X107184172Y-42755757D01*
X107184174Y-42755757D01*
X107397073Y-42763564D01*
X107397077Y-42763564D01*
X107402237Y-42763753D01*
X107407357Y-42763097D01*
X107407359Y-42763097D01*
X107618688Y-42736025D01*
X107618689Y-42736025D01*
X107623816Y-42735368D01*
X107628766Y-42733883D01*
X107832829Y-42672661D01*
X107832834Y-42672659D01*
X107837784Y-42671174D01*
X108038394Y-42572896D01*
X108220260Y-42443173D01*
X108378496Y-42285489D01*
X108437994Y-42202689D01*
X108505835Y-42108277D01*
X108508853Y-42104077D01*
X108573930Y-41972404D01*
X108605536Y-41908453D01*
X108605537Y-41908451D01*
X108607830Y-41903811D01*
X108672770Y-41690069D01*
X108701929Y-41468590D01*
X108703556Y-41402000D01*
X108702608Y-41390474D01*
X114172402Y-41390474D01*
X114181051Y-41620858D01*
X114228393Y-41846491D01*
X114230351Y-41851450D01*
X114230352Y-41851452D01*
X114293689Y-42011829D01*
X114313076Y-42060921D01*
X114432677Y-42258017D01*
X114436174Y-42262047D01*
X114537869Y-42379240D01*
X114583777Y-42432145D01*
X114619420Y-42461370D01*
X114659414Y-42520029D01*
X114661346Y-42590999D01*
X114624602Y-42651748D01*
X114605832Y-42665948D01*
X114492590Y-42736025D01*
X114459952Y-42756222D01*
X114334995Y-42881397D01*
X114331155Y-42887627D01*
X114331154Y-42887628D01*
X114247166Y-43023882D01*
X114242185Y-43031962D01*
X114186503Y-43199839D01*
X114175800Y-43304300D01*
X114175800Y-44605100D01*
X114186774Y-44710866D01*
X114188955Y-44717402D01*
X114188955Y-44717404D01*
X114233028Y-44849506D01*
X114242750Y-44878646D01*
X114335822Y-45029048D01*
X114460997Y-45154005D01*
X114467227Y-45157845D01*
X114467228Y-45157846D01*
X114604390Y-45242394D01*
X114611562Y-45246815D01*
X114691305Y-45273264D01*
X114772911Y-45300332D01*
X114772913Y-45300332D01*
X114779439Y-45302497D01*
X114786275Y-45303197D01*
X114786278Y-45303198D01*
X114829331Y-45307609D01*
X114883900Y-45313200D01*
X116484700Y-45313200D01*
X116487946Y-45312863D01*
X116487950Y-45312863D01*
X116583608Y-45302938D01*
X116583612Y-45302937D01*
X116590466Y-45302226D01*
X116597002Y-45300045D01*
X116597004Y-45300045D01*
X116729106Y-45255972D01*
X116758246Y-45246250D01*
X116908648Y-45153178D01*
X117033605Y-45028003D01*
X117064736Y-44977500D01*
X117122575Y-44883668D01*
X117122576Y-44883666D01*
X117126415Y-44877438D01*
X117182097Y-44709561D01*
X117184597Y-44685166D01*
X117187209Y-44659669D01*
X117192800Y-44605100D01*
X117192800Y-43304300D01*
X117192463Y-43301050D01*
X117182538Y-43205392D01*
X117182537Y-43205388D01*
X117181826Y-43198534D01*
X117125850Y-43030754D01*
X117032778Y-42880352D01*
X116907603Y-42755395D01*
X116761960Y-42665619D01*
X116714468Y-42612848D01*
X116703044Y-42542776D01*
X116731318Y-42477652D01*
X116741105Y-42467190D01*
X116787685Y-42422754D01*
X116855435Y-42358124D01*
X116993054Y-42173158D01*
X117097540Y-41967649D01*
X117117363Y-41903811D01*
X117164324Y-41752571D01*
X117165907Y-41747473D01*
X117174195Y-41684939D01*
X117195498Y-41524211D01*
X117195498Y-41524206D01*
X117196198Y-41518926D01*
X117187549Y-41288542D01*
X117140207Y-41062909D01*
X117055524Y-40848479D01*
X116980232Y-40724401D01*
X116938690Y-40655943D01*
X116935923Y-40651383D01*
X116846569Y-40548411D01*
X116788323Y-40481288D01*
X116788321Y-40481286D01*
X116784823Y-40477255D01*
X116696764Y-40405051D01*
X116610673Y-40334460D01*
X116610667Y-40334456D01*
X116606545Y-40331076D01*
X116601909Y-40328437D01*
X116601906Y-40328435D01*
X116410829Y-40219668D01*
X116406186Y-40217025D01*
X116189475Y-40138363D01*
X116184226Y-40137414D01*
X116184223Y-40137413D01*
X115966692Y-40098077D01*
X115966685Y-40098076D01*
X115962608Y-40097339D01*
X115944886Y-40096503D01*
X115939944Y-40096270D01*
X115939937Y-40096270D01*
X115938456Y-40096200D01*
X115476410Y-40096200D01*
X115409491Y-40101878D01*
X115309891Y-40110329D01*
X115309887Y-40110330D01*
X115304580Y-40110780D01*
X115299425Y-40112118D01*
X115299419Y-40112119D01*
X115086597Y-40167357D01*
X115086593Y-40167358D01*
X115081428Y-40168699D01*
X115076562Y-40170891D01*
X115076559Y-40170892D01*
X114968931Y-40219375D01*
X114871225Y-40263388D01*
X114679981Y-40392141D01*
X114513165Y-40551276D01*
X114375546Y-40736242D01*
X114373130Y-40740993D01*
X114373128Y-40740997D01*
X114364565Y-40757840D01*
X114271060Y-40941751D01*
X114269478Y-40946845D01*
X114269477Y-40946848D01*
X114209008Y-41141588D01*
X114202693Y-41161927D01*
X114201992Y-41167216D01*
X114175289Y-41368695D01*
X114172402Y-41390474D01*
X108702608Y-41390474D01*
X108685252Y-41179361D01*
X108630831Y-40962702D01*
X108541754Y-40757840D01*
X108420414Y-40570277D01*
X108407017Y-40555554D01*
X108273198Y-40408488D01*
X108242146Y-40344642D01*
X108250541Y-40274143D01*
X108295717Y-40219375D01*
X108322161Y-40205706D01*
X108428697Y-40165767D01*
X108437105Y-40162615D01*
X108553661Y-40075261D01*
X108641015Y-39958705D01*
X108692145Y-39822316D01*
X108698900Y-39760134D01*
X108698900Y-37963866D01*
X108692145Y-37901684D01*
X108641015Y-37765295D01*
X108553661Y-37648739D01*
X108437105Y-37561385D01*
X108300716Y-37510255D01*
X108238534Y-37503500D01*
X106442266Y-37503500D01*
X106380084Y-37510255D01*
X106243695Y-37561385D01*
X106127139Y-37648739D01*
X106039785Y-37765295D01*
X105988655Y-37901684D01*
X105981900Y-37963866D01*
X105981900Y-39760134D01*
X105988655Y-39822316D01*
X106039785Y-39958705D01*
X106127139Y-40075261D01*
X106243695Y-40162615D01*
X106252104Y-40165767D01*
X106252105Y-40165768D01*
X106360851Y-40206535D01*
X106417616Y-40249176D01*
X106442316Y-40315738D01*
X106427109Y-40385087D01*
X106407716Y-40411568D01*
X106281029Y-40544138D01*
X106278115Y-40548410D01*
X106278114Y-40548411D01*
X106207871Y-40651383D01*
X106155143Y-40728680D01*
X106061088Y-40931305D01*
X106001389Y-41146570D01*
X105977651Y-41368695D01*
X20508460Y-41368695D01*
X20508460Y-37909026D01*
X23396550Y-37909026D01*
X23396774Y-37913692D01*
X23396774Y-37913697D01*
X23402345Y-38029671D01*
X23409447Y-38177519D01*
X23461888Y-38441156D01*
X23552720Y-38694146D01*
X23679950Y-38930931D01*
X23682741Y-38934668D01*
X23682745Y-38934675D01*
X23764387Y-39044006D01*
X23840781Y-39146310D01*
X23844090Y-39149590D01*
X23844095Y-39149596D01*
X23967516Y-39271944D01*
X24031680Y-39335550D01*
X24035442Y-39338308D01*
X24035445Y-39338311D01*
X24143785Y-39417749D01*
X24248454Y-39494495D01*
X24252589Y-39496671D01*
X24252593Y-39496673D01*
X24451092Y-39601109D01*
X24486340Y-39619654D01*
X24740113Y-39708275D01*
X24744706Y-39709147D01*
X24999609Y-39757542D01*
X24999612Y-39757542D01*
X25004198Y-39758413D01*
X25131870Y-39763429D01*
X25268125Y-39768783D01*
X25268130Y-39768783D01*
X25272793Y-39768966D01*
X25377107Y-39757542D01*
X25535344Y-39740213D01*
X25535350Y-39740212D01*
X25539997Y-39739703D01*
X25544521Y-39738512D01*
X25795418Y-39672456D01*
X25795420Y-39672455D01*
X25799941Y-39671265D01*
X25804238Y-39669419D01*
X26042620Y-39567002D01*
X26042622Y-39567001D01*
X26046914Y-39565157D01*
X26196719Y-39472455D01*
X26271517Y-39426169D01*
X26271521Y-39426166D01*
X26275490Y-39423710D01*
X26480649Y-39250030D01*
X26657882Y-39047934D01*
X26674016Y-39022852D01*
X26800769Y-38825791D01*
X26803297Y-38821861D01*
X26842425Y-38735000D01*
X67920496Y-38735000D01*
X67921186Y-38741565D01*
X67929178Y-38817600D01*
X67940458Y-38924928D01*
X67999473Y-39106556D01*
X68094960Y-39271944D01*
X68099378Y-39276851D01*
X68099379Y-39276852D01*
X68152231Y-39335550D01*
X68222747Y-39413866D01*
X68239681Y-39426169D01*
X68362122Y-39515128D01*
X68377248Y-39526118D01*
X68383276Y-39528802D01*
X68383278Y-39528803D01*
X68545681Y-39601109D01*
X68551712Y-39603794D01*
X68645112Y-39623647D01*
X68732056Y-39642128D01*
X68732061Y-39642128D01*
X68738513Y-39643500D01*
X68929487Y-39643500D01*
X68935939Y-39642128D01*
X68935944Y-39642128D01*
X69022888Y-39623647D01*
X69116288Y-39603794D01*
X69122319Y-39601109D01*
X69284722Y-39528803D01*
X69284724Y-39528802D01*
X69290752Y-39526118D01*
X69305879Y-39515128D01*
X69428319Y-39426169D01*
X69445253Y-39413866D01*
X69515769Y-39335550D01*
X69568621Y-39276852D01*
X69568622Y-39276851D01*
X69573040Y-39271944D01*
X69599990Y-39225265D01*
X69651372Y-39176272D01*
X69721086Y-39162836D01*
X69783170Y-39186329D01*
X69870847Y-39250030D01*
X69901248Y-39272118D01*
X69907276Y-39274802D01*
X69907278Y-39274803D01*
X70069681Y-39347109D01*
X70075712Y-39349794D01*
X70169112Y-39369647D01*
X70256056Y-39388128D01*
X70256061Y-39388128D01*
X70262513Y-39389500D01*
X70453487Y-39389500D01*
X70459939Y-39388128D01*
X70459944Y-39388128D01*
X70546888Y-39369647D01*
X70640288Y-39349794D01*
X70646319Y-39347109D01*
X70808722Y-39274803D01*
X70808724Y-39274802D01*
X70814752Y-39272118D01*
X70845154Y-39250030D01*
X70946672Y-39176272D01*
X70969253Y-39159866D01*
X70987837Y-39139226D01*
X71092621Y-39022852D01*
X71092622Y-39022851D01*
X71097040Y-39017944D01*
X71192527Y-38852556D01*
X71251542Y-38670928D01*
X71258156Y-38608000D01*
X80493496Y-38608000D01*
X80513458Y-38797928D01*
X80572473Y-38979556D01*
X80667960Y-39144944D01*
X80672378Y-39149851D01*
X80672379Y-39149852D01*
X80738635Y-39223437D01*
X80795747Y-39286866D01*
X80858229Y-39332262D01*
X80935122Y-39388128D01*
X80950248Y-39399118D01*
X80956276Y-39401802D01*
X80956278Y-39401803D01*
X81114966Y-39472455D01*
X81124712Y-39476794D01*
X81207988Y-39494495D01*
X81305056Y-39515128D01*
X81305061Y-39515128D01*
X81311513Y-39516500D01*
X81502487Y-39516500D01*
X81508939Y-39515128D01*
X81508944Y-39515128D01*
X81606012Y-39494495D01*
X81689288Y-39476794D01*
X81699034Y-39472455D01*
X81857722Y-39401803D01*
X81857724Y-39401802D01*
X81863752Y-39399118D01*
X81878879Y-39388128D01*
X81955771Y-39332262D01*
X82018253Y-39286866D01*
X82075365Y-39223436D01*
X82135810Y-39186198D01*
X82206794Y-39187550D01*
X82262634Y-39223436D01*
X82319747Y-39286866D01*
X82382229Y-39332262D01*
X82459122Y-39388128D01*
X82474248Y-39399118D01*
X82480276Y-39401802D01*
X82480278Y-39401803D01*
X82638966Y-39472455D01*
X82648712Y-39476794D01*
X82731988Y-39494495D01*
X82829056Y-39515128D01*
X82829061Y-39515128D01*
X82835513Y-39516500D01*
X83026487Y-39516500D01*
X83032939Y-39515128D01*
X83032944Y-39515128D01*
X83130012Y-39494495D01*
X83213288Y-39476794D01*
X83223034Y-39472455D01*
X83381722Y-39401803D01*
X83381724Y-39401802D01*
X83387752Y-39399118D01*
X83402879Y-39388128D01*
X83479771Y-39332262D01*
X83542253Y-39286866D01*
X83599365Y-39223437D01*
X83665621Y-39149852D01*
X83665622Y-39149851D01*
X83670040Y-39144944D01*
X83765527Y-38979556D01*
X83824356Y-38798500D01*
X97460696Y-38798500D01*
X97461386Y-38805065D01*
X97479726Y-38979556D01*
X97480658Y-38988428D01*
X97539673Y-39170056D01*
X97542976Y-39175778D01*
X97542977Y-39175779D01*
X97549068Y-39186329D01*
X97635160Y-39335444D01*
X97639578Y-39340351D01*
X97639579Y-39340352D01*
X97714635Y-39423710D01*
X97762947Y-39477366D01*
X97917448Y-39589618D01*
X97923476Y-39592302D01*
X97923478Y-39592303D01*
X98085881Y-39664609D01*
X98091912Y-39667294D01*
X98185312Y-39687147D01*
X98272256Y-39705628D01*
X98272261Y-39705628D01*
X98278713Y-39707000D01*
X98469687Y-39707000D01*
X98476139Y-39705628D01*
X98476144Y-39705628D01*
X98563087Y-39687147D01*
X98656488Y-39667294D01*
X98662519Y-39664609D01*
X98824922Y-39592303D01*
X98824924Y-39592302D01*
X98830952Y-39589618D01*
X98985453Y-39477366D01*
X99033765Y-39423710D01*
X99108821Y-39340352D01*
X99108822Y-39340351D01*
X99113240Y-39335444D01*
X99199332Y-39186329D01*
X99205423Y-39175779D01*
X99205424Y-39175778D01*
X99208727Y-39170056D01*
X99267742Y-38988428D01*
X99268675Y-38979556D01*
X99287014Y-38805065D01*
X99287704Y-38798500D01*
X99267742Y-38608572D01*
X99208727Y-38426944D01*
X99113240Y-38261556D01*
X99056065Y-38198056D01*
X98989875Y-38124545D01*
X98989874Y-38124544D01*
X98985453Y-38119634D01*
X98861630Y-38029671D01*
X98836294Y-38011263D01*
X98836293Y-38011262D01*
X98830952Y-38007382D01*
X98824924Y-38004698D01*
X98824922Y-38004697D01*
X98662519Y-37932391D01*
X98662518Y-37932391D01*
X98656488Y-37929706D01*
X98537302Y-37904372D01*
X98476144Y-37891372D01*
X98476139Y-37891372D01*
X98469687Y-37890000D01*
X98278713Y-37890000D01*
X98272261Y-37891372D01*
X98272256Y-37891372D01*
X98211098Y-37904372D01*
X98091912Y-37929706D01*
X98085882Y-37932391D01*
X98085881Y-37932391D01*
X97923478Y-38004697D01*
X97923476Y-38004698D01*
X97917448Y-38007382D01*
X97912107Y-38011262D01*
X97912106Y-38011263D01*
X97886770Y-38029671D01*
X97762947Y-38119634D01*
X97758526Y-38124544D01*
X97758525Y-38124545D01*
X97692336Y-38198056D01*
X97635160Y-38261556D01*
X97539673Y-38426944D01*
X97480658Y-38608572D01*
X97460696Y-38798500D01*
X83824356Y-38798500D01*
X83824542Y-38797928D01*
X83844504Y-38608000D01*
X83841671Y-38581042D01*
X83825232Y-38424635D01*
X83825232Y-38424633D01*
X83824542Y-38418072D01*
X83765527Y-38236444D01*
X83670040Y-38071056D01*
X83655174Y-38054545D01*
X83546675Y-37934045D01*
X83546671Y-37934041D01*
X83542253Y-37929134D01*
X83443157Y-37857136D01*
X83393094Y-37820763D01*
X83393093Y-37820762D01*
X83387752Y-37816882D01*
X83381724Y-37814198D01*
X83381722Y-37814197D01*
X83219319Y-37741891D01*
X83219318Y-37741891D01*
X83213288Y-37739206D01*
X83119887Y-37719353D01*
X83032944Y-37700872D01*
X83032939Y-37700872D01*
X83026487Y-37699500D01*
X82835513Y-37699500D01*
X82829061Y-37700872D01*
X82829056Y-37700872D01*
X82742113Y-37719353D01*
X82648712Y-37739206D01*
X82642682Y-37741891D01*
X82642681Y-37741891D01*
X82480278Y-37814197D01*
X82480276Y-37814198D01*
X82474248Y-37816882D01*
X82468907Y-37820762D01*
X82468906Y-37820763D01*
X82418843Y-37857136D01*
X82319747Y-37929134D01*
X82262635Y-37992564D01*
X82202190Y-38029802D01*
X82131206Y-38028450D01*
X82075366Y-37992564D01*
X82018253Y-37929134D01*
X81919157Y-37857136D01*
X81869094Y-37820763D01*
X81869093Y-37820762D01*
X81863752Y-37816882D01*
X81857724Y-37814198D01*
X81857722Y-37814197D01*
X81695319Y-37741891D01*
X81695318Y-37741891D01*
X81689288Y-37739206D01*
X81595887Y-37719353D01*
X81508944Y-37700872D01*
X81508939Y-37700872D01*
X81502487Y-37699500D01*
X81311513Y-37699500D01*
X81305061Y-37700872D01*
X81305056Y-37700872D01*
X81218113Y-37719353D01*
X81124712Y-37739206D01*
X81118682Y-37741891D01*
X81118681Y-37741891D01*
X80956278Y-37814197D01*
X80956276Y-37814198D01*
X80950248Y-37816882D01*
X80944907Y-37820762D01*
X80944906Y-37820763D01*
X80894843Y-37857136D01*
X80795747Y-37929134D01*
X80791329Y-37934041D01*
X80791325Y-37934045D01*
X80682827Y-38054545D01*
X80667960Y-38071056D01*
X80572473Y-38236444D01*
X80513458Y-38418072D01*
X80512768Y-38424633D01*
X80512768Y-38424635D01*
X80496329Y-38581042D01*
X80493496Y-38608000D01*
X71258156Y-38608000D01*
X71261438Y-38576778D01*
X71270814Y-38487565D01*
X71271504Y-38481000D01*
X71270814Y-38474435D01*
X71252232Y-38297635D01*
X71252232Y-38297633D01*
X71251542Y-38291072D01*
X71192527Y-38109444D01*
X71097040Y-37944056D01*
X71088023Y-37934041D01*
X70973675Y-37807045D01*
X70973674Y-37807044D01*
X70969253Y-37802134D01*
X70870157Y-37730136D01*
X70820094Y-37693763D01*
X70820093Y-37693762D01*
X70814752Y-37689882D01*
X70808724Y-37687198D01*
X70808722Y-37687197D01*
X70646319Y-37614891D01*
X70646318Y-37614891D01*
X70640288Y-37612206D01*
X70527721Y-37588279D01*
X70459944Y-37573872D01*
X70459939Y-37573872D01*
X70453487Y-37572500D01*
X70262513Y-37572500D01*
X70256061Y-37573872D01*
X70256056Y-37573872D01*
X70188279Y-37588279D01*
X70075712Y-37612206D01*
X70069682Y-37614891D01*
X70069681Y-37614891D01*
X69907278Y-37687197D01*
X69907276Y-37687198D01*
X69901248Y-37689882D01*
X69895907Y-37693762D01*
X69895906Y-37693763D01*
X69845843Y-37730136D01*
X69746747Y-37802134D01*
X69742326Y-37807044D01*
X69742325Y-37807045D01*
X69627978Y-37934041D01*
X69618960Y-37944056D01*
X69592010Y-37990735D01*
X69540628Y-38039728D01*
X69470914Y-38053164D01*
X69408830Y-38029671D01*
X69296094Y-37947763D01*
X69296093Y-37947762D01*
X69290752Y-37943882D01*
X69284724Y-37941198D01*
X69284722Y-37941197D01*
X69122319Y-37868891D01*
X69122318Y-37868891D01*
X69116288Y-37866206D01*
X69022887Y-37846353D01*
X68935944Y-37827872D01*
X68935939Y-37827872D01*
X68929487Y-37826500D01*
X68738513Y-37826500D01*
X68732061Y-37827872D01*
X68732056Y-37827872D01*
X68645113Y-37846353D01*
X68551712Y-37866206D01*
X68545682Y-37868891D01*
X68545681Y-37868891D01*
X68383278Y-37941197D01*
X68383276Y-37941198D01*
X68377248Y-37943882D01*
X68371907Y-37947762D01*
X68371906Y-37947763D01*
X68354418Y-37960469D01*
X68222747Y-38056134D01*
X68218326Y-38061044D01*
X68218325Y-38061045D01*
X68113452Y-38177519D01*
X68094960Y-38198056D01*
X68054997Y-38267274D01*
X68023071Y-38322572D01*
X67999473Y-38363444D01*
X67940458Y-38545072D01*
X67939768Y-38551633D01*
X67939768Y-38551635D01*
X67936677Y-38581042D01*
X67920496Y-38735000D01*
X26842425Y-38735000D01*
X26913699Y-38576778D01*
X26950709Y-38445551D01*
X26985393Y-38322572D01*
X26985394Y-38322569D01*
X26986663Y-38318068D01*
X27004543Y-38177519D01*
X27020188Y-38054545D01*
X27020188Y-38054541D01*
X27020586Y-38051415D01*
X27021156Y-38029671D01*
X27022736Y-37969279D01*
X27023071Y-37956500D01*
X27021934Y-37941197D01*
X27003496Y-37693092D01*
X27003496Y-37693091D01*
X27003150Y-37688437D01*
X26995792Y-37655919D01*
X26944861Y-37430831D01*
X26944860Y-37430826D01*
X26943827Y-37426263D01*
X26846402Y-37175738D01*
X26713018Y-36942364D01*
X26686913Y-36909249D01*
X26645369Y-36856551D01*
X26546605Y-36731269D01*
X26350817Y-36547091D01*
X26209420Y-36449000D01*
X57506496Y-36449000D01*
X57507186Y-36455565D01*
X57514826Y-36528251D01*
X57526458Y-36638928D01*
X57585473Y-36820556D01*
X57680960Y-36985944D01*
X57685378Y-36990851D01*
X57685379Y-36990852D01*
X57712589Y-37021072D01*
X57808747Y-37127866D01*
X57814088Y-37131746D01*
X57814093Y-37131751D01*
X57886625Y-37184449D01*
X57929978Y-37240671D01*
X57936053Y-37311407D01*
X57932396Y-37325320D01*
X57907458Y-37402072D01*
X57906768Y-37408633D01*
X57906768Y-37408635D01*
X57889401Y-37573872D01*
X57887496Y-37592000D01*
X57888186Y-37598565D01*
X57906594Y-37773703D01*
X57907458Y-37781928D01*
X57966473Y-37963556D01*
X58061960Y-38128944D01*
X58189747Y-38270866D01*
X58248331Y-38313430D01*
X58325820Y-38369729D01*
X58344248Y-38383118D01*
X58350276Y-38385802D01*
X58350278Y-38385803D01*
X58464324Y-38436579D01*
X58518712Y-38460794D01*
X58582888Y-38474435D01*
X58699056Y-38499128D01*
X58699061Y-38499128D01*
X58705513Y-38500500D01*
X58896487Y-38500500D01*
X58902939Y-38499128D01*
X58902944Y-38499128D01*
X59019112Y-38474435D01*
X59083288Y-38460794D01*
X59137676Y-38436579D01*
X59251722Y-38385803D01*
X59251724Y-38385802D01*
X59257752Y-38383118D01*
X59276181Y-38369729D01*
X59353669Y-38313430D01*
X59412253Y-38270866D01*
X59540040Y-38128944D01*
X59635527Y-37963556D01*
X59694542Y-37781928D01*
X59695407Y-37773703D01*
X59713814Y-37598565D01*
X59714504Y-37592000D01*
X59712599Y-37573872D01*
X59695232Y-37408635D01*
X59695232Y-37408633D01*
X59694542Y-37402072D01*
X59635527Y-37220444D01*
X59630075Y-37211000D01*
X65888496Y-37211000D01*
X65889186Y-37217565D01*
X65906845Y-37385577D01*
X65908458Y-37400928D01*
X65967473Y-37582556D01*
X65970776Y-37588278D01*
X65970777Y-37588279D01*
X65976716Y-37598565D01*
X66062960Y-37747944D01*
X66067378Y-37752851D01*
X66067379Y-37752852D01*
X66111753Y-37802134D01*
X66190747Y-37889866D01*
X66283522Y-37957271D01*
X66332097Y-37992563D01*
X66345248Y-38002118D01*
X66351276Y-38004802D01*
X66351278Y-38004803D01*
X66489062Y-38066148D01*
X66519712Y-38079794D01*
X66613113Y-38099647D01*
X66700056Y-38118128D01*
X66700061Y-38118128D01*
X66706513Y-38119500D01*
X66897487Y-38119500D01*
X66903939Y-38118128D01*
X66903944Y-38118128D01*
X66990887Y-38099647D01*
X67084288Y-38079794D01*
X67114938Y-38066148D01*
X67252722Y-38004803D01*
X67252724Y-38004802D01*
X67258752Y-38002118D01*
X67271904Y-37992563D01*
X67320478Y-37957271D01*
X67413253Y-37889866D01*
X67492247Y-37802134D01*
X67536621Y-37752852D01*
X67536622Y-37752851D01*
X67541040Y-37747944D01*
X67627284Y-37598565D01*
X67633223Y-37588279D01*
X67633224Y-37588278D01*
X67636527Y-37582556D01*
X67695542Y-37400928D01*
X67697156Y-37385577D01*
X67714814Y-37217565D01*
X67715504Y-37211000D01*
X67712713Y-37184449D01*
X67696232Y-37027635D01*
X67696232Y-37027633D01*
X67695542Y-37021072D01*
X67636527Y-36839444D01*
X67541040Y-36674056D01*
X67515064Y-36645206D01*
X67417675Y-36537045D01*
X67417674Y-36537044D01*
X67413253Y-36532134D01*
X67298829Y-36449000D01*
X67264094Y-36423763D01*
X67264093Y-36423762D01*
X67258752Y-36419882D01*
X67252724Y-36417198D01*
X67252722Y-36417197D01*
X67090319Y-36344891D01*
X67090318Y-36344891D01*
X67084288Y-36342206D01*
X66990887Y-36322353D01*
X66903944Y-36303872D01*
X66903939Y-36303872D01*
X66897487Y-36302500D01*
X66706513Y-36302500D01*
X66700061Y-36303872D01*
X66700056Y-36303872D01*
X66613113Y-36322353D01*
X66519712Y-36342206D01*
X66513682Y-36344891D01*
X66513681Y-36344891D01*
X66351278Y-36417197D01*
X66351276Y-36417198D01*
X66345248Y-36419882D01*
X66339907Y-36423762D01*
X66339906Y-36423763D01*
X66305171Y-36449000D01*
X66190747Y-36532134D01*
X66186326Y-36537044D01*
X66186325Y-36537045D01*
X66088937Y-36645206D01*
X66062960Y-36674056D01*
X65967473Y-36839444D01*
X65908458Y-37021072D01*
X65907768Y-37027633D01*
X65907768Y-37027635D01*
X65891287Y-37184449D01*
X65888496Y-37211000D01*
X59630075Y-37211000D01*
X59582077Y-37127866D01*
X59540040Y-37055056D01*
X59412253Y-36913134D01*
X59406912Y-36909254D01*
X59406907Y-36909249D01*
X59334375Y-36856551D01*
X59291022Y-36800329D01*
X59284947Y-36729593D01*
X59288604Y-36715680D01*
X59311502Y-36645206D01*
X59313542Y-36638928D01*
X59325175Y-36528251D01*
X59332814Y-36455565D01*
X59333504Y-36449000D01*
X59322280Y-36342206D01*
X59314232Y-36265635D01*
X59314232Y-36265633D01*
X59313542Y-36259072D01*
X59254527Y-36077444D01*
X59159040Y-35912056D01*
X59110968Y-35858666D01*
X59035675Y-35775045D01*
X59035674Y-35775044D01*
X59031253Y-35770134D01*
X58876752Y-35657882D01*
X58870724Y-35655198D01*
X58870722Y-35655197D01*
X58708319Y-35582891D01*
X58708318Y-35582891D01*
X58702288Y-35580206D01*
X58608888Y-35560353D01*
X58521944Y-35541872D01*
X58521939Y-35541872D01*
X58515487Y-35540500D01*
X58324513Y-35540500D01*
X58318061Y-35541872D01*
X58318056Y-35541872D01*
X58231112Y-35560353D01*
X58137712Y-35580206D01*
X58131682Y-35582891D01*
X58131681Y-35582891D01*
X57969278Y-35655197D01*
X57969276Y-35655198D01*
X57963248Y-35657882D01*
X57808747Y-35770134D01*
X57804326Y-35775044D01*
X57804325Y-35775045D01*
X57729033Y-35858666D01*
X57680960Y-35912056D01*
X57585473Y-36077444D01*
X57526458Y-36259072D01*
X57525768Y-36265633D01*
X57525768Y-36265635D01*
X57517720Y-36342206D01*
X57506496Y-36449000D01*
X26209420Y-36449000D01*
X26129957Y-36393874D01*
X26125764Y-36391806D01*
X25893064Y-36277051D01*
X25893061Y-36277050D01*
X25888876Y-36274986D01*
X25859664Y-36265635D01*
X25729964Y-36224118D01*
X25632870Y-36193038D01*
X25628263Y-36192288D01*
X25628260Y-36192287D01*
X25372174Y-36150581D01*
X25372175Y-36150581D01*
X25367563Y-36149830D01*
X25237219Y-36148124D01*
X25103461Y-36146373D01*
X25103458Y-36146373D01*
X25098784Y-36146312D01*
X24832437Y-36182560D01*
X24574374Y-36257778D01*
X24330263Y-36370315D01*
X24326354Y-36372878D01*
X24109381Y-36515131D01*
X24109376Y-36515135D01*
X24105468Y-36517697D01*
X24075524Y-36544423D01*
X23962607Y-36645206D01*
X23904926Y-36696688D01*
X23733044Y-36903354D01*
X23593596Y-37133156D01*
X23591787Y-37137470D01*
X23591785Y-37137474D01*
X23513015Y-37325320D01*
X23489648Y-37381045D01*
X23423481Y-37641577D01*
X23396550Y-37909026D01*
X20508460Y-37909026D01*
X20508460Y-34304634D01*
X23401000Y-34304634D01*
X23407755Y-34366816D01*
X23458885Y-34503205D01*
X23546239Y-34619761D01*
X23662795Y-34707115D01*
X23799184Y-34758245D01*
X23861366Y-34765000D01*
X26557634Y-34765000D01*
X26619816Y-34758245D01*
X26756205Y-34707115D01*
X26872761Y-34619761D01*
X26960115Y-34503205D01*
X27011245Y-34366816D01*
X27018000Y-34304634D01*
X27018000Y-33718500D01*
X50267496Y-33718500D01*
X50268186Y-33725065D01*
X50282500Y-33861251D01*
X50287458Y-33908428D01*
X50346473Y-34090056D01*
X50441960Y-34255444D01*
X50446378Y-34260351D01*
X50446379Y-34260352D01*
X50489309Y-34308031D01*
X50569747Y-34397366D01*
X50724248Y-34509618D01*
X50730276Y-34512302D01*
X50730278Y-34512303D01*
X50892681Y-34584609D01*
X50898712Y-34587294D01*
X50992113Y-34607147D01*
X51079056Y-34625628D01*
X51079061Y-34625628D01*
X51085513Y-34627000D01*
X51276487Y-34627000D01*
X51282939Y-34625628D01*
X51282944Y-34625628D01*
X51369887Y-34607147D01*
X51463288Y-34587294D01*
X51469319Y-34584609D01*
X51560529Y-34544000D01*
X77826496Y-34544000D01*
X77827186Y-34550565D01*
X77837192Y-34645763D01*
X77846458Y-34733928D01*
X77905473Y-34915556D01*
X77908776Y-34921278D01*
X77908777Y-34921279D01*
X77914716Y-34931565D01*
X78000960Y-35080944D01*
X78005378Y-35085851D01*
X78005379Y-35085852D01*
X78124325Y-35217955D01*
X78128747Y-35222866D01*
X78283248Y-35335118D01*
X78289276Y-35337802D01*
X78289278Y-35337803D01*
X78352114Y-35365779D01*
X78457712Y-35412794D01*
X78521888Y-35426435D01*
X78638056Y-35451128D01*
X78638061Y-35451128D01*
X78644513Y-35452500D01*
X78835487Y-35452500D01*
X78841939Y-35451128D01*
X78841944Y-35451128D01*
X78958112Y-35426435D01*
X79022288Y-35412794D01*
X79127886Y-35365779D01*
X79190722Y-35337803D01*
X79190724Y-35337802D01*
X79196752Y-35335118D01*
X79351253Y-35222866D01*
X79355675Y-35217955D01*
X79474621Y-35085852D01*
X79474622Y-35085851D01*
X79479040Y-35080944D01*
X79565284Y-34931565D01*
X79569075Y-34925000D01*
X85573496Y-34925000D01*
X85593458Y-35114928D01*
X85652473Y-35296556D01*
X85747960Y-35461944D01*
X85752378Y-35466851D01*
X85752379Y-35466852D01*
X85809555Y-35530352D01*
X85875747Y-35603866D01*
X86030248Y-35716118D01*
X86036276Y-35718802D01*
X86036278Y-35718803D01*
X86198681Y-35791109D01*
X86204712Y-35793794D01*
X86298113Y-35813647D01*
X86385056Y-35832128D01*
X86385061Y-35832128D01*
X86391513Y-35833500D01*
X86582487Y-35833500D01*
X86588939Y-35832128D01*
X86588944Y-35832128D01*
X86675887Y-35813647D01*
X86769288Y-35793794D01*
X86775319Y-35791109D01*
X86937722Y-35718803D01*
X86937724Y-35718802D01*
X86943752Y-35716118D01*
X87098253Y-35603866D01*
X87164445Y-35530352D01*
X87221621Y-35466852D01*
X87221622Y-35466851D01*
X87226040Y-35461944D01*
X87321527Y-35296556D01*
X87380542Y-35114928D01*
X87393830Y-34988500D01*
X88367496Y-34988500D01*
X88387458Y-35178428D01*
X88446473Y-35360056D01*
X88541960Y-35525444D01*
X88546378Y-35530351D01*
X88546379Y-35530352D01*
X88664702Y-35661763D01*
X88669747Y-35667366D01*
X88824248Y-35779618D01*
X88830276Y-35782302D01*
X88830278Y-35782303D01*
X88992681Y-35854609D01*
X88998712Y-35857294D01*
X89092112Y-35877147D01*
X89179056Y-35895628D01*
X89179061Y-35895628D01*
X89185513Y-35897000D01*
X89376487Y-35897000D01*
X89382939Y-35895628D01*
X89382944Y-35895628D01*
X89469888Y-35877147D01*
X89563288Y-35857294D01*
X89569319Y-35854609D01*
X89731722Y-35782303D01*
X89731724Y-35782302D01*
X89737752Y-35779618D01*
X89892253Y-35667366D01*
X89897298Y-35661763D01*
X90015621Y-35530352D01*
X90015622Y-35530351D01*
X90020040Y-35525444D01*
X90073413Y-35433000D01*
X97130496Y-35433000D01*
X97131186Y-35439565D01*
X97148863Y-35607749D01*
X97150458Y-35622928D01*
X97209473Y-35804556D01*
X97304960Y-35969944D01*
X97432747Y-36111866D01*
X97529181Y-36181930D01*
X97546432Y-36194463D01*
X97587248Y-36224118D01*
X97593276Y-36226802D01*
X97593278Y-36226803D01*
X97706138Y-36277051D01*
X97761712Y-36301794D01*
X97855113Y-36321647D01*
X97942056Y-36340128D01*
X97942061Y-36340128D01*
X97948513Y-36341500D01*
X98139487Y-36341500D01*
X98145939Y-36340128D01*
X98145944Y-36340128D01*
X98232888Y-36321647D01*
X98326288Y-36301794D01*
X98381862Y-36277051D01*
X98494722Y-36226803D01*
X98494724Y-36226802D01*
X98500752Y-36224118D01*
X98541569Y-36194463D01*
X98558819Y-36181930D01*
X98655253Y-36111866D01*
X98783040Y-35969944D01*
X98878527Y-35804556D01*
X98937542Y-35622928D01*
X98939138Y-35607749D01*
X98956814Y-35439565D01*
X98957504Y-35433000D01*
X98956814Y-35426435D01*
X98938232Y-35249635D01*
X98938232Y-35249633D01*
X98937542Y-35243072D01*
X98878527Y-35061444D01*
X98783040Y-34896056D01*
X98701175Y-34805135D01*
X98659675Y-34759045D01*
X98659674Y-34759044D01*
X98655253Y-34754134D01*
X98500752Y-34641882D01*
X98494724Y-34639198D01*
X98494722Y-34639197D01*
X98332319Y-34566891D01*
X98332318Y-34566891D01*
X98326288Y-34564206D01*
X98231227Y-34544000D01*
X98145944Y-34525872D01*
X98145939Y-34525872D01*
X98139487Y-34524500D01*
X97948513Y-34524500D01*
X97942061Y-34525872D01*
X97942056Y-34525872D01*
X97856773Y-34544000D01*
X97761712Y-34564206D01*
X97755682Y-34566891D01*
X97755681Y-34566891D01*
X97593278Y-34639197D01*
X97593276Y-34639198D01*
X97587248Y-34641882D01*
X97432747Y-34754134D01*
X97428326Y-34759044D01*
X97428325Y-34759045D01*
X97386826Y-34805135D01*
X97304960Y-34896056D01*
X97209473Y-35061444D01*
X97150458Y-35243072D01*
X97149768Y-35249633D01*
X97149768Y-35249635D01*
X97131186Y-35426435D01*
X97130496Y-35433000D01*
X90073413Y-35433000D01*
X90115527Y-35360056D01*
X90174542Y-35178428D01*
X90194504Y-34988500D01*
X90174542Y-34798572D01*
X90115527Y-34616944D01*
X90020040Y-34451556D01*
X89974744Y-34401249D01*
X89896675Y-34314545D01*
X89896674Y-34314544D01*
X89892253Y-34309634D01*
X89737752Y-34197382D01*
X89731724Y-34194698D01*
X89731722Y-34194697D01*
X89569319Y-34122391D01*
X89569318Y-34122391D01*
X89563288Y-34119706D01*
X89450721Y-34095779D01*
X89382944Y-34081372D01*
X89382939Y-34081372D01*
X89376487Y-34080000D01*
X89185513Y-34080000D01*
X89179061Y-34081372D01*
X89179056Y-34081372D01*
X89111279Y-34095779D01*
X88998712Y-34119706D01*
X88992682Y-34122391D01*
X88992681Y-34122391D01*
X88830278Y-34194697D01*
X88830276Y-34194698D01*
X88824248Y-34197382D01*
X88669747Y-34309634D01*
X88665326Y-34314544D01*
X88665325Y-34314545D01*
X88587257Y-34401249D01*
X88541960Y-34451556D01*
X88446473Y-34616944D01*
X88387458Y-34798572D01*
X88367496Y-34988500D01*
X87393830Y-34988500D01*
X87400504Y-34925000D01*
X87382686Y-34755471D01*
X87381232Y-34741635D01*
X87381232Y-34741633D01*
X87380542Y-34735072D01*
X87321527Y-34553444D01*
X87316075Y-34544000D01*
X87229341Y-34393774D01*
X87226040Y-34388056D01*
X87206916Y-34366816D01*
X87102675Y-34251045D01*
X87102674Y-34251044D01*
X87098253Y-34246134D01*
X86943752Y-34133882D01*
X86937724Y-34131198D01*
X86937722Y-34131197D01*
X86775319Y-34058891D01*
X86775318Y-34058891D01*
X86769288Y-34056206D01*
X86675888Y-34036353D01*
X86588944Y-34017872D01*
X86588939Y-34017872D01*
X86582487Y-34016500D01*
X86391513Y-34016500D01*
X86385061Y-34017872D01*
X86385056Y-34017872D01*
X86298112Y-34036353D01*
X86204712Y-34056206D01*
X86198682Y-34058891D01*
X86198681Y-34058891D01*
X86036278Y-34131197D01*
X86036276Y-34131198D01*
X86030248Y-34133882D01*
X85875747Y-34246134D01*
X85871326Y-34251044D01*
X85871325Y-34251045D01*
X85767085Y-34366816D01*
X85747960Y-34388056D01*
X85744659Y-34393774D01*
X85657926Y-34544000D01*
X85652473Y-34553444D01*
X85593458Y-34735072D01*
X85592768Y-34741633D01*
X85592768Y-34741635D01*
X85591314Y-34755471D01*
X85573496Y-34925000D01*
X79569075Y-34925000D01*
X79571223Y-34921279D01*
X79571224Y-34921278D01*
X79574527Y-34915556D01*
X79633542Y-34733928D01*
X79642809Y-34645763D01*
X79652814Y-34550565D01*
X79653504Y-34544000D01*
X79651599Y-34525872D01*
X79634232Y-34360635D01*
X79634232Y-34360633D01*
X79633542Y-34354072D01*
X79574527Y-34172444D01*
X79479040Y-34007056D01*
X79351253Y-33865134D01*
X79196752Y-33752882D01*
X79190724Y-33750198D01*
X79190722Y-33750197D01*
X79028319Y-33677891D01*
X79028318Y-33677891D01*
X79022288Y-33675206D01*
X78928887Y-33655353D01*
X78841944Y-33636872D01*
X78841939Y-33636872D01*
X78835487Y-33635500D01*
X78644513Y-33635500D01*
X78638061Y-33636872D01*
X78638056Y-33636872D01*
X78551113Y-33655353D01*
X78457712Y-33675206D01*
X78451682Y-33677891D01*
X78451681Y-33677891D01*
X78289278Y-33750197D01*
X78289276Y-33750198D01*
X78283248Y-33752882D01*
X78128747Y-33865134D01*
X78000960Y-34007056D01*
X77905473Y-34172444D01*
X77846458Y-34354072D01*
X77845768Y-34360633D01*
X77845768Y-34360635D01*
X77828401Y-34525872D01*
X77826496Y-34544000D01*
X51560529Y-34544000D01*
X51631722Y-34512303D01*
X51631724Y-34512302D01*
X51637752Y-34509618D01*
X51792253Y-34397366D01*
X51872691Y-34308031D01*
X51915621Y-34260352D01*
X51915622Y-34260351D01*
X51920040Y-34255444D01*
X52015527Y-34090056D01*
X52074542Y-33908428D01*
X52079501Y-33861251D01*
X52093814Y-33725065D01*
X52094504Y-33718500D01*
X52089954Y-33675206D01*
X52075232Y-33535135D01*
X52075232Y-33535133D01*
X52074542Y-33528572D01*
X52015527Y-33346944D01*
X51920040Y-33181556D01*
X51792253Y-33039634D01*
X51637752Y-32927382D01*
X51631724Y-32924698D01*
X51631722Y-32924697D01*
X51469319Y-32852391D01*
X51469318Y-32852391D01*
X51463288Y-32849706D01*
X51369887Y-32829853D01*
X51282944Y-32811372D01*
X51282939Y-32811372D01*
X51276487Y-32810000D01*
X51085513Y-32810000D01*
X51079061Y-32811372D01*
X51079056Y-32811372D01*
X50992113Y-32829853D01*
X50898712Y-32849706D01*
X50892682Y-32852391D01*
X50892681Y-32852391D01*
X50730278Y-32924697D01*
X50730276Y-32924698D01*
X50724248Y-32927382D01*
X50569747Y-33039634D01*
X50441960Y-33181556D01*
X50346473Y-33346944D01*
X50287458Y-33528572D01*
X50286768Y-33535133D01*
X50286768Y-33535135D01*
X50272046Y-33675206D01*
X50267496Y-33718500D01*
X27018000Y-33718500D01*
X27018000Y-31623000D01*
X48679996Y-31623000D01*
X48699958Y-31812928D01*
X48758973Y-31994556D01*
X48854460Y-32159944D01*
X48982247Y-32301866D01*
X49136748Y-32414118D01*
X49142776Y-32416802D01*
X49142778Y-32416803D01*
X49301466Y-32487455D01*
X49311212Y-32491794D01*
X49404612Y-32511647D01*
X49491556Y-32530128D01*
X49491561Y-32530128D01*
X49498013Y-32531500D01*
X49688987Y-32531500D01*
X49695439Y-32530128D01*
X49695444Y-32530128D01*
X49782388Y-32511647D01*
X49875788Y-32491794D01*
X49885534Y-32487455D01*
X50044222Y-32416803D01*
X50044224Y-32416802D01*
X50050252Y-32414118D01*
X50204753Y-32301866D01*
X50332540Y-32159944D01*
X50428027Y-31994556D01*
X50487042Y-31812928D01*
X50507004Y-31623000D01*
X50488635Y-31448229D01*
X50487732Y-31439635D01*
X50487732Y-31439633D01*
X50487042Y-31433072D01*
X50428027Y-31251444D01*
X50401724Y-31205885D01*
X50371711Y-31153902D01*
X50332540Y-31086056D01*
X50251263Y-30995788D01*
X50209175Y-30949045D01*
X50209174Y-30949044D01*
X50204753Y-30944134D01*
X50050252Y-30831882D01*
X50044224Y-30829198D01*
X50044222Y-30829197D01*
X49881819Y-30756891D01*
X49881818Y-30756891D01*
X49875788Y-30754206D01*
X49780727Y-30734000D01*
X72365496Y-30734000D01*
X72366186Y-30740565D01*
X72376192Y-30835763D01*
X72385458Y-30923928D01*
X72444473Y-31105556D01*
X72539960Y-31270944D01*
X72544378Y-31275851D01*
X72544379Y-31275852D01*
X72663325Y-31407955D01*
X72667747Y-31412866D01*
X72716420Y-31448229D01*
X72781467Y-31495489D01*
X72824821Y-31551712D01*
X72830511Y-31621870D01*
X72829958Y-31623572D01*
X72809996Y-31813500D01*
X72810686Y-31820065D01*
X72829026Y-31994556D01*
X72829958Y-32003428D01*
X72888973Y-32185056D01*
X72984460Y-32350444D01*
X73112247Y-32492366D01*
X73266748Y-32604618D01*
X73272776Y-32607302D01*
X73272778Y-32607303D01*
X73435181Y-32679609D01*
X73441212Y-32682294D01*
X73534612Y-32702147D01*
X73621556Y-32720628D01*
X73621561Y-32720628D01*
X73628013Y-32722000D01*
X73818987Y-32722000D01*
X73825439Y-32720628D01*
X73825444Y-32720628D01*
X73912388Y-32702147D01*
X74005788Y-32682294D01*
X74011819Y-32679609D01*
X74174222Y-32607303D01*
X74174224Y-32607302D01*
X74180252Y-32604618D01*
X74334753Y-32492366D01*
X74462540Y-32350444D01*
X74558027Y-32185056D01*
X74617042Y-32003428D01*
X74617975Y-31994556D01*
X74636314Y-31820065D01*
X74637004Y-31813500D01*
X74617042Y-31623572D01*
X74558027Y-31441944D01*
X74462540Y-31276556D01*
X74452339Y-31265226D01*
X74339175Y-31139545D01*
X74339174Y-31139544D01*
X74334753Y-31134634D01*
X74261136Y-31081148D01*
X74221033Y-31052011D01*
X74177679Y-30995788D01*
X74171989Y-30925630D01*
X74172542Y-30923928D01*
X74181809Y-30835763D01*
X74191814Y-30740565D01*
X74192504Y-30734000D01*
X74190599Y-30715872D01*
X74173232Y-30550635D01*
X74173232Y-30550633D01*
X74172542Y-30544072D01*
X74168230Y-30530800D01*
X112624496Y-30530800D01*
X112644458Y-30720728D01*
X112703473Y-30902356D01*
X112706776Y-30908078D01*
X112706777Y-30908079D01*
X112719552Y-30930206D01*
X112798960Y-31067744D01*
X112803378Y-31072651D01*
X112803379Y-31072652D01*
X112922325Y-31204755D01*
X112926747Y-31209666D01*
X113081248Y-31321918D01*
X113087276Y-31324602D01*
X113087278Y-31324603D01*
X113249681Y-31396909D01*
X113255712Y-31399594D01*
X113343260Y-31418203D01*
X113436056Y-31437928D01*
X113436061Y-31437928D01*
X113442513Y-31439300D01*
X113633487Y-31439300D01*
X113639939Y-31437928D01*
X113639944Y-31437928D01*
X113732740Y-31418203D01*
X113820288Y-31399594D01*
X113826319Y-31396909D01*
X113988722Y-31324603D01*
X113988724Y-31324602D01*
X113994752Y-31321918D01*
X114149253Y-31209666D01*
X114153675Y-31204755D01*
X114272621Y-31072652D01*
X114272622Y-31072651D01*
X114277040Y-31067744D01*
X114356448Y-30930206D01*
X114369223Y-30908079D01*
X114369224Y-30908078D01*
X114372527Y-30902356D01*
X114431542Y-30720728D01*
X114451504Y-30530800D01*
X114453189Y-30530977D01*
X114470816Y-30470945D01*
X114524472Y-30424452D01*
X114594746Y-30414348D01*
X114659326Y-30443842D01*
X114670450Y-30454756D01*
X114745218Y-30537794D01*
X114755547Y-30549266D01*
X114910048Y-30661518D01*
X114916076Y-30664202D01*
X114916078Y-30664203D01*
X115072846Y-30734000D01*
X115084512Y-30739194D01*
X115177912Y-30759047D01*
X115264856Y-30777528D01*
X115264861Y-30777528D01*
X115271313Y-30778900D01*
X115462287Y-30778900D01*
X115468739Y-30777528D01*
X115468744Y-30777528D01*
X115555688Y-30759047D01*
X115649088Y-30739194D01*
X115660754Y-30734000D01*
X115817522Y-30664203D01*
X115817524Y-30664202D01*
X115823552Y-30661518D01*
X115978053Y-30549266D01*
X115982730Y-30544072D01*
X116101421Y-30412252D01*
X116101422Y-30412251D01*
X116105840Y-30407344D01*
X116201327Y-30241956D01*
X116260342Y-30060328D01*
X116266728Y-29999574D01*
X116279614Y-29876965D01*
X116280304Y-29870400D01*
X116260342Y-29680472D01*
X116201327Y-29498844D01*
X116105840Y-29333456D01*
X115978053Y-29191534D01*
X115823552Y-29079282D01*
X115817524Y-29076598D01*
X115817522Y-29076597D01*
X115655119Y-29004291D01*
X115655118Y-29004291D01*
X115649088Y-29001606D01*
X115555687Y-28981753D01*
X115468744Y-28963272D01*
X115468739Y-28963272D01*
X115462287Y-28961900D01*
X115271313Y-28961900D01*
X115264861Y-28963272D01*
X115264856Y-28963272D01*
X115177913Y-28981753D01*
X115084512Y-29001606D01*
X115078482Y-29004291D01*
X115078481Y-29004291D01*
X114916078Y-29076597D01*
X114916076Y-29076598D01*
X114910048Y-29079282D01*
X114755547Y-29191534D01*
X114627760Y-29333456D01*
X114532273Y-29498844D01*
X114473258Y-29680472D01*
X114453296Y-29870400D01*
X114451611Y-29870223D01*
X114433984Y-29930255D01*
X114380328Y-29976748D01*
X114310054Y-29986852D01*
X114245474Y-29957358D01*
X114234350Y-29946444D01*
X114153675Y-29856845D01*
X114153674Y-29856844D01*
X114149253Y-29851934D01*
X113994752Y-29739682D01*
X113988724Y-29736998D01*
X113988722Y-29736997D01*
X113826319Y-29664691D01*
X113826318Y-29664691D01*
X113820288Y-29662006D01*
X113726888Y-29642153D01*
X113639944Y-29623672D01*
X113639939Y-29623672D01*
X113633487Y-29622300D01*
X113442513Y-29622300D01*
X113436061Y-29623672D01*
X113436056Y-29623672D01*
X113349112Y-29642153D01*
X113255712Y-29662006D01*
X113249682Y-29664691D01*
X113249681Y-29664691D01*
X113087278Y-29736997D01*
X113087276Y-29736998D01*
X113081248Y-29739682D01*
X112926747Y-29851934D01*
X112922326Y-29856844D01*
X112922325Y-29856845D01*
X112849754Y-29937444D01*
X112798960Y-29993856D01*
X112703473Y-30159244D01*
X112644458Y-30340872D01*
X112643768Y-30347433D01*
X112643768Y-30347435D01*
X112632488Y-30454756D01*
X112624496Y-30530800D01*
X74168230Y-30530800D01*
X74113527Y-30362444D01*
X74101073Y-30340872D01*
X74059747Y-30269294D01*
X74018040Y-30197056D01*
X73900583Y-30066606D01*
X73894675Y-30060045D01*
X73894674Y-30060044D01*
X73890253Y-30055134D01*
X73782364Y-29976748D01*
X73741094Y-29946763D01*
X73741093Y-29946762D01*
X73735752Y-29942882D01*
X73729724Y-29940198D01*
X73729722Y-29940197D01*
X73567319Y-29867891D01*
X73567318Y-29867891D01*
X73561288Y-29865206D01*
X73467887Y-29845353D01*
X73380944Y-29826872D01*
X73380939Y-29826872D01*
X73374487Y-29825500D01*
X73183513Y-29825500D01*
X73177061Y-29826872D01*
X73177056Y-29826872D01*
X73090113Y-29845353D01*
X72996712Y-29865206D01*
X72990682Y-29867891D01*
X72990681Y-29867891D01*
X72828278Y-29940197D01*
X72828276Y-29940198D01*
X72822248Y-29942882D01*
X72816907Y-29946762D01*
X72816906Y-29946763D01*
X72775636Y-29976748D01*
X72667747Y-30055134D01*
X72663326Y-30060044D01*
X72663325Y-30060045D01*
X72657418Y-30066606D01*
X72539960Y-30197056D01*
X72498253Y-30269294D01*
X72456928Y-30340872D01*
X72444473Y-30362444D01*
X72385458Y-30544072D01*
X72384768Y-30550633D01*
X72384768Y-30550635D01*
X72367401Y-30715872D01*
X72365496Y-30734000D01*
X49780727Y-30734000D01*
X49695444Y-30715872D01*
X49695439Y-30715872D01*
X49688987Y-30714500D01*
X49498013Y-30714500D01*
X49491561Y-30715872D01*
X49491556Y-30715872D01*
X49406273Y-30734000D01*
X49311212Y-30754206D01*
X49305182Y-30756891D01*
X49305181Y-30756891D01*
X49142778Y-30829197D01*
X49142776Y-30829198D01*
X49136748Y-30831882D01*
X48982247Y-30944134D01*
X48977826Y-30949044D01*
X48977825Y-30949045D01*
X48935738Y-30995788D01*
X48854460Y-31086056D01*
X48815289Y-31153902D01*
X48785277Y-31205885D01*
X48758973Y-31251444D01*
X48699958Y-31433072D01*
X48699268Y-31439633D01*
X48699268Y-31439635D01*
X48698365Y-31448229D01*
X48679996Y-31623000D01*
X27018000Y-31623000D01*
X27018000Y-31608366D01*
X27011245Y-31546184D01*
X26960115Y-31409795D01*
X26872761Y-31293239D01*
X26756205Y-31205885D01*
X26619816Y-31154755D01*
X26557634Y-31148000D01*
X23861366Y-31148000D01*
X23799184Y-31154755D01*
X23662795Y-31205885D01*
X23546239Y-31293239D01*
X23458885Y-31409795D01*
X23407755Y-31546184D01*
X23401000Y-31608366D01*
X23401000Y-34304634D01*
X20508460Y-34304634D01*
X20508460Y-29337000D01*
X79985496Y-29337000D01*
X80005458Y-29526928D01*
X80064473Y-29708556D01*
X80159960Y-29873944D01*
X80164378Y-29878851D01*
X80164379Y-29878852D01*
X80219614Y-29940197D01*
X80287747Y-30015866D01*
X80442248Y-30128118D01*
X80448276Y-30130802D01*
X80448278Y-30130803D01*
X80597086Y-30197056D01*
X80616712Y-30205794D01*
X80710113Y-30225647D01*
X80797056Y-30244128D01*
X80797061Y-30244128D01*
X80803513Y-30245500D01*
X80994487Y-30245500D01*
X81000939Y-30244128D01*
X81000944Y-30244128D01*
X81087887Y-30225647D01*
X81181288Y-30205794D01*
X81200914Y-30197056D01*
X81349722Y-30130803D01*
X81349724Y-30130802D01*
X81355752Y-30128118D01*
X81510253Y-30015866D01*
X81578386Y-29940197D01*
X81633621Y-29878852D01*
X81633622Y-29878851D01*
X81638040Y-29873944D01*
X81733527Y-29708556D01*
X81792542Y-29526928D01*
X81805830Y-29400500D01*
X101130996Y-29400500D01*
X101150958Y-29590428D01*
X101209973Y-29772056D01*
X101305460Y-29937444D01*
X101309878Y-29942351D01*
X101309879Y-29942352D01*
X101376071Y-30015866D01*
X101433247Y-30079366D01*
X101587748Y-30191618D01*
X101593776Y-30194302D01*
X101593778Y-30194303D01*
X101756181Y-30266609D01*
X101762212Y-30269294D01*
X101855613Y-30289147D01*
X101942556Y-30307628D01*
X101942561Y-30307628D01*
X101949013Y-30309000D01*
X102139987Y-30309000D01*
X102146439Y-30307628D01*
X102146444Y-30307628D01*
X102233387Y-30289147D01*
X102326788Y-30269294D01*
X102332819Y-30266609D01*
X102495222Y-30194303D01*
X102495224Y-30194302D01*
X102501252Y-30191618D01*
X102655753Y-30079366D01*
X102712929Y-30015866D01*
X102779121Y-29942352D01*
X102779122Y-29942351D01*
X102783540Y-29937444D01*
X102879027Y-29772056D01*
X102938042Y-29590428D01*
X102958004Y-29400500D01*
X102952020Y-29343565D01*
X102938732Y-29217135D01*
X102938732Y-29217133D01*
X102938042Y-29210572D01*
X102879027Y-29028944D01*
X102783540Y-28863556D01*
X102726365Y-28800056D01*
X102660175Y-28726545D01*
X102660174Y-28726544D01*
X102655753Y-28721634D01*
X102501252Y-28609382D01*
X102495224Y-28606698D01*
X102495222Y-28606697D01*
X102332819Y-28534391D01*
X102332818Y-28534391D01*
X102326788Y-28531706D01*
X102233388Y-28511853D01*
X102146444Y-28493372D01*
X102146439Y-28493372D01*
X102139987Y-28492000D01*
X101949013Y-28492000D01*
X101942561Y-28493372D01*
X101942556Y-28493372D01*
X101855612Y-28511853D01*
X101762212Y-28531706D01*
X101756182Y-28534391D01*
X101756181Y-28534391D01*
X101593778Y-28606697D01*
X101593776Y-28606698D01*
X101587748Y-28609382D01*
X101433247Y-28721634D01*
X101428826Y-28726544D01*
X101428825Y-28726545D01*
X101362636Y-28800056D01*
X101305460Y-28863556D01*
X101209973Y-29028944D01*
X101150958Y-29210572D01*
X101150268Y-29217133D01*
X101150268Y-29217135D01*
X101136980Y-29343565D01*
X101130996Y-29400500D01*
X81805830Y-29400500D01*
X81812504Y-29337000D01*
X81792542Y-29147072D01*
X81733527Y-28965444D01*
X81638040Y-28800056D01*
X81571851Y-28726545D01*
X81514675Y-28663045D01*
X81514674Y-28663044D01*
X81510253Y-28658134D01*
X81355752Y-28545882D01*
X81349724Y-28543198D01*
X81349722Y-28543197D01*
X81187319Y-28470891D01*
X81187318Y-28470891D01*
X81181288Y-28468206D01*
X81087887Y-28448353D01*
X81000944Y-28429872D01*
X81000939Y-28429872D01*
X80994487Y-28428500D01*
X80803513Y-28428500D01*
X80797061Y-28429872D01*
X80797056Y-28429872D01*
X80710113Y-28448353D01*
X80616712Y-28468206D01*
X80610682Y-28470891D01*
X80610681Y-28470891D01*
X80448278Y-28543197D01*
X80448276Y-28543198D01*
X80442248Y-28545882D01*
X80287747Y-28658134D01*
X80283326Y-28663044D01*
X80283325Y-28663045D01*
X80226150Y-28726545D01*
X80159960Y-28800056D01*
X80064473Y-28965444D01*
X80005458Y-29147072D01*
X79985496Y-29337000D01*
X20508460Y-29337000D01*
X20508460Y-24614500D01*
X25801002Y-24614500D01*
X25820957Y-24842587D01*
X25822381Y-24847900D01*
X25822381Y-24847902D01*
X25873274Y-25037834D01*
X25880216Y-25063743D01*
X25882539Y-25068724D01*
X25882539Y-25068725D01*
X25974651Y-25266262D01*
X25974654Y-25266267D01*
X25976977Y-25271249D01*
X25980134Y-25275757D01*
X26071727Y-25406565D01*
X26108302Y-25458800D01*
X26254002Y-25604500D01*
X26288028Y-25666812D01*
X26282963Y-25737627D01*
X26240416Y-25794463D01*
X26203763Y-25811632D01*
X26204184Y-25812755D01*
X26067795Y-25863885D01*
X25951239Y-25951239D01*
X25863885Y-26067795D01*
X25812755Y-26204184D01*
X25806000Y-26266366D01*
X25806000Y-27962634D01*
X25812755Y-28024816D01*
X25863885Y-28161205D01*
X25951239Y-28277761D01*
X26067795Y-28365115D01*
X26204184Y-28416245D01*
X26266366Y-28423000D01*
X27962634Y-28423000D01*
X28024816Y-28416245D01*
X28161205Y-28365115D01*
X28277761Y-28277761D01*
X28365115Y-28161205D01*
X28416245Y-28024816D01*
X28423000Y-27962634D01*
X28423000Y-27381200D01*
X92914096Y-27381200D01*
X92914786Y-27387765D01*
X92921341Y-27450128D01*
X92934058Y-27571128D01*
X92993073Y-27752756D01*
X93088560Y-27918144D01*
X93092978Y-27923051D01*
X93092979Y-27923052D01*
X93177534Y-28016960D01*
X93216347Y-28060066D01*
X93370848Y-28172318D01*
X93376876Y-28175002D01*
X93376878Y-28175003D01*
X93539281Y-28247309D01*
X93545312Y-28249994D01*
X93638712Y-28269847D01*
X93725656Y-28288328D01*
X93725661Y-28288328D01*
X93732113Y-28289700D01*
X93923087Y-28289700D01*
X93929539Y-28288328D01*
X93929544Y-28288328D01*
X94016487Y-28269847D01*
X94109888Y-28249994D01*
X94115919Y-28247309D01*
X94278322Y-28175003D01*
X94278324Y-28175002D01*
X94284352Y-28172318D01*
X94438853Y-28060066D01*
X94477666Y-28016960D01*
X94562221Y-27923052D01*
X94562222Y-27923051D01*
X94566640Y-27918144D01*
X94662127Y-27752756D01*
X94721142Y-27571128D01*
X94733860Y-27450128D01*
X94740414Y-27387765D01*
X94741104Y-27381200D01*
X94724358Y-27221866D01*
X94721832Y-27197835D01*
X94721832Y-27197833D01*
X94721142Y-27191272D01*
X94662127Y-27009644D01*
X94566640Y-26844256D01*
X94541649Y-26816500D01*
X94443275Y-26707245D01*
X94443274Y-26707244D01*
X94438853Y-26702334D01*
X94284352Y-26590082D01*
X94278324Y-26587398D01*
X94278322Y-26587397D01*
X94178604Y-26543000D01*
X97257496Y-26543000D01*
X97258186Y-26549565D01*
X97274759Y-26707245D01*
X97277458Y-26732928D01*
X97336473Y-26914556D01*
X97431960Y-27079944D01*
X97559747Y-27221866D01*
X97714248Y-27334118D01*
X97720276Y-27336802D01*
X97720278Y-27336803D01*
X97882681Y-27409109D01*
X97888712Y-27411794D01*
X97982113Y-27431647D01*
X98069056Y-27450128D01*
X98069061Y-27450128D01*
X98075513Y-27451500D01*
X98266487Y-27451500D01*
X98272939Y-27450128D01*
X98272944Y-27450128D01*
X98359887Y-27431647D01*
X98453288Y-27411794D01*
X98459319Y-27409109D01*
X98621722Y-27336803D01*
X98621724Y-27336802D01*
X98627752Y-27334118D01*
X98782253Y-27221866D01*
X98910040Y-27079944D01*
X99005527Y-26914556D01*
X99064542Y-26732928D01*
X99067242Y-26707245D01*
X99083814Y-26549565D01*
X99084504Y-26543000D01*
X99081571Y-26515091D01*
X99065232Y-26359635D01*
X99065232Y-26359633D01*
X99064542Y-26353072D01*
X99005527Y-26171444D01*
X98910040Y-26006056D01*
X98782253Y-25864134D01*
X98654831Y-25771556D01*
X98633094Y-25755763D01*
X98633093Y-25755762D01*
X98627752Y-25751882D01*
X98621724Y-25749198D01*
X98621722Y-25749197D01*
X98459319Y-25676891D01*
X98459318Y-25676891D01*
X98453288Y-25674206D01*
X98332460Y-25648523D01*
X98272944Y-25635872D01*
X98272939Y-25635872D01*
X98266487Y-25634500D01*
X98075513Y-25634500D01*
X98069061Y-25635872D01*
X98069056Y-25635872D01*
X98009540Y-25648523D01*
X97888712Y-25674206D01*
X97882682Y-25676891D01*
X97882681Y-25676891D01*
X97720278Y-25749197D01*
X97720276Y-25749198D01*
X97714248Y-25751882D01*
X97708907Y-25755762D01*
X97708906Y-25755763D01*
X97687169Y-25771556D01*
X97559747Y-25864134D01*
X97431960Y-26006056D01*
X97336473Y-26171444D01*
X97277458Y-26353072D01*
X97276768Y-26359633D01*
X97276768Y-26359635D01*
X97260429Y-26515091D01*
X97257496Y-26543000D01*
X94178604Y-26543000D01*
X94115919Y-26515091D01*
X94115918Y-26515091D01*
X94109888Y-26512406D01*
X94016487Y-26492553D01*
X93929544Y-26474072D01*
X93929539Y-26474072D01*
X93923087Y-26472700D01*
X93732113Y-26472700D01*
X93725661Y-26474072D01*
X93725656Y-26474072D01*
X93638712Y-26492553D01*
X93545312Y-26512406D01*
X93539282Y-26515091D01*
X93539281Y-26515091D01*
X93376878Y-26587397D01*
X93376876Y-26587398D01*
X93370848Y-26590082D01*
X93216347Y-26702334D01*
X93211926Y-26707244D01*
X93211925Y-26707245D01*
X93113552Y-26816500D01*
X93088560Y-26844256D01*
X92993073Y-27009644D01*
X92934058Y-27191272D01*
X92933368Y-27197833D01*
X92933368Y-27197835D01*
X92930842Y-27221866D01*
X92914096Y-27381200D01*
X28423000Y-27381200D01*
X28423000Y-26266366D01*
X28416245Y-26204184D01*
X28365115Y-26067795D01*
X28277761Y-25951239D01*
X28220067Y-25908000D01*
X63348496Y-25908000D01*
X63349186Y-25914565D01*
X63366863Y-26082749D01*
X63368458Y-26097928D01*
X63427473Y-26279556D01*
X63522960Y-26444944D01*
X63527378Y-26449851D01*
X63527379Y-26449852D01*
X63605339Y-26536435D01*
X63650747Y-26586866D01*
X63805248Y-26699118D01*
X63811276Y-26701802D01*
X63811278Y-26701803D01*
X63973681Y-26774109D01*
X63979712Y-26776794D01*
X64073112Y-26796647D01*
X64160056Y-26815128D01*
X64160061Y-26815128D01*
X64166513Y-26816500D01*
X64357487Y-26816500D01*
X64363939Y-26815128D01*
X64363944Y-26815128D01*
X64450888Y-26796647D01*
X64544288Y-26776794D01*
X64550319Y-26774109D01*
X64712722Y-26701803D01*
X64712724Y-26701802D01*
X64718752Y-26699118D01*
X64873253Y-26586866D01*
X64918661Y-26536435D01*
X64996621Y-26449852D01*
X64996622Y-26449851D01*
X65001040Y-26444944D01*
X65096527Y-26279556D01*
X65155542Y-26097928D01*
X65157138Y-26082749D01*
X65174814Y-25914565D01*
X65175504Y-25908000D01*
X65174814Y-25901435D01*
X65156232Y-25724635D01*
X65156232Y-25724633D01*
X65155542Y-25718072D01*
X65096527Y-25536444D01*
X65086910Y-25519786D01*
X65049095Y-25454289D01*
X65017751Y-25400000D01*
X85954496Y-25400000D01*
X85974458Y-25589928D01*
X86033473Y-25771556D01*
X86036776Y-25777278D01*
X86036777Y-25777279D01*
X86059983Y-25817473D01*
X86128960Y-25936944D01*
X86256747Y-26078866D01*
X86355843Y-26150864D01*
X86392820Y-26177729D01*
X86411248Y-26191118D01*
X86417276Y-26193802D01*
X86417278Y-26193803D01*
X86579681Y-26266109D01*
X86585712Y-26268794D01*
X86679112Y-26288647D01*
X86766056Y-26307128D01*
X86766061Y-26307128D01*
X86772513Y-26308500D01*
X86963487Y-26308500D01*
X86969939Y-26307128D01*
X86969944Y-26307128D01*
X87056888Y-26288647D01*
X87150288Y-26268794D01*
X87156319Y-26266109D01*
X87318722Y-26193803D01*
X87318724Y-26193802D01*
X87324752Y-26191118D01*
X87343181Y-26177729D01*
X87380157Y-26150864D01*
X87479253Y-26078866D01*
X87607040Y-25936944D01*
X87676017Y-25817473D01*
X87699223Y-25777279D01*
X87699224Y-25777278D01*
X87702527Y-25771556D01*
X87761542Y-25589928D01*
X87781504Y-25400000D01*
X87777561Y-25362486D01*
X87762232Y-25216635D01*
X87762232Y-25216633D01*
X87761542Y-25210072D01*
X87702527Y-25028444D01*
X87607040Y-24863056D01*
X87583676Y-24837107D01*
X87483675Y-24726045D01*
X87483674Y-24726044D01*
X87479253Y-24721134D01*
X87351831Y-24628556D01*
X87330094Y-24612763D01*
X87330093Y-24612762D01*
X87324752Y-24608882D01*
X87318724Y-24606198D01*
X87318722Y-24606197D01*
X87156319Y-24533891D01*
X87156318Y-24533891D01*
X87150288Y-24531206D01*
X87055227Y-24511000D01*
X86969944Y-24492872D01*
X86969939Y-24492872D01*
X86963487Y-24491500D01*
X86772513Y-24491500D01*
X86766061Y-24492872D01*
X86766056Y-24492872D01*
X86680773Y-24511000D01*
X86585712Y-24531206D01*
X86579682Y-24533891D01*
X86579681Y-24533891D01*
X86417278Y-24606197D01*
X86417276Y-24606198D01*
X86411248Y-24608882D01*
X86405907Y-24612762D01*
X86405906Y-24612763D01*
X86384169Y-24628556D01*
X86256747Y-24721134D01*
X86252326Y-24726044D01*
X86252325Y-24726045D01*
X86152325Y-24837107D01*
X86128960Y-24863056D01*
X86033473Y-25028444D01*
X85974458Y-25210072D01*
X85973768Y-25216633D01*
X85973768Y-25216635D01*
X85958439Y-25362486D01*
X85954496Y-25400000D01*
X65017751Y-25400000D01*
X65001040Y-25371056D01*
X64996525Y-25366041D01*
X64877675Y-25234045D01*
X64877674Y-25234044D01*
X64873253Y-25229134D01*
X64732907Y-25127166D01*
X64724094Y-25120763D01*
X64724093Y-25120762D01*
X64718752Y-25116882D01*
X64712724Y-25114198D01*
X64712722Y-25114197D01*
X64550319Y-25041891D01*
X64550318Y-25041891D01*
X64544288Y-25039206D01*
X64450888Y-25019353D01*
X64363944Y-25000872D01*
X64363939Y-25000872D01*
X64357487Y-24999500D01*
X64166513Y-24999500D01*
X64160061Y-25000872D01*
X64160056Y-25000872D01*
X64073112Y-25019353D01*
X63979712Y-25039206D01*
X63973682Y-25041891D01*
X63973681Y-25041891D01*
X63811278Y-25114197D01*
X63811276Y-25114198D01*
X63805248Y-25116882D01*
X63799907Y-25120762D01*
X63799906Y-25120763D01*
X63791093Y-25127166D01*
X63650747Y-25229134D01*
X63646326Y-25234044D01*
X63646325Y-25234045D01*
X63527476Y-25366041D01*
X63522960Y-25371056D01*
X63474905Y-25454289D01*
X63437091Y-25519786D01*
X63427473Y-25536444D01*
X63368458Y-25718072D01*
X63367768Y-25724633D01*
X63367768Y-25724635D01*
X63349186Y-25901435D01*
X63348496Y-25908000D01*
X28220067Y-25908000D01*
X28161205Y-25863885D01*
X28024816Y-25812755D01*
X28025546Y-25810809D01*
X27973295Y-25780955D01*
X27940479Y-25717997D01*
X27946909Y-25647293D01*
X27974998Y-25604500D01*
X28120698Y-25458800D01*
X28157274Y-25406565D01*
X28192911Y-25355669D01*
X42443501Y-25355669D01*
X42443871Y-25362490D01*
X42449395Y-25413352D01*
X42453021Y-25428604D01*
X42498176Y-25549054D01*
X42506714Y-25564649D01*
X42583215Y-25666724D01*
X42595776Y-25679285D01*
X42697851Y-25755786D01*
X42713446Y-25764324D01*
X42833894Y-25809478D01*
X42849149Y-25813105D01*
X42900014Y-25818631D01*
X42906828Y-25819000D01*
X43479385Y-25819000D01*
X43494624Y-25814525D01*
X43495829Y-25813135D01*
X43497500Y-25805452D01*
X43497500Y-25800884D01*
X44005500Y-25800884D01*
X44009975Y-25816123D01*
X44011365Y-25817328D01*
X44019048Y-25818999D01*
X44596169Y-25818999D01*
X44602990Y-25818629D01*
X44653852Y-25813105D01*
X44669104Y-25809479D01*
X44789554Y-25764324D01*
X44805149Y-25755786D01*
X44907224Y-25679285D01*
X44919785Y-25666724D01*
X44996286Y-25564649D01*
X45004824Y-25549054D01*
X45049978Y-25428606D01*
X45053605Y-25413351D01*
X45059131Y-25362486D01*
X45059500Y-25355672D01*
X45059500Y-24783115D01*
X45055025Y-24767876D01*
X45053635Y-24766671D01*
X45045952Y-24765000D01*
X44023615Y-24765000D01*
X44008376Y-24769475D01*
X44007171Y-24770865D01*
X44005500Y-24778548D01*
X44005500Y-25800884D01*
X43497500Y-25800884D01*
X43497500Y-24783115D01*
X43493025Y-24767876D01*
X43491635Y-24766671D01*
X43483952Y-24765000D01*
X42461616Y-24765000D01*
X42446377Y-24769475D01*
X42445172Y-24770865D01*
X42443501Y-24778548D01*
X42443501Y-25355669D01*
X28192911Y-25355669D01*
X28248866Y-25275757D01*
X28252023Y-25271249D01*
X28254346Y-25266267D01*
X28254349Y-25266262D01*
X28346461Y-25068725D01*
X28346461Y-25068724D01*
X28348784Y-25063743D01*
X28355727Y-25037834D01*
X28406619Y-24847902D01*
X28406619Y-24847900D01*
X28408043Y-24842587D01*
X28427998Y-24614500D01*
X28418943Y-24511000D01*
X45938002Y-24511000D01*
X45957957Y-24739087D01*
X45959381Y-24744400D01*
X45959381Y-24744402D01*
X46011725Y-24939749D01*
X46017216Y-24960243D01*
X46019539Y-24965224D01*
X46019539Y-24965225D01*
X46111651Y-25162762D01*
X46111654Y-25162767D01*
X46113977Y-25167749D01*
X46160398Y-25234045D01*
X46240942Y-25349073D01*
X46245302Y-25355300D01*
X46407200Y-25517198D01*
X46411708Y-25520355D01*
X46411711Y-25520357D01*
X46427411Y-25531350D01*
X46594751Y-25648523D01*
X46599733Y-25650846D01*
X46599738Y-25650849D01*
X46785836Y-25737627D01*
X46802257Y-25745284D01*
X46807565Y-25746706D01*
X46807567Y-25746707D01*
X47018098Y-25803119D01*
X47018100Y-25803119D01*
X47023413Y-25804543D01*
X47251500Y-25824498D01*
X47479587Y-25804543D01*
X47484900Y-25803119D01*
X47484902Y-25803119D01*
X47695433Y-25746707D01*
X47695435Y-25746706D01*
X47700743Y-25745284D01*
X47717164Y-25737627D01*
X47903262Y-25650849D01*
X47903267Y-25650846D01*
X47908249Y-25648523D01*
X48075589Y-25531350D01*
X48091289Y-25520357D01*
X48091292Y-25520355D01*
X48095800Y-25517198D01*
X48257698Y-25355300D01*
X48262059Y-25349073D01*
X48342602Y-25234045D01*
X48389023Y-25167749D01*
X48391346Y-25162767D01*
X48391349Y-25162762D01*
X48483461Y-24965225D01*
X48483461Y-24965224D01*
X48485784Y-24960243D01*
X48491276Y-24939749D01*
X48543619Y-24744402D01*
X48543619Y-24744400D01*
X48545043Y-24739087D01*
X48564998Y-24511000D01*
X48545043Y-24282913D01*
X48536528Y-24251135D01*
X48487207Y-24067067D01*
X48487206Y-24067065D01*
X48485784Y-24061757D01*
X48483461Y-24056775D01*
X48391349Y-23859238D01*
X48391346Y-23859233D01*
X48389980Y-23856303D01*
X51687943Y-23856303D01*
X51688502Y-23860547D01*
X51688502Y-23860551D01*
X51691410Y-23882636D01*
X51725468Y-24141334D01*
X51726601Y-24145474D01*
X51726601Y-24145476D01*
X51732526Y-24167134D01*
X51801329Y-24418636D01*
X51803013Y-24422584D01*
X51902629Y-24656128D01*
X51914123Y-24683076D01*
X52061761Y-24929761D01*
X52241513Y-25154128D01*
X52450051Y-25352023D01*
X52683517Y-25519786D01*
X52687312Y-25521795D01*
X52687313Y-25521796D01*
X52709069Y-25533315D01*
X52937592Y-25654312D01*
X52971750Y-25666812D01*
X53186185Y-25745284D01*
X53207573Y-25753111D01*
X53488464Y-25814355D01*
X53510929Y-25816123D01*
X53711482Y-25831907D01*
X53711491Y-25831907D01*
X53713939Y-25832100D01*
X53869471Y-25832100D01*
X53871607Y-25831954D01*
X53871618Y-25831954D01*
X54079748Y-25817765D01*
X54079754Y-25817764D01*
X54084025Y-25817473D01*
X54088220Y-25816604D01*
X54088222Y-25816604D01*
X54260365Y-25780955D01*
X54365542Y-25759174D01*
X54636543Y-25663207D01*
X54778519Y-25589928D01*
X54888205Y-25533315D01*
X54888206Y-25533315D01*
X54892012Y-25531350D01*
X54895513Y-25528889D01*
X54895517Y-25528887D01*
X55059906Y-25413352D01*
X55127223Y-25366041D01*
X55234598Y-25266262D01*
X55334679Y-25173261D01*
X55334681Y-25173258D01*
X55337822Y-25170340D01*
X55519913Y-24947868D01*
X55670127Y-24702742D01*
X55751893Y-24516475D01*
X55783957Y-24443430D01*
X55785683Y-24439498D01*
X55788997Y-24427866D01*
X55829424Y-24285944D01*
X55864444Y-24163006D01*
X55904951Y-23878384D01*
X55905045Y-23860551D01*
X55905629Y-23749000D01*
X63348496Y-23749000D01*
X63349186Y-23755565D01*
X63364612Y-23902331D01*
X63368458Y-23938928D01*
X63427473Y-24120556D01*
X63430776Y-24126278D01*
X63430777Y-24126279D01*
X63450405Y-24160275D01*
X63522960Y-24285944D01*
X63527378Y-24290851D01*
X63527379Y-24290852D01*
X63642436Y-24418636D01*
X63650747Y-24427866D01*
X63738331Y-24491500D01*
X63792982Y-24531206D01*
X63805248Y-24540118D01*
X63811276Y-24542802D01*
X63811278Y-24542803D01*
X63973681Y-24615109D01*
X63979712Y-24617794D01*
X64073113Y-24637647D01*
X64160056Y-24656128D01*
X64160061Y-24656128D01*
X64166513Y-24657500D01*
X64357487Y-24657500D01*
X64363939Y-24656128D01*
X64363944Y-24656128D01*
X64450888Y-24637647D01*
X64544288Y-24617794D01*
X64550319Y-24615109D01*
X64712722Y-24542803D01*
X64712724Y-24542802D01*
X64718752Y-24540118D01*
X64731019Y-24531206D01*
X64785669Y-24491500D01*
X64873253Y-24427866D01*
X64881564Y-24418636D01*
X64996621Y-24290852D01*
X64996622Y-24290851D01*
X65001040Y-24285944D01*
X65017751Y-24257000D01*
X94018996Y-24257000D01*
X94019686Y-24263565D01*
X94037363Y-24431749D01*
X94038958Y-24446928D01*
X94097973Y-24628556D01*
X94101276Y-24634278D01*
X94101277Y-24634279D01*
X94129450Y-24683076D01*
X94193460Y-24793944D01*
X94321247Y-24935866D01*
X94354799Y-24960243D01*
X94463482Y-25039206D01*
X94475748Y-25048118D01*
X94481776Y-25050802D01*
X94481778Y-25050803D01*
X94630195Y-25116882D01*
X94650212Y-25125794D01*
X94743613Y-25145647D01*
X94830556Y-25164128D01*
X94830561Y-25164128D01*
X94837013Y-25165500D01*
X95027987Y-25165500D01*
X95034439Y-25164128D01*
X95034444Y-25164128D01*
X95121388Y-25145647D01*
X95214788Y-25125794D01*
X95234805Y-25116882D01*
X95383222Y-25050803D01*
X95383224Y-25050802D01*
X95389252Y-25048118D01*
X95401519Y-25039206D01*
X95510201Y-24960243D01*
X95543753Y-24935866D01*
X95671540Y-24793944D01*
X95735550Y-24683076D01*
X95763723Y-24634279D01*
X95763724Y-24634278D01*
X95767027Y-24628556D01*
X95826042Y-24446928D01*
X95827638Y-24431749D01*
X95845314Y-24263565D01*
X95846004Y-24257000D01*
X95835679Y-24158759D01*
X95826732Y-24073635D01*
X95826732Y-24073633D01*
X95826042Y-24067072D01*
X95767027Y-23885444D01*
X95763101Y-23878643D01*
X95710857Y-23788155D01*
X95671540Y-23720056D01*
X95543753Y-23578134D01*
X95418387Y-23487050D01*
X95394594Y-23469763D01*
X95394593Y-23469762D01*
X95389252Y-23465882D01*
X95383224Y-23463198D01*
X95383222Y-23463197D01*
X95220819Y-23390891D01*
X95220818Y-23390891D01*
X95214788Y-23388206D01*
X95121388Y-23368353D01*
X95034444Y-23349872D01*
X95034439Y-23349872D01*
X95027987Y-23348500D01*
X94837013Y-23348500D01*
X94830561Y-23349872D01*
X94830556Y-23349872D01*
X94743612Y-23368353D01*
X94650212Y-23388206D01*
X94644182Y-23390891D01*
X94644181Y-23390891D01*
X94481778Y-23463197D01*
X94481776Y-23463198D01*
X94475748Y-23465882D01*
X94470407Y-23469762D01*
X94470406Y-23469763D01*
X94446613Y-23487050D01*
X94321247Y-23578134D01*
X94193460Y-23720056D01*
X94154143Y-23788155D01*
X94101900Y-23878643D01*
X94097973Y-23885444D01*
X94038958Y-24067072D01*
X94038268Y-24073633D01*
X94038268Y-24073635D01*
X94029321Y-24158759D01*
X94018996Y-24257000D01*
X65017751Y-24257000D01*
X65073595Y-24160275D01*
X65093223Y-24126279D01*
X65093224Y-24126278D01*
X65096527Y-24120556D01*
X65155542Y-23938928D01*
X65159389Y-23902331D01*
X65174814Y-23755565D01*
X65175504Y-23749000D01*
X65166461Y-23662956D01*
X65156232Y-23565635D01*
X65156232Y-23565633D01*
X65155542Y-23559072D01*
X65096527Y-23377444D01*
X65001040Y-23212056D01*
X64995477Y-23205877D01*
X64877675Y-23075045D01*
X64877674Y-23075044D01*
X64873253Y-23070134D01*
X64774157Y-22998136D01*
X64724094Y-22961763D01*
X64724093Y-22961762D01*
X64718752Y-22957882D01*
X64712724Y-22955198D01*
X64712722Y-22955197D01*
X64550319Y-22882891D01*
X64550318Y-22882891D01*
X64544288Y-22880206D01*
X64419433Y-22853667D01*
X64363944Y-22841872D01*
X64363939Y-22841872D01*
X64357487Y-22840500D01*
X64166513Y-22840500D01*
X64160061Y-22841872D01*
X64160056Y-22841872D01*
X64104567Y-22853667D01*
X63979712Y-22880206D01*
X63973682Y-22882891D01*
X63973681Y-22882891D01*
X63811278Y-22955197D01*
X63811276Y-22955198D01*
X63805248Y-22957882D01*
X63799907Y-22961762D01*
X63799906Y-22961763D01*
X63749843Y-22998136D01*
X63650747Y-23070134D01*
X63646326Y-23075044D01*
X63646325Y-23075045D01*
X63528524Y-23205877D01*
X63522960Y-23212056D01*
X63427473Y-23377444D01*
X63368458Y-23559072D01*
X63367768Y-23565633D01*
X63367768Y-23565635D01*
X63357539Y-23662956D01*
X63348496Y-23749000D01*
X55905629Y-23749000D01*
X55906435Y-23595183D01*
X55906435Y-23595176D01*
X55906457Y-23590897D01*
X55905424Y-23583045D01*
X55879772Y-23388206D01*
X55868932Y-23305866D01*
X55867733Y-23301481D01*
X55838806Y-23195745D01*
X55793071Y-23028564D01*
X55713440Y-22841872D01*
X55681963Y-22768076D01*
X55681961Y-22768072D01*
X55680277Y-22764124D01*
X55605727Y-22639560D01*
X55534843Y-22521121D01*
X55534840Y-22521117D01*
X55532639Y-22517439D01*
X55352887Y-22293072D01*
X55183225Y-22132069D01*
X55147458Y-22098127D01*
X55147455Y-22098125D01*
X55144349Y-22095177D01*
X54930504Y-21941513D01*
X54914372Y-21929921D01*
X54914371Y-21929920D01*
X54910883Y-21927414D01*
X54901308Y-21922344D01*
X54818476Y-21878487D01*
X54656808Y-21792888D01*
X54449434Y-21717000D01*
X54390858Y-21695564D01*
X54390856Y-21695563D01*
X54386827Y-21694089D01*
X54105936Y-21632845D01*
X54074885Y-21630401D01*
X53882918Y-21615293D01*
X53882909Y-21615293D01*
X53880461Y-21615100D01*
X53724929Y-21615100D01*
X53722793Y-21615246D01*
X53722782Y-21615246D01*
X53514652Y-21629435D01*
X53514646Y-21629436D01*
X53510375Y-21629727D01*
X53506180Y-21630596D01*
X53506178Y-21630596D01*
X53369616Y-21658877D01*
X53228858Y-21688026D01*
X52957857Y-21783993D01*
X52954048Y-21785959D01*
X52708505Y-21912693D01*
X52702388Y-21915850D01*
X52698887Y-21918311D01*
X52698883Y-21918313D01*
X52642059Y-21958250D01*
X52467177Y-22081159D01*
X52452092Y-22095177D01*
X52263117Y-22270784D01*
X52256578Y-22276860D01*
X52074487Y-22499332D01*
X51924273Y-22744458D01*
X51922547Y-22748391D01*
X51922546Y-22748392D01*
X51881511Y-22841872D01*
X51808717Y-23007702D01*
X51729956Y-23284194D01*
X51689449Y-23568816D01*
X51689427Y-23573105D01*
X51689426Y-23573112D01*
X51687999Y-23845553D01*
X51687943Y-23856303D01*
X48389980Y-23856303D01*
X48389023Y-23854251D01*
X48299062Y-23725774D01*
X48260857Y-23671211D01*
X48260855Y-23671208D01*
X48257698Y-23666700D01*
X48095800Y-23504802D01*
X48091292Y-23501645D01*
X48091289Y-23501643D01*
X48013111Y-23446902D01*
X47908249Y-23373477D01*
X47903267Y-23371154D01*
X47903262Y-23371151D01*
X47705725Y-23279039D01*
X47705724Y-23279039D01*
X47700743Y-23276716D01*
X47695435Y-23275294D01*
X47695433Y-23275293D01*
X47484902Y-23218881D01*
X47484900Y-23218881D01*
X47479587Y-23217457D01*
X47251500Y-23197502D01*
X47023413Y-23217457D01*
X47018100Y-23218881D01*
X47018098Y-23218881D01*
X46807567Y-23275293D01*
X46807565Y-23275294D01*
X46802257Y-23276716D01*
X46797276Y-23279039D01*
X46797275Y-23279039D01*
X46599738Y-23371151D01*
X46599733Y-23371154D01*
X46594751Y-23373477D01*
X46489889Y-23446902D01*
X46411711Y-23501643D01*
X46411708Y-23501645D01*
X46407200Y-23504802D01*
X46245302Y-23666700D01*
X46242145Y-23671208D01*
X46242143Y-23671211D01*
X46203938Y-23725774D01*
X46113977Y-23854251D01*
X46111654Y-23859233D01*
X46111651Y-23859238D01*
X46019539Y-24056775D01*
X46017216Y-24061757D01*
X46015794Y-24067065D01*
X46015793Y-24067067D01*
X45966472Y-24251135D01*
X45957957Y-24282913D01*
X45938002Y-24511000D01*
X28418943Y-24511000D01*
X28408043Y-24386413D01*
X28382437Y-24290852D01*
X28368513Y-24238885D01*
X42443500Y-24238885D01*
X42447975Y-24254124D01*
X42449365Y-24255329D01*
X42457048Y-24257000D01*
X43479385Y-24257000D01*
X43494624Y-24252525D01*
X43495829Y-24251135D01*
X43497500Y-24243452D01*
X43497500Y-24238885D01*
X44005500Y-24238885D01*
X44009975Y-24254124D01*
X44011365Y-24255329D01*
X44019048Y-24257000D01*
X45041384Y-24257000D01*
X45056623Y-24252525D01*
X45057828Y-24251135D01*
X45059499Y-24243452D01*
X45059499Y-23666331D01*
X45059129Y-23659510D01*
X45053605Y-23608648D01*
X45049979Y-23593396D01*
X45004824Y-23472946D01*
X44996286Y-23457351D01*
X44919785Y-23355276D01*
X44907224Y-23342715D01*
X44805149Y-23266214D01*
X44789554Y-23257676D01*
X44669106Y-23212522D01*
X44653851Y-23208895D01*
X44602986Y-23203369D01*
X44596172Y-23203000D01*
X44023615Y-23203000D01*
X44008376Y-23207475D01*
X44007171Y-23208865D01*
X44005500Y-23216548D01*
X44005500Y-24238885D01*
X43497500Y-24238885D01*
X43497500Y-23221116D01*
X43493025Y-23205877D01*
X43491635Y-23204672D01*
X43483952Y-23203001D01*
X42906831Y-23203001D01*
X42900010Y-23203371D01*
X42849148Y-23208895D01*
X42833896Y-23212521D01*
X42713446Y-23257676D01*
X42697851Y-23266214D01*
X42595776Y-23342715D01*
X42583215Y-23355276D01*
X42506714Y-23457351D01*
X42498176Y-23472946D01*
X42453022Y-23593394D01*
X42449395Y-23608649D01*
X42443869Y-23659514D01*
X42443500Y-23666328D01*
X42443500Y-24238885D01*
X28368513Y-24238885D01*
X28350207Y-24170567D01*
X28350206Y-24170565D01*
X28348784Y-24165257D01*
X28330798Y-24126686D01*
X28254349Y-23962738D01*
X28254346Y-23962733D01*
X28252023Y-23957751D01*
X28173461Y-23845553D01*
X28123857Y-23774711D01*
X28123855Y-23774708D01*
X28120698Y-23770200D01*
X27958800Y-23608302D01*
X27954292Y-23605145D01*
X27954289Y-23605143D01*
X27876111Y-23550402D01*
X27771249Y-23476977D01*
X27766267Y-23474654D01*
X27766262Y-23474651D01*
X27568725Y-23382539D01*
X27568724Y-23382539D01*
X27563743Y-23380216D01*
X27558435Y-23378794D01*
X27558433Y-23378793D01*
X27347902Y-23322381D01*
X27347900Y-23322381D01*
X27342587Y-23320957D01*
X27114500Y-23301002D01*
X26886413Y-23320957D01*
X26881100Y-23322381D01*
X26881098Y-23322381D01*
X26670567Y-23378793D01*
X26670565Y-23378794D01*
X26665257Y-23380216D01*
X26660276Y-23382539D01*
X26660275Y-23382539D01*
X26462738Y-23474651D01*
X26462733Y-23474654D01*
X26457751Y-23476977D01*
X26352889Y-23550402D01*
X26274711Y-23605143D01*
X26274708Y-23605145D01*
X26270200Y-23608302D01*
X26108302Y-23770200D01*
X26105145Y-23774708D01*
X26105143Y-23774711D01*
X26055539Y-23845553D01*
X25976977Y-23957751D01*
X25974654Y-23962733D01*
X25974651Y-23962738D01*
X25898202Y-24126686D01*
X25880216Y-24165257D01*
X25878794Y-24170565D01*
X25878793Y-24170567D01*
X25846563Y-24290852D01*
X25820957Y-24386413D01*
X25801002Y-24614500D01*
X20508460Y-24614500D01*
X20508460Y-21958250D01*
X20510206Y-21937345D01*
X20512730Y-21922344D01*
X20512730Y-21922341D01*
X20513536Y-21917552D01*
X20513689Y-21905000D01*
X20512294Y-21895260D01*
X20511410Y-21867515D01*
X20524875Y-21696426D01*
X20527968Y-21676897D01*
X20574496Y-21483097D01*
X20580606Y-21464294D01*
X20656876Y-21280160D01*
X20665853Y-21262543D01*
X20769987Y-21092613D01*
X20781608Y-21076618D01*
X20911045Y-20925066D01*
X20925026Y-20911085D01*
X21076578Y-20781648D01*
X21092573Y-20770027D01*
X21262503Y-20665893D01*
X21280120Y-20656916D01*
X21464254Y-20580646D01*
X21483057Y-20574536D01*
X21676857Y-20528008D01*
X21696386Y-20524915D01*
X21863947Y-20511728D01*
X21880835Y-20512370D01*
X21880837Y-20512200D01*
X21889813Y-20512310D01*
X21898684Y-20513691D01*
X21907586Y-20512527D01*
X21907589Y-20512527D01*
X21930245Y-20509564D01*
X21946582Y-20508500D01*
X22053375Y-20508500D01*
X31028693Y-20508496D01*
X31096813Y-20528498D01*
X31143306Y-20582154D01*
X31153410Y-20652428D01*
X31123916Y-20717008D01*
X31064267Y-20755370D01*
X31063136Y-20755703D01*
X30989381Y-20777410D01*
X30983923Y-20780263D01*
X30983919Y-20780265D01*
X30912903Y-20817392D01*
X30814110Y-20869040D01*
X30659975Y-20992968D01*
X30532846Y-21144474D01*
X30529879Y-21149872D01*
X30529875Y-21149877D01*
X30479891Y-21240799D01*
X30437567Y-21317787D01*
X30435706Y-21323654D01*
X30435705Y-21323656D01*
X30408404Y-21409720D01*
X30377765Y-21506306D01*
X30355719Y-21702851D01*
X30356235Y-21708995D01*
X30371144Y-21886546D01*
X30372268Y-21899934D01*
X30383240Y-21938197D01*
X30425071Y-22084078D01*
X30426783Y-22090050D01*
X30517187Y-22265956D01*
X30569279Y-22331680D01*
X30573261Y-22336704D01*
X30599899Y-22402514D01*
X30586728Y-22472279D01*
X30571040Y-22495956D01*
X30532846Y-22541474D01*
X30529879Y-22546872D01*
X30529875Y-22546877D01*
X30527612Y-22550994D01*
X30437567Y-22714787D01*
X30435706Y-22720654D01*
X30435705Y-22720656D01*
X30406819Y-22811715D01*
X30377765Y-22903306D01*
X30355719Y-23099851D01*
X30356235Y-23105995D01*
X30370919Y-23280865D01*
X30372268Y-23296934D01*
X30379565Y-23322381D01*
X30424800Y-23480134D01*
X30426783Y-23487050D01*
X30429602Y-23492535D01*
X30471599Y-23574251D01*
X30517187Y-23662956D01*
X30640035Y-23817953D01*
X30644728Y-23821947D01*
X30644729Y-23821948D01*
X30782181Y-23938928D01*
X30790650Y-23946136D01*
X30963294Y-24042624D01*
X31151392Y-24103740D01*
X31347777Y-24127158D01*
X31353912Y-24126686D01*
X31353914Y-24126686D01*
X31538830Y-24112457D01*
X31538834Y-24112456D01*
X31544972Y-24111984D01*
X31735463Y-24058798D01*
X31740967Y-24056018D01*
X31740969Y-24056017D01*
X31906495Y-23972404D01*
X31906497Y-23972403D01*
X31911996Y-23969625D01*
X31956018Y-23935231D01*
X32022013Y-23909053D01*
X32091683Y-23922710D01*
X32115254Y-23938565D01*
X32124150Y-23946136D01*
X32296794Y-24042624D01*
X32484892Y-24103740D01*
X32681277Y-24127158D01*
X32687412Y-24126686D01*
X32687414Y-24126686D01*
X32872330Y-24112457D01*
X32872334Y-24112456D01*
X32878472Y-24111984D01*
X33068963Y-24058798D01*
X33074467Y-24056018D01*
X33074469Y-24056017D01*
X33239995Y-23972404D01*
X33239997Y-23972403D01*
X33245496Y-23969625D01*
X33332913Y-23901327D01*
X33398903Y-23875151D01*
X33471953Y-23890630D01*
X33630294Y-23979124D01*
X33818392Y-24040240D01*
X34014777Y-24063658D01*
X34020912Y-24063186D01*
X34020914Y-24063186D01*
X34205830Y-24048957D01*
X34205834Y-24048956D01*
X34211972Y-24048484D01*
X34402463Y-23995298D01*
X34407967Y-23992518D01*
X34407969Y-23992517D01*
X34573495Y-23908904D01*
X34573497Y-23908903D01*
X34578996Y-23906125D01*
X34623018Y-23871731D01*
X34689013Y-23845553D01*
X34758683Y-23859210D01*
X34782254Y-23875065D01*
X34791150Y-23882636D01*
X34963794Y-23979124D01*
X35151892Y-24040240D01*
X35348277Y-24063658D01*
X35354412Y-24063186D01*
X35354414Y-24063186D01*
X35539330Y-24048957D01*
X35539334Y-24048956D01*
X35545472Y-24048484D01*
X35735963Y-23995298D01*
X35741467Y-23992518D01*
X35741469Y-23992517D01*
X35906995Y-23908904D01*
X35906997Y-23908903D01*
X35912496Y-23906125D01*
X36068347Y-23784361D01*
X36169909Y-23666700D01*
X36193549Y-23639313D01*
X36193550Y-23639311D01*
X36197578Y-23634645D01*
X36295269Y-23462679D01*
X36357697Y-23275013D01*
X36382485Y-23078795D01*
X36382688Y-23064253D01*
X36382831Y-23054023D01*
X36382831Y-23054020D01*
X36382880Y-23050500D01*
X36363580Y-22853667D01*
X36354437Y-22823382D01*
X36339662Y-22774447D01*
X36306416Y-22664331D01*
X36213566Y-22489704D01*
X36199355Y-22472279D01*
X36188211Y-22458616D01*
X36158102Y-22421698D01*
X36130548Y-22356268D01*
X36142743Y-22286326D01*
X36146189Y-22279826D01*
X36179363Y-22221429D01*
X36231769Y-22129179D01*
X36294197Y-21941513D01*
X36318985Y-21745295D01*
X36319380Y-21717000D01*
X36300080Y-21520167D01*
X36242916Y-21330831D01*
X36150066Y-21156204D01*
X36070604Y-21058774D01*
X36028960Y-21007713D01*
X36028957Y-21007710D01*
X36025065Y-21002938D01*
X36018724Y-20997692D01*
X35877425Y-20880799D01*
X35877421Y-20880797D01*
X35872675Y-20876870D01*
X35698701Y-20782802D01*
X35651744Y-20768266D01*
X35608432Y-20754859D01*
X35549272Y-20715608D01*
X35520725Y-20650603D01*
X35531854Y-20580484D01*
X35579125Y-20527513D01*
X35645690Y-20508494D01*
X70585657Y-20508480D01*
X70653778Y-20528482D01*
X70700271Y-20582138D01*
X70710375Y-20652412D01*
X70696072Y-20695180D01*
X70633067Y-20809787D01*
X70631206Y-20815654D01*
X70631205Y-20815656D01*
X70590335Y-20944494D01*
X70573265Y-20998306D01*
X70551219Y-21194851D01*
X70551735Y-21200995D01*
X70564701Y-21355406D01*
X70567768Y-21391934D01*
X70572868Y-21409720D01*
X70602846Y-21514264D01*
X70622283Y-21582050D01*
X70625102Y-21587535D01*
X70677483Y-21689456D01*
X70712687Y-21757956D01*
X70835535Y-21912953D01*
X70840228Y-21916947D01*
X70840229Y-21916948D01*
X70892644Y-21961556D01*
X70986150Y-22041136D01*
X71158794Y-22137624D01*
X71346892Y-22198740D01*
X71543277Y-22222158D01*
X71549412Y-22221686D01*
X71549414Y-22221686D01*
X71734330Y-22207457D01*
X71734334Y-22207456D01*
X71740472Y-22206984D01*
X71930963Y-22153798D01*
X71936467Y-22151018D01*
X71936469Y-22151017D01*
X72101995Y-22067404D01*
X72101997Y-22067403D01*
X72107496Y-22064625D01*
X72263347Y-21942861D01*
X72392578Y-21793145D01*
X72490269Y-21621179D01*
X72552697Y-21433513D01*
X72577485Y-21237295D01*
X72577880Y-21209000D01*
X72558580Y-21012167D01*
X72554608Y-20999009D01*
X72524928Y-20900706D01*
X72501416Y-20822831D01*
X72432720Y-20693631D01*
X72418401Y-20624095D01*
X72443949Y-20557854D01*
X72501254Y-20515941D01*
X72543972Y-20508479D01*
X78215726Y-20508477D01*
X78283847Y-20528479D01*
X78330340Y-20582135D01*
X78340444Y-20652409D01*
X78310950Y-20716989D01*
X78266974Y-20749584D01*
X78162281Y-20796195D01*
X78162274Y-20796199D01*
X78156248Y-20798882D01*
X78150907Y-20802762D01*
X78150906Y-20802763D01*
X78100843Y-20839136D01*
X78001747Y-20911134D01*
X77997326Y-20916044D01*
X77997325Y-20916045D01*
X77905254Y-21018301D01*
X77873960Y-21053056D01*
X77851122Y-21092613D01*
X77783926Y-21209000D01*
X77778473Y-21218444D01*
X77719458Y-21400072D01*
X77718768Y-21406633D01*
X77718768Y-21406635D01*
X77711745Y-21473458D01*
X77699496Y-21590000D01*
X77700186Y-21596565D01*
X77717149Y-21757956D01*
X77719458Y-21779928D01*
X77778473Y-21961556D01*
X77873960Y-22126944D01*
X77878378Y-22131851D01*
X77878379Y-22131852D01*
X77997325Y-22263955D01*
X78001747Y-22268866D01*
X78156248Y-22381118D01*
X78162276Y-22383802D01*
X78162278Y-22383803D01*
X78324681Y-22456109D01*
X78330712Y-22458794D01*
X78394154Y-22472279D01*
X78511056Y-22497128D01*
X78511061Y-22497128D01*
X78517513Y-22498500D01*
X78708487Y-22498500D01*
X78714939Y-22497128D01*
X78714944Y-22497128D01*
X78831846Y-22472279D01*
X78895288Y-22458794D01*
X78901319Y-22456109D01*
X79063722Y-22383803D01*
X79063724Y-22383802D01*
X79069752Y-22381118D01*
X79224253Y-22268866D01*
X79228675Y-22263955D01*
X79347621Y-22131852D01*
X79347622Y-22131851D01*
X79352040Y-22126944D01*
X79447527Y-21961556D01*
X79506542Y-21779928D01*
X79508852Y-21757956D01*
X79525814Y-21596565D01*
X79526504Y-21590000D01*
X79514255Y-21473458D01*
X79507232Y-21406635D01*
X79507232Y-21406633D01*
X79506542Y-21400072D01*
X79447527Y-21218444D01*
X79442075Y-21209000D01*
X79374878Y-21092613D01*
X79352040Y-21053056D01*
X79320747Y-21018301D01*
X79228675Y-20916045D01*
X79228674Y-20916044D01*
X79224253Y-20911134D01*
X79125157Y-20839136D01*
X79075094Y-20802763D01*
X79075093Y-20802762D01*
X79069752Y-20798882D01*
X79063724Y-20796198D01*
X79063722Y-20796197D01*
X78959025Y-20749583D01*
X78904929Y-20703603D01*
X78884280Y-20635675D01*
X78903632Y-20567367D01*
X78956843Y-20520366D01*
X79010273Y-20508476D01*
X99337486Y-20508468D01*
X99405606Y-20528470D01*
X99452099Y-20582126D01*
X99462203Y-20652400D01*
X99438312Y-20710032D01*
X99415770Y-20740109D01*
X99415768Y-20740112D01*
X99410385Y-20747295D01*
X99359255Y-20883684D01*
X99352500Y-20945866D01*
X99352500Y-22742134D01*
X99359255Y-22804316D01*
X99410385Y-22940705D01*
X99497739Y-23057261D01*
X99614295Y-23144615D01*
X99750684Y-23195745D01*
X99812866Y-23202500D01*
X101609134Y-23202500D01*
X101671316Y-23195745D01*
X101807705Y-23144615D01*
X101924261Y-23057261D01*
X102011615Y-22940705D01*
X102034295Y-22880206D01*
X102055598Y-22823382D01*
X102098240Y-22766618D01*
X102164802Y-22741918D01*
X102234150Y-22757126D01*
X102268817Y-22785114D01*
X102297250Y-22817938D01*
X102407447Y-22909425D01*
X102462580Y-22955197D01*
X102469126Y-22960632D01*
X102662000Y-23073338D01*
X102870692Y-23153030D01*
X102875760Y-23154061D01*
X102875763Y-23154062D01*
X102983017Y-23175883D01*
X103089597Y-23197567D01*
X103094772Y-23197757D01*
X103094774Y-23197757D01*
X103307673Y-23205564D01*
X103307677Y-23205564D01*
X103312837Y-23205753D01*
X103317957Y-23205097D01*
X103317959Y-23205097D01*
X103529288Y-23178025D01*
X103529289Y-23178025D01*
X103534416Y-23177368D01*
X103539366Y-23175883D01*
X103743429Y-23114661D01*
X103743434Y-23114659D01*
X103748384Y-23113174D01*
X103948994Y-23014896D01*
X104130860Y-22885173D01*
X104135845Y-22880206D01*
X104270991Y-22745531D01*
X104289096Y-22727489D01*
X104419453Y-22546077D01*
X104420776Y-22547028D01*
X104467645Y-22503857D01*
X104537580Y-22491625D01*
X104603026Y-22519144D01*
X104630875Y-22550994D01*
X104690987Y-22649088D01*
X104837250Y-22817938D01*
X104947447Y-22909425D01*
X105002580Y-22955197D01*
X105009126Y-22960632D01*
X105202000Y-23073338D01*
X105410692Y-23153030D01*
X105415760Y-23154061D01*
X105415763Y-23154062D01*
X105523017Y-23175883D01*
X105629597Y-23197567D01*
X105634772Y-23197757D01*
X105634774Y-23197757D01*
X105847673Y-23205564D01*
X105847677Y-23205564D01*
X105852837Y-23205753D01*
X105857957Y-23205097D01*
X105857959Y-23205097D01*
X106069288Y-23178025D01*
X106069289Y-23178025D01*
X106074416Y-23177368D01*
X106079366Y-23175883D01*
X106283429Y-23114661D01*
X106283434Y-23114659D01*
X106288384Y-23113174D01*
X106488994Y-23014896D01*
X106670860Y-22885173D01*
X106675845Y-22880206D01*
X106810991Y-22745531D01*
X106829096Y-22727489D01*
X106959453Y-22546077D01*
X106960776Y-22547028D01*
X107007645Y-22503857D01*
X107077580Y-22491625D01*
X107143026Y-22519144D01*
X107170875Y-22550994D01*
X107230987Y-22649088D01*
X107377250Y-22817938D01*
X107487447Y-22909425D01*
X107542580Y-22955197D01*
X107549126Y-22960632D01*
X107742000Y-23073338D01*
X107950692Y-23153030D01*
X107955760Y-23154061D01*
X107955763Y-23154062D01*
X108063017Y-23175883D01*
X108169597Y-23197567D01*
X108174772Y-23197757D01*
X108174774Y-23197757D01*
X108387673Y-23205564D01*
X108387677Y-23205564D01*
X108392837Y-23205753D01*
X108397957Y-23205097D01*
X108397959Y-23205097D01*
X108609288Y-23178025D01*
X108609289Y-23178025D01*
X108614416Y-23177368D01*
X108619366Y-23175883D01*
X108823429Y-23114661D01*
X108823434Y-23114659D01*
X108828384Y-23113174D01*
X109028994Y-23014896D01*
X109210860Y-22885173D01*
X109215845Y-22880206D01*
X109350991Y-22745531D01*
X109369096Y-22727489D01*
X109499453Y-22546077D01*
X109500776Y-22547028D01*
X109547645Y-22503857D01*
X109617580Y-22491625D01*
X109683026Y-22519144D01*
X109710875Y-22550994D01*
X109770987Y-22649088D01*
X109917250Y-22817938D01*
X110027447Y-22909425D01*
X110082580Y-22955197D01*
X110089126Y-22960632D01*
X110282000Y-23073338D01*
X110490692Y-23153030D01*
X110495760Y-23154061D01*
X110495763Y-23154062D01*
X110603017Y-23175883D01*
X110709597Y-23197567D01*
X110714772Y-23197757D01*
X110714774Y-23197757D01*
X110927673Y-23205564D01*
X110927677Y-23205564D01*
X110932837Y-23205753D01*
X110937957Y-23205097D01*
X110937959Y-23205097D01*
X111149288Y-23178025D01*
X111149289Y-23178025D01*
X111154416Y-23177368D01*
X111159366Y-23175883D01*
X111363429Y-23114661D01*
X111363434Y-23114659D01*
X111368384Y-23113174D01*
X111568994Y-23014896D01*
X111750860Y-22885173D01*
X111755845Y-22880206D01*
X111890991Y-22745531D01*
X111909096Y-22727489D01*
X112039453Y-22546077D01*
X112040776Y-22547028D01*
X112087645Y-22503857D01*
X112157580Y-22491625D01*
X112223026Y-22519144D01*
X112250875Y-22550994D01*
X112310987Y-22649088D01*
X112457250Y-22817938D01*
X112567447Y-22909425D01*
X112622580Y-22955197D01*
X112629126Y-22960632D01*
X112822000Y-23073338D01*
X113030692Y-23153030D01*
X113035760Y-23154061D01*
X113035763Y-23154062D01*
X113143017Y-23175883D01*
X113249597Y-23197567D01*
X113254772Y-23197757D01*
X113254774Y-23197757D01*
X113467673Y-23205564D01*
X113467677Y-23205564D01*
X113472837Y-23205753D01*
X113477957Y-23205097D01*
X113477959Y-23205097D01*
X113689288Y-23178025D01*
X113689289Y-23178025D01*
X113694416Y-23177368D01*
X113699366Y-23175883D01*
X113903429Y-23114661D01*
X113903434Y-23114659D01*
X113908384Y-23113174D01*
X114108994Y-23014896D01*
X114290860Y-22885173D01*
X114295845Y-22880206D01*
X114430991Y-22745531D01*
X114449096Y-22727489D01*
X114579453Y-22546077D01*
X114600320Y-22503857D01*
X114676136Y-22350453D01*
X114676137Y-22350451D01*
X114678430Y-22345811D01*
X114743370Y-22132069D01*
X114772529Y-21910590D01*
X114772783Y-21900190D01*
X114774074Y-21847365D01*
X114774074Y-21847361D01*
X114774156Y-21844000D01*
X114755852Y-21621361D01*
X114701431Y-21404702D01*
X114612354Y-21199840D01*
X114491014Y-21012277D01*
X114340670Y-20847051D01*
X114196691Y-20733343D01*
X114155629Y-20675427D01*
X114152397Y-20604504D01*
X114188022Y-20543092D01*
X114251194Y-20510690D01*
X114274784Y-20508462D01*
X117986712Y-20508460D01*
X118045633Y-20508460D01*
X118065018Y-20509960D01*
G37*
%TD.AperFunction*%
%TD*%
M02*
