%TF.GenerationSoftware,KiCad,Pcbnew,(6.0.8)*%
%TF.CreationDate,2022-10-05T23:25:23+02:00*%
%TF.ProjectId,DMX_ControllerBoard,444d585f-436f-46e7-9472-6f6c6c657242,rev?*%
%TF.SameCoordinates,Original*%
%TF.FileFunction,Soldermask,Bot*%
%TF.FilePolarity,Negative*%
%FSLAX46Y46*%
G04 Gerber Fmt 4.6, Leading zero omitted, Abs format (unit mm)*
G04 Created by KiCad (PCBNEW (6.0.8)) date 2022-10-05 23:25:23*
%MOMM*%
%LPD*%
G01*
G04 APERTURE LIST*
G04 Aperture macros list*
%AMRoundRect*
0 Rectangle with rounded corners*
0 $1 Rounding radius*
0 $2 $3 $4 $5 $6 $7 $8 $9 X,Y pos of 4 corners*
0 Add a 4 corners polygon primitive as box body*
4,1,4,$2,$3,$4,$5,$6,$7,$8,$9,$2,$3,0*
0 Add four circle primitives for the rounded corners*
1,1,$1+$1,$2,$3*
1,1,$1+$1,$4,$5*
1,1,$1+$1,$6,$7*
1,1,$1+$1,$8,$9*
0 Add four rect primitives between the rounded corners*
20,1,$1+$1,$2,$3,$4,$5,0*
20,1,$1+$1,$4,$5,$6,$7,0*
20,1,$1+$1,$6,$7,$8,$9,0*
20,1,$1+$1,$8,$9,$2,$3,0*%
G04 Aperture macros list end*
%ADD10R,1.600000X1.600000*%
%ADD11C,1.600000*%
%ADD12R,2.600000X2.600000*%
%ADD13C,2.600000*%
%ADD14RoundRect,0.250000X0.750000X-0.600000X0.750000X0.600000X-0.750000X0.600000X-0.750000X-0.600000X0*%
%ADD15O,2.000000X1.700000*%
%ADD16R,1.700000X1.700000*%
%ADD17O,1.700000X1.700000*%
%ADD18C,3.200000*%
%ADD19C,0.800000*%
%ADD20C,1.000000*%
G04 APERTURE END LIST*
D10*
%TO.C,C8*%
X27114500Y-27114500D03*
D11*
X27114500Y-24614500D03*
%TD*%
D10*
%TO.C,C12*%
X43751500Y-24511000D03*
D11*
X47251500Y-24511000D03*
%TD*%
D12*
%TO.C,J3*%
X25209500Y-32956500D03*
D13*
X25209500Y-37956500D03*
%TD*%
D14*
%TO.C,J5*%
X115684300Y-43954700D03*
D15*
X115684300Y-41454700D03*
%TD*%
D12*
%TO.C,J1*%
X44069000Y-50736500D03*
D13*
X49149000Y-50736500D03*
X54229000Y-50736500D03*
%TD*%
D12*
%TO.C,J2*%
X59309000Y-50736500D03*
D13*
X64389000Y-50736500D03*
X69469000Y-50736500D03*
%TD*%
D12*
%TO.C,J4*%
X74549000Y-50736500D03*
D13*
X79629000Y-50736500D03*
X84709000Y-50736500D03*
%TD*%
D12*
%TO.C,J6*%
X89789000Y-50736500D03*
D13*
X94869000Y-50736500D03*
X99949000Y-50736500D03*
%TD*%
D16*
%TO.C,J7*%
X100711000Y-21844000D03*
D17*
X103251000Y-21844000D03*
X105791000Y-21844000D03*
X108331000Y-21844000D03*
X110871000Y-21844000D03*
X113411000Y-21844000D03*
%TD*%
D18*
%TO.C,H1*%
X53797200Y-23723600D03*
%TD*%
%TO.C,H2*%
X23825200Y-52120800D03*
%TD*%
%TO.C,H3*%
X116230400Y-52120800D03*
%TD*%
D16*
%TO.C,JP1*%
X107340400Y-38862000D03*
D17*
X107340400Y-41402000D03*
%TD*%
D19*
X73279000Y-30734000D03*
X82931000Y-38608000D03*
X86487000Y-34925000D03*
X86868000Y-25400000D03*
X81407000Y-38608000D03*
X83566000Y-44069000D03*
X80264000Y-43154000D03*
X84582000Y-43535000D03*
X80899000Y-29337000D03*
X70358000Y-38481000D03*
X78740000Y-34544000D03*
X68834000Y-38735000D03*
X67437000Y-43180000D03*
X70612000Y-43815000D03*
X71882000Y-43561000D03*
X102044500Y-29400500D03*
D20*
X32681333Y-21717000D03*
D19*
X113538000Y-30530800D03*
D20*
X34036000Y-23050500D03*
X33993666Y-21717000D03*
D19*
X64262000Y-23749000D03*
X64262000Y-25908000D03*
D20*
X35306000Y-21717000D03*
D19*
X89281000Y-34988500D03*
X58420000Y-36449000D03*
X98374200Y-38798500D03*
X66802000Y-37211000D03*
X49593500Y-31623000D03*
D20*
X71564500Y-21209000D03*
D19*
X98044000Y-35433000D03*
D20*
X35369500Y-23050500D03*
X32702500Y-23114000D03*
X31369000Y-21717000D03*
D19*
X58801000Y-37592000D03*
D20*
X31369000Y-23114000D03*
D19*
X78613000Y-21590000D03*
X94932500Y-24257000D03*
X63500000Y-37719000D03*
X63881000Y-36449000D03*
X107086400Y-30988000D03*
X104978200Y-38798500D03*
X98171000Y-26543000D03*
X73723500Y-31813500D03*
X51181000Y-33718500D03*
X115366800Y-29870400D03*
X93827600Y-27381200D03*
M02*
