%TF.GenerationSoftware,KiCad,Pcbnew,(6.0.8)*%
%TF.CreationDate,2022-10-05T23:25:23+02:00*%
%TF.ProjectId,DMX_ControllerBoard,444d585f-436f-46e7-9472-6f6c6c657242,rev?*%
%TF.SameCoordinates,Original*%
%TF.FileFunction,Legend,Bot*%
%TF.FilePolarity,Positive*%
%FSLAX46Y46*%
G04 Gerber Fmt 4.6, Leading zero omitted, Abs format (unit mm)*
G04 Created by KiCad (PCBNEW (6.0.8)) date 2022-10-05 23:25:23*
%MOMM*%
%LPD*%
G01*
G04 APERTURE LIST*
G04 Aperture macros list*
%AMRoundRect*
0 Rectangle with rounded corners*
0 $1 Rounding radius*
0 $2 $3 $4 $5 $6 $7 $8 $9 X,Y pos of 4 corners*
0 Add a 4 corners polygon primitive as box body*
4,1,4,$2,$3,$4,$5,$6,$7,$8,$9,$2,$3,0*
0 Add four circle primitives for the rounded corners*
1,1,$1+$1,$2,$3*
1,1,$1+$1,$4,$5*
1,1,$1+$1,$6,$7*
1,1,$1+$1,$8,$9*
0 Add four rect primitives between the rounded corners*
20,1,$1+$1,$2,$3,$4,$5,0*
20,1,$1+$1,$4,$5,$6,$7,0*
20,1,$1+$1,$6,$7,$8,$9,0*
20,1,$1+$1,$8,$9,$2,$3,0*%
G04 Aperture macros list end*
%ADD10C,0.150000*%
%ADD11R,1.600000X1.600000*%
%ADD12C,1.600000*%
%ADD13R,2.600000X2.600000*%
%ADD14C,2.600000*%
%ADD15RoundRect,0.250000X0.750000X-0.600000X0.750000X0.600000X-0.750000X0.600000X-0.750000X-0.600000X0*%
%ADD16O,2.000000X1.700000*%
%ADD17R,1.700000X1.700000*%
%ADD18O,1.700000X1.700000*%
%ADD19C,3.200000*%
%ADD20C,0.800000*%
%ADD21C,1.000000*%
G04 APERTURE END LIST*
D10*
X83358380Y-46172380D02*
X83358380Y-45172380D01*
X83120285Y-45172380D01*
X82977428Y-45220000D01*
X82882190Y-45315238D01*
X82834571Y-45410476D01*
X82786952Y-45600952D01*
X82786952Y-45743809D01*
X82834571Y-45934285D01*
X82882190Y-46029523D01*
X82977428Y-46124761D01*
X83120285Y-46172380D01*
X83358380Y-46172380D01*
X82358380Y-46172380D02*
X82358380Y-45172380D01*
X82025047Y-45886666D01*
X81691714Y-45172380D01*
X81691714Y-46172380D01*
X81310761Y-45172380D02*
X80644095Y-46172380D01*
X80644095Y-45172380D02*
X81310761Y-46172380D01*
X78929809Y-46077142D02*
X78977428Y-46124761D01*
X79120285Y-46172380D01*
X79215523Y-46172380D01*
X79358380Y-46124761D01*
X79453619Y-46029523D01*
X79501238Y-45934285D01*
X79548857Y-45743809D01*
X79548857Y-45600952D01*
X79501238Y-45410476D01*
X79453619Y-45315238D01*
X79358380Y-45220000D01*
X79215523Y-45172380D01*
X79120285Y-45172380D01*
X78977428Y-45220000D01*
X78929809Y-45267619D01*
X78358380Y-46172380D02*
X78453619Y-46124761D01*
X78501238Y-46077142D01*
X78548857Y-45981904D01*
X78548857Y-45696190D01*
X78501238Y-45600952D01*
X78453619Y-45553333D01*
X78358380Y-45505714D01*
X78215523Y-45505714D01*
X78120285Y-45553333D01*
X78072666Y-45600952D01*
X78025047Y-45696190D01*
X78025047Y-45981904D01*
X78072666Y-46077142D01*
X78120285Y-46124761D01*
X78215523Y-46172380D01*
X78358380Y-46172380D01*
X77596476Y-45505714D02*
X77596476Y-46172380D01*
X77596476Y-45600952D02*
X77548857Y-45553333D01*
X77453619Y-45505714D01*
X77310761Y-45505714D01*
X77215523Y-45553333D01*
X77167904Y-45648571D01*
X77167904Y-46172380D01*
X76834571Y-45505714D02*
X76453619Y-45505714D01*
X76691714Y-45172380D02*
X76691714Y-46029523D01*
X76644095Y-46124761D01*
X76548857Y-46172380D01*
X76453619Y-46172380D01*
X76120285Y-46172380D02*
X76120285Y-45505714D01*
X76120285Y-45696190D02*
X76072666Y-45600952D01*
X76025047Y-45553333D01*
X75929809Y-45505714D01*
X75834571Y-45505714D01*
X75358380Y-46172380D02*
X75453619Y-46124761D01*
X75501238Y-46077142D01*
X75548857Y-45981904D01*
X75548857Y-45696190D01*
X75501238Y-45600952D01*
X75453619Y-45553333D01*
X75358380Y-45505714D01*
X75215523Y-45505714D01*
X75120285Y-45553333D01*
X75072666Y-45600952D01*
X75025047Y-45696190D01*
X75025047Y-45981904D01*
X75072666Y-46077142D01*
X75120285Y-46124761D01*
X75215523Y-46172380D01*
X75358380Y-46172380D01*
X74453619Y-46172380D02*
X74548857Y-46124761D01*
X74596476Y-46029523D01*
X74596476Y-45172380D01*
X73929809Y-46172380D02*
X74025047Y-46124761D01*
X74072666Y-46029523D01*
X74072666Y-45172380D01*
X73167904Y-46124761D02*
X73263142Y-46172380D01*
X73453619Y-46172380D01*
X73548857Y-46124761D01*
X73596476Y-46029523D01*
X73596476Y-45648571D01*
X73548857Y-45553333D01*
X73453619Y-45505714D01*
X73263142Y-45505714D01*
X73167904Y-45553333D01*
X73120285Y-45648571D01*
X73120285Y-45743809D01*
X73596476Y-45839047D01*
X72691714Y-46172380D02*
X72691714Y-45505714D01*
X72691714Y-45696190D02*
X72644095Y-45600952D01*
X72596476Y-45553333D01*
X72501238Y-45505714D01*
X72406000Y-45505714D01*
X70977428Y-45648571D02*
X70834571Y-45696190D01*
X70786952Y-45743809D01*
X70739333Y-45839047D01*
X70739333Y-45981904D01*
X70786952Y-46077142D01*
X70834571Y-46124761D01*
X70929809Y-46172380D01*
X71310761Y-46172380D01*
X71310761Y-45172380D01*
X70977428Y-45172380D01*
X70882190Y-45220000D01*
X70834571Y-45267619D01*
X70786952Y-45362857D01*
X70786952Y-45458095D01*
X70834571Y-45553333D01*
X70882190Y-45600952D01*
X70977428Y-45648571D01*
X71310761Y-45648571D01*
X70167904Y-46172380D02*
X70263142Y-46124761D01*
X70310761Y-46077142D01*
X70358380Y-45981904D01*
X70358380Y-45696190D01*
X70310761Y-45600952D01*
X70263142Y-45553333D01*
X70167904Y-45505714D01*
X70025047Y-45505714D01*
X69929809Y-45553333D01*
X69882190Y-45600952D01*
X69834571Y-45696190D01*
X69834571Y-45981904D01*
X69882190Y-46077142D01*
X69929809Y-46124761D01*
X70025047Y-46172380D01*
X70167904Y-46172380D01*
X68977428Y-46172380D02*
X68977428Y-45648571D01*
X69025047Y-45553333D01*
X69120285Y-45505714D01*
X69310761Y-45505714D01*
X69406000Y-45553333D01*
X68977428Y-46124761D02*
X69072666Y-46172380D01*
X69310761Y-46172380D01*
X69406000Y-46124761D01*
X69453619Y-46029523D01*
X69453619Y-45934285D01*
X69406000Y-45839047D01*
X69310761Y-45791428D01*
X69072666Y-45791428D01*
X68977428Y-45743809D01*
X68501238Y-46172380D02*
X68501238Y-45505714D01*
X68501238Y-45696190D02*
X68453619Y-45600952D01*
X68406000Y-45553333D01*
X68310761Y-45505714D01*
X68215523Y-45505714D01*
X67453619Y-46172380D02*
X67453619Y-45172380D01*
X67453619Y-46124761D02*
X67548857Y-46172380D01*
X67739333Y-46172380D01*
X67834571Y-46124761D01*
X67882190Y-46077142D01*
X67929809Y-45981904D01*
X67929809Y-45696190D01*
X67882190Y-45600952D01*
X67834571Y-45553333D01*
X67739333Y-45505714D01*
X67548857Y-45505714D01*
X67453619Y-45553333D01*
X66358380Y-45172380D02*
X66025047Y-46172380D01*
X65691714Y-45172380D01*
X64834571Y-46172380D02*
X65406000Y-46172380D01*
X65120285Y-46172380D02*
X65120285Y-45172380D01*
X65215523Y-45315238D01*
X65310761Y-45410476D01*
X65406000Y-45458095D01*
X64406000Y-46077142D02*
X64358380Y-46124761D01*
X64406000Y-46172380D01*
X64453619Y-46124761D01*
X64406000Y-46077142D01*
X64406000Y-46172380D01*
X63406000Y-46172380D02*
X63977428Y-46172380D01*
X63691714Y-46172380D02*
X63691714Y-45172380D01*
X63786952Y-45315238D01*
X63882190Y-45410476D01*
X63977428Y-45458095D01*
X45488285Y-45319761D02*
X45345428Y-45367380D01*
X45107333Y-45367380D01*
X45012095Y-45319761D01*
X44964476Y-45272142D01*
X44916857Y-45176904D01*
X44916857Y-45081666D01*
X44964476Y-44986428D01*
X45012095Y-44938809D01*
X45107333Y-44891190D01*
X45297809Y-44843571D01*
X45393047Y-44795952D01*
X45440666Y-44748333D01*
X45488285Y-44653095D01*
X45488285Y-44557857D01*
X45440666Y-44462619D01*
X45393047Y-44415000D01*
X45297809Y-44367380D01*
X45059714Y-44367380D01*
X44916857Y-44415000D01*
X44107333Y-45319761D02*
X44202571Y-45367380D01*
X44393047Y-45367380D01*
X44488285Y-45319761D01*
X44535904Y-45224523D01*
X44535904Y-44843571D01*
X44488285Y-44748333D01*
X44393047Y-44700714D01*
X44202571Y-44700714D01*
X44107333Y-44748333D01*
X44059714Y-44843571D01*
X44059714Y-44938809D01*
X44535904Y-45034047D01*
X43774000Y-44700714D02*
X43393047Y-44700714D01*
X43631142Y-44367380D02*
X43631142Y-45224523D01*
X43583523Y-45319761D01*
X43488285Y-45367380D01*
X43393047Y-45367380D01*
X42631142Y-44700714D02*
X42631142Y-45367380D01*
X43059714Y-44700714D02*
X43059714Y-45224523D01*
X43012095Y-45319761D01*
X42916857Y-45367380D01*
X42774000Y-45367380D01*
X42678761Y-45319761D01*
X42631142Y-45272142D01*
X42154952Y-44700714D02*
X42154952Y-45700714D01*
X42154952Y-44748333D02*
X42059714Y-44700714D01*
X41869238Y-44700714D01*
X41774000Y-44748333D01*
X41726380Y-44795952D01*
X41678761Y-44891190D01*
X41678761Y-45176904D01*
X41726380Y-45272142D01*
X41774000Y-45319761D01*
X41869238Y-45367380D01*
X42059714Y-45367380D01*
X42154952Y-45319761D01*
X40535904Y-45081666D02*
X40059714Y-45081666D01*
X40631142Y-45367380D02*
X40297809Y-44367380D01*
X39964476Y-45367380D01*
X39631142Y-45367380D02*
X39631142Y-44367380D01*
X39250190Y-44367380D01*
X39154952Y-44415000D01*
X39107333Y-44462619D01*
X39059714Y-44557857D01*
X39059714Y-44700714D01*
X39107333Y-44795952D01*
X39154952Y-44843571D01*
X39250190Y-44891190D01*
X39631142Y-44891190D01*
X37869238Y-45367380D02*
X37869238Y-44367380D01*
X37297809Y-45367380D01*
X37297809Y-44367380D01*
X36393047Y-45367380D02*
X36393047Y-44843571D01*
X36440666Y-44748333D01*
X36535904Y-44700714D01*
X36726380Y-44700714D01*
X36821619Y-44748333D01*
X36393047Y-45319761D02*
X36488285Y-45367380D01*
X36726380Y-45367380D01*
X36821619Y-45319761D01*
X36869238Y-45224523D01*
X36869238Y-45129285D01*
X36821619Y-45034047D01*
X36726380Y-44986428D01*
X36488285Y-44986428D01*
X36393047Y-44938809D01*
X35916857Y-45367380D02*
X35916857Y-44700714D01*
X35916857Y-44795952D02*
X35869238Y-44748333D01*
X35774000Y-44700714D01*
X35631142Y-44700714D01*
X35535904Y-44748333D01*
X35488285Y-44843571D01*
X35488285Y-45367380D01*
X35488285Y-44843571D02*
X35440666Y-44748333D01*
X35345428Y-44700714D01*
X35202571Y-44700714D01*
X35107333Y-44748333D01*
X35059714Y-44843571D01*
X35059714Y-45367380D01*
X34202571Y-45319761D02*
X34297809Y-45367380D01*
X34488285Y-45367380D01*
X34583523Y-45319761D01*
X34631142Y-45224523D01*
X34631142Y-44843571D01*
X34583523Y-44748333D01*
X34488285Y-44700714D01*
X34297809Y-44700714D01*
X34202571Y-44748333D01*
X34154952Y-44843571D01*
X34154952Y-44938809D01*
X34631142Y-45034047D01*
X33726380Y-45272142D02*
X33678761Y-45319761D01*
X33726380Y-45367380D01*
X33774000Y-45319761D01*
X33726380Y-45272142D01*
X33726380Y-45367380D01*
X33726380Y-44748333D02*
X33678761Y-44795952D01*
X33726380Y-44843571D01*
X33774000Y-44795952D01*
X33726380Y-44748333D01*
X33726380Y-44843571D01*
X32012095Y-45367380D02*
X32488285Y-45367380D01*
X32488285Y-44367380D01*
X31678761Y-45367380D02*
X31678761Y-44700714D01*
X31678761Y-44367380D02*
X31726380Y-44415000D01*
X31678761Y-44462619D01*
X31631142Y-44415000D01*
X31678761Y-44367380D01*
X31678761Y-44462619D01*
X30774000Y-44700714D02*
X30774000Y-45510238D01*
X30821619Y-45605476D01*
X30869238Y-45653095D01*
X30964476Y-45700714D01*
X31107333Y-45700714D01*
X31202571Y-45653095D01*
X30774000Y-45319761D02*
X30869238Y-45367380D01*
X31059714Y-45367380D01*
X31154952Y-45319761D01*
X31202571Y-45272142D01*
X31250190Y-45176904D01*
X31250190Y-44891190D01*
X31202571Y-44795952D01*
X31154952Y-44748333D01*
X31059714Y-44700714D01*
X30869238Y-44700714D01*
X30774000Y-44748333D01*
X30297809Y-45367380D02*
X30297809Y-44367380D01*
X29869238Y-45367380D02*
X29869238Y-44843571D01*
X29916857Y-44748333D01*
X30012095Y-44700714D01*
X30154952Y-44700714D01*
X30250190Y-44748333D01*
X30297809Y-44795952D01*
X29535904Y-44700714D02*
X29154952Y-44700714D01*
X29393047Y-44367380D02*
X29393047Y-45224523D01*
X29345428Y-45319761D01*
X29250190Y-45367380D01*
X29154952Y-45367380D01*
X27488285Y-45272142D02*
X27535904Y-45319761D01*
X27678761Y-45367380D01*
X27774000Y-45367380D01*
X27916857Y-45319761D01*
X28012095Y-45224523D01*
X28059714Y-45129285D01*
X28107333Y-44938809D01*
X28107333Y-44795952D01*
X28059714Y-44605476D01*
X28012095Y-44510238D01*
X27916857Y-44415000D01*
X27774000Y-44367380D01*
X27678761Y-44367380D01*
X27535904Y-44415000D01*
X27488285Y-44462619D01*
X26916857Y-45367380D02*
X27012095Y-45319761D01*
X27059714Y-45272142D01*
X27107333Y-45176904D01*
X27107333Y-44891190D01*
X27059714Y-44795952D01*
X27012095Y-44748333D01*
X26916857Y-44700714D01*
X26774000Y-44700714D01*
X26678761Y-44748333D01*
X26631142Y-44795952D01*
X26583523Y-44891190D01*
X26583523Y-45176904D01*
X26631142Y-45272142D01*
X26678761Y-45319761D01*
X26774000Y-45367380D01*
X26916857Y-45367380D01*
X26154952Y-44700714D02*
X26154952Y-45367380D01*
X26154952Y-44795952D02*
X26107333Y-44748333D01*
X26012095Y-44700714D01*
X25869238Y-44700714D01*
X25774000Y-44748333D01*
X25726380Y-44843571D01*
X25726380Y-45367380D01*
X25393047Y-44700714D02*
X25012095Y-44700714D01*
X25250190Y-44367380D02*
X25250190Y-45224523D01*
X25202571Y-45319761D01*
X25107333Y-45367380D01*
X25012095Y-45367380D01*
X24678761Y-45367380D02*
X24678761Y-44700714D01*
X24678761Y-44891190D02*
X24631142Y-44795952D01*
X24583523Y-44748333D01*
X24488285Y-44700714D01*
X24393047Y-44700714D01*
X23916857Y-45367380D02*
X24012095Y-45319761D01*
X24059714Y-45272142D01*
X24107333Y-45176904D01*
X24107333Y-44891190D01*
X24059714Y-44795952D01*
X24012095Y-44748333D01*
X23916857Y-44700714D01*
X23774000Y-44700714D01*
X23678761Y-44748333D01*
X23631142Y-44795952D01*
X23583523Y-44891190D01*
X23583523Y-45176904D01*
X23631142Y-45272142D01*
X23678761Y-45319761D01*
X23774000Y-45367380D01*
X23916857Y-45367380D01*
X23012095Y-45367380D02*
X23107333Y-45319761D01*
X23154952Y-45224523D01*
X23154952Y-44367380D01*
X22488285Y-45367380D02*
X22583523Y-45319761D01*
X22631142Y-45224523D01*
X22631142Y-44367380D01*
X21726380Y-45319761D02*
X21821619Y-45367380D01*
X22012095Y-45367380D01*
X22107333Y-45319761D01*
X22154952Y-45224523D01*
X22154952Y-44843571D01*
X22107333Y-44748333D01*
X22012095Y-44700714D01*
X21821619Y-44700714D01*
X21726380Y-44748333D01*
X21678761Y-44843571D01*
X21678761Y-44938809D01*
X22154952Y-45034047D01*
X21250190Y-45367380D02*
X21250190Y-44700714D01*
X21250190Y-44891190D02*
X21202571Y-44795952D01*
X21154952Y-44748333D01*
X21059714Y-44700714D01*
X20964476Y-44700714D01*
X44702571Y-46929761D02*
X44559714Y-46977380D01*
X44321619Y-46977380D01*
X44226380Y-46929761D01*
X44178761Y-46882142D01*
X44131142Y-46786904D01*
X44131142Y-46691666D01*
X44178761Y-46596428D01*
X44226380Y-46548809D01*
X44321619Y-46501190D01*
X44512095Y-46453571D01*
X44607333Y-46405952D01*
X44654952Y-46358333D01*
X44702571Y-46263095D01*
X44702571Y-46167857D01*
X44654952Y-46072619D01*
X44607333Y-46025000D01*
X44512095Y-45977380D01*
X44274000Y-45977380D01*
X44131142Y-46025000D01*
X43321619Y-46929761D02*
X43416857Y-46977380D01*
X43607333Y-46977380D01*
X43702571Y-46929761D01*
X43750190Y-46834523D01*
X43750190Y-46453571D01*
X43702571Y-46358333D01*
X43607333Y-46310714D01*
X43416857Y-46310714D01*
X43321619Y-46358333D01*
X43274000Y-46453571D01*
X43274000Y-46548809D01*
X43750190Y-46644047D01*
X42988285Y-46310714D02*
X42607333Y-46310714D01*
X42845428Y-45977380D02*
X42845428Y-46834523D01*
X42797809Y-46929761D01*
X42702571Y-46977380D01*
X42607333Y-46977380D01*
X41845428Y-46310714D02*
X41845428Y-46977380D01*
X42274000Y-46310714D02*
X42274000Y-46834523D01*
X42226380Y-46929761D01*
X42131142Y-46977380D01*
X41988285Y-46977380D01*
X41893047Y-46929761D01*
X41845428Y-46882142D01*
X41369238Y-46310714D02*
X41369238Y-47310714D01*
X41369238Y-46358333D02*
X41274000Y-46310714D01*
X41083523Y-46310714D01*
X40988285Y-46358333D01*
X40940666Y-46405952D01*
X40893047Y-46501190D01*
X40893047Y-46786904D01*
X40940666Y-46882142D01*
X40988285Y-46929761D01*
X41083523Y-46977380D01*
X41274000Y-46977380D01*
X41369238Y-46929761D01*
X39702571Y-46977380D02*
X39702571Y-45977380D01*
X39226380Y-46977380D02*
X39226380Y-45977380D01*
X38845428Y-45977380D01*
X38750190Y-46025000D01*
X38702571Y-46072619D01*
X38654952Y-46167857D01*
X38654952Y-46310714D01*
X38702571Y-46405952D01*
X38750190Y-46453571D01*
X38845428Y-46501190D01*
X39226380Y-46501190D01*
X37512095Y-46691666D02*
X37035904Y-46691666D01*
X37607333Y-46977380D02*
X37274000Y-45977380D01*
X36940666Y-46977380D01*
X36178761Y-46977380D02*
X36178761Y-45977380D01*
X36178761Y-46929761D02*
X36274000Y-46977380D01*
X36464476Y-46977380D01*
X36559714Y-46929761D01*
X36607333Y-46882142D01*
X36654952Y-46786904D01*
X36654952Y-46501190D01*
X36607333Y-46405952D01*
X36559714Y-46358333D01*
X36464476Y-46310714D01*
X36274000Y-46310714D01*
X36178761Y-46358333D01*
X35274000Y-46977380D02*
X35274000Y-45977380D01*
X35274000Y-46929761D02*
X35369238Y-46977380D01*
X35559714Y-46977380D01*
X35654952Y-46929761D01*
X35702571Y-46882142D01*
X35750190Y-46786904D01*
X35750190Y-46501190D01*
X35702571Y-46405952D01*
X35654952Y-46358333D01*
X35559714Y-46310714D01*
X35369238Y-46310714D01*
X35274000Y-46358333D01*
X34797809Y-46977380D02*
X34797809Y-46310714D01*
X34797809Y-46501190D02*
X34750190Y-46405952D01*
X34702571Y-46358333D01*
X34607333Y-46310714D01*
X34512095Y-46310714D01*
X33797809Y-46929761D02*
X33893047Y-46977380D01*
X34083523Y-46977380D01*
X34178761Y-46929761D01*
X34226380Y-46834523D01*
X34226380Y-46453571D01*
X34178761Y-46358333D01*
X34083523Y-46310714D01*
X33893047Y-46310714D01*
X33797809Y-46358333D01*
X33750190Y-46453571D01*
X33750190Y-46548809D01*
X34226380Y-46644047D01*
X33369238Y-46929761D02*
X33274000Y-46977380D01*
X33083523Y-46977380D01*
X32988285Y-46929761D01*
X32940666Y-46834523D01*
X32940666Y-46786904D01*
X32988285Y-46691666D01*
X33083523Y-46644047D01*
X33226380Y-46644047D01*
X33321619Y-46596428D01*
X33369238Y-46501190D01*
X33369238Y-46453571D01*
X33321619Y-46358333D01*
X33226380Y-46310714D01*
X33083523Y-46310714D01*
X32988285Y-46358333D01*
X32559714Y-46929761D02*
X32464476Y-46977380D01*
X32274000Y-46977380D01*
X32178761Y-46929761D01*
X32131142Y-46834523D01*
X32131142Y-46786904D01*
X32178761Y-46691666D01*
X32274000Y-46644047D01*
X32416857Y-46644047D01*
X32512095Y-46596428D01*
X32559714Y-46501190D01*
X32559714Y-46453571D01*
X32512095Y-46358333D01*
X32416857Y-46310714D01*
X32274000Y-46310714D01*
X32178761Y-46358333D01*
X31702571Y-46882142D02*
X31654952Y-46929761D01*
X31702571Y-46977380D01*
X31750190Y-46929761D01*
X31702571Y-46882142D01*
X31702571Y-46977380D01*
X31702571Y-46358333D02*
X31654952Y-46405952D01*
X31702571Y-46453571D01*
X31750190Y-46405952D01*
X31702571Y-46358333D01*
X31702571Y-46453571D01*
X29940666Y-46977380D02*
X30512095Y-46977380D01*
X30226380Y-46977380D02*
X30226380Y-45977380D01*
X30321619Y-46120238D01*
X30416857Y-46215476D01*
X30512095Y-46263095D01*
X29464476Y-46977380D02*
X29274000Y-46977380D01*
X29178761Y-46929761D01*
X29131142Y-46882142D01*
X29035904Y-46739285D01*
X28988285Y-46548809D01*
X28988285Y-46167857D01*
X29035904Y-46072619D01*
X29083523Y-46025000D01*
X29178761Y-45977380D01*
X29369238Y-45977380D01*
X29464476Y-46025000D01*
X29512095Y-46072619D01*
X29559714Y-46167857D01*
X29559714Y-46405952D01*
X29512095Y-46501190D01*
X29464476Y-46548809D01*
X29369238Y-46596428D01*
X29178761Y-46596428D01*
X29083523Y-46548809D01*
X29035904Y-46501190D01*
X28988285Y-46405952D01*
X28607333Y-46072619D02*
X28559714Y-46025000D01*
X28464476Y-45977380D01*
X28226380Y-45977380D01*
X28131142Y-46025000D01*
X28083523Y-46072619D01*
X28035904Y-46167857D01*
X28035904Y-46263095D01*
X28083523Y-46405952D01*
X28654952Y-46977380D01*
X28035904Y-46977380D01*
X27607333Y-46882142D02*
X27559714Y-46929761D01*
X27607333Y-46977380D01*
X27654952Y-46929761D01*
X27607333Y-46882142D01*
X27607333Y-46977380D01*
X26607333Y-46977380D02*
X27178761Y-46977380D01*
X26893047Y-46977380D02*
X26893047Y-45977380D01*
X26988285Y-46120238D01*
X27083523Y-46215476D01*
X27178761Y-46263095D01*
X25750190Y-45977380D02*
X25940666Y-45977380D01*
X26035904Y-46025000D01*
X26083523Y-46072619D01*
X26178761Y-46215476D01*
X26226380Y-46405952D01*
X26226380Y-46786904D01*
X26178761Y-46882142D01*
X26131142Y-46929761D01*
X26035904Y-46977380D01*
X25845428Y-46977380D01*
X25750190Y-46929761D01*
X25702571Y-46882142D01*
X25654952Y-46786904D01*
X25654952Y-46548809D01*
X25702571Y-46453571D01*
X25750190Y-46405952D01*
X25845428Y-46358333D01*
X26035904Y-46358333D01*
X26131142Y-46405952D01*
X26178761Y-46453571D01*
X26226380Y-46548809D01*
X25083523Y-46405952D02*
X25178761Y-46358333D01*
X25226380Y-46310714D01*
X25274000Y-46215476D01*
X25274000Y-46167857D01*
X25226380Y-46072619D01*
X25178761Y-46025000D01*
X25083523Y-45977380D01*
X24893047Y-45977380D01*
X24797809Y-46025000D01*
X24750190Y-46072619D01*
X24702571Y-46167857D01*
X24702571Y-46215476D01*
X24750190Y-46310714D01*
X24797809Y-46358333D01*
X24893047Y-46405952D01*
X25083523Y-46405952D01*
X25178761Y-46453571D01*
X25226380Y-46501190D01*
X25274000Y-46596428D01*
X25274000Y-46786904D01*
X25226380Y-46882142D01*
X25178761Y-46929761D01*
X25083523Y-46977380D01*
X24893047Y-46977380D01*
X24797809Y-46929761D01*
X24750190Y-46882142D01*
X24702571Y-46786904D01*
X24702571Y-46596428D01*
X24750190Y-46501190D01*
X24797809Y-46453571D01*
X24893047Y-46405952D01*
X24274000Y-46882142D02*
X24226380Y-46929761D01*
X24274000Y-46977380D01*
X24321619Y-46929761D01*
X24274000Y-46882142D01*
X24274000Y-46977380D01*
X23274000Y-46977380D02*
X23845428Y-46977380D01*
X23559714Y-46977380D02*
X23559714Y-45977380D01*
X23654952Y-46120238D01*
X23750190Y-46215476D01*
X23845428Y-46263095D01*
X22845428Y-46882142D02*
X22797809Y-46929761D01*
X22845428Y-46977380D01*
X22893047Y-46929761D01*
X22845428Y-46882142D01*
X22845428Y-46977380D01*
X21845428Y-46977380D02*
X22416857Y-46977380D01*
X22131142Y-46977380D02*
X22131142Y-45977380D01*
X22226380Y-46120238D01*
X22321619Y-46215476D01*
X22416857Y-46263095D01*
%LPC*%
D11*
%TO.C,C8*%
X27114500Y-27114500D03*
D12*
X27114500Y-24614500D03*
%TD*%
D11*
%TO.C,C12*%
X43751500Y-24511000D03*
D12*
X47251500Y-24511000D03*
%TD*%
D13*
%TO.C,J3*%
X25209500Y-32956500D03*
D14*
X25209500Y-37956500D03*
%TD*%
D15*
%TO.C,J5*%
X115684300Y-43954700D03*
D16*
X115684300Y-41454700D03*
%TD*%
D13*
%TO.C,J1*%
X44069000Y-50736500D03*
D14*
X49149000Y-50736500D03*
X54229000Y-50736500D03*
%TD*%
D13*
%TO.C,J2*%
X59309000Y-50736500D03*
D14*
X64389000Y-50736500D03*
X69469000Y-50736500D03*
%TD*%
D13*
%TO.C,J4*%
X74549000Y-50736500D03*
D14*
X79629000Y-50736500D03*
X84709000Y-50736500D03*
%TD*%
D13*
%TO.C,J6*%
X89789000Y-50736500D03*
D14*
X94869000Y-50736500D03*
X99949000Y-50736500D03*
%TD*%
D17*
%TO.C,J7*%
X100711000Y-21844000D03*
D18*
X103251000Y-21844000D03*
X105791000Y-21844000D03*
X108331000Y-21844000D03*
X110871000Y-21844000D03*
X113411000Y-21844000D03*
%TD*%
D19*
%TO.C,H1*%
X53797200Y-23723600D03*
%TD*%
%TO.C,H2*%
X23825200Y-52120800D03*
%TD*%
%TO.C,H3*%
X116230400Y-52120800D03*
%TD*%
D17*
%TO.C,JP1*%
X107340400Y-38862000D03*
D18*
X107340400Y-41402000D03*
%TD*%
D20*
X73279000Y-30734000D03*
X82931000Y-38608000D03*
X86487000Y-34925000D03*
X86868000Y-25400000D03*
X81407000Y-38608000D03*
X83566000Y-44069000D03*
X80264000Y-43154000D03*
X84582000Y-43535000D03*
X80899000Y-29337000D03*
X70358000Y-38481000D03*
X78740000Y-34544000D03*
X68834000Y-38735000D03*
X67437000Y-43180000D03*
X70612000Y-43815000D03*
X71882000Y-43561000D03*
X102044500Y-29400500D03*
D21*
X32681333Y-21717000D03*
D20*
X113538000Y-30530800D03*
D21*
X34036000Y-23050500D03*
X33993666Y-21717000D03*
D20*
X64262000Y-23749000D03*
X64262000Y-25908000D03*
D21*
X35306000Y-21717000D03*
D20*
X89281000Y-34988500D03*
X58420000Y-36449000D03*
X98374200Y-38798500D03*
X66802000Y-37211000D03*
X49593500Y-31623000D03*
D21*
X71564500Y-21209000D03*
D20*
X98044000Y-35433000D03*
D21*
X35369500Y-23050500D03*
X32702500Y-23114000D03*
X31369000Y-21717000D03*
D20*
X58801000Y-37592000D03*
D21*
X31369000Y-23114000D03*
D20*
X78613000Y-21590000D03*
X94932500Y-24257000D03*
X63500000Y-37719000D03*
X63881000Y-36449000D03*
X107086400Y-30988000D03*
X104978200Y-38798500D03*
X98171000Y-26543000D03*
X73723500Y-31813500D03*
X51181000Y-33718500D03*
X115366800Y-29870400D03*
X93827600Y-27381200D03*
M02*
