%TF.GenerationSoftware,KiCad,Pcbnew,(6.0.8)*%
%TF.CreationDate,2022-10-05T23:25:23+02:00*%
%TF.ProjectId,DMX_ControllerBoard,444d585f-436f-46e7-9472-6f6c6c657242,rev?*%
%TF.SameCoordinates,Original*%
%TF.FileFunction,Soldermask,Top*%
%TF.FilePolarity,Negative*%
%FSLAX46Y46*%
G04 Gerber Fmt 4.6, Leading zero omitted, Abs format (unit mm)*
G04 Created by KiCad (PCBNEW (6.0.8)) date 2022-10-05 23:25:23*
%MOMM*%
%LPD*%
G01*
G04 APERTURE LIST*
G04 Aperture macros list*
%AMRoundRect*
0 Rectangle with rounded corners*
0 $1 Rounding radius*
0 $2 $3 $4 $5 $6 $7 $8 $9 X,Y pos of 4 corners*
0 Add a 4 corners polygon primitive as box body*
4,1,4,$2,$3,$4,$5,$6,$7,$8,$9,$2,$3,0*
0 Add four circle primitives for the rounded corners*
1,1,$1+$1,$2,$3*
1,1,$1+$1,$4,$5*
1,1,$1+$1,$6,$7*
1,1,$1+$1,$8,$9*
0 Add four rect primitives between the rounded corners*
20,1,$1+$1,$2,$3,$4,$5,0*
20,1,$1+$1,$4,$5,$6,$7,0*
20,1,$1+$1,$6,$7,$8,$9,0*
20,1,$1+$1,$8,$9,$2,$3,0*%
G04 Aperture macros list end*
%ADD10RoundRect,0.250000X-0.450000X0.350000X-0.450000X-0.350000X0.450000X-0.350000X0.450000X0.350000X0*%
%ADD11R,0.300000X0.800000*%
%ADD12R,1.600000X1.600000*%
%ADD13C,1.600000*%
%ADD14RoundRect,0.250000X-0.337500X-0.475000X0.337500X-0.475000X0.337500X0.475000X-0.337500X0.475000X0*%
%ADD15R,0.900000X1.200000*%
%ADD16R,2.600000X2.600000*%
%ADD17C,2.600000*%
%ADD18RoundRect,0.250000X0.750000X-0.600000X0.750000X0.600000X-0.750000X0.600000X-0.750000X-0.600000X0*%
%ADD19O,2.000000X1.700000*%
%ADD20R,1.500000X2.400000*%
%ADD21RoundRect,0.249999X-0.350001X-0.450001X0.350001X-0.450001X0.350001X0.450001X-0.350001X0.450001X0*%
%ADD22RoundRect,0.200000X0.800000X-0.200000X0.800000X0.200000X-0.800000X0.200000X-0.800000X-0.200000X0*%
%ADD23RoundRect,0.150000X-0.150000X0.825000X-0.150000X-0.825000X0.150000X-0.825000X0.150000X0.825000X0*%
%ADD24RoundRect,0.150000X0.825000X0.150000X-0.825000X0.150000X-0.825000X-0.150000X0.825000X-0.150000X0*%
%ADD25RoundRect,0.250000X0.250000X0.475000X-0.250000X0.475000X-0.250000X-0.475000X0.250000X-0.475000X0*%
%ADD26RoundRect,0.250000X-0.475000X0.250000X-0.475000X-0.250000X0.475000X-0.250000X0.475000X0.250000X0*%
%ADD27RoundRect,0.250000X-0.250000X-0.475000X0.250000X-0.475000X0.250000X0.475000X-0.250000X0.475000X0*%
%ADD28RoundRect,0.250000X-0.475000X0.337500X-0.475000X-0.337500X0.475000X-0.337500X0.475000X0.337500X0*%
%ADD29R,2.500000X1.000000*%
%ADD30R,1.000000X1.800000*%
%ADD31RoundRect,0.250000X-0.462500X-0.625000X0.462500X-0.625000X0.462500X0.625000X-0.462500X0.625000X0*%
%ADD32RoundRect,0.250000X0.400000X0.625000X-0.400000X0.625000X-0.400000X-0.625000X0.400000X-0.625000X0*%
%ADD33RoundRect,0.249999X0.450001X-0.350001X0.450001X0.350001X-0.450001X0.350001X-0.450001X-0.350001X0*%
%ADD34RoundRect,0.249999X-0.450001X0.350001X-0.450001X-0.350001X0.450001X-0.350001X0.450001X0.350001X0*%
%ADD35RoundRect,0.200000X-0.200000X-0.800000X0.200000X-0.800000X0.200000X0.800000X-0.200000X0.800000X0*%
%ADD36R,1.700000X1.700000*%
%ADD37O,1.700000X1.700000*%
%ADD38RoundRect,0.200000X0.200000X0.800000X-0.200000X0.800000X-0.200000X-0.800000X0.200000X-0.800000X0*%
%ADD39C,3.200000*%
%ADD40R,1.500000X2.000000*%
%ADD41R,3.800000X2.000000*%
%ADD42RoundRect,0.250000X-0.650000X0.325000X-0.650000X-0.325000X0.650000X-0.325000X0.650000X0.325000X0*%
%ADD43C,0.800000*%
%ADD44C,1.000000*%
G04 APERTURE END LIST*
D10*
%TO.C,R10*%
X84582000Y-40122000D03*
X84582000Y-42122000D03*
%TD*%
D11*
%TO.C,U5*%
X81419000Y-43053000D03*
X81919000Y-43053000D03*
X82419000Y-43053000D03*
X82919000Y-43053000D03*
X82919000Y-39953000D03*
X82419000Y-39953000D03*
X81919000Y-39953000D03*
X81419000Y-39953000D03*
%TD*%
%TO.C,U3*%
X68592000Y-43079000D03*
X69092000Y-43079000D03*
X69592000Y-43079000D03*
X70092000Y-43079000D03*
X70092000Y-39979000D03*
X69592000Y-39979000D03*
X69092000Y-39979000D03*
X68592000Y-39979000D03*
%TD*%
D10*
%TO.C,R6*%
X71882000Y-40148000D03*
X71882000Y-42148000D03*
%TD*%
D12*
%TO.C,C8*%
X27114500Y-27114500D03*
D13*
X27114500Y-24614500D03*
%TD*%
D12*
%TO.C,C12*%
X43751500Y-24511000D03*
D13*
X47251500Y-24511000D03*
%TD*%
D14*
%TO.C,C13*%
X39031000Y-30797500D03*
X41106000Y-30797500D03*
%TD*%
D15*
%TO.C,D6*%
X33592500Y-30797500D03*
X36892500Y-30797500D03*
%TD*%
D16*
%TO.C,J3*%
X25209500Y-32956500D03*
D17*
X25209500Y-37956500D03*
%TD*%
D18*
%TO.C,J5*%
X115684300Y-43954700D03*
D19*
X115684300Y-41454700D03*
%TD*%
D20*
%TO.C,L3*%
X33762500Y-35877500D03*
X39262500Y-35877500D03*
%TD*%
D21*
%TO.C,R3*%
X67088000Y-28956000D03*
X69088000Y-28956000D03*
%TD*%
D22*
%TO.C,SW1*%
X69088000Y-25463500D03*
X69088000Y-21263500D03*
%TD*%
D23*
%TO.C,U2*%
X103644700Y-33847000D03*
X102374700Y-33847000D03*
X101104700Y-33847000D03*
X99834700Y-33847000D03*
X99834700Y-38797000D03*
X101104700Y-38797000D03*
X102374700Y-38797000D03*
X103644700Y-38797000D03*
%TD*%
D24*
%TO.C,U4*%
X39749500Y-28384500D03*
X39749500Y-27114500D03*
X39749500Y-25844500D03*
X39749500Y-24574500D03*
X34799500Y-24574500D03*
X34799500Y-25844500D03*
X34799500Y-27114500D03*
X34799500Y-28384500D03*
%TD*%
D25*
%TO.C,C1*%
X62164000Y-37211000D03*
X60264000Y-37211000D03*
%TD*%
D26*
%TO.C,C3*%
X73279000Y-34737000D03*
X73279000Y-36637000D03*
%TD*%
D27*
%TO.C,C4*%
X61153000Y-23749000D03*
X63053000Y-23749000D03*
%TD*%
D21*
%TO.C,R1*%
X103625900Y-31000700D03*
X105625900Y-31000700D03*
%TD*%
D28*
%TO.C,C11*%
X31940500Y-24807000D03*
X31940500Y-26882000D03*
%TD*%
D29*
%TO.C,U8*%
X76537500Y-21392000D03*
X76537500Y-23392000D03*
X76537500Y-25392000D03*
X76537500Y-27392000D03*
X76537500Y-29392000D03*
X76537500Y-31392000D03*
X76537500Y-33392000D03*
X76537500Y-35392000D03*
D30*
X79137500Y-36892000D03*
X81137500Y-36892000D03*
X83137500Y-36892000D03*
X85137500Y-36892000D03*
X87137500Y-36892000D03*
X89137500Y-36892000D03*
D29*
X91737500Y-35392000D03*
X91737500Y-33392000D03*
X91737500Y-31392000D03*
X91737500Y-29392000D03*
X91737500Y-27392000D03*
X91737500Y-25392000D03*
X91737500Y-23392000D03*
X91737500Y-21392000D03*
%TD*%
D31*
%TO.C,D1*%
X51281000Y-31623000D03*
X54256000Y-31623000D03*
%TD*%
D32*
%TO.C,R8*%
X54255000Y-35750500D03*
X51155000Y-35750500D03*
%TD*%
D16*
%TO.C,J1*%
X44069000Y-50736500D03*
D17*
X49149000Y-50736500D03*
X54229000Y-50736500D03*
%TD*%
D16*
%TO.C,J2*%
X59309000Y-50736500D03*
D17*
X64389000Y-50736500D03*
X69469000Y-50736500D03*
%TD*%
D16*
%TO.C,J4*%
X74549000Y-50736500D03*
D17*
X79629000Y-50736500D03*
X84709000Y-50736500D03*
%TD*%
D16*
%TO.C,J6*%
X89789000Y-50736500D03*
D17*
X94869000Y-50736500D03*
X99949000Y-50736500D03*
%TD*%
D33*
%TO.C,R2*%
X73215500Y-27416000D03*
X73215500Y-25416000D03*
%TD*%
D34*
%TO.C,R5*%
X96583500Y-24590500D03*
X96583500Y-26590500D03*
%TD*%
D35*
%TO.C,SW2*%
X96579000Y-29400500D03*
X100779000Y-29400500D03*
%TD*%
D33*
%TO.C,R7*%
X96393000Y-35417000D03*
X96393000Y-33417000D03*
%TD*%
D36*
%TO.C,J7*%
X100711000Y-21844000D03*
D37*
X103251000Y-21844000D03*
X105791000Y-21844000D03*
X108331000Y-21844000D03*
X110871000Y-21844000D03*
X113411000Y-21844000D03*
%TD*%
D34*
%TO.C,R9*%
X117652800Y-27803600D03*
X117652800Y-29803600D03*
%TD*%
D38*
%TO.C,SW3*%
X117681200Y-32879600D03*
X113481200Y-32879600D03*
%TD*%
D39*
%TO.C,H1*%
X53797200Y-23723600D03*
%TD*%
%TO.C,H2*%
X23825200Y-52120800D03*
%TD*%
%TO.C,H3*%
X116230400Y-52120800D03*
%TD*%
D36*
%TO.C,JP1*%
X107340400Y-38862000D03*
D37*
X107340400Y-41402000D03*
%TD*%
D33*
%TO.C,R4*%
X110744000Y-38846000D03*
X110744000Y-36846000D03*
%TD*%
D40*
%TO.C,U1*%
X58787000Y-34646000D03*
X61087000Y-34646000D03*
D41*
X61087000Y-28346000D03*
D40*
X63387000Y-34646000D03*
%TD*%
D27*
%TO.C,C2*%
X61153000Y-25908000D03*
X63053000Y-25908000D03*
%TD*%
D42*
%TO.C,C6*%
X68580000Y-34212000D03*
X68580000Y-37162000D03*
%TD*%
D26*
%TO.C,C5*%
X70993000Y-34737000D03*
X70993000Y-36637000D03*
%TD*%
D43*
X73279000Y-30734000D03*
X82931000Y-38608000D03*
X86487000Y-34925000D03*
X86868000Y-25400000D03*
X81407000Y-38608000D03*
X83566000Y-44069000D03*
X80264000Y-43154000D03*
X84582000Y-43535000D03*
X80899000Y-29337000D03*
X70358000Y-38481000D03*
X78740000Y-34544000D03*
X68834000Y-38735000D03*
X67437000Y-43180000D03*
X70612000Y-43815000D03*
X71882000Y-43561000D03*
X102044500Y-29400500D03*
D44*
X32681333Y-21717000D03*
D43*
X113538000Y-30530800D03*
D44*
X34036000Y-23050500D03*
X33993666Y-21717000D03*
D43*
X64262000Y-23749000D03*
X64262000Y-25908000D03*
D44*
X35306000Y-21717000D03*
D43*
X89281000Y-34988500D03*
X58420000Y-36449000D03*
X98374200Y-38798500D03*
X66802000Y-37211000D03*
X49593500Y-31623000D03*
D44*
X71564500Y-21209000D03*
D43*
X98044000Y-35433000D03*
D44*
X35369500Y-23050500D03*
X32702500Y-23114000D03*
X31369000Y-21717000D03*
D43*
X58801000Y-37592000D03*
D44*
X31369000Y-23114000D03*
D43*
X78613000Y-21590000D03*
X94932500Y-24257000D03*
X63500000Y-37719000D03*
X63881000Y-36449000D03*
X107086400Y-30988000D03*
X104978200Y-38798500D03*
X98171000Y-26543000D03*
X73723500Y-31813500D03*
X51181000Y-33718500D03*
X115366800Y-29870400D03*
X93827600Y-27381200D03*
M02*
