M48
; DRILL file {KiCad (6.0.8)} date Wed Oct  5 23:25:23 2022
; FORMAT={-:-/ absolute / inch / decimal}
; #@! TF.CreationDate,2022-10-05T23:25:23+02:00
; #@! TF.GenerationSoftware,Kicad,Pcbnew,(6.0.8)
; #@! TF.FileFunction,Plated,1,4,PTH
FMAT,2
INCH
; #@! TA.AperFunction,Plated,PTH,ViaDrill
T1C0.0157
; #@! TA.AperFunction,Plated,PTH,ViaDrill
T2C0.0236
; #@! TA.AperFunction,Plated,PTH,ComponentDrill
T3C0.0315
; #@! TA.AperFunction,Plated,PTH,ComponentDrill
T4C0.0394
; #@! TA.AperFunction,Plated,PTH,ComponentDrill
T5C0.0512
%
G90
G05
T1
X1.9525Y-1.245
X2.015Y-1.3275
X2.3Y-1.435
X2.315Y-1.48
X2.5Y-1.485
X2.515Y-1.435
X2.53Y-0.935
X2.53Y-1.02
X2.63Y-1.465
X2.655Y-1.7
X2.71Y-1.525
X2.77Y-1.515
X2.78Y-1.725
X2.83Y-1.715
X2.885Y-1.21
X2.9025Y-1.2525
X3.095Y-0.85
X3.1Y-1.36
X3.16Y-1.699
X3.185Y-1.155
X3.205Y-1.52
X3.265Y-1.52
X3.29Y-1.735
X3.33Y-1.714
X3.405Y-1.375
X3.42Y-1.0
X3.515Y-1.3775
X3.694Y-1.078
X3.7375Y-0.955
X3.86Y-1.395
X3.865Y-1.045
X3.873Y-1.5275
X4.0175Y-1.1575
X4.133Y-1.5275
X4.216Y-1.22
X4.47Y-1.202
X4.542Y-1.176
T2
X1.235Y-0.855
X1.235Y-0.91
X1.2867Y-0.855
X1.2875Y-0.91
X1.3383Y-0.855
X1.34Y-0.9075
X1.39Y-0.855
X1.3925Y-0.9075
X2.8175Y-0.835
T3
X1.0675Y-0.9691
X1.0675Y-1.0675
X1.7225Y-0.965
X1.8603Y-0.965
T4
X3.965Y-0.86
X4.065Y-0.86
X4.165Y-0.86
X4.226Y-1.53
X4.226Y-1.63
X4.265Y-0.86
X4.365Y-0.86
X4.465Y-0.86
X4.5545Y-1.6321
X4.5545Y-1.7305
T5
X0.9925Y-1.2975
X0.9925Y-1.4944
X1.735Y-1.9975
X1.935Y-1.9975
X2.135Y-1.9975
X2.335Y-1.9975
X2.535Y-1.9975
X2.735Y-1.9975
X2.935Y-1.9975
X3.135Y-1.9975
X3.335Y-1.9975
X3.535Y-1.9975
X3.735Y-1.9975
X3.935Y-1.9975
T0
M30
