M48
; DRILL file {KiCad (6.0.11)} date Sun 12 Feb 2023 08:14:36 PM CET
; FORMAT={-:-/ absolute / inch / decimal}
; #@! TF.CreationDate,2023-02-12T20:14:36+01:00
; #@! TF.GenerationSoftware,Kicad,Pcbnew,(6.0.11)
; #@! TF.FileFunction,Plated,1,2,PTH
FMAT,2
INCH
; #@! TA.AperFunction,Plated,PTH,ViaDrill
T1C0.0157
; #@! TA.AperFunction,Plated,PTH,ViaDrill
T2C0.0236
; #@! TA.AperFunction,Plated,PTH,ComponentDrill
T3C0.0236
; #@! TA.AperFunction,Plated,PTH,ComponentDrill
T4C0.0315
; #@! TA.AperFunction,Plated,PTH,ComponentDrill
T5C0.0394
; #@! TA.AperFunction,Plated,PTH,ComponentDrill
T6C0.0433
; #@! TA.AperFunction,Plated,PTH,ComponentDrill
T7C0.0512
%
G90
G05
T1
X2.064Y-1.778
X2.12Y-1.638
X2.6063Y-1.5079
X2.6175Y-2.39
X2.65Y-2.2425
X2.79Y-1.96
X2.868Y-1.728
X2.8866Y-1.8969
X2.9173Y-1.698
X2.9807Y-1.6972
X3.134Y-1.638
X3.2Y-1.78
X3.2575Y-2.1175
X3.515Y-2.26
X3.5164Y-2.3114
X3.57Y-1.77
X3.935Y-1.925
X3.99Y-1.865
X4.0555Y-2.1642
T2
X1.5Y-1.1
X1.6Y-1.1
X1.6Y-1.2
X1.7Y-1.1
X1.7Y-1.2
X1.8Y-1.1
X1.8Y-1.2
X1.9Y-1.1
X1.9Y-1.2
X2.0Y-1.1
X2.0Y-1.2
X2.1Y-1.1
X2.1Y-1.2
X2.2Y-1.1
X2.2Y-1.2
X2.3Y-1.1
X2.3Y-1.2
X2.4Y-1.1
X2.4Y-1.2
X2.5Y-1.1
X2.5Y-1.2
X2.6Y-1.1
X2.6Y-1.2
X2.7Y-1.1
X2.7Y-1.2
X2.8Y-1.1
X2.8Y-1.2
X2.9Y-1.1
X2.9Y-1.2
X3.0Y-1.1
X3.0Y-1.2
X3.1Y-1.1
X3.1Y-1.2
X3.2Y-1.1
X3.2Y-1.2
X3.3Y-1.1
X3.3Y-1.2
X3.4Y-1.1
X3.4Y-1.2
X3.5Y-1.1
X3.5Y-1.2
X3.6Y-1.1
X3.6Y-1.2
X3.7Y-1.1
X3.7Y-1.2
X3.8Y-1.1
X3.8Y-1.2
X3.9Y-1.1
X3.9Y-1.2
X4.0Y-1.1
X4.0Y-1.2
X4.1Y-1.1
X4.1Y-1.2
T3
X2.75Y-2.0827
X2.75Y-2.1417
X3.19Y-1.502
X3.2491Y-1.502
T4
X1.122Y-1.924
X1.122Y-2.0618
X1.3775Y-1.2325
X1.4759Y-1.2325
X2.6929Y-1.33
X2.885Y-1.33
X3.51Y-1.505
X3.51Y-1.5837
T5
X0.9481Y-2.2835
X0.9481Y-2.3819
X1.598Y-2.2436
X1.598Y-2.3436
X1.698Y-2.2436
X1.698Y-2.3436
X1.798Y-2.2436
X1.798Y-2.3436
X2.0026Y-1.5327
X2.0026Y-1.6327
X3.465Y-1.965
X3.465Y-2.065
X3.615Y-1.965
X3.615Y-2.065
X3.6181Y-2.4272
X3.7181Y-2.4272
X4.5673Y-2.2854
X4.5673Y-2.3839
T6
X3.83Y-1.48
X3.93Y-1.48
X4.03Y-1.48
T7
X0.9953Y-0.952
X0.9953Y-1.1488
X4.5197Y-0.9579
X4.5197Y-1.1547
X4.52Y-1.5281
X4.52Y-1.725
T0
M30
