%TF.GenerationSoftware,KiCad,Pcbnew,(6.0.11)*%
%TF.CreationDate,2023-02-12T20:14:36+01:00*%
%TF.ProjectId,DMX_PWM_LED_Driver,444d585f-5057-44d5-9f4c-45445f447269,rev?*%
%TF.SameCoordinates,Original*%
%TF.FileFunction,Legend,Top*%
%TF.FilePolarity,Positive*%
%FSLAX46Y46*%
G04 Gerber Fmt 4.6, Leading zero omitted, Abs format (unit mm)*
G04 Created by KiCad (PCBNEW (6.0.11)) date 2023-02-12 20:14:36*
%MOMM*%
%LPD*%
G01*
G04 APERTURE LIST*
G04 Aperture macros list*
%AMRoundRect*
0 Rectangle with rounded corners*
0 $1 Rounding radius*
0 $2 $3 $4 $5 $6 $7 $8 $9 X,Y pos of 4 corners*
0 Add a 4 corners polygon primitive as box body*
4,1,4,$2,$3,$4,$5,$6,$7,$8,$9,$2,$3,0*
0 Add four circle primitives for the rounded corners*
1,1,$1+$1,$2,$3*
1,1,$1+$1,$4,$5*
1,1,$1+$1,$6,$7*
1,1,$1+$1,$8,$9*
0 Add four rect primitives between the rounded corners*
20,1,$1+$1,$2,$3,$4,$5,0*
20,1,$1+$1,$4,$5,$6,$7,0*
20,1,$1+$1,$6,$7,$8,$9,0*
20,1,$1+$1,$8,$9,$2,$3,0*%
G04 Aperture macros list end*
%ADD10C,0.150000*%
%ADD11C,0.120000*%
%ADD12RoundRect,0.249999X0.450001X-0.350001X0.450001X0.350001X-0.450001X0.350001X-0.450001X-0.350001X0*%
%ADD13RoundRect,0.200000X-0.800000X0.200000X-0.800000X-0.200000X0.800000X-0.200000X0.800000X0.200000X0*%
%ADD14R,0.550000X1.600000*%
%ADD15R,1.600000X0.550000*%
%ADD16RoundRect,0.150000X-0.825000X-0.150000X0.825000X-0.150000X0.825000X0.150000X-0.825000X0.150000X0*%
%ADD17R,1.700000X1.700000*%
%ADD18O,1.700000X1.700000*%
%ADD19RoundRect,0.250000X-0.750000X0.600000X-0.750000X-0.600000X0.750000X-0.600000X0.750000X0.600000X0*%
%ADD20O,2.000000X1.700000*%
%ADD21R,2.600000X2.600000*%
%ADD22C,2.600000*%
%ADD23RoundRect,0.250000X0.750000X-0.600000X0.750000X0.600000X-0.750000X0.600000X-0.750000X-0.600000X0*%
%ADD24RoundRect,0.249999X0.350001X0.450001X-0.350001X0.450001X-0.350001X-0.450001X0.350001X-0.450001X0*%
%ADD25RoundRect,0.249999X-0.350001X-0.450001X0.350001X-0.450001X0.350001X0.450001X-0.350001X0.450001X0*%
%ADD26R,1.200000X1.200000*%
%ADD27C,1.200000*%
%ADD28RoundRect,0.250000X-0.600000X0.600000X-0.600000X-0.600000X0.600000X-0.600000X0.600000X0.600000X0*%
%ADD29C,1.700000*%
%ADD30RoundRect,0.250000X0.337500X0.475000X-0.337500X0.475000X-0.337500X-0.475000X0.337500X-0.475000X0*%
%ADD31RoundRect,0.250000X-0.625000X0.400000X-0.625000X-0.400000X0.625000X-0.400000X0.625000X0.400000X0*%
%ADD32R,2.440000X1.120000*%
%ADD33RoundRect,0.250000X-0.462500X-0.625000X0.462500X-0.625000X0.462500X0.625000X-0.462500X0.625000X0*%
%ADD34RoundRect,0.250000X-0.400000X-0.625000X0.400000X-0.625000X0.400000X0.625000X-0.400000X0.625000X0*%
%ADD35RoundRect,0.250000X-0.475000X0.337500X-0.475000X-0.337500X0.475000X-0.337500X0.475000X0.337500X0*%
%ADD36R,1.200000X0.900000*%
%ADD37R,2.400000X1.500000*%
%ADD38RoundRect,0.150000X0.150000X-0.825000X0.150000X0.825000X-0.150000X0.825000X-0.150000X-0.825000X0*%
%ADD39R,1.600000X1.600000*%
%ADD40C,1.600000*%
%ADD41C,1.500000*%
%ADD42RoundRect,0.250000X-0.337500X-0.475000X0.337500X-0.475000X0.337500X0.475000X-0.337500X0.475000X0*%
%ADD43RoundRect,0.250000X0.625000X-0.462500X0.625000X0.462500X-0.625000X0.462500X-0.625000X-0.462500X0*%
%ADD44RoundRect,0.225000X-0.250000X0.225000X-0.250000X-0.225000X0.250000X-0.225000X0.250000X0.225000X0*%
%ADD45RoundRect,0.250000X0.450000X-0.262500X0.450000X0.262500X-0.450000X0.262500X-0.450000X-0.262500X0*%
%ADD46R,1.500000X1.000000*%
%ADD47R,1.905000X2.000000*%
%ADD48O,1.905000X2.000000*%
%ADD49RoundRect,0.150000X-0.512500X-0.150000X0.512500X-0.150000X0.512500X0.150000X-0.512500X0.150000X0*%
%ADD50RoundRect,0.250000X0.250000X0.475000X-0.250000X0.475000X-0.250000X-0.475000X0.250000X-0.475000X0*%
%ADD51C,1.000000*%
%ADD52C,0.800000*%
G04 APERTURE END LIST*
D10*
X80899000Y-56769000D02*
G75*
G03*
X80899000Y-56769000I-127000J0D01*
G01*
X30861000Y-44831000D02*
G75*
G03*
X30861000Y-44831000I-127000J0D01*
G01*
X80391000Y-40640000D02*
G75*
G03*
X80391000Y-40640000I-127000J0D01*
G01*
X90903333Y-57482380D02*
X90331904Y-57482380D01*
X90617619Y-57482380D02*
X90617619Y-56482380D01*
X90522380Y-56625238D01*
X90427142Y-56720476D01*
X90331904Y-56768095D01*
X91284285Y-56577619D02*
X91331904Y-56530000D01*
X91427142Y-56482380D01*
X91665238Y-56482380D01*
X91760476Y-56530000D01*
X91808095Y-56577619D01*
X91855714Y-56672857D01*
X91855714Y-56768095D01*
X91808095Y-56910952D01*
X91236666Y-57482380D01*
X91855714Y-57482380D01*
X92474761Y-56482380D02*
X92570000Y-56482380D01*
X92665238Y-56530000D01*
X92712857Y-56577619D01*
X92760476Y-56672857D01*
X92808095Y-56863333D01*
X92808095Y-57101428D01*
X92760476Y-57291904D01*
X92712857Y-57387142D01*
X92665238Y-57434761D01*
X92570000Y-57482380D01*
X92474761Y-57482380D01*
X92379523Y-57434761D01*
X92331904Y-57387142D01*
X92284285Y-57291904D01*
X92236666Y-57101428D01*
X92236666Y-56863333D01*
X92284285Y-56672857D01*
X92331904Y-56577619D01*
X92379523Y-56530000D01*
X92474761Y-56482380D01*
X93808095Y-57482380D02*
X93474761Y-57006190D01*
X93236666Y-57482380D02*
X93236666Y-56482380D01*
X93617619Y-56482380D01*
X93712857Y-56530000D01*
X93760476Y-56577619D01*
X93808095Y-56672857D01*
X93808095Y-56815714D01*
X93760476Y-56910952D01*
X93712857Y-56958571D01*
X93617619Y-57006190D01*
X93236666Y-57006190D01*
X48085571Y-53093880D02*
X48085571Y-52093880D01*
X48418904Y-52808166D01*
X48752238Y-52093880D01*
X48752238Y-53093880D01*
X49228428Y-53093880D02*
X49228428Y-52093880D01*
X49657000Y-53046261D02*
X49799857Y-53093880D01*
X50037952Y-53093880D01*
X50133190Y-53046261D01*
X50180809Y-52998642D01*
X50228428Y-52903404D01*
X50228428Y-52808166D01*
X50180809Y-52712928D01*
X50133190Y-52665309D01*
X50037952Y-52617690D01*
X49847476Y-52570071D01*
X49752238Y-52522452D01*
X49704619Y-52474833D01*
X49657000Y-52379595D01*
X49657000Y-52284357D01*
X49704619Y-52189119D01*
X49752238Y-52141500D01*
X49847476Y-52093880D01*
X50085571Y-52093880D01*
X50228428Y-52141500D01*
X50847476Y-52093880D02*
X51037952Y-52093880D01*
X51133190Y-52141500D01*
X51228428Y-52236738D01*
X51276047Y-52427214D01*
X51276047Y-52760547D01*
X51228428Y-52951023D01*
X51133190Y-53046261D01*
X51037952Y-53093880D01*
X50847476Y-53093880D01*
X50752238Y-53046261D01*
X50657000Y-52951023D01*
X50609380Y-52760547D01*
X50609380Y-52427214D01*
X50657000Y-52236738D01*
X50752238Y-52141500D01*
X50847476Y-52093880D01*
X41894285Y-53046261D02*
X42037142Y-53093880D01*
X42275238Y-53093880D01*
X42370476Y-53046261D01*
X42418095Y-52998642D01*
X42465714Y-52903404D01*
X42465714Y-52808166D01*
X42418095Y-52712928D01*
X42370476Y-52665309D01*
X42275238Y-52617690D01*
X42084761Y-52570071D01*
X41989523Y-52522452D01*
X41941904Y-52474833D01*
X41894285Y-52379595D01*
X41894285Y-52284357D01*
X41941904Y-52189119D01*
X41989523Y-52141500D01*
X42084761Y-52093880D01*
X42322857Y-52093880D01*
X42465714Y-52141500D01*
X43465714Y-52998642D02*
X43418095Y-53046261D01*
X43275238Y-53093880D01*
X43180000Y-53093880D01*
X43037142Y-53046261D01*
X42941904Y-52951023D01*
X42894285Y-52855785D01*
X42846666Y-52665309D01*
X42846666Y-52522452D01*
X42894285Y-52331976D01*
X42941904Y-52236738D01*
X43037142Y-52141500D01*
X43180000Y-52093880D01*
X43275238Y-52093880D01*
X43418095Y-52141500D01*
X43465714Y-52189119D01*
X43894285Y-53093880D02*
X43894285Y-52093880D01*
X44465714Y-53093880D02*
X44037142Y-52522452D01*
X44465714Y-52093880D02*
X43894285Y-52665309D01*
X35774380Y-53093880D02*
X35441047Y-52617690D01*
X35202952Y-53093880D02*
X35202952Y-52093880D01*
X35583904Y-52093880D01*
X35679142Y-52141500D01*
X35726761Y-52189119D01*
X35774380Y-52284357D01*
X35774380Y-52427214D01*
X35726761Y-52522452D01*
X35679142Y-52570071D01*
X35583904Y-52617690D01*
X35202952Y-52617690D01*
X36155333Y-53046261D02*
X36298190Y-53093880D01*
X36536285Y-53093880D01*
X36631523Y-53046261D01*
X36679142Y-52998642D01*
X36726761Y-52903404D01*
X36726761Y-52808166D01*
X36679142Y-52712928D01*
X36631523Y-52665309D01*
X36536285Y-52617690D01*
X36345809Y-52570071D01*
X36250571Y-52522452D01*
X36202952Y-52474833D01*
X36155333Y-52379595D01*
X36155333Y-52284357D01*
X36202952Y-52189119D01*
X36250571Y-52141500D01*
X36345809Y-52093880D01*
X36583904Y-52093880D01*
X36726761Y-52141500D01*
X37012476Y-52093880D02*
X37583904Y-52093880D01*
X37298190Y-53093880D02*
X37298190Y-52093880D01*
X35560095Y-63508000D02*
X35464857Y-63460380D01*
X35322000Y-63460380D01*
X35179142Y-63508000D01*
X35083904Y-63603238D01*
X35036285Y-63698476D01*
X34988666Y-63888952D01*
X34988666Y-64031809D01*
X35036285Y-64222285D01*
X35083904Y-64317523D01*
X35179142Y-64412761D01*
X35322000Y-64460380D01*
X35417238Y-64460380D01*
X35560095Y-64412761D01*
X35607714Y-64365142D01*
X35607714Y-64031809D01*
X35417238Y-64031809D01*
X36036285Y-64460380D02*
X36036285Y-63460380D01*
X36607714Y-64460380D01*
X36607714Y-63460380D01*
X37083904Y-64460380D02*
X37083904Y-63460380D01*
X37322000Y-63460380D01*
X37464857Y-63508000D01*
X37560095Y-63603238D01*
X37607714Y-63698476D01*
X37655333Y-63888952D01*
X37655333Y-64031809D01*
X37607714Y-64222285D01*
X37560095Y-64317523D01*
X37464857Y-64412761D01*
X37322000Y-64460380D01*
X37083904Y-64460380D01*
X41608571Y-64396880D02*
X41608571Y-63396880D01*
X41941904Y-64111166D01*
X42275238Y-63396880D01*
X42275238Y-64396880D01*
X42941904Y-63396880D02*
X43132380Y-63396880D01*
X43227619Y-63444500D01*
X43322857Y-63539738D01*
X43370476Y-63730214D01*
X43370476Y-64063547D01*
X43322857Y-64254023D01*
X43227619Y-64349261D01*
X43132380Y-64396880D01*
X42941904Y-64396880D01*
X42846666Y-64349261D01*
X42751428Y-64254023D01*
X42703809Y-64063547D01*
X42703809Y-63730214D01*
X42751428Y-63539738D01*
X42846666Y-63444500D01*
X42941904Y-63396880D01*
X43751428Y-64349261D02*
X43894285Y-64396880D01*
X44132380Y-64396880D01*
X44227619Y-64349261D01*
X44275238Y-64301642D01*
X44322857Y-64206404D01*
X44322857Y-64111166D01*
X44275238Y-64015928D01*
X44227619Y-63968309D01*
X44132380Y-63920690D01*
X43941904Y-63873071D01*
X43846666Y-63825452D01*
X43799047Y-63777833D01*
X43751428Y-63682595D01*
X43751428Y-63587357D01*
X43799047Y-63492119D01*
X43846666Y-63444500D01*
X43941904Y-63396880D01*
X44180000Y-63396880D01*
X44322857Y-63444500D01*
X44751428Y-64396880D02*
X44751428Y-63396880D01*
X48498285Y-64079428D02*
X49260190Y-64079428D01*
X48879238Y-64460380D02*
X48879238Y-63698476D01*
X50212571Y-63460380D02*
X49736380Y-63460380D01*
X49688761Y-63936571D01*
X49736380Y-63888952D01*
X49831619Y-63841333D01*
X50069714Y-63841333D01*
X50164952Y-63888952D01*
X50212571Y-63936571D01*
X50260190Y-64031809D01*
X50260190Y-64269904D01*
X50212571Y-64365142D01*
X50164952Y-64412761D01*
X50069714Y-64460380D01*
X49831619Y-64460380D01*
X49736380Y-64412761D01*
X49688761Y-64365142D01*
X50545904Y-63460380D02*
X50879238Y-64460380D01*
X51212571Y-63460380D01*
X41299523Y-22797380D02*
X41299523Y-21797380D01*
X41680476Y-21797380D01*
X41775714Y-21845000D01*
X41823333Y-21892619D01*
X41870952Y-21987857D01*
X41870952Y-22130714D01*
X41823333Y-22225952D01*
X41775714Y-22273571D01*
X41680476Y-22321190D01*
X41299523Y-22321190D01*
X42204285Y-21797380D02*
X42442380Y-22797380D01*
X42632857Y-22083095D01*
X42823333Y-22797380D01*
X43061428Y-21797380D01*
X43442380Y-22797380D02*
X43442380Y-21797380D01*
X43775714Y-22511666D01*
X44109047Y-21797380D01*
X44109047Y-22797380D01*
X45823333Y-22797380D02*
X45347142Y-22797380D01*
X45347142Y-21797380D01*
X46156666Y-22273571D02*
X46490000Y-22273571D01*
X46632857Y-22797380D02*
X46156666Y-22797380D01*
X46156666Y-21797380D01*
X46632857Y-21797380D01*
X47061428Y-22797380D02*
X47061428Y-21797380D01*
X47299523Y-21797380D01*
X47442380Y-21845000D01*
X47537619Y-21940238D01*
X47585238Y-22035476D01*
X47632857Y-22225952D01*
X47632857Y-22368809D01*
X47585238Y-22559285D01*
X47537619Y-22654523D01*
X47442380Y-22749761D01*
X47299523Y-22797380D01*
X47061428Y-22797380D01*
X48823333Y-22797380D02*
X48823333Y-21797380D01*
X49061428Y-21797380D01*
X49204285Y-21845000D01*
X49299523Y-21940238D01*
X49347142Y-22035476D01*
X49394761Y-22225952D01*
X49394761Y-22368809D01*
X49347142Y-22559285D01*
X49299523Y-22654523D01*
X49204285Y-22749761D01*
X49061428Y-22797380D01*
X48823333Y-22797380D01*
X49823333Y-22797380D02*
X49823333Y-22130714D01*
X49823333Y-22321190D02*
X49870952Y-22225952D01*
X49918571Y-22178333D01*
X50013809Y-22130714D01*
X50109047Y-22130714D01*
X50442380Y-22797380D02*
X50442380Y-22130714D01*
X50442380Y-21797380D02*
X50394761Y-21845000D01*
X50442380Y-21892619D01*
X50490000Y-21845000D01*
X50442380Y-21797380D01*
X50442380Y-21892619D01*
X50823333Y-22130714D02*
X51061428Y-22797380D01*
X51299523Y-22130714D01*
X52061428Y-22749761D02*
X51966190Y-22797380D01*
X51775714Y-22797380D01*
X51680476Y-22749761D01*
X51632857Y-22654523D01*
X51632857Y-22273571D01*
X51680476Y-22178333D01*
X51775714Y-22130714D01*
X51966190Y-22130714D01*
X52061428Y-22178333D01*
X52109047Y-22273571D01*
X52109047Y-22368809D01*
X51632857Y-22464047D01*
X52537619Y-22797380D02*
X52537619Y-22130714D01*
X52537619Y-22321190D02*
X52585238Y-22225952D01*
X52632857Y-22178333D01*
X52728095Y-22130714D01*
X52823333Y-22130714D01*
X42156666Y-24407380D02*
X42156666Y-23407380D01*
X42394761Y-23407380D01*
X42537619Y-23455000D01*
X42632857Y-23550238D01*
X42680476Y-23645476D01*
X42728095Y-23835952D01*
X42728095Y-23978809D01*
X42680476Y-24169285D01*
X42632857Y-24264523D01*
X42537619Y-24359761D01*
X42394761Y-24407380D01*
X42156666Y-24407380D01*
X43156666Y-24407380D02*
X43156666Y-23407380D01*
X43490000Y-24121666D01*
X43823333Y-23407380D01*
X43823333Y-24407380D01*
X44204285Y-23407380D02*
X44870952Y-24407380D01*
X44870952Y-23407380D02*
X44204285Y-24407380D01*
X46585238Y-24407380D02*
X46251904Y-23931190D01*
X46013809Y-24407380D02*
X46013809Y-23407380D01*
X46394761Y-23407380D01*
X46490000Y-23455000D01*
X46537619Y-23502619D01*
X46585238Y-23597857D01*
X46585238Y-23740714D01*
X46537619Y-23835952D01*
X46490000Y-23883571D01*
X46394761Y-23931190D01*
X46013809Y-23931190D01*
X47394761Y-24359761D02*
X47299523Y-24407380D01*
X47109047Y-24407380D01*
X47013809Y-24359761D01*
X46966190Y-24264523D01*
X46966190Y-23883571D01*
X47013809Y-23788333D01*
X47109047Y-23740714D01*
X47299523Y-23740714D01*
X47394761Y-23788333D01*
X47442380Y-23883571D01*
X47442380Y-23978809D01*
X46966190Y-24074047D01*
X48299523Y-24359761D02*
X48204285Y-24407380D01*
X48013809Y-24407380D01*
X47918571Y-24359761D01*
X47870952Y-24312142D01*
X47823333Y-24216904D01*
X47823333Y-23931190D01*
X47870952Y-23835952D01*
X47918571Y-23788333D01*
X48013809Y-23740714D01*
X48204285Y-23740714D01*
X48299523Y-23788333D01*
X49109047Y-24359761D02*
X49013809Y-24407380D01*
X48823333Y-24407380D01*
X48728095Y-24359761D01*
X48680476Y-24264523D01*
X48680476Y-23883571D01*
X48728095Y-23788333D01*
X48823333Y-23740714D01*
X49013809Y-23740714D01*
X49109047Y-23788333D01*
X49156666Y-23883571D01*
X49156666Y-23978809D01*
X48680476Y-24074047D01*
X49585238Y-24407380D02*
X49585238Y-23740714D01*
X49585238Y-23407380D02*
X49537619Y-23455000D01*
X49585238Y-23502619D01*
X49632857Y-23455000D01*
X49585238Y-23407380D01*
X49585238Y-23502619D01*
X49966190Y-23740714D02*
X50204285Y-24407380D01*
X50442380Y-23740714D01*
X51204285Y-24359761D02*
X51109047Y-24407380D01*
X50918571Y-24407380D01*
X50823333Y-24359761D01*
X50775714Y-24264523D01*
X50775714Y-23883571D01*
X50823333Y-23788333D01*
X50918571Y-23740714D01*
X51109047Y-23740714D01*
X51204285Y-23788333D01*
X51251904Y-23883571D01*
X51251904Y-23978809D01*
X50775714Y-24074047D01*
X51680476Y-24407380D02*
X51680476Y-23740714D01*
X51680476Y-23931190D02*
X51728095Y-23835952D01*
X51775714Y-23788333D01*
X51870952Y-23740714D01*
X51966190Y-23740714D01*
X62619809Y-22761380D02*
X62619809Y-21761380D01*
X63000761Y-21761380D01*
X63096000Y-21809000D01*
X63143619Y-21856619D01*
X63191238Y-21951857D01*
X63191238Y-22094714D01*
X63143619Y-22189952D01*
X63096000Y-22237571D01*
X63000761Y-22285190D01*
X62619809Y-22285190D01*
X63762666Y-22761380D02*
X63667428Y-22713761D01*
X63619809Y-22666142D01*
X63572190Y-22570904D01*
X63572190Y-22285190D01*
X63619809Y-22189952D01*
X63667428Y-22142333D01*
X63762666Y-22094714D01*
X63905523Y-22094714D01*
X64000761Y-22142333D01*
X64048380Y-22189952D01*
X64096000Y-22285190D01*
X64096000Y-22570904D01*
X64048380Y-22666142D01*
X64000761Y-22713761D01*
X63905523Y-22761380D01*
X63762666Y-22761380D01*
X64429333Y-22094714D02*
X64619809Y-22761380D01*
X64810285Y-22285190D01*
X65000761Y-22761380D01*
X65191238Y-22094714D01*
X65953142Y-22713761D02*
X65857904Y-22761380D01*
X65667428Y-22761380D01*
X65572190Y-22713761D01*
X65524571Y-22618523D01*
X65524571Y-22237571D01*
X65572190Y-22142333D01*
X65667428Y-22094714D01*
X65857904Y-22094714D01*
X65953142Y-22142333D01*
X66000761Y-22237571D01*
X66000761Y-22332809D01*
X65524571Y-22428047D01*
X66429333Y-22761380D02*
X66429333Y-22094714D01*
X66429333Y-22285190D02*
X66476952Y-22189952D01*
X66524571Y-22142333D01*
X66619809Y-22094714D01*
X66715047Y-22094714D01*
X67810285Y-22761380D02*
X67810285Y-21761380D01*
X68191238Y-21761380D01*
X68286476Y-21809000D01*
X68334095Y-21856619D01*
X68381714Y-21951857D01*
X68381714Y-22094714D01*
X68334095Y-22189952D01*
X68286476Y-22237571D01*
X68191238Y-22285190D01*
X67810285Y-22285190D01*
X69238857Y-22761380D02*
X69238857Y-22237571D01*
X69191238Y-22142333D01*
X69096000Y-22094714D01*
X68905523Y-22094714D01*
X68810285Y-22142333D01*
X69238857Y-22713761D02*
X69143619Y-22761380D01*
X68905523Y-22761380D01*
X68810285Y-22713761D01*
X68762666Y-22618523D01*
X68762666Y-22523285D01*
X68810285Y-22428047D01*
X68905523Y-22380428D01*
X69143619Y-22380428D01*
X69238857Y-22332809D01*
X69667428Y-22713761D02*
X69762666Y-22761380D01*
X69953142Y-22761380D01*
X70048380Y-22713761D01*
X70096000Y-22618523D01*
X70096000Y-22570904D01*
X70048380Y-22475666D01*
X69953142Y-22428047D01*
X69810285Y-22428047D01*
X69715047Y-22380428D01*
X69667428Y-22285190D01*
X69667428Y-22237571D01*
X69715047Y-22142333D01*
X69810285Y-22094714D01*
X69953142Y-22094714D01*
X70048380Y-22142333D01*
X70476952Y-22713761D02*
X70572190Y-22761380D01*
X70762666Y-22761380D01*
X70857904Y-22713761D01*
X70905523Y-22618523D01*
X70905523Y-22570904D01*
X70857904Y-22475666D01*
X70762666Y-22428047D01*
X70619809Y-22428047D01*
X70524571Y-22380428D01*
X70476952Y-22285190D01*
X70476952Y-22237571D01*
X70524571Y-22142333D01*
X70619809Y-22094714D01*
X70762666Y-22094714D01*
X70857904Y-22142333D01*
X71191238Y-22094714D02*
X71572190Y-22094714D01*
X71334095Y-21761380D02*
X71334095Y-22618523D01*
X71381714Y-22713761D01*
X71476952Y-22761380D01*
X71572190Y-22761380D01*
X71905523Y-22761380D02*
X71905523Y-21761380D01*
X72334095Y-22761380D02*
X72334095Y-22237571D01*
X72286476Y-22142333D01*
X72191238Y-22094714D01*
X72048380Y-22094714D01*
X71953142Y-22142333D01*
X71905523Y-22189952D01*
X72810285Y-22761380D02*
X72810285Y-22094714D01*
X72810285Y-22285190D02*
X72857904Y-22189952D01*
X72905523Y-22142333D01*
X73000761Y-22094714D01*
X73096000Y-22094714D01*
X73572190Y-22761380D02*
X73476952Y-22713761D01*
X73429333Y-22666142D01*
X73381714Y-22570904D01*
X73381714Y-22285190D01*
X73429333Y-22189952D01*
X73476952Y-22142333D01*
X73572190Y-22094714D01*
X73715047Y-22094714D01*
X73810285Y-22142333D01*
X73857904Y-22189952D01*
X73905523Y-22285190D01*
X73905523Y-22570904D01*
X73857904Y-22666142D01*
X73810285Y-22713761D01*
X73715047Y-22761380D01*
X73572190Y-22761380D01*
X74762666Y-22094714D02*
X74762666Y-22761380D01*
X74334095Y-22094714D02*
X74334095Y-22618523D01*
X74381714Y-22713761D01*
X74476952Y-22761380D01*
X74619809Y-22761380D01*
X74715047Y-22713761D01*
X74762666Y-22666142D01*
X75667428Y-22094714D02*
X75667428Y-22904238D01*
X75619809Y-22999476D01*
X75572190Y-23047095D01*
X75476952Y-23094714D01*
X75334095Y-23094714D01*
X75238857Y-23047095D01*
X75667428Y-22713761D02*
X75572190Y-22761380D01*
X75381714Y-22761380D01*
X75286476Y-22713761D01*
X75238857Y-22666142D01*
X75191238Y-22570904D01*
X75191238Y-22285190D01*
X75238857Y-22189952D01*
X75286476Y-22142333D01*
X75381714Y-22094714D01*
X75572190Y-22094714D01*
X75667428Y-22142333D01*
X76143619Y-22761380D02*
X76143619Y-21761380D01*
X76572190Y-22761380D02*
X76572190Y-22237571D01*
X76524571Y-22142333D01*
X76429333Y-22094714D01*
X76286476Y-22094714D01*
X76191238Y-22142333D01*
X76143619Y-22189952D01*
X63643619Y-24371380D02*
X63643619Y-23371380D01*
X63976952Y-24085666D01*
X64310285Y-23371380D01*
X64310285Y-24371380D01*
X65215047Y-24371380D02*
X65215047Y-23847571D01*
X65167428Y-23752333D01*
X65072190Y-23704714D01*
X64881714Y-23704714D01*
X64786476Y-23752333D01*
X65215047Y-24323761D02*
X65119809Y-24371380D01*
X64881714Y-24371380D01*
X64786476Y-24323761D01*
X64738857Y-24228523D01*
X64738857Y-24133285D01*
X64786476Y-24038047D01*
X64881714Y-23990428D01*
X65119809Y-23990428D01*
X65215047Y-23942809D01*
X65596000Y-24371380D02*
X66119809Y-23704714D01*
X65596000Y-23704714D02*
X66119809Y-24371380D01*
X67405523Y-23799952D02*
X67310285Y-23752333D01*
X67262666Y-23704714D01*
X67215047Y-23609476D01*
X67215047Y-23561857D01*
X67262666Y-23466619D01*
X67310285Y-23419000D01*
X67405523Y-23371380D01*
X67596000Y-23371380D01*
X67691238Y-23419000D01*
X67738857Y-23466619D01*
X67786476Y-23561857D01*
X67786476Y-23609476D01*
X67738857Y-23704714D01*
X67691238Y-23752333D01*
X67596000Y-23799952D01*
X67405523Y-23799952D01*
X67310285Y-23847571D01*
X67262666Y-23895190D01*
X67215047Y-23990428D01*
X67215047Y-24180904D01*
X67262666Y-24276142D01*
X67310285Y-24323761D01*
X67405523Y-24371380D01*
X67596000Y-24371380D01*
X67691238Y-24323761D01*
X67738857Y-24276142D01*
X67786476Y-24180904D01*
X67786476Y-23990428D01*
X67738857Y-23895190D01*
X67691238Y-23847571D01*
X67596000Y-23799952D01*
X68167428Y-24085666D02*
X68643619Y-24085666D01*
X68072190Y-24371380D02*
X68405523Y-23371380D01*
X68738857Y-24371380D01*
X69834095Y-24371380D02*
X69834095Y-23704714D01*
X69834095Y-23371380D02*
X69786476Y-23419000D01*
X69834095Y-23466619D01*
X69881714Y-23419000D01*
X69834095Y-23371380D01*
X69834095Y-23466619D01*
X70310285Y-23704714D02*
X70310285Y-24371380D01*
X70310285Y-23799952D02*
X70357904Y-23752333D01*
X70453142Y-23704714D01*
X70596000Y-23704714D01*
X70691238Y-23752333D01*
X70738857Y-23847571D01*
X70738857Y-24371380D01*
X72405523Y-24323761D02*
X72310285Y-24371380D01*
X72119809Y-24371380D01*
X72024571Y-24323761D01*
X71976952Y-24276142D01*
X71929333Y-24180904D01*
X71929333Y-23895190D01*
X71976952Y-23799952D01*
X72024571Y-23752333D01*
X72119809Y-23704714D01*
X72310285Y-23704714D01*
X72405523Y-23752333D01*
X72834095Y-24371380D02*
X72834095Y-23371380D01*
X73262666Y-24371380D02*
X73262666Y-23847571D01*
X73215047Y-23752333D01*
X73119809Y-23704714D01*
X72976952Y-23704714D01*
X72881714Y-23752333D01*
X72834095Y-23799952D01*
X74167428Y-24371380D02*
X74167428Y-23847571D01*
X74119809Y-23752333D01*
X74024571Y-23704714D01*
X73834095Y-23704714D01*
X73738857Y-23752333D01*
X74167428Y-24323761D02*
X74072190Y-24371380D01*
X73834095Y-24371380D01*
X73738857Y-24323761D01*
X73691238Y-24228523D01*
X73691238Y-24133285D01*
X73738857Y-24038047D01*
X73834095Y-23990428D01*
X74072190Y-23990428D01*
X74167428Y-23942809D01*
X74643619Y-24371380D02*
X74643619Y-23704714D01*
X74643619Y-23371380D02*
X74596000Y-23419000D01*
X74643619Y-23466619D01*
X74691238Y-23419000D01*
X74643619Y-23371380D01*
X74643619Y-23466619D01*
X75119809Y-23704714D02*
X75119809Y-24371380D01*
X75119809Y-23799952D02*
X75167428Y-23752333D01*
X75262666Y-23704714D01*
X75405523Y-23704714D01*
X75500761Y-23752333D01*
X75548380Y-23847571D01*
X75548380Y-24371380D01*
X99954761Y-64202380D02*
X99621428Y-63726190D01*
X99383333Y-64202380D02*
X99383333Y-63202380D01*
X99764285Y-63202380D01*
X99859523Y-63250000D01*
X99907142Y-63297619D01*
X99954761Y-63392857D01*
X99954761Y-63535714D01*
X99907142Y-63630952D01*
X99859523Y-63678571D01*
X99764285Y-63726190D01*
X99383333Y-63726190D01*
X100335714Y-64154761D02*
X100478571Y-64202380D01*
X100716666Y-64202380D01*
X100811904Y-64154761D01*
X100859523Y-64107142D01*
X100907142Y-64011904D01*
X100907142Y-63916666D01*
X100859523Y-63821428D01*
X100811904Y-63773809D01*
X100716666Y-63726190D01*
X100526190Y-63678571D01*
X100430952Y-63630952D01*
X100383333Y-63583333D01*
X100335714Y-63488095D01*
X100335714Y-63392857D01*
X100383333Y-63297619D01*
X100430952Y-63250000D01*
X100526190Y-63202380D01*
X100764285Y-63202380D01*
X100907142Y-63250000D01*
X101764285Y-63535714D02*
X101764285Y-64202380D01*
X101526190Y-63154761D02*
X101288095Y-63869047D01*
X101907142Y-63869047D01*
X102430952Y-63630952D02*
X102335714Y-63583333D01*
X102288095Y-63535714D01*
X102240476Y-63440476D01*
X102240476Y-63392857D01*
X102288095Y-63297619D01*
X102335714Y-63250000D01*
X102430952Y-63202380D01*
X102621428Y-63202380D01*
X102716666Y-63250000D01*
X102764285Y-63297619D01*
X102811904Y-63392857D01*
X102811904Y-63440476D01*
X102764285Y-63535714D01*
X102716666Y-63583333D01*
X102621428Y-63630952D01*
X102430952Y-63630952D01*
X102335714Y-63678571D01*
X102288095Y-63726190D01*
X102240476Y-63821428D01*
X102240476Y-64011904D01*
X102288095Y-64107142D01*
X102335714Y-64154761D01*
X102430952Y-64202380D01*
X102621428Y-64202380D01*
X102716666Y-64154761D01*
X102764285Y-64107142D01*
X102811904Y-64011904D01*
X102811904Y-63821428D01*
X102764285Y-63726190D01*
X102716666Y-63678571D01*
X102621428Y-63630952D01*
X103716666Y-63202380D02*
X103240476Y-63202380D01*
X103192857Y-63678571D01*
X103240476Y-63630952D01*
X103335714Y-63583333D01*
X103573809Y-63583333D01*
X103669047Y-63630952D01*
X103716666Y-63678571D01*
X103764285Y-63773809D01*
X103764285Y-64011904D01*
X103716666Y-64107142D01*
X103669047Y-64154761D01*
X103573809Y-64202380D01*
X103335714Y-64202380D01*
X103240476Y-64154761D01*
X103192857Y-64107142D01*
X104954761Y-64202380D02*
X104954761Y-63202380D01*
X105335714Y-63202380D01*
X105430952Y-63250000D01*
X105478571Y-63297619D01*
X105526190Y-63392857D01*
X105526190Y-63535714D01*
X105478571Y-63630952D01*
X105430952Y-63678571D01*
X105335714Y-63726190D01*
X104954761Y-63726190D01*
X106383333Y-64202380D02*
X106383333Y-63678571D01*
X106335714Y-63583333D01*
X106240476Y-63535714D01*
X106050000Y-63535714D01*
X105954761Y-63583333D01*
X106383333Y-64154761D02*
X106288095Y-64202380D01*
X106050000Y-64202380D01*
X105954761Y-64154761D01*
X105907142Y-64059523D01*
X105907142Y-63964285D01*
X105954761Y-63869047D01*
X106050000Y-63821428D01*
X106288095Y-63821428D01*
X106383333Y-63773809D01*
X106811904Y-64154761D02*
X106907142Y-64202380D01*
X107097619Y-64202380D01*
X107192857Y-64154761D01*
X107240476Y-64059523D01*
X107240476Y-64011904D01*
X107192857Y-63916666D01*
X107097619Y-63869047D01*
X106954761Y-63869047D01*
X106859523Y-63821428D01*
X106811904Y-63726190D01*
X106811904Y-63678571D01*
X106859523Y-63583333D01*
X106954761Y-63535714D01*
X107097619Y-63535714D01*
X107192857Y-63583333D01*
X107621428Y-64154761D02*
X107716666Y-64202380D01*
X107907142Y-64202380D01*
X108002380Y-64154761D01*
X108050000Y-64059523D01*
X108050000Y-64011904D01*
X108002380Y-63916666D01*
X107907142Y-63869047D01*
X107764285Y-63869047D01*
X107669047Y-63821428D01*
X107621428Y-63726190D01*
X107621428Y-63678571D01*
X107669047Y-63583333D01*
X107764285Y-63535714D01*
X107907142Y-63535714D01*
X108002380Y-63583333D01*
X108335714Y-63535714D02*
X108716666Y-63535714D01*
X108478571Y-63202380D02*
X108478571Y-64059523D01*
X108526190Y-64154761D01*
X108621428Y-64202380D01*
X108716666Y-64202380D01*
X109050000Y-64202380D02*
X109050000Y-63202380D01*
X109478571Y-64202380D02*
X109478571Y-63678571D01*
X109430952Y-63583333D01*
X109335714Y-63535714D01*
X109192857Y-63535714D01*
X109097619Y-63583333D01*
X109050000Y-63630952D01*
X109954761Y-64202380D02*
X109954761Y-63535714D01*
X109954761Y-63726190D02*
X110002380Y-63630952D01*
X110050000Y-63583333D01*
X110145238Y-63535714D01*
X110240476Y-63535714D01*
X110716666Y-64202380D02*
X110621428Y-64154761D01*
X110573809Y-64107142D01*
X110526190Y-64011904D01*
X110526190Y-63726190D01*
X110573809Y-63630952D01*
X110621428Y-63583333D01*
X110716666Y-63535714D01*
X110859523Y-63535714D01*
X110954761Y-63583333D01*
X111002380Y-63630952D01*
X111050000Y-63726190D01*
X111050000Y-64011904D01*
X111002380Y-64107142D01*
X110954761Y-64154761D01*
X110859523Y-64202380D01*
X110716666Y-64202380D01*
X111907142Y-63535714D02*
X111907142Y-64202380D01*
X111478571Y-63535714D02*
X111478571Y-64059523D01*
X111526190Y-64154761D01*
X111621428Y-64202380D01*
X111764285Y-64202380D01*
X111859523Y-64154761D01*
X111907142Y-64107142D01*
X112811904Y-63535714D02*
X112811904Y-64345238D01*
X112764285Y-64440476D01*
X112716666Y-64488095D01*
X112621428Y-64535714D01*
X112478571Y-64535714D01*
X112383333Y-64488095D01*
X112811904Y-64154761D02*
X112716666Y-64202380D01*
X112526190Y-64202380D01*
X112430952Y-64154761D01*
X112383333Y-64107142D01*
X112335714Y-64011904D01*
X112335714Y-63726190D01*
X112383333Y-63630952D01*
X112430952Y-63583333D01*
X112526190Y-63535714D01*
X112716666Y-63535714D01*
X112811904Y-63583333D01*
X113288095Y-64202380D02*
X113288095Y-63202380D01*
X113716666Y-64202380D02*
X113716666Y-63678571D01*
X113669047Y-63583333D01*
X113573809Y-63535714D01*
X113430952Y-63535714D01*
X113335714Y-63583333D01*
X113288095Y-63630952D01*
X38011999Y-44257380D02*
X37678666Y-43781190D01*
X37440571Y-44257380D02*
X37440571Y-43257380D01*
X37821523Y-43257380D01*
X37916761Y-43305000D01*
X37964380Y-43352619D01*
X38011999Y-43447857D01*
X38011999Y-43590714D01*
X37964380Y-43685952D01*
X37916761Y-43733571D01*
X37821523Y-43781190D01*
X37440571Y-43781190D01*
X38392952Y-44209761D02*
X38535809Y-44257380D01*
X38773904Y-44257380D01*
X38869142Y-44209761D01*
X38916761Y-44162142D01*
X38964380Y-44066904D01*
X38964380Y-43971666D01*
X38916761Y-43876428D01*
X38869142Y-43828809D01*
X38773904Y-43781190D01*
X38583428Y-43733571D01*
X38488190Y-43685952D01*
X38440571Y-43638333D01*
X38392952Y-43543095D01*
X38392952Y-43447857D01*
X38440571Y-43352619D01*
X38488190Y-43305000D01*
X38583428Y-43257380D01*
X38821523Y-43257380D01*
X38964380Y-43305000D01*
X39821523Y-43590714D02*
X39821523Y-44257380D01*
X39583428Y-43209761D02*
X39345333Y-43924047D01*
X39964380Y-43924047D01*
X40488190Y-43685952D02*
X40392952Y-43638333D01*
X40345333Y-43590714D01*
X40297714Y-43495476D01*
X40297714Y-43447857D01*
X40345333Y-43352619D01*
X40392952Y-43305000D01*
X40488190Y-43257380D01*
X40678666Y-43257380D01*
X40773904Y-43305000D01*
X40821523Y-43352619D01*
X40869142Y-43447857D01*
X40869142Y-43495476D01*
X40821523Y-43590714D01*
X40773904Y-43638333D01*
X40678666Y-43685952D01*
X40488190Y-43685952D01*
X40392952Y-43733571D01*
X40345333Y-43781190D01*
X40297714Y-43876428D01*
X40297714Y-44066904D01*
X40345333Y-44162142D01*
X40392952Y-44209761D01*
X40488190Y-44257380D01*
X40678666Y-44257380D01*
X40773904Y-44209761D01*
X40821523Y-44162142D01*
X40869142Y-44066904D01*
X40869142Y-43876428D01*
X40821523Y-43781190D01*
X40773904Y-43733571D01*
X40678666Y-43685952D01*
X41773904Y-43257380D02*
X41297714Y-43257380D01*
X41250095Y-43733571D01*
X41297714Y-43685952D01*
X41392952Y-43638333D01*
X41631047Y-43638333D01*
X41726285Y-43685952D01*
X41773904Y-43733571D01*
X41821523Y-43828809D01*
X41821523Y-44066904D01*
X41773904Y-44162142D01*
X41726285Y-44209761D01*
X41631047Y-44257380D01*
X41392952Y-44257380D01*
X41297714Y-44209761D01*
X41250095Y-44162142D01*
X43583428Y-44162142D02*
X43535809Y-44209761D01*
X43392952Y-44257380D01*
X43297714Y-44257380D01*
X43154857Y-44209761D01*
X43059619Y-44114523D01*
X43011999Y-44019285D01*
X42964380Y-43828809D01*
X42964380Y-43685952D01*
X43011999Y-43495476D01*
X43059619Y-43400238D01*
X43154857Y-43305000D01*
X43297714Y-43257380D01*
X43392952Y-43257380D01*
X43535809Y-43305000D01*
X43583428Y-43352619D01*
X44154857Y-44257380D02*
X44059619Y-44209761D01*
X44011999Y-44162142D01*
X43964380Y-44066904D01*
X43964380Y-43781190D01*
X44011999Y-43685952D01*
X44059619Y-43638333D01*
X44154857Y-43590714D01*
X44297714Y-43590714D01*
X44392952Y-43638333D01*
X44440571Y-43685952D01*
X44488190Y-43781190D01*
X44488190Y-44066904D01*
X44440571Y-44162142D01*
X44392952Y-44209761D01*
X44297714Y-44257380D01*
X44154857Y-44257380D01*
X44916761Y-44257380D02*
X44916761Y-43590714D01*
X44916761Y-43685952D02*
X44964380Y-43638333D01*
X45059619Y-43590714D01*
X45202476Y-43590714D01*
X45297714Y-43638333D01*
X45345333Y-43733571D01*
X45345333Y-44257380D01*
X45345333Y-43733571D02*
X45392952Y-43638333D01*
X45488190Y-43590714D01*
X45631047Y-43590714D01*
X45726285Y-43638333D01*
X45773904Y-43733571D01*
X45773904Y-44257380D01*
X46250095Y-44257380D02*
X46250095Y-43590714D01*
X46250095Y-43685952D02*
X46297714Y-43638333D01*
X46392952Y-43590714D01*
X46535809Y-43590714D01*
X46631047Y-43638333D01*
X46678666Y-43733571D01*
X46678666Y-44257380D01*
X46678666Y-43733571D02*
X46726285Y-43638333D01*
X46821523Y-43590714D01*
X46964380Y-43590714D01*
X47059619Y-43638333D01*
X47107238Y-43733571D01*
X47107238Y-44257380D01*
X47583428Y-44162142D02*
X47631047Y-44209761D01*
X47583428Y-44257380D01*
X47535809Y-44209761D01*
X47583428Y-44162142D01*
X47583428Y-44257380D01*
X40916761Y-45343571D02*
X41250095Y-45343571D01*
X41392952Y-45867380D02*
X40916761Y-45867380D01*
X40916761Y-44867380D01*
X41392952Y-44867380D01*
X41821523Y-45867380D02*
X41821523Y-45200714D01*
X41821523Y-45391190D02*
X41869142Y-45295952D01*
X41916761Y-45248333D01*
X42012000Y-45200714D01*
X42107238Y-45200714D01*
X42440571Y-45867380D02*
X42440571Y-45200714D01*
X42440571Y-45391190D02*
X42488190Y-45295952D01*
X42535809Y-45248333D01*
X42631047Y-45200714D01*
X42726285Y-45200714D01*
X43202476Y-45867380D02*
X43107238Y-45819761D01*
X43059619Y-45772142D01*
X43012000Y-45676904D01*
X43012000Y-45391190D01*
X43059619Y-45295952D01*
X43107238Y-45248333D01*
X43202476Y-45200714D01*
X43345333Y-45200714D01*
X43440571Y-45248333D01*
X43488190Y-45295952D01*
X43535809Y-45391190D01*
X43535809Y-45676904D01*
X43488190Y-45772142D01*
X43440571Y-45819761D01*
X43345333Y-45867380D01*
X43202476Y-45867380D01*
X43964380Y-45867380D02*
X43964380Y-45200714D01*
X43964380Y-45391190D02*
X44012000Y-45295952D01*
X44059619Y-45248333D01*
X44154857Y-45200714D01*
X44250095Y-45200714D01*
X54531285Y-48955166D02*
X55007476Y-48955166D01*
X54436047Y-49240880D02*
X54769380Y-48240880D01*
X55102714Y-49240880D01*
X55864619Y-49240880D02*
X55864619Y-48240880D01*
X55864619Y-49193261D02*
X55769380Y-49240880D01*
X55578904Y-49240880D01*
X55483666Y-49193261D01*
X55436047Y-49145642D01*
X55388428Y-49050404D01*
X55388428Y-48764690D01*
X55436047Y-48669452D01*
X55483666Y-48621833D01*
X55578904Y-48574214D01*
X55769380Y-48574214D01*
X55864619Y-48621833D01*
X56769380Y-49240880D02*
X56769380Y-48240880D01*
X56769380Y-49193261D02*
X56674142Y-49240880D01*
X56483666Y-49240880D01*
X56388428Y-49193261D01*
X56340809Y-49145642D01*
X56293190Y-49050404D01*
X56293190Y-48764690D01*
X56340809Y-48669452D01*
X56388428Y-48621833D01*
X56483666Y-48574214D01*
X56674142Y-48574214D01*
X56769380Y-48621833D01*
X57245571Y-49240880D02*
X57245571Y-48574214D01*
X57245571Y-48764690D02*
X57293190Y-48669452D01*
X57340809Y-48621833D01*
X57436047Y-48574214D01*
X57531285Y-48574214D01*
X58245571Y-49193261D02*
X58150333Y-49240880D01*
X57959857Y-49240880D01*
X57864619Y-49193261D01*
X57817000Y-49098023D01*
X57817000Y-48717071D01*
X57864619Y-48621833D01*
X57959857Y-48574214D01*
X58150333Y-48574214D01*
X58245571Y-48621833D01*
X58293190Y-48717071D01*
X58293190Y-48812309D01*
X57817000Y-48907547D01*
X58674142Y-49193261D02*
X58769380Y-49240880D01*
X58959857Y-49240880D01*
X59055095Y-49193261D01*
X59102714Y-49098023D01*
X59102714Y-49050404D01*
X59055095Y-48955166D01*
X58959857Y-48907547D01*
X58817000Y-48907547D01*
X58721761Y-48859928D01*
X58674142Y-48764690D01*
X58674142Y-48717071D01*
X58721761Y-48621833D01*
X58817000Y-48574214D01*
X58959857Y-48574214D01*
X59055095Y-48621833D01*
X59483666Y-49193261D02*
X59578904Y-49240880D01*
X59769380Y-49240880D01*
X59864619Y-49193261D01*
X59912238Y-49098023D01*
X59912238Y-49050404D01*
X59864619Y-48955166D01*
X59769380Y-48907547D01*
X59626523Y-48907547D01*
X59531285Y-48859928D01*
X59483666Y-48764690D01*
X59483666Y-48717071D01*
X59531285Y-48621833D01*
X59626523Y-48574214D01*
X59769380Y-48574214D01*
X59864619Y-48621833D01*
X61293190Y-48240880D02*
X61483666Y-48240880D01*
X61578904Y-48288500D01*
X61674142Y-48383738D01*
X61721761Y-48574214D01*
X61721761Y-48907547D01*
X61674142Y-49098023D01*
X61578904Y-49193261D01*
X61483666Y-49240880D01*
X61293190Y-49240880D01*
X61197952Y-49193261D01*
X61102714Y-49098023D01*
X61055095Y-48907547D01*
X61055095Y-48574214D01*
X61102714Y-48383738D01*
X61197952Y-48288500D01*
X61293190Y-48240880D01*
X62007476Y-48574214D02*
X62388428Y-48574214D01*
X62150333Y-49240880D02*
X62150333Y-48383738D01*
X62197952Y-48288500D01*
X62293190Y-48240880D01*
X62388428Y-48240880D01*
X62578904Y-48574214D02*
X62959857Y-48574214D01*
X62721761Y-49240880D02*
X62721761Y-48383738D01*
X62769380Y-48288500D01*
X62864619Y-48240880D01*
X62959857Y-48240880D01*
X63245571Y-49193261D02*
X63340809Y-49240880D01*
X63531285Y-49240880D01*
X63626523Y-49193261D01*
X63674142Y-49098023D01*
X63674142Y-49050404D01*
X63626523Y-48955166D01*
X63531285Y-48907547D01*
X63388428Y-48907547D01*
X63293190Y-48859928D01*
X63245571Y-48764690D01*
X63245571Y-48717071D01*
X63293190Y-48621833D01*
X63388428Y-48574214D01*
X63531285Y-48574214D01*
X63626523Y-48621833D01*
X64483666Y-49193261D02*
X64388428Y-49240880D01*
X64197952Y-49240880D01*
X64102714Y-49193261D01*
X64055095Y-49098023D01*
X64055095Y-48717071D01*
X64102714Y-48621833D01*
X64197952Y-48574214D01*
X64388428Y-48574214D01*
X64483666Y-48621833D01*
X64531285Y-48717071D01*
X64531285Y-48812309D01*
X64055095Y-48907547D01*
X64817000Y-48574214D02*
X65197952Y-48574214D01*
X64959857Y-48240880D02*
X64959857Y-49098023D01*
X65007476Y-49193261D01*
X65102714Y-49240880D01*
X65197952Y-49240880D01*
X57078904Y-50327071D02*
X57221761Y-50374690D01*
X57269380Y-50422309D01*
X57317000Y-50517547D01*
X57317000Y-50660404D01*
X57269380Y-50755642D01*
X57221761Y-50803261D01*
X57126523Y-50850880D01*
X56745571Y-50850880D01*
X56745571Y-49850880D01*
X57078904Y-49850880D01*
X57174142Y-49898500D01*
X57221761Y-49946119D01*
X57269380Y-50041357D01*
X57269380Y-50136595D01*
X57221761Y-50231833D01*
X57174142Y-50279452D01*
X57078904Y-50327071D01*
X56745571Y-50327071D01*
X57745571Y-50850880D02*
X57745571Y-50184214D01*
X57745571Y-49850880D02*
X57697952Y-49898500D01*
X57745571Y-49946119D01*
X57793190Y-49898500D01*
X57745571Y-49850880D01*
X57745571Y-49946119D01*
X58078904Y-50184214D02*
X58459857Y-50184214D01*
X58221761Y-49850880D02*
X58221761Y-50708023D01*
X58269380Y-50803261D01*
X58364619Y-50850880D01*
X58459857Y-50850880D01*
X59555095Y-50850880D02*
X59555095Y-49850880D01*
X59888428Y-50565166D01*
X60221761Y-49850880D01*
X60221761Y-50850880D01*
X60840809Y-50850880D02*
X60745571Y-50803261D01*
X60697952Y-50755642D01*
X60650333Y-50660404D01*
X60650333Y-50374690D01*
X60697952Y-50279452D01*
X60745571Y-50231833D01*
X60840809Y-50184214D01*
X60983666Y-50184214D01*
X61078904Y-50231833D01*
X61126523Y-50279452D01*
X61174142Y-50374690D01*
X61174142Y-50660404D01*
X61126523Y-50755642D01*
X61078904Y-50803261D01*
X60983666Y-50850880D01*
X60840809Y-50850880D01*
X62031285Y-50850880D02*
X62031285Y-49850880D01*
X62031285Y-50803261D02*
X61936047Y-50850880D01*
X61745571Y-50850880D01*
X61650333Y-50803261D01*
X61602714Y-50755642D01*
X61555095Y-50660404D01*
X61555095Y-50374690D01*
X61602714Y-50279452D01*
X61650333Y-50231833D01*
X61745571Y-50184214D01*
X61936047Y-50184214D01*
X62031285Y-50231833D01*
X62888428Y-50803261D02*
X62793190Y-50850880D01*
X62602714Y-50850880D01*
X62507476Y-50803261D01*
X62459857Y-50708023D01*
X62459857Y-50327071D01*
X62507476Y-50231833D01*
X62602714Y-50184214D01*
X62793190Y-50184214D01*
X62888428Y-50231833D01*
X62936047Y-50327071D01*
X62936047Y-50422309D01*
X62459857Y-50517547D01*
X52601880Y-63404666D02*
X52601880Y-63214190D01*
X52649500Y-63118952D01*
X52744738Y-63023714D01*
X52935214Y-62976095D01*
X53268547Y-62976095D01*
X53459023Y-63023714D01*
X53554261Y-63118952D01*
X53601880Y-63214190D01*
X53601880Y-63404666D01*
X53554261Y-63499904D01*
X53459023Y-63595142D01*
X53268547Y-63642761D01*
X52935214Y-63642761D01*
X52744738Y-63595142D01*
X52649500Y-63499904D01*
X52601880Y-63404666D01*
X52935214Y-62690380D02*
X52935214Y-62309428D01*
X53601880Y-62547523D02*
X52744738Y-62547523D01*
X52649500Y-62499904D01*
X52601880Y-62404666D01*
X52601880Y-62309428D01*
X52935214Y-62118952D02*
X52935214Y-61738000D01*
X53601880Y-61976095D02*
X52744738Y-61976095D01*
X52649500Y-61928476D01*
X52601880Y-61833238D01*
X52601880Y-61738000D01*
X65682880Y-63285619D02*
X65682880Y-63095142D01*
X65730500Y-62999904D01*
X65825738Y-62904666D01*
X66016214Y-62857047D01*
X66349547Y-62857047D01*
X66540023Y-62904666D01*
X66635261Y-62999904D01*
X66682880Y-63095142D01*
X66682880Y-63285619D01*
X66635261Y-63380857D01*
X66540023Y-63476095D01*
X66349547Y-63523714D01*
X66016214Y-63523714D01*
X65825738Y-63476095D01*
X65730500Y-63380857D01*
X65682880Y-63285619D01*
X66016214Y-62428476D02*
X66682880Y-62428476D01*
X66111452Y-62428476D02*
X66063833Y-62380857D01*
X66016214Y-62285619D01*
X66016214Y-62142761D01*
X66063833Y-62047523D01*
X66159071Y-61999904D01*
X66682880Y-61999904D01*
X55546785Y-36583928D02*
X56308690Y-36583928D01*
X55927738Y-36964880D02*
X55927738Y-36202976D01*
X57261071Y-35964880D02*
X56784880Y-35964880D01*
X56737261Y-36441071D01*
X56784880Y-36393452D01*
X56880119Y-36345833D01*
X57118214Y-36345833D01*
X57213452Y-36393452D01*
X57261071Y-36441071D01*
X57308690Y-36536309D01*
X57308690Y-36774404D01*
X57261071Y-36869642D01*
X57213452Y-36917261D01*
X57118214Y-36964880D01*
X56880119Y-36964880D01*
X56784880Y-36917261D01*
X56737261Y-36869642D01*
X57594404Y-35964880D02*
X57927738Y-36964880D01*
X58261071Y-35964880D01*
X54723809Y-44004761D02*
X54866666Y-44052380D01*
X55104761Y-44052380D01*
X55200000Y-44004761D01*
X55247619Y-43957142D01*
X55295238Y-43861904D01*
X55295238Y-43766666D01*
X55247619Y-43671428D01*
X55200000Y-43623809D01*
X55104761Y-43576190D01*
X54914285Y-43528571D01*
X54819047Y-43480952D01*
X54771428Y-43433333D01*
X54723809Y-43338095D01*
X54723809Y-43242857D01*
X54771428Y-43147619D01*
X54819047Y-43100000D01*
X54914285Y-43052380D01*
X55152380Y-43052380D01*
X55295238Y-43100000D01*
X55580952Y-43052380D02*
X56152380Y-43052380D01*
X55866666Y-44052380D02*
X55866666Y-43052380D01*
X56438095Y-43766666D02*
X56914285Y-43766666D01*
X56342857Y-44052380D02*
X56676190Y-43052380D01*
X57009523Y-44052380D01*
X57200000Y-43052380D02*
X57771428Y-43052380D01*
X57485714Y-44052380D02*
X57485714Y-43052380D01*
X58104761Y-43052380D02*
X58104761Y-43861904D01*
X58152380Y-43957142D01*
X58200000Y-44004761D01*
X58295238Y-44052380D01*
X58485714Y-44052380D01*
X58580952Y-44004761D01*
X58628571Y-43957142D01*
X58676190Y-43861904D01*
X58676190Y-43052380D01*
X59104761Y-44004761D02*
X59247619Y-44052380D01*
X59485714Y-44052380D01*
X59580952Y-44004761D01*
X59628571Y-43957142D01*
X59676190Y-43861904D01*
X59676190Y-43766666D01*
X59628571Y-43671428D01*
X59580952Y-43623809D01*
X59485714Y-43576190D01*
X59295238Y-43528571D01*
X59200000Y-43480952D01*
X59152380Y-43433333D01*
X59104761Y-43338095D01*
X59104761Y-43242857D01*
X59152380Y-43147619D01*
X59200000Y-43100000D01*
X59295238Y-43052380D01*
X59533333Y-43052380D01*
X59676190Y-43100000D01*
X48649095Y-34223571D02*
X48982428Y-34223571D01*
X49125285Y-34747380D02*
X48649095Y-34747380D01*
X48649095Y-33747380D01*
X49125285Y-33747380D01*
X49553857Y-34080714D02*
X49553857Y-34747380D01*
X49553857Y-34175952D02*
X49601476Y-34128333D01*
X49696714Y-34080714D01*
X49839571Y-34080714D01*
X49934809Y-34128333D01*
X49982428Y-34223571D01*
X49982428Y-34747380D01*
X50887190Y-34747380D02*
X50887190Y-34223571D01*
X50839571Y-34128333D01*
X50744333Y-34080714D01*
X50553857Y-34080714D01*
X50458619Y-34128333D01*
X50887190Y-34699761D02*
X50791952Y-34747380D01*
X50553857Y-34747380D01*
X50458619Y-34699761D01*
X50411000Y-34604523D01*
X50411000Y-34509285D01*
X50458619Y-34414047D01*
X50553857Y-34366428D01*
X50791952Y-34366428D01*
X50887190Y-34318809D01*
X51363380Y-34747380D02*
X51363380Y-33747380D01*
X51363380Y-34128333D02*
X51458619Y-34080714D01*
X51649095Y-34080714D01*
X51744333Y-34128333D01*
X51791952Y-34175952D01*
X51839571Y-34271190D01*
X51839571Y-34556904D01*
X51791952Y-34652142D01*
X51744333Y-34699761D01*
X51649095Y-34747380D01*
X51458619Y-34747380D01*
X51363380Y-34699761D01*
X52411000Y-34747380D02*
X52315761Y-34699761D01*
X52268142Y-34604523D01*
X52268142Y-33747380D01*
X53172904Y-34699761D02*
X53077666Y-34747380D01*
X52887190Y-34747380D01*
X52791952Y-34699761D01*
X52744333Y-34604523D01*
X52744333Y-34223571D01*
X52791952Y-34128333D01*
X52887190Y-34080714D01*
X53077666Y-34080714D01*
X53172904Y-34128333D01*
X53220523Y-34223571D01*
X53220523Y-34318809D01*
X52744333Y-34414047D01*
X48744333Y-36309761D02*
X48887190Y-36357380D01*
X49125285Y-36357380D01*
X49220523Y-36309761D01*
X49268142Y-36262142D01*
X49315761Y-36166904D01*
X49315761Y-36071666D01*
X49268142Y-35976428D01*
X49220523Y-35928809D01*
X49125285Y-35881190D01*
X48934809Y-35833571D01*
X48839571Y-35785952D01*
X48791952Y-35738333D01*
X48744333Y-35643095D01*
X48744333Y-35547857D01*
X48791952Y-35452619D01*
X48839571Y-35405000D01*
X48934809Y-35357380D01*
X49172904Y-35357380D01*
X49315761Y-35405000D01*
X49601476Y-35690714D02*
X49982428Y-35690714D01*
X49744333Y-35357380D02*
X49744333Y-36214523D01*
X49791952Y-36309761D01*
X49887190Y-36357380D01*
X49982428Y-36357380D01*
X50744333Y-36357380D02*
X50744333Y-35833571D01*
X50696714Y-35738333D01*
X50601476Y-35690714D01*
X50411000Y-35690714D01*
X50315761Y-35738333D01*
X50744333Y-36309761D02*
X50649095Y-36357380D01*
X50411000Y-36357380D01*
X50315761Y-36309761D01*
X50268142Y-36214523D01*
X50268142Y-36119285D01*
X50315761Y-36024047D01*
X50411000Y-35976428D01*
X50649095Y-35976428D01*
X50744333Y-35928809D01*
X51077666Y-35690714D02*
X51458619Y-35690714D01*
X51220523Y-35357380D02*
X51220523Y-36214523D01*
X51268142Y-36309761D01*
X51363380Y-36357380D01*
X51458619Y-36357380D01*
X52220523Y-35690714D02*
X52220523Y-36357380D01*
X51791952Y-35690714D02*
X51791952Y-36214523D01*
X51839571Y-36309761D01*
X51934809Y-36357380D01*
X52077666Y-36357380D01*
X52172904Y-36309761D01*
X52220523Y-36262142D01*
X52649095Y-36309761D02*
X52744333Y-36357380D01*
X52934809Y-36357380D01*
X53030047Y-36309761D01*
X53077666Y-36214523D01*
X53077666Y-36166904D01*
X53030047Y-36071666D01*
X52934809Y-36024047D01*
X52791952Y-36024047D01*
X52696714Y-35976428D01*
X52649095Y-35881190D01*
X52649095Y-35833571D01*
X52696714Y-35738333D01*
X52791952Y-35690714D01*
X52934809Y-35690714D01*
X53030047Y-35738333D01*
X94573285Y-53933000D02*
X93823285Y-53933000D01*
X93823285Y-53754428D01*
X93859000Y-53647285D01*
X93930428Y-53575857D01*
X94001857Y-53540142D01*
X94144714Y-53504428D01*
X94251857Y-53504428D01*
X94394714Y-53540142D01*
X94466142Y-53575857D01*
X94537571Y-53647285D01*
X94573285Y-53754428D01*
X94573285Y-53933000D01*
X94573285Y-53183000D02*
X93823285Y-53183000D01*
X94359000Y-52933000D01*
X93823285Y-52683000D01*
X94573285Y-52683000D01*
X93823285Y-52397285D02*
X94573285Y-51897285D01*
X93823285Y-51897285D02*
X94573285Y-52397285D01*
X94537571Y-51075857D02*
X94573285Y-50968714D01*
X94573285Y-50790142D01*
X94537571Y-50718714D01*
X94501857Y-50683000D01*
X94430428Y-50647285D01*
X94359000Y-50647285D01*
X94287571Y-50683000D01*
X94251857Y-50718714D01*
X94216142Y-50790142D01*
X94180428Y-50933000D01*
X94144714Y-51004428D01*
X94109000Y-51040142D01*
X94037571Y-51075857D01*
X93966142Y-51075857D01*
X93894714Y-51040142D01*
X93859000Y-51004428D01*
X93823285Y-50933000D01*
X93823285Y-50754428D01*
X93859000Y-50647285D01*
X94537571Y-50040142D02*
X94573285Y-50111571D01*
X94573285Y-50254428D01*
X94537571Y-50325857D01*
X94466142Y-50361571D01*
X94180428Y-50361571D01*
X94109000Y-50325857D01*
X94073285Y-50254428D01*
X94073285Y-50111571D01*
X94109000Y-50040142D01*
X94180428Y-50004428D01*
X94251857Y-50004428D01*
X94323285Y-50361571D01*
X94073285Y-49683000D02*
X94573285Y-49683000D01*
X94144714Y-49683000D02*
X94109000Y-49647285D01*
X94073285Y-49575857D01*
X94073285Y-49468714D01*
X94109000Y-49397285D01*
X94180428Y-49361571D01*
X94573285Y-49361571D01*
X94573285Y-48683000D02*
X93823285Y-48683000D01*
X94537571Y-48683000D02*
X94573285Y-48754428D01*
X94573285Y-48897285D01*
X94537571Y-48968714D01*
X94501857Y-49004428D01*
X94430428Y-49040142D01*
X94216142Y-49040142D01*
X94144714Y-49004428D01*
X94109000Y-48968714D01*
X94073285Y-48897285D01*
X94073285Y-48754428D01*
X94109000Y-48683000D01*
X85937285Y-53879428D02*
X85187285Y-53879428D01*
X85187285Y-53700857D01*
X85223000Y-53593714D01*
X85294428Y-53522285D01*
X85365857Y-53486571D01*
X85508714Y-53450857D01*
X85615857Y-53450857D01*
X85758714Y-53486571D01*
X85830142Y-53522285D01*
X85901571Y-53593714D01*
X85937285Y-53700857D01*
X85937285Y-53879428D01*
X85937285Y-53129428D02*
X85187285Y-53129428D01*
X85723000Y-52879428D01*
X85187285Y-52629428D01*
X85937285Y-52629428D01*
X85187285Y-52343714D02*
X85937285Y-51843714D01*
X85187285Y-51843714D02*
X85937285Y-52343714D01*
X85937285Y-50558000D02*
X85580142Y-50808000D01*
X85937285Y-50986571D02*
X85187285Y-50986571D01*
X85187285Y-50700857D01*
X85223000Y-50629428D01*
X85258714Y-50593714D01*
X85330142Y-50558000D01*
X85437285Y-50558000D01*
X85508714Y-50593714D01*
X85544428Y-50629428D01*
X85580142Y-50700857D01*
X85580142Y-50986571D01*
X85901571Y-49950857D02*
X85937285Y-50022285D01*
X85937285Y-50165142D01*
X85901571Y-50236571D01*
X85830142Y-50272285D01*
X85544428Y-50272285D01*
X85473000Y-50236571D01*
X85437285Y-50165142D01*
X85437285Y-50022285D01*
X85473000Y-49950857D01*
X85544428Y-49915142D01*
X85615857Y-49915142D01*
X85687285Y-50272285D01*
X85901571Y-49272285D02*
X85937285Y-49343714D01*
X85937285Y-49486571D01*
X85901571Y-49558000D01*
X85865857Y-49593714D01*
X85794428Y-49629428D01*
X85580142Y-49629428D01*
X85508714Y-49593714D01*
X85473000Y-49558000D01*
X85437285Y-49486571D01*
X85437285Y-49343714D01*
X85473000Y-49272285D01*
X85437285Y-49022285D02*
X85937285Y-48843714D01*
X85437285Y-48665142D01*
X87717333Y-47950380D02*
X87384000Y-47474190D01*
X87145904Y-47950380D02*
X87145904Y-46950380D01*
X87526857Y-46950380D01*
X87622095Y-46998000D01*
X87669714Y-47045619D01*
X87717333Y-47140857D01*
X87717333Y-47283714D01*
X87669714Y-47378952D01*
X87622095Y-47426571D01*
X87526857Y-47474190D01*
X87145904Y-47474190D01*
X88050666Y-46950380D02*
X88717333Y-47950380D01*
X88717333Y-46950380D02*
X88050666Y-47950380D01*
X91059095Y-46950380D02*
X91630523Y-46950380D01*
X91344809Y-47950380D02*
X91344809Y-46950380D01*
X91868619Y-46950380D02*
X92535285Y-47950380D01*
X92535285Y-46950380D02*
X91868619Y-47950380D01*
X58959785Y-36756571D02*
X59531214Y-36756571D01*
X59245500Y-37042285D02*
X59245500Y-36470857D01*
X58959785Y-40122071D02*
X59531214Y-40122071D01*
X59245500Y-40407785D02*
X59245500Y-39836357D01*
X38169885Y-38407571D02*
X38741314Y-38407571D01*
X38455600Y-38693285D02*
X38455600Y-38121857D01*
X28162285Y-35486571D02*
X28733714Y-35486571D01*
X28448000Y-35772285D02*
X28448000Y-35200857D01*
X39969714Y-61311285D02*
X39969714Y-61847000D01*
X39934000Y-61954142D01*
X39862571Y-62025571D01*
X39755428Y-62061285D01*
X39684000Y-62061285D01*
X40684000Y-62061285D02*
X40326857Y-62061285D01*
X40326857Y-61311285D01*
X41362571Y-61989857D02*
X41326857Y-62025571D01*
X41219714Y-62061285D01*
X41148285Y-62061285D01*
X41041142Y-62025571D01*
X40969714Y-61954142D01*
X40934000Y-61882714D01*
X40898285Y-61739857D01*
X40898285Y-61632714D01*
X40934000Y-61489857D01*
X40969714Y-61418428D01*
X41041142Y-61347000D01*
X41148285Y-61311285D01*
X41219714Y-61311285D01*
X41326857Y-61347000D01*
X41362571Y-61382714D01*
X41898285Y-61311285D02*
X41898285Y-61847000D01*
X41862571Y-61954142D01*
X41791142Y-62025571D01*
X41684000Y-62061285D01*
X41612571Y-62061285D01*
X42612571Y-62061285D02*
X42255428Y-62061285D01*
X42255428Y-61311285D01*
X43291142Y-61989857D02*
X43255428Y-62025571D01*
X43148285Y-62061285D01*
X43076857Y-62061285D01*
X42969714Y-62025571D01*
X42898285Y-61954142D01*
X42862571Y-61882714D01*
X42826857Y-61739857D01*
X42826857Y-61632714D01*
X42862571Y-61489857D01*
X42898285Y-61418428D01*
X42969714Y-61347000D01*
X43076857Y-61311285D01*
X43148285Y-61311285D01*
X43255428Y-61347000D01*
X43291142Y-61382714D01*
X43826857Y-61311285D02*
X43826857Y-61847000D01*
X43791142Y-61954142D01*
X43719714Y-62025571D01*
X43612571Y-62061285D01*
X43541142Y-62061285D01*
X44541142Y-62061285D02*
X44184000Y-62061285D01*
X44184000Y-61311285D01*
X45219714Y-61989857D02*
X45184000Y-62025571D01*
X45076857Y-62061285D01*
X45005428Y-62061285D01*
X44898285Y-62025571D01*
X44826857Y-61954142D01*
X44791142Y-61882714D01*
X44755428Y-61739857D01*
X44755428Y-61632714D01*
X44791142Y-61489857D01*
X44826857Y-61418428D01*
X44898285Y-61347000D01*
X45005428Y-61311285D01*
X45076857Y-61311285D01*
X45184000Y-61347000D01*
X45219714Y-61382714D01*
X45755428Y-61311285D02*
X45755428Y-61847000D01*
X45719714Y-61954142D01*
X45648285Y-62025571D01*
X45541142Y-62061285D01*
X45469714Y-62061285D01*
X46469714Y-62061285D02*
X46112571Y-62061285D01*
X46112571Y-61311285D01*
X47148285Y-61989857D02*
X47112571Y-62025571D01*
X47005428Y-62061285D01*
X46934000Y-62061285D01*
X46826857Y-62025571D01*
X46755428Y-61954142D01*
X46719714Y-61882714D01*
X46684000Y-61739857D01*
X46684000Y-61632714D01*
X46719714Y-61489857D01*
X46755428Y-61418428D01*
X46826857Y-61347000D01*
X46934000Y-61311285D01*
X47005428Y-61311285D01*
X47112571Y-61347000D01*
X47148285Y-61382714D01*
X102744535Y-44251428D02*
X103280250Y-44251428D01*
X103387392Y-44287142D01*
X103458821Y-44358571D01*
X103494535Y-44465714D01*
X103494535Y-44537142D01*
X102994535Y-43572857D02*
X103494535Y-43572857D01*
X102994535Y-43894285D02*
X103387392Y-43894285D01*
X103458821Y-43858571D01*
X103494535Y-43787142D01*
X103494535Y-43680000D01*
X103458821Y-43608571D01*
X103423107Y-43572857D01*
X103494535Y-43215714D02*
X102994535Y-43215714D01*
X103065964Y-43215714D02*
X103030250Y-43180000D01*
X102994535Y-43108571D01*
X102994535Y-43001428D01*
X103030250Y-42930000D01*
X103101678Y-42894285D01*
X103494535Y-42894285D01*
X103101678Y-42894285D02*
X103030250Y-42858571D01*
X102994535Y-42787142D01*
X102994535Y-42680000D01*
X103030250Y-42608571D01*
X103101678Y-42572857D01*
X103494535Y-42572857D01*
X102994535Y-42215714D02*
X103744535Y-42215714D01*
X103030250Y-42215714D02*
X102994535Y-42144285D01*
X102994535Y-42001428D01*
X103030250Y-41930000D01*
X103065964Y-41894285D01*
X103137392Y-41858571D01*
X103351678Y-41858571D01*
X103423107Y-41894285D01*
X103458821Y-41930000D01*
X103494535Y-42001428D01*
X103494535Y-42144285D01*
X103458821Y-42215714D01*
X103987750Y-45769285D02*
X103952035Y-45840714D01*
X103952035Y-45947857D01*
X103987750Y-46055000D01*
X104059178Y-46126428D01*
X104130607Y-46162142D01*
X104273464Y-46197857D01*
X104380607Y-46197857D01*
X104523464Y-46162142D01*
X104594892Y-46126428D01*
X104666321Y-46055000D01*
X104702035Y-45947857D01*
X104702035Y-45876428D01*
X104666321Y-45769285D01*
X104630607Y-45733571D01*
X104380607Y-45733571D01*
X104380607Y-45876428D01*
X104702035Y-45090714D02*
X104309178Y-45090714D01*
X104237750Y-45126428D01*
X104202035Y-45197857D01*
X104202035Y-45340714D01*
X104237750Y-45412142D01*
X104666321Y-45090714D02*
X104702035Y-45162142D01*
X104702035Y-45340714D01*
X104666321Y-45412142D01*
X104594892Y-45447857D01*
X104523464Y-45447857D01*
X104452035Y-45412142D01*
X104416321Y-45340714D01*
X104416321Y-45162142D01*
X104380607Y-45090714D01*
X104202035Y-44840714D02*
X104202035Y-44555000D01*
X103952035Y-44733571D02*
X104594892Y-44733571D01*
X104666321Y-44697857D01*
X104702035Y-44626428D01*
X104702035Y-44555000D01*
X104666321Y-44019285D02*
X104702035Y-44090714D01*
X104702035Y-44233571D01*
X104666321Y-44305000D01*
X104594892Y-44340714D01*
X104309178Y-44340714D01*
X104237750Y-44305000D01*
X104202035Y-44233571D01*
X104202035Y-44090714D01*
X104237750Y-44019285D01*
X104309178Y-43983571D01*
X104380607Y-43983571D01*
X104452035Y-44340714D01*
X104702035Y-43090714D02*
X103952035Y-43090714D01*
X103952035Y-42912142D01*
X103987750Y-42805000D01*
X104059178Y-42733571D01*
X104130607Y-42697857D01*
X104273464Y-42662142D01*
X104380607Y-42662142D01*
X104523464Y-42697857D01*
X104594892Y-42733571D01*
X104666321Y-42805000D01*
X104702035Y-42912142D01*
X104702035Y-43090714D01*
X104702035Y-42340714D02*
X104202035Y-42340714D01*
X104344892Y-42340714D02*
X104273464Y-42305000D01*
X104237750Y-42269285D01*
X104202035Y-42197857D01*
X104202035Y-42126428D01*
X104702035Y-41876428D02*
X104202035Y-41876428D01*
X103952035Y-41876428D02*
X103987750Y-41912142D01*
X104023464Y-41876428D01*
X103987750Y-41840714D01*
X103952035Y-41876428D01*
X104023464Y-41876428D01*
X104202035Y-41590714D02*
X104702035Y-41412142D01*
X104202035Y-41233571D01*
X104666321Y-40662142D02*
X104702035Y-40733571D01*
X104702035Y-40876428D01*
X104666321Y-40947857D01*
X104594892Y-40983571D01*
X104309178Y-40983571D01*
X104237750Y-40947857D01*
X104202035Y-40876428D01*
X104202035Y-40733571D01*
X104237750Y-40662142D01*
X104309178Y-40626428D01*
X104380607Y-40626428D01*
X104452035Y-40983571D01*
X104702035Y-40305000D02*
X104202035Y-40305000D01*
X104344892Y-40305000D02*
X104273464Y-40269285D01*
X104237750Y-40233571D01*
X104202035Y-40162142D01*
X104202035Y-40090714D01*
X66159071Y-54459071D02*
X66206690Y-54316214D01*
X66254309Y-54268595D01*
X66349547Y-54220976D01*
X66492404Y-54220976D01*
X66587642Y-54268595D01*
X66635261Y-54316214D01*
X66682880Y-54411452D01*
X66682880Y-54792404D01*
X65682880Y-54792404D01*
X65682880Y-54459071D01*
X65730500Y-54363833D01*
X65778119Y-54316214D01*
X65873357Y-54268595D01*
X65968595Y-54268595D01*
X66063833Y-54316214D01*
X66111452Y-54363833D01*
X66159071Y-54459071D01*
X66159071Y-54792404D01*
X66682880Y-53792404D02*
X66016214Y-53792404D01*
X65682880Y-53792404D02*
X65730500Y-53840023D01*
X65778119Y-53792404D01*
X65730500Y-53744785D01*
X65682880Y-53792404D01*
X65778119Y-53792404D01*
X66016214Y-53459071D02*
X66016214Y-53078119D01*
X65682880Y-53316214D02*
X66540023Y-53316214D01*
X66635261Y-53268595D01*
X66682880Y-53173357D01*
X66682880Y-53078119D01*
X66682880Y-52220976D02*
X66682880Y-52792404D01*
X66682880Y-52506690D02*
X65682880Y-52506690D01*
X65825738Y-52601928D01*
X65920976Y-52697166D01*
X65968595Y-52792404D01*
%TO.C,R3*%
X102830333Y-50299880D02*
X102497000Y-49823690D01*
X102258904Y-50299880D02*
X102258904Y-49299880D01*
X102639857Y-49299880D01*
X102735095Y-49347500D01*
X102782714Y-49395119D01*
X102830333Y-49490357D01*
X102830333Y-49633214D01*
X102782714Y-49728452D01*
X102735095Y-49776071D01*
X102639857Y-49823690D01*
X102258904Y-49823690D01*
X103163666Y-49299880D02*
X103782714Y-49299880D01*
X103449380Y-49680833D01*
X103592238Y-49680833D01*
X103687476Y-49728452D01*
X103735095Y-49776071D01*
X103782714Y-49871309D01*
X103782714Y-50109404D01*
X103735095Y-50204642D01*
X103687476Y-50252261D01*
X103592238Y-50299880D01*
X103306523Y-50299880D01*
X103211285Y-50252261D01*
X103163666Y-50204642D01*
%TO.C,SW1*%
X98615666Y-56284761D02*
X98758523Y-56332380D01*
X98996619Y-56332380D01*
X99091857Y-56284761D01*
X99139476Y-56237142D01*
X99187095Y-56141904D01*
X99187095Y-56046666D01*
X99139476Y-55951428D01*
X99091857Y-55903809D01*
X98996619Y-55856190D01*
X98806142Y-55808571D01*
X98710904Y-55760952D01*
X98663285Y-55713333D01*
X98615666Y-55618095D01*
X98615666Y-55522857D01*
X98663285Y-55427619D01*
X98710904Y-55380000D01*
X98806142Y-55332380D01*
X99044238Y-55332380D01*
X99187095Y-55380000D01*
X99520428Y-55332380D02*
X99758523Y-56332380D01*
X99949000Y-55618095D01*
X100139476Y-56332380D01*
X100377571Y-55332380D01*
X101282333Y-56332380D02*
X100710904Y-56332380D01*
X100996619Y-56332380D02*
X100996619Y-55332380D01*
X100901380Y-55475238D01*
X100806142Y-55570476D01*
X100710904Y-55618095D01*
%TO.C,U3*%
X70104095Y-39076380D02*
X70104095Y-39885904D01*
X70151714Y-39981142D01*
X70199333Y-40028761D01*
X70294571Y-40076380D01*
X70485047Y-40076380D01*
X70580285Y-40028761D01*
X70627904Y-39981142D01*
X70675523Y-39885904D01*
X70675523Y-39076380D01*
X71056476Y-39076380D02*
X71675523Y-39076380D01*
X71342190Y-39457333D01*
X71485047Y-39457333D01*
X71580285Y-39504952D01*
X71627904Y-39552571D01*
X71675523Y-39647809D01*
X71675523Y-39885904D01*
X71627904Y-39981142D01*
X71580285Y-40028761D01*
X71485047Y-40076380D01*
X71199333Y-40076380D01*
X71104095Y-40028761D01*
X71056476Y-39981142D01*
%TO.C,U2*%
X84455095Y-55459380D02*
X84455095Y-56268904D01*
X84502714Y-56364142D01*
X84550333Y-56411761D01*
X84645571Y-56459380D01*
X84836047Y-56459380D01*
X84931285Y-56411761D01*
X84978904Y-56364142D01*
X85026523Y-56268904D01*
X85026523Y-55459380D01*
X85455095Y-55554619D02*
X85502714Y-55507000D01*
X85597952Y-55459380D01*
X85836047Y-55459380D01*
X85931285Y-55507000D01*
X85978904Y-55554619D01*
X86026523Y-55649857D01*
X86026523Y-55745095D01*
X85978904Y-55887952D01*
X85407476Y-56459380D01*
X86026523Y-56459380D01*
%TO.C,JP3*%
X88860380Y-62483333D02*
X89574666Y-62483333D01*
X89717523Y-62530952D01*
X89812761Y-62626190D01*
X89860380Y-62769047D01*
X89860380Y-62864285D01*
X89860380Y-62007142D02*
X88860380Y-62007142D01*
X88860380Y-61626190D01*
X88908000Y-61530952D01*
X88955619Y-61483333D01*
X89050857Y-61435714D01*
X89193714Y-61435714D01*
X89288952Y-61483333D01*
X89336571Y-61530952D01*
X89384190Y-61626190D01*
X89384190Y-62007142D01*
X88860380Y-61102380D02*
X88860380Y-60483333D01*
X89241333Y-60816666D01*
X89241333Y-60673809D01*
X89288952Y-60578571D01*
X89336571Y-60530952D01*
X89431809Y-60483333D01*
X89669904Y-60483333D01*
X89765142Y-60530952D01*
X89812761Y-60578571D01*
X89860380Y-60673809D01*
X89860380Y-60959523D01*
X89812761Y-61054761D01*
X89765142Y-61102380D01*
%TO.C,J6*%
X20875666Y-53935380D02*
X20875666Y-54649666D01*
X20828047Y-54792523D01*
X20732809Y-54887761D01*
X20589952Y-54935380D01*
X20494714Y-54935380D01*
X21780428Y-53935380D02*
X21589952Y-53935380D01*
X21494714Y-53983000D01*
X21447095Y-54030619D01*
X21351857Y-54173476D01*
X21304238Y-54363952D01*
X21304238Y-54744904D01*
X21351857Y-54840142D01*
X21399476Y-54887761D01*
X21494714Y-54935380D01*
X21685190Y-54935380D01*
X21780428Y-54887761D01*
X21828047Y-54840142D01*
X21875666Y-54744904D01*
X21875666Y-54506809D01*
X21828047Y-54411571D01*
X21780428Y-54363952D01*
X21685190Y-54316333D01*
X21494714Y-54316333D01*
X21399476Y-54363952D01*
X21351857Y-54411571D01*
X21304238Y-54506809D01*
%TO.C,J2*%
X20558166Y-32345380D02*
X20558166Y-33059666D01*
X20510547Y-33202523D01*
X20415309Y-33297761D01*
X20272452Y-33345380D01*
X20177214Y-33345380D01*
X20986738Y-32440619D02*
X21034357Y-32393000D01*
X21129595Y-32345380D01*
X21367690Y-32345380D01*
X21462928Y-32393000D01*
X21510547Y-32440619D01*
X21558166Y-32535857D01*
X21558166Y-32631095D01*
X21510547Y-32773952D01*
X20939119Y-33345380D01*
X21558166Y-33345380D01*
%TO.C,J5*%
X118157666Y-63714380D02*
X118157666Y-64428666D01*
X118110047Y-64571523D01*
X118014809Y-64666761D01*
X117871952Y-64714380D01*
X117776714Y-64714380D01*
X119110047Y-63714380D02*
X118633857Y-63714380D01*
X118586238Y-64190571D01*
X118633857Y-64142952D01*
X118729095Y-64095333D01*
X118967190Y-64095333D01*
X119062428Y-64142952D01*
X119110047Y-64190571D01*
X119157666Y-64285809D01*
X119157666Y-64523904D01*
X119110047Y-64619142D01*
X119062428Y-64666761D01*
X118967190Y-64714380D01*
X118729095Y-64714380D01*
X118633857Y-64666761D01*
X118586238Y-64619142D01*
%TO.C,R1*%
X74466380Y-58807166D02*
X73990190Y-59140500D01*
X74466380Y-59378595D02*
X73466380Y-59378595D01*
X73466380Y-58997642D01*
X73514000Y-58902404D01*
X73561619Y-58854785D01*
X73656857Y-58807166D01*
X73799714Y-58807166D01*
X73894952Y-58854785D01*
X73942571Y-58902404D01*
X73990190Y-58997642D01*
X73990190Y-59378595D01*
X74466380Y-57854785D02*
X74466380Y-58426214D01*
X74466380Y-58140500D02*
X73466380Y-58140500D01*
X73609238Y-58235738D01*
X73704476Y-58330976D01*
X73752095Y-58426214D01*
%TO.C,R5*%
X94940380Y-58840666D02*
X94464190Y-59174000D01*
X94940380Y-59412095D02*
X93940380Y-59412095D01*
X93940380Y-59031142D01*
X93988000Y-58935904D01*
X94035619Y-58888285D01*
X94130857Y-58840666D01*
X94273714Y-58840666D01*
X94368952Y-58888285D01*
X94416571Y-58935904D01*
X94464190Y-59031142D01*
X94464190Y-59412095D01*
X93940380Y-57935904D02*
X93940380Y-58412095D01*
X94416571Y-58459714D01*
X94368952Y-58412095D01*
X94321333Y-58316857D01*
X94321333Y-58078761D01*
X94368952Y-57983523D01*
X94416571Y-57935904D01*
X94511809Y-57888285D01*
X94749904Y-57888285D01*
X94845142Y-57935904D01*
X94892761Y-57983523D01*
X94940380Y-58078761D01*
X94940380Y-58316857D01*
X94892761Y-58412095D01*
X94845142Y-58459714D01*
%TO.C,C6*%
X84212133Y-40539942D02*
X84164514Y-40587561D01*
X84021657Y-40635180D01*
X83926419Y-40635180D01*
X83783561Y-40587561D01*
X83688323Y-40492323D01*
X83640704Y-40397085D01*
X83593085Y-40206609D01*
X83593085Y-40063752D01*
X83640704Y-39873276D01*
X83688323Y-39778038D01*
X83783561Y-39682800D01*
X83926419Y-39635180D01*
X84021657Y-39635180D01*
X84164514Y-39682800D01*
X84212133Y-39730419D01*
X85069276Y-39635180D02*
X84878800Y-39635180D01*
X84783561Y-39682800D01*
X84735942Y-39730419D01*
X84640704Y-39873276D01*
X84593085Y-40063752D01*
X84593085Y-40444704D01*
X84640704Y-40539942D01*
X84688323Y-40587561D01*
X84783561Y-40635180D01*
X84974038Y-40635180D01*
X85069276Y-40587561D01*
X85116895Y-40539942D01*
X85164514Y-40444704D01*
X85164514Y-40206609D01*
X85116895Y-40111371D01*
X85069276Y-40063752D01*
X84974038Y-40016133D01*
X84783561Y-40016133D01*
X84688323Y-40063752D01*
X84640704Y-40111371D01*
X84593085Y-40206609D01*
%TO.C,C7*%
X69683333Y-57062642D02*
X69635714Y-57110261D01*
X69492857Y-57157880D01*
X69397619Y-57157880D01*
X69254761Y-57110261D01*
X69159523Y-57015023D01*
X69111904Y-56919785D01*
X69064285Y-56729309D01*
X69064285Y-56586452D01*
X69111904Y-56395976D01*
X69159523Y-56300738D01*
X69254761Y-56205500D01*
X69397619Y-56157880D01*
X69492857Y-56157880D01*
X69635714Y-56205500D01*
X69683333Y-56253119D01*
X70016666Y-56157880D02*
X70683333Y-56157880D01*
X70254761Y-57157880D01*
%TO.C,R4*%
X79762880Y-55534166D02*
X79286690Y-55867500D01*
X79762880Y-56105595D02*
X78762880Y-56105595D01*
X78762880Y-55724642D01*
X78810500Y-55629404D01*
X78858119Y-55581785D01*
X78953357Y-55534166D01*
X79096214Y-55534166D01*
X79191452Y-55581785D01*
X79239071Y-55629404D01*
X79286690Y-55724642D01*
X79286690Y-56105595D01*
X79096214Y-54677023D02*
X79762880Y-54677023D01*
X78715261Y-54915119D02*
X79429547Y-55153214D01*
X79429547Y-54534166D01*
%TO.C,J1*%
X33742380Y-58590833D02*
X34456666Y-58590833D01*
X34599523Y-58638452D01*
X34694761Y-58733690D01*
X34742380Y-58876547D01*
X34742380Y-58971785D01*
X34742380Y-57590833D02*
X34742380Y-58162261D01*
X34742380Y-57876547D02*
X33742380Y-57876547D01*
X33885238Y-57971785D01*
X33980476Y-58067023D01*
X34028095Y-58162261D01*
%TO.C,C1*%
X78843142Y-38076166D02*
X78890761Y-38123785D01*
X78938380Y-38266642D01*
X78938380Y-38361880D01*
X78890761Y-38504738D01*
X78795523Y-38599976D01*
X78700285Y-38647595D01*
X78509809Y-38695214D01*
X78366952Y-38695214D01*
X78176476Y-38647595D01*
X78081238Y-38599976D01*
X77986000Y-38504738D01*
X77938380Y-38361880D01*
X77938380Y-38266642D01*
X77986000Y-38123785D01*
X78033619Y-38076166D01*
X78938380Y-37123785D02*
X78938380Y-37695214D01*
X78938380Y-37409500D02*
X77938380Y-37409500D01*
X78081238Y-37504738D01*
X78176476Y-37599976D01*
X78224095Y-37695214D01*
%TO.C,R9*%
X43064133Y-37841180D02*
X42730800Y-37364990D01*
X42492704Y-37841180D02*
X42492704Y-36841180D01*
X42873657Y-36841180D01*
X42968895Y-36888800D01*
X43016514Y-36936419D01*
X43064133Y-37031657D01*
X43064133Y-37174514D01*
X43016514Y-37269752D01*
X42968895Y-37317371D01*
X42873657Y-37364990D01*
X42492704Y-37364990D01*
X43540323Y-37841180D02*
X43730800Y-37841180D01*
X43826038Y-37793561D01*
X43873657Y-37745942D01*
X43968895Y-37603085D01*
X44016514Y-37412609D01*
X44016514Y-37031657D01*
X43968895Y-36936419D01*
X43921276Y-36888800D01*
X43826038Y-36841180D01*
X43635561Y-36841180D01*
X43540323Y-36888800D01*
X43492704Y-36936419D01*
X43445085Y-37031657D01*
X43445085Y-37269752D01*
X43492704Y-37364990D01*
X43540323Y-37412609D01*
X43635561Y-37460228D01*
X43826038Y-37460228D01*
X43921276Y-37412609D01*
X43968895Y-37364990D01*
X44016514Y-37269752D01*
%TO.C,SW2*%
X58356666Y-64730261D02*
X58499523Y-64777880D01*
X58737619Y-64777880D01*
X58832857Y-64730261D01*
X58880476Y-64682642D01*
X58928095Y-64587404D01*
X58928095Y-64492166D01*
X58880476Y-64396928D01*
X58832857Y-64349309D01*
X58737619Y-64301690D01*
X58547142Y-64254071D01*
X58451904Y-64206452D01*
X58404285Y-64158833D01*
X58356666Y-64063595D01*
X58356666Y-63968357D01*
X58404285Y-63873119D01*
X58451904Y-63825500D01*
X58547142Y-63777880D01*
X58785238Y-63777880D01*
X58928095Y-63825500D01*
X59261428Y-63777880D02*
X59499523Y-64777880D01*
X59690000Y-64063595D01*
X59880476Y-64777880D01*
X60118571Y-63777880D01*
X60451904Y-63873119D02*
X60499523Y-63825500D01*
X60594761Y-63777880D01*
X60832857Y-63777880D01*
X60928095Y-63825500D01*
X60975714Y-63873119D01*
X61023333Y-63968357D01*
X61023333Y-64063595D01*
X60975714Y-64206452D01*
X60404285Y-64777880D01*
X61023333Y-64777880D01*
%TO.C,D2*%
X54300380Y-39028595D02*
X53300380Y-39028595D01*
X53300380Y-38790500D01*
X53348000Y-38647642D01*
X53443238Y-38552404D01*
X53538476Y-38504785D01*
X53728952Y-38457166D01*
X53871809Y-38457166D01*
X54062285Y-38504785D01*
X54157523Y-38552404D01*
X54252761Y-38647642D01*
X54300380Y-38790500D01*
X54300380Y-39028595D01*
X53395619Y-38076214D02*
X53348000Y-38028595D01*
X53300380Y-37933357D01*
X53300380Y-37695261D01*
X53348000Y-37600023D01*
X53395619Y-37552404D01*
X53490857Y-37504785D01*
X53586095Y-37504785D01*
X53728952Y-37552404D01*
X54300380Y-38123833D01*
X54300380Y-37504785D01*
%TO.C,D3*%
X54300380Y-42394095D02*
X53300380Y-42394095D01*
X53300380Y-42156000D01*
X53348000Y-42013142D01*
X53443238Y-41917904D01*
X53538476Y-41870285D01*
X53728952Y-41822666D01*
X53871809Y-41822666D01*
X54062285Y-41870285D01*
X54157523Y-41917904D01*
X54252761Y-42013142D01*
X54300380Y-42156000D01*
X54300380Y-42394095D01*
X53300380Y-41489333D02*
X53300380Y-40870285D01*
X53681333Y-41203619D01*
X53681333Y-41060761D01*
X53728952Y-40965523D01*
X53776571Y-40917904D01*
X53871809Y-40870285D01*
X54109904Y-40870285D01*
X54205142Y-40917904D01*
X54252761Y-40965523D01*
X54300380Y-41060761D01*
X54300380Y-41346476D01*
X54252761Y-41441714D01*
X54205142Y-41489333D01*
%TO.C,JP2*%
X50032666Y-43457880D02*
X50032666Y-44172166D01*
X49985047Y-44315023D01*
X49889809Y-44410261D01*
X49746952Y-44457880D01*
X49651714Y-44457880D01*
X50508857Y-44457880D02*
X50508857Y-43457880D01*
X50889809Y-43457880D01*
X50985047Y-43505500D01*
X51032666Y-43553119D01*
X51080285Y-43648357D01*
X51080285Y-43791214D01*
X51032666Y-43886452D01*
X50985047Y-43934071D01*
X50889809Y-43981690D01*
X50508857Y-43981690D01*
X51461238Y-43553119D02*
X51508857Y-43505500D01*
X51604095Y-43457880D01*
X51842190Y-43457880D01*
X51937428Y-43505500D01*
X51985047Y-43553119D01*
X52032666Y-43648357D01*
X52032666Y-43743595D01*
X51985047Y-43886452D01*
X51413619Y-44457880D01*
X52032666Y-44457880D01*
%TO.C,R7*%
X61174333Y-36964880D02*
X60841000Y-36488690D01*
X60602904Y-36964880D02*
X60602904Y-35964880D01*
X60983857Y-35964880D01*
X61079095Y-36012500D01*
X61126714Y-36060119D01*
X61174333Y-36155357D01*
X61174333Y-36298214D01*
X61126714Y-36393452D01*
X61079095Y-36441071D01*
X60983857Y-36488690D01*
X60602904Y-36488690D01*
X61507666Y-35964880D02*
X62174333Y-35964880D01*
X61745761Y-36964880D01*
%TO.C,R8*%
X66682880Y-41822666D02*
X66206690Y-42156000D01*
X66682880Y-42394095D02*
X65682880Y-42394095D01*
X65682880Y-42013142D01*
X65730500Y-41917904D01*
X65778119Y-41870285D01*
X65873357Y-41822666D01*
X66016214Y-41822666D01*
X66111452Y-41870285D01*
X66159071Y-41917904D01*
X66206690Y-42013142D01*
X66206690Y-42394095D01*
X66111452Y-41251238D02*
X66063833Y-41346476D01*
X66016214Y-41394095D01*
X65920976Y-41441714D01*
X65873357Y-41441714D01*
X65778119Y-41394095D01*
X65730500Y-41346476D01*
X65682880Y-41251238D01*
X65682880Y-41060761D01*
X65730500Y-40965523D01*
X65778119Y-40917904D01*
X65873357Y-40870285D01*
X65920976Y-40870285D01*
X66016214Y-40917904D01*
X66063833Y-40965523D01*
X66111452Y-41060761D01*
X66111452Y-41251238D01*
X66159071Y-41346476D01*
X66206690Y-41394095D01*
X66301928Y-41441714D01*
X66492404Y-41441714D01*
X66587642Y-41394095D01*
X66635261Y-41346476D01*
X66682880Y-41251238D01*
X66682880Y-41060761D01*
X66635261Y-40965523D01*
X66587642Y-40917904D01*
X66492404Y-40870285D01*
X66301928Y-40870285D01*
X66206690Y-40917904D01*
X66159071Y-40965523D01*
X66111452Y-41060761D01*
%TO.C,C11*%
X31107142Y-34266142D02*
X31059523Y-34313761D01*
X30916666Y-34361380D01*
X30821428Y-34361380D01*
X30678571Y-34313761D01*
X30583333Y-34218523D01*
X30535714Y-34123285D01*
X30488095Y-33932809D01*
X30488095Y-33789952D01*
X30535714Y-33599476D01*
X30583333Y-33504238D01*
X30678571Y-33409000D01*
X30821428Y-33361380D01*
X30916666Y-33361380D01*
X31059523Y-33409000D01*
X31107142Y-33456619D01*
X32059523Y-34361380D02*
X31488095Y-34361380D01*
X31773809Y-34361380D02*
X31773809Y-33361380D01*
X31678571Y-33504238D01*
X31583333Y-33599476D01*
X31488095Y-33647095D01*
X33011904Y-34361380D02*
X32440476Y-34361380D01*
X32726190Y-34361380D02*
X32726190Y-33361380D01*
X32630952Y-33504238D01*
X32535714Y-33599476D01*
X32440476Y-33647095D01*
%TO.C,C13*%
X27805142Y-42063942D02*
X27757523Y-42111561D01*
X27614666Y-42159180D01*
X27519428Y-42159180D01*
X27376571Y-42111561D01*
X27281333Y-42016323D01*
X27233714Y-41921085D01*
X27186095Y-41730609D01*
X27186095Y-41587752D01*
X27233714Y-41397276D01*
X27281333Y-41302038D01*
X27376571Y-41206800D01*
X27519428Y-41159180D01*
X27614666Y-41159180D01*
X27757523Y-41206800D01*
X27805142Y-41254419D01*
X28757523Y-42159180D02*
X28186095Y-42159180D01*
X28471809Y-42159180D02*
X28471809Y-41159180D01*
X28376571Y-41302038D01*
X28281333Y-41397276D01*
X28186095Y-41444895D01*
X29090857Y-41159180D02*
X29709904Y-41159180D01*
X29376571Y-41540133D01*
X29519428Y-41540133D01*
X29614666Y-41587752D01*
X29662285Y-41635371D01*
X29709904Y-41730609D01*
X29709904Y-41968704D01*
X29662285Y-42063942D01*
X29614666Y-42111561D01*
X29519428Y-42159180D01*
X29233714Y-42159180D01*
X29138476Y-42111561D01*
X29090857Y-42063942D01*
%TO.C,D6*%
X27122380Y-37314095D02*
X26122380Y-37314095D01*
X26122380Y-37076000D01*
X26170000Y-36933142D01*
X26265238Y-36837904D01*
X26360476Y-36790285D01*
X26550952Y-36742666D01*
X26693809Y-36742666D01*
X26884285Y-36790285D01*
X26979523Y-36837904D01*
X27074761Y-36933142D01*
X27122380Y-37076000D01*
X27122380Y-37314095D01*
X26122380Y-35885523D02*
X26122380Y-36076000D01*
X26170000Y-36171238D01*
X26217619Y-36218857D01*
X26360476Y-36314095D01*
X26550952Y-36361714D01*
X26931904Y-36361714D01*
X27027142Y-36314095D01*
X27074761Y-36266476D01*
X27122380Y-36171238D01*
X27122380Y-35980761D01*
X27074761Y-35885523D01*
X27027142Y-35837904D01*
X26931904Y-35790285D01*
X26693809Y-35790285D01*
X26598571Y-35837904D01*
X26550952Y-35885523D01*
X26503333Y-35980761D01*
X26503333Y-36171238D01*
X26550952Y-36266476D01*
X26598571Y-36314095D01*
X26693809Y-36361714D01*
%TO.C,L3*%
X20712133Y-37333180D02*
X20235942Y-37333180D01*
X20235942Y-36333180D01*
X20950228Y-36333180D02*
X21569276Y-36333180D01*
X21235942Y-36714133D01*
X21378800Y-36714133D01*
X21474038Y-36761752D01*
X21521657Y-36809371D01*
X21569276Y-36904609D01*
X21569276Y-37142704D01*
X21521657Y-37237942D01*
X21474038Y-37285561D01*
X21378800Y-37333180D01*
X21093085Y-37333180D01*
X20997847Y-37285561D01*
X20950228Y-37237942D01*
%TO.C,U4*%
X35545780Y-39241404D02*
X36355304Y-39241404D01*
X36450542Y-39193785D01*
X36498161Y-39146166D01*
X36545780Y-39050928D01*
X36545780Y-38860452D01*
X36498161Y-38765214D01*
X36450542Y-38717595D01*
X36355304Y-38669976D01*
X35545780Y-38669976D01*
X35879114Y-37765214D02*
X36545780Y-37765214D01*
X35498161Y-38003309D02*
X36212447Y-38241404D01*
X36212447Y-37622357D01*
%TO.C,R6*%
X79762880Y-52331666D02*
X79286690Y-52665000D01*
X79762880Y-52903095D02*
X78762880Y-52903095D01*
X78762880Y-52522142D01*
X78810500Y-52426904D01*
X78858119Y-52379285D01*
X78953357Y-52331666D01*
X79096214Y-52331666D01*
X79191452Y-52379285D01*
X79239071Y-52426904D01*
X79286690Y-52522142D01*
X79286690Y-52903095D01*
X78762880Y-51474523D02*
X78762880Y-51665000D01*
X78810500Y-51760238D01*
X78858119Y-51807857D01*
X79000976Y-51903095D01*
X79191452Y-51950714D01*
X79572404Y-51950714D01*
X79667642Y-51903095D01*
X79715261Y-51855476D01*
X79762880Y-51760238D01*
X79762880Y-51569761D01*
X79715261Y-51474523D01*
X79667642Y-51426904D01*
X79572404Y-51379285D01*
X79334309Y-51379285D01*
X79239071Y-51426904D01*
X79191452Y-51474523D01*
X79143833Y-51569761D01*
X79143833Y-51760238D01*
X79191452Y-51855476D01*
X79239071Y-51903095D01*
X79334309Y-51950714D01*
%TO.C,C8*%
X36028333Y-27598642D02*
X35980714Y-27646261D01*
X35837857Y-27693880D01*
X35742619Y-27693880D01*
X35599761Y-27646261D01*
X35504523Y-27551023D01*
X35456904Y-27455785D01*
X35409285Y-27265309D01*
X35409285Y-27122452D01*
X35456904Y-26931976D01*
X35504523Y-26836738D01*
X35599761Y-26741500D01*
X35742619Y-26693880D01*
X35837857Y-26693880D01*
X35980714Y-26741500D01*
X36028333Y-26789119D01*
X36599761Y-27122452D02*
X36504523Y-27074833D01*
X36456904Y-27027214D01*
X36409285Y-26931976D01*
X36409285Y-26884357D01*
X36456904Y-26789119D01*
X36504523Y-26741500D01*
X36599761Y-26693880D01*
X36790238Y-26693880D01*
X36885476Y-26741500D01*
X36933095Y-26789119D01*
X36980714Y-26884357D01*
X36980714Y-26931976D01*
X36933095Y-27027214D01*
X36885476Y-27074833D01*
X36790238Y-27122452D01*
X36599761Y-27122452D01*
X36504523Y-27170071D01*
X36456904Y-27217690D01*
X36409285Y-27312928D01*
X36409285Y-27503404D01*
X36456904Y-27598642D01*
X36504523Y-27646261D01*
X36599761Y-27693880D01*
X36790238Y-27693880D01*
X36885476Y-27646261D01*
X36933095Y-27598642D01*
X36980714Y-27503404D01*
X36980714Y-27312928D01*
X36933095Y-27217690D01*
X36885476Y-27170071D01*
X36790238Y-27122452D01*
%TO.C,C12*%
X27919442Y-55957742D02*
X27871823Y-56005361D01*
X27728966Y-56052980D01*
X27633728Y-56052980D01*
X27490871Y-56005361D01*
X27395633Y-55910123D01*
X27348014Y-55814885D01*
X27300395Y-55624409D01*
X27300395Y-55481552D01*
X27348014Y-55291076D01*
X27395633Y-55195838D01*
X27490871Y-55100600D01*
X27633728Y-55052980D01*
X27728966Y-55052980D01*
X27871823Y-55100600D01*
X27919442Y-55148219D01*
X28871823Y-56052980D02*
X28300395Y-56052980D01*
X28586109Y-56052980D02*
X28586109Y-55052980D01*
X28490871Y-55195838D01*
X28395633Y-55291076D01*
X28300395Y-55338695D01*
X29252776Y-55148219D02*
X29300395Y-55100600D01*
X29395633Y-55052980D01*
X29633728Y-55052980D01*
X29728966Y-55100600D01*
X29776585Y-55148219D01*
X29824204Y-55243457D01*
X29824204Y-55338695D01*
X29776585Y-55481552D01*
X29205157Y-56052980D01*
X29824204Y-56052980D01*
%TO.C,Y1*%
X70362809Y-37283190D02*
X70362809Y-37759380D01*
X70029476Y-36759380D02*
X70362809Y-37283190D01*
X70696142Y-36759380D01*
X71553285Y-37759380D02*
X70981857Y-37759380D01*
X71267571Y-37759380D02*
X71267571Y-36759380D01*
X71172333Y-36902238D01*
X71077095Y-36997476D01*
X70981857Y-37045095D01*
%TO.C,C3*%
X78848833Y-32459142D02*
X78801214Y-32506761D01*
X78658357Y-32554380D01*
X78563119Y-32554380D01*
X78420261Y-32506761D01*
X78325023Y-32411523D01*
X78277404Y-32316285D01*
X78229785Y-32125809D01*
X78229785Y-31982952D01*
X78277404Y-31792476D01*
X78325023Y-31697238D01*
X78420261Y-31602000D01*
X78563119Y-31554380D01*
X78658357Y-31554380D01*
X78801214Y-31602000D01*
X78848833Y-31649619D01*
X79182166Y-31554380D02*
X79801214Y-31554380D01*
X79467880Y-31935333D01*
X79610738Y-31935333D01*
X79705976Y-31982952D01*
X79753595Y-32030571D01*
X79801214Y-32125809D01*
X79801214Y-32363904D01*
X79753595Y-32459142D01*
X79705976Y-32506761D01*
X79610738Y-32554380D01*
X79325023Y-32554380D01*
X79229785Y-32506761D01*
X79182166Y-32459142D01*
%TO.C,C4*%
X62549833Y-32459142D02*
X62502214Y-32506761D01*
X62359357Y-32554380D01*
X62264119Y-32554380D01*
X62121261Y-32506761D01*
X62026023Y-32411523D01*
X61978404Y-32316285D01*
X61930785Y-32125809D01*
X61930785Y-31982952D01*
X61978404Y-31792476D01*
X62026023Y-31697238D01*
X62121261Y-31602000D01*
X62264119Y-31554380D01*
X62359357Y-31554380D01*
X62502214Y-31602000D01*
X62549833Y-31649619D01*
X63406976Y-31887714D02*
X63406976Y-32554380D01*
X63168880Y-31506761D02*
X62930785Y-32221047D01*
X63549833Y-32221047D01*
%TO.C,JP4*%
X87939666Y-54443380D02*
X87939666Y-55157666D01*
X87892047Y-55300523D01*
X87796809Y-55395761D01*
X87653952Y-55443380D01*
X87558714Y-55443380D01*
X88415857Y-55443380D02*
X88415857Y-54443380D01*
X88796809Y-54443380D01*
X88892047Y-54491000D01*
X88939666Y-54538619D01*
X88987285Y-54633857D01*
X88987285Y-54776714D01*
X88939666Y-54871952D01*
X88892047Y-54919571D01*
X88796809Y-54967190D01*
X88415857Y-54967190D01*
X89844428Y-54776714D02*
X89844428Y-55443380D01*
X89606333Y-54395761D02*
X89368238Y-55110047D01*
X89987285Y-55110047D01*
%TO.C,JP5*%
X91876666Y-54443380D02*
X91876666Y-55157666D01*
X91829047Y-55300523D01*
X91733809Y-55395761D01*
X91590952Y-55443380D01*
X91495714Y-55443380D01*
X92352857Y-55443380D02*
X92352857Y-54443380D01*
X92733809Y-54443380D01*
X92829047Y-54491000D01*
X92876666Y-54538619D01*
X92924285Y-54633857D01*
X92924285Y-54776714D01*
X92876666Y-54871952D01*
X92829047Y-54919571D01*
X92733809Y-54967190D01*
X92352857Y-54967190D01*
X93829047Y-54443380D02*
X93352857Y-54443380D01*
X93305238Y-54919571D01*
X93352857Y-54871952D01*
X93448095Y-54824333D01*
X93686190Y-54824333D01*
X93781428Y-54871952D01*
X93829047Y-54919571D01*
X93876666Y-55014809D01*
X93876666Y-55252904D01*
X93829047Y-55348142D01*
X93781428Y-55395761D01*
X93686190Y-55443380D01*
X93448095Y-55443380D01*
X93352857Y-55395761D01*
X93305238Y-55348142D01*
%TO.C,C5*%
X74183333Y-52177142D02*
X74135714Y-52224761D01*
X73992857Y-52272380D01*
X73897619Y-52272380D01*
X73754761Y-52224761D01*
X73659523Y-52129523D01*
X73611904Y-52034285D01*
X73564285Y-51843809D01*
X73564285Y-51700952D01*
X73611904Y-51510476D01*
X73659523Y-51415238D01*
X73754761Y-51320000D01*
X73897619Y-51272380D01*
X73992857Y-51272380D01*
X74135714Y-51320000D01*
X74183333Y-51367619D01*
X75088095Y-51272380D02*
X74611904Y-51272380D01*
X74564285Y-51748571D01*
X74611904Y-51700952D01*
X74707142Y-51653333D01*
X74945238Y-51653333D01*
X75040476Y-51700952D01*
X75088095Y-51748571D01*
X75135714Y-51843809D01*
X75135714Y-52081904D01*
X75088095Y-52177142D01*
X75040476Y-52224761D01*
X74945238Y-52272380D01*
X74707142Y-52272380D01*
X74611904Y-52224761D01*
X74564285Y-52177142D01*
%TO.C,D4*%
X39292304Y-37739580D02*
X39292304Y-36739580D01*
X39530400Y-36739580D01*
X39673257Y-36787200D01*
X39768495Y-36882438D01*
X39816114Y-36977676D01*
X39863733Y-37168152D01*
X39863733Y-37311009D01*
X39816114Y-37501485D01*
X39768495Y-37596723D01*
X39673257Y-37691961D01*
X39530400Y-37739580D01*
X39292304Y-37739580D01*
X40720876Y-37072914D02*
X40720876Y-37739580D01*
X40482780Y-36691961D02*
X40244685Y-37406247D01*
X40863733Y-37406247D01*
%TO.C,C10*%
X99290142Y-45092857D02*
X99337761Y-45140476D01*
X99385380Y-45283333D01*
X99385380Y-45378571D01*
X99337761Y-45521428D01*
X99242523Y-45616666D01*
X99147285Y-45664285D01*
X98956809Y-45711904D01*
X98813952Y-45711904D01*
X98623476Y-45664285D01*
X98528238Y-45616666D01*
X98433000Y-45521428D01*
X98385380Y-45378571D01*
X98385380Y-45283333D01*
X98433000Y-45140476D01*
X98480619Y-45092857D01*
X99385380Y-44140476D02*
X99385380Y-44711904D01*
X99385380Y-44426190D02*
X98385380Y-44426190D01*
X98528238Y-44521428D01*
X98623476Y-44616666D01*
X98671095Y-44711904D01*
X98385380Y-43521428D02*
X98385380Y-43426190D01*
X98433000Y-43330952D01*
X98480619Y-43283333D01*
X98575857Y-43235714D01*
X98766333Y-43188095D01*
X99004428Y-43188095D01*
X99194904Y-43235714D01*
X99290142Y-43283333D01*
X99337761Y-43330952D01*
X99385380Y-43426190D01*
X99385380Y-43521428D01*
X99337761Y-43616666D01*
X99290142Y-43664285D01*
X99194904Y-43711904D01*
X99004428Y-43759523D01*
X98766333Y-43759523D01*
X98575857Y-43711904D01*
X98480619Y-43664285D01*
X98433000Y-43616666D01*
X98385380Y-43521428D01*
%TO.C,R2*%
X99512380Y-41258666D02*
X99036190Y-41592000D01*
X99512380Y-41830095D02*
X98512380Y-41830095D01*
X98512380Y-41449142D01*
X98560000Y-41353904D01*
X98607619Y-41306285D01*
X98702857Y-41258666D01*
X98845714Y-41258666D01*
X98940952Y-41306285D01*
X98988571Y-41353904D01*
X99036190Y-41449142D01*
X99036190Y-41830095D01*
X98607619Y-40877714D02*
X98560000Y-40830095D01*
X98512380Y-40734857D01*
X98512380Y-40496761D01*
X98560000Y-40401523D01*
X98607619Y-40353904D01*
X98702857Y-40306285D01*
X98798095Y-40306285D01*
X98940952Y-40353904D01*
X99512380Y-40925333D01*
X99512380Y-40306285D01*
%TO.C,JP1*%
X100512666Y-40346380D02*
X100512666Y-41060666D01*
X100465047Y-41203523D01*
X100369809Y-41298761D01*
X100226952Y-41346380D01*
X100131714Y-41346380D01*
X100988857Y-41346380D02*
X100988857Y-40346380D01*
X101369809Y-40346380D01*
X101465047Y-40394000D01*
X101512666Y-40441619D01*
X101560285Y-40536857D01*
X101560285Y-40679714D01*
X101512666Y-40774952D01*
X101465047Y-40822571D01*
X101369809Y-40870190D01*
X100988857Y-40870190D01*
X102512666Y-41346380D02*
X101941238Y-41346380D01*
X102226952Y-41346380D02*
X102226952Y-40346380D01*
X102131714Y-40489238D01*
X102036476Y-40584476D01*
X101941238Y-40632095D01*
%TO.C,C9*%
X88987333Y-36171142D02*
X88939714Y-36218761D01*
X88796857Y-36266380D01*
X88701619Y-36266380D01*
X88558761Y-36218761D01*
X88463523Y-36123523D01*
X88415904Y-36028285D01*
X88368285Y-35837809D01*
X88368285Y-35694952D01*
X88415904Y-35504476D01*
X88463523Y-35409238D01*
X88558761Y-35314000D01*
X88701619Y-35266380D01*
X88796857Y-35266380D01*
X88939714Y-35314000D01*
X88987333Y-35361619D01*
X89463523Y-36266380D02*
X89654000Y-36266380D01*
X89749238Y-36218761D01*
X89796857Y-36171142D01*
X89892095Y-36028285D01*
X89939714Y-35837809D01*
X89939714Y-35456857D01*
X89892095Y-35361619D01*
X89844476Y-35314000D01*
X89749238Y-35266380D01*
X89558761Y-35266380D01*
X89463523Y-35314000D01*
X89415904Y-35361619D01*
X89368285Y-35456857D01*
X89368285Y-35694952D01*
X89415904Y-35790190D01*
X89463523Y-35837809D01*
X89558761Y-35885428D01*
X89749238Y-35885428D01*
X89844476Y-35837809D01*
X89892095Y-35790190D01*
X89939714Y-35694952D01*
%TO.C,Q1*%
X99726761Y-33869619D02*
X99631523Y-33822000D01*
X99536285Y-33726761D01*
X99393428Y-33583904D01*
X99298190Y-33536285D01*
X99202952Y-33536285D01*
X99250571Y-33774380D02*
X99155333Y-33726761D01*
X99060095Y-33631523D01*
X99012476Y-33441047D01*
X99012476Y-33107714D01*
X99060095Y-32917238D01*
X99155333Y-32822000D01*
X99250571Y-32774380D01*
X99441047Y-32774380D01*
X99536285Y-32822000D01*
X99631523Y-32917238D01*
X99679142Y-33107714D01*
X99679142Y-33441047D01*
X99631523Y-33631523D01*
X99536285Y-33726761D01*
X99441047Y-33774380D01*
X99250571Y-33774380D01*
X100631523Y-33774380D02*
X100060095Y-33774380D01*
X100345809Y-33774380D02*
X100345809Y-32774380D01*
X100250571Y-32917238D01*
X100155333Y-33012476D01*
X100060095Y-33060095D01*
%TO.C,U1*%
X92329095Y-40049380D02*
X92329095Y-40858904D01*
X92376714Y-40954142D01*
X92424333Y-41001761D01*
X92519571Y-41049380D01*
X92710047Y-41049380D01*
X92805285Y-41001761D01*
X92852904Y-40954142D01*
X92900523Y-40858904D01*
X92900523Y-40049380D01*
X93900523Y-41049380D02*
X93329095Y-41049380D01*
X93614809Y-41049380D02*
X93614809Y-40049380D01*
X93519571Y-40192238D01*
X93424333Y-40287476D01*
X93329095Y-40335095D01*
%TO.C,C2*%
X88860333Y-45217142D02*
X88812714Y-45264761D01*
X88669857Y-45312380D01*
X88574619Y-45312380D01*
X88431761Y-45264761D01*
X88336523Y-45169523D01*
X88288904Y-45074285D01*
X88241285Y-44883809D01*
X88241285Y-44740952D01*
X88288904Y-44550476D01*
X88336523Y-44455238D01*
X88431761Y-44360000D01*
X88574619Y-44312380D01*
X88669857Y-44312380D01*
X88812714Y-44360000D01*
X88860333Y-44407619D01*
X89241285Y-44407619D02*
X89288904Y-44360000D01*
X89384142Y-44312380D01*
X89622238Y-44312380D01*
X89717476Y-44360000D01*
X89765095Y-44407619D01*
X89812714Y-44502857D01*
X89812714Y-44598095D01*
X89765095Y-44740952D01*
X89193666Y-45312380D01*
X89812714Y-45312380D01*
D11*
%TO.C,R3*%
X103745000Y-52598064D02*
X103745000Y-52143936D01*
X102275000Y-52598064D02*
X102275000Y-52143936D01*
%TO.C,SW1*%
X98390000Y-50201000D02*
X98690000Y-50201000D01*
X101530000Y-54341000D02*
X101230000Y-54341000D01*
X98390000Y-54341000D02*
X98390000Y-50201000D01*
X101530000Y-50201000D02*
X101530000Y-54341000D01*
X101230000Y-50201000D02*
X101530000Y-50201000D01*
X98690000Y-54341000D02*
X98390000Y-54341000D01*
D10*
%TO.C,U3*%
X78720000Y-41955000D02*
X78720000Y-40530000D01*
X71695000Y-49205000D02*
X72020000Y-49205000D01*
X78945000Y-41955000D02*
X78720000Y-41955000D01*
X78945000Y-41955000D02*
X78945000Y-42280000D01*
X71695000Y-41955000D02*
X71695000Y-42280000D01*
X78945000Y-49205000D02*
X78945000Y-48880000D01*
X71695000Y-41955000D02*
X72020000Y-41955000D01*
X78945000Y-49205000D02*
X78620000Y-49205000D01*
X71695000Y-49205000D02*
X71695000Y-48880000D01*
D11*
%TO.C,U2*%
X84755000Y-61925000D02*
X82805000Y-61925000D01*
X84755000Y-61925000D02*
X86705000Y-61925000D01*
X84755000Y-56805000D02*
X81305000Y-56805000D01*
X84755000Y-56805000D02*
X86705000Y-56805000D01*
%TO.C,JP3*%
X93170000Y-62980000D02*
X93170000Y-60320000D01*
X90570000Y-62980000D02*
X90570000Y-61650000D01*
X93170000Y-60320000D02*
X95770000Y-60320000D01*
X95770000Y-62980000D02*
X95770000Y-60320000D01*
X93170000Y-62980000D02*
X95770000Y-62980000D01*
X91900000Y-62980000D02*
X90570000Y-62980000D01*
%TO.C,J6*%
X21331000Y-62300000D02*
X21331000Y-59250000D01*
X21331000Y-56200000D02*
X21331000Y-59250000D01*
X26831000Y-56400000D02*
X26831000Y-55150000D01*
X25781000Y-59750000D02*
X26531000Y-59750000D01*
X24281000Y-55450000D02*
X24281000Y-56200000D01*
X25781000Y-61250000D02*
X25781000Y-63050000D01*
X24281000Y-62300000D02*
X21331000Y-62300000D01*
X26531000Y-61250000D02*
X25781000Y-61250000D01*
X20571000Y-55440000D02*
X20571000Y-63060000D01*
X25781000Y-57250000D02*
X26531000Y-57250000D01*
X26531000Y-55450000D02*
X25781000Y-55450000D01*
X20571000Y-63060000D02*
X26541000Y-63060000D01*
X26541000Y-63060000D02*
X26541000Y-55440000D01*
X26531000Y-59750000D02*
X26531000Y-58750000D01*
X26831000Y-55150000D02*
X25581000Y-55150000D01*
X26531000Y-57250000D02*
X26531000Y-55450000D01*
X25781000Y-63050000D02*
X26531000Y-63050000D01*
X26541000Y-55440000D02*
X20571000Y-55440000D01*
X25781000Y-58750000D02*
X25781000Y-59750000D01*
X24281000Y-63050000D02*
X24281000Y-62300000D01*
X24281000Y-56200000D02*
X21331000Y-56200000D01*
X26531000Y-63050000D02*
X26531000Y-61250000D01*
X26531000Y-58750000D02*
X25781000Y-58750000D01*
X25781000Y-55450000D02*
X25781000Y-57250000D01*
%TO.C,J2*%
X21120000Y-21380000D02*
X20380000Y-21380000D01*
X30541000Y-31740000D02*
X20620000Y-31740000D01*
X24257000Y-27953000D02*
X24211000Y-27906000D01*
X27581000Y-21620000D02*
X27581000Y-31740000D01*
X26349000Y-30455000D02*
X26303000Y-30408000D01*
X30541000Y-21620000D02*
X20620000Y-21620000D01*
X24041000Y-28146000D02*
X24006000Y-28111000D01*
X20620000Y-21620000D02*
X20620000Y-31740000D01*
X22680000Y-21620000D02*
X22680000Y-31740000D01*
X20380000Y-21380000D02*
X20380000Y-21880000D01*
X26555000Y-30250000D02*
X26519000Y-30215000D01*
X21180000Y-21620000D02*
X21180000Y-31740000D01*
X30541000Y-21620000D02*
X30541000Y-31740000D01*
X23600000Y-24180000D02*
G75*
G03*
X23745244Y-24863318I1680000J0D01*
G01*
X23745000Y-23496000D02*
G75*
G03*
X23599747Y-24208805I1535001J-683999D01*
G01*
X24596000Y-25715001D02*
G75*
G03*
X25963042Y-25715427I684000J1535001D01*
G01*
X26815000Y-24864000D02*
G75*
G03*
X26815427Y-23496958I-1534993J684001D01*
G01*
X25964000Y-22645000D02*
G75*
G03*
X24596958Y-22644573I-684001J-1534993D01*
G01*
X26960000Y-29180000D02*
G75*
G03*
X26960000Y-29180000I-1680000J0D01*
G01*
%TO.C,J3*%
X113525000Y-23260000D02*
X113561000Y-23295000D01*
X118900000Y-31890000D02*
X118900000Y-21770000D01*
X115823000Y-25557000D02*
X115869000Y-25604000D01*
X119700000Y-32130000D02*
X119700000Y-31630000D01*
X109539000Y-31890000D02*
X119460000Y-31890000D01*
X119460000Y-31890000D02*
X119460000Y-21770000D01*
X113731000Y-23055000D02*
X113777000Y-23102000D01*
X109539000Y-31890000D02*
X109539000Y-21770000D01*
X116039000Y-25364000D02*
X116074000Y-25399000D01*
X117400000Y-31890000D02*
X117400000Y-21770000D01*
X112499000Y-31890000D02*
X112499000Y-21770000D01*
X109539000Y-21770000D02*
X119460000Y-21770000D01*
X118960000Y-32130000D02*
X119700000Y-32130000D01*
X114116000Y-30865000D02*
G75*
G03*
X115483042Y-30865427I684001J1534993D01*
G01*
X113265000Y-28646000D02*
G75*
G03*
X113264573Y-30013042I1534993J-684001D01*
G01*
X115484000Y-27794999D02*
G75*
G03*
X114116958Y-27794573I-684000J-1535001D01*
G01*
X116335000Y-30014000D02*
G75*
G03*
X116480253Y-29301195I-1535001J683999D01*
G01*
X116480000Y-29330000D02*
G75*
G03*
X116334756Y-28646682I-1680000J0D01*
G01*
X116480000Y-24330000D02*
G75*
G03*
X116480000Y-24330000I-1680000J0D01*
G01*
%TO.C,J5*%
X114310000Y-57300000D02*
X114310000Y-55500000D01*
X114310000Y-55500000D02*
X113560000Y-55500000D01*
X115810000Y-62350000D02*
X118760000Y-62350000D01*
X113560000Y-57300000D02*
X114310000Y-57300000D01*
X119520000Y-63110000D02*
X119520000Y-55490000D01*
X113260000Y-63400000D02*
X114510000Y-63400000D01*
X113550000Y-63110000D02*
X119520000Y-63110000D01*
X113550000Y-55490000D02*
X113550000Y-63110000D01*
X113260000Y-62150000D02*
X113260000Y-63400000D01*
X113560000Y-61300000D02*
X113560000Y-63100000D01*
X118760000Y-56250000D02*
X118760000Y-59300000D01*
X115810000Y-55500000D02*
X115810000Y-56250000D01*
X119520000Y-55490000D02*
X113550000Y-55490000D01*
X113560000Y-59800000D02*
X114310000Y-59800000D01*
X113560000Y-55500000D02*
X113560000Y-57300000D01*
X113560000Y-63100000D02*
X114310000Y-63100000D01*
X113560000Y-58800000D02*
X113560000Y-59800000D01*
X114310000Y-61300000D02*
X113560000Y-61300000D01*
X114310000Y-59800000D02*
X114310000Y-58800000D01*
X115810000Y-56250000D02*
X118760000Y-56250000D01*
X114310000Y-63100000D02*
X114310000Y-61300000D01*
X114310000Y-58800000D02*
X113560000Y-58800000D01*
X115810000Y-63100000D02*
X115810000Y-62350000D01*
X118760000Y-62350000D02*
X118760000Y-59300000D01*
%TO.C,R1*%
X76808064Y-59409000D02*
X76353936Y-59409000D01*
X76808064Y-57939000D02*
X76353936Y-57939000D01*
%TO.C,R5*%
X91712936Y-57975000D02*
X92167064Y-57975000D01*
X91712936Y-59445000D02*
X92167064Y-59445000D01*
%TO.C,C6*%
X82096000Y-36094800D02*
X82096000Y-37310800D01*
X82897000Y-38990800D02*
X82897000Y-39910800D01*
X82617000Y-36243800D02*
X82617000Y-37310800D01*
X83737000Y-37382800D02*
X83737000Y-38918800D01*
X82216000Y-38990800D02*
X82216000Y-40184800D01*
X81976000Y-38990800D02*
X81976000Y-40221800D01*
X81776000Y-38990800D02*
X81776000Y-40230800D01*
X83137000Y-36563800D02*
X83137000Y-37310800D01*
X83497000Y-36950800D02*
X83497000Y-39350800D01*
X83257000Y-36672800D02*
X83257000Y-37310800D01*
X82577000Y-36226800D02*
X82577000Y-37310800D01*
X82977000Y-38990800D02*
X82977000Y-39858800D01*
X79706199Y-36755800D02*
X79706199Y-37155800D01*
X82577000Y-38990800D02*
X82577000Y-40074800D01*
X83177000Y-36598800D02*
X83177000Y-37310800D01*
X82817000Y-36342800D02*
X82817000Y-37310800D01*
X83457000Y-36896800D02*
X83457000Y-39404800D01*
X82777000Y-36320800D02*
X82777000Y-37310800D01*
X82937000Y-36415800D02*
X82937000Y-37310800D01*
X82176000Y-38990800D02*
X82176000Y-40192800D01*
X83217000Y-38990800D02*
X83217000Y-39666800D01*
X81816000Y-36070800D02*
X81816000Y-37310800D01*
X82256000Y-36125800D02*
X82256000Y-37310800D01*
X83217000Y-36634800D02*
X83217000Y-37310800D01*
X79506199Y-36955800D02*
X79906199Y-36955800D01*
X82416000Y-38990800D02*
X82416000Y-40132800D01*
X82336000Y-36145800D02*
X82336000Y-37310800D01*
X83417000Y-36846800D02*
X83417000Y-39454800D01*
X82537000Y-38990800D02*
X82537000Y-40090800D01*
X83377000Y-36799800D02*
X83377000Y-39501800D01*
X82256000Y-38990800D02*
X82256000Y-40175800D01*
X82456000Y-36182800D02*
X82456000Y-37310800D01*
X82136000Y-38990800D02*
X82136000Y-40200800D01*
X83297000Y-38990800D02*
X83297000Y-39588800D01*
X82176000Y-36108800D02*
X82176000Y-37310800D01*
X83057000Y-36500800D02*
X83057000Y-37310800D01*
X83337000Y-38990800D02*
X83337000Y-39546800D01*
X82376000Y-36156800D02*
X82376000Y-37310800D01*
X83017000Y-38990800D02*
X83017000Y-39830800D01*
X82416000Y-36168800D02*
X82416000Y-37310800D01*
X82096000Y-38990800D02*
X82096000Y-40206800D01*
X83297000Y-36712800D02*
X83297000Y-37310800D01*
X82056000Y-36088800D02*
X82056000Y-37310800D01*
X83617000Y-37137800D02*
X83617000Y-39163800D01*
X81856000Y-38990800D02*
X81856000Y-40229800D01*
X83097000Y-36531800D02*
X83097000Y-37310800D01*
X83257000Y-38990800D02*
X83257000Y-39628800D01*
X82336000Y-38990800D02*
X82336000Y-40155800D01*
X82497000Y-36196800D02*
X82497000Y-37310800D01*
X83777000Y-37486800D02*
X83777000Y-38814800D01*
X82697000Y-38990800D02*
X82697000Y-40020800D01*
X82697000Y-36280800D02*
X82697000Y-37310800D01*
X82456000Y-38990800D02*
X82456000Y-40118800D01*
X83017000Y-36470800D02*
X83017000Y-37310800D01*
X82737000Y-38990800D02*
X82737000Y-40001800D01*
X82777000Y-38990800D02*
X82777000Y-39980800D01*
X83097000Y-38990800D02*
X83097000Y-39769800D01*
X81896000Y-38990800D02*
X81896000Y-40227800D01*
X82056000Y-38990800D02*
X82056000Y-40212800D01*
X82016000Y-38990800D02*
X82016000Y-40217800D01*
X82977000Y-36442800D02*
X82977000Y-37310800D01*
X81976000Y-36079800D02*
X81976000Y-37310800D01*
X82937000Y-38990800D02*
X82937000Y-39885800D01*
X82016000Y-36083800D02*
X82016000Y-37310800D01*
X81776000Y-36070800D02*
X81776000Y-37310800D01*
X83537000Y-37008800D02*
X83537000Y-39292800D01*
X81856000Y-36071800D02*
X81856000Y-37310800D01*
X82296000Y-38990800D02*
X82296000Y-40166800D01*
X83057000Y-38990800D02*
X83057000Y-39800800D01*
X82857000Y-36365800D02*
X82857000Y-37310800D01*
X83577000Y-37070800D02*
X83577000Y-39230800D01*
X82897000Y-36390800D02*
X82897000Y-37310800D01*
X83137000Y-38990800D02*
X83137000Y-39737800D01*
X82617000Y-38990800D02*
X82617000Y-40057800D01*
X82817000Y-38990800D02*
X82817000Y-39958800D01*
X82216000Y-36116800D02*
X82216000Y-37310800D01*
X81936000Y-38990800D02*
X81936000Y-40224800D01*
X83857000Y-37780800D02*
X83857000Y-38520800D01*
X82296000Y-36134800D02*
X82296000Y-37310800D01*
X83177000Y-38990800D02*
X83177000Y-39702800D01*
X82376000Y-38990800D02*
X82376000Y-40144800D01*
X82657000Y-38990800D02*
X82657000Y-40039800D01*
X81896000Y-36073800D02*
X81896000Y-37310800D01*
X81816000Y-38990800D02*
X81816000Y-40230800D01*
X83697000Y-37291800D02*
X83697000Y-39009800D01*
X82857000Y-38990800D02*
X82857000Y-39935800D01*
X83657000Y-37210800D02*
X83657000Y-39090800D01*
X82497000Y-38990800D02*
X82497000Y-40104800D01*
X81936000Y-36076800D02*
X81936000Y-37310800D01*
X83817000Y-37613800D02*
X83817000Y-38687800D01*
X82737000Y-36299800D02*
X82737000Y-37310800D01*
X82136000Y-36100800D02*
X82136000Y-37310800D01*
X82657000Y-36261800D02*
X82657000Y-37310800D01*
X82537000Y-36210800D02*
X82537000Y-37310800D01*
X83337000Y-36754800D02*
X83337000Y-37310800D01*
X83896000Y-38150800D02*
G75*
G03*
X83896000Y-38150800I-2120000J0D01*
G01*
%TO.C,C7*%
X69010000Y-54771000D02*
X68090000Y-54771000D01*
X71610000Y-54771000D02*
X70690000Y-54771000D01*
X71328000Y-55131000D02*
X70690000Y-55131000D01*
X71104000Y-55331000D02*
X68596000Y-55331000D01*
X71927000Y-53770000D02*
X70690000Y-53770000D01*
X71245000Y-51580199D02*
X70845000Y-51580199D01*
X69010000Y-55211000D02*
X68454000Y-55211000D01*
X69010000Y-54170000D02*
X67834000Y-54170000D01*
X71246000Y-55211000D02*
X70690000Y-55211000D01*
X69010000Y-54451000D02*
X67926000Y-54451000D01*
X71832000Y-54290000D02*
X70690000Y-54290000D01*
X71921000Y-53850000D02*
X70690000Y-53850000D01*
X70992000Y-55411000D02*
X68708000Y-55411000D01*
X71154000Y-55291000D02*
X68546000Y-55291000D01*
X69010000Y-54931000D02*
X68200000Y-54931000D01*
X69010000Y-54611000D02*
X67999000Y-54611000D01*
X71917000Y-53890000D02*
X70690000Y-53890000D01*
X69010000Y-54290000D02*
X67868000Y-54290000D01*
X69010000Y-54691000D02*
X68042000Y-54691000D01*
X71866000Y-54170000D02*
X70690000Y-54170000D01*
X69010000Y-54010000D02*
X67800000Y-54010000D01*
X71930000Y-53690000D02*
X70690000Y-53690000D01*
X70790000Y-55531000D02*
X68910000Y-55531000D01*
X69010000Y-55171000D02*
X68412000Y-55171000D01*
X69010000Y-53850000D02*
X67779000Y-53850000D01*
X69010000Y-53730000D02*
X67771000Y-53730000D01*
X69010000Y-54411000D02*
X67910000Y-54411000D01*
X71774000Y-54451000D02*
X70690000Y-54451000D01*
X71402000Y-55051000D02*
X70690000Y-55051000D01*
X71050000Y-55371000D02*
X68650000Y-55371000D01*
X71875000Y-54130000D02*
X70690000Y-54130000D01*
X71900000Y-54010000D02*
X70690000Y-54010000D01*
X70220000Y-55731000D02*
X69480000Y-55731000D01*
X69010000Y-54731000D02*
X68065000Y-54731000D01*
X69010000Y-54891000D02*
X68170000Y-54891000D01*
X71892000Y-54050000D02*
X70690000Y-54050000D01*
X69010000Y-53770000D02*
X67773000Y-53770000D01*
X71366000Y-55091000D02*
X70690000Y-55091000D01*
X71701000Y-54611000D02*
X70690000Y-54611000D01*
X71818000Y-54330000D02*
X70690000Y-54330000D01*
X71884000Y-54090000D02*
X70690000Y-54090000D01*
X69010000Y-54651000D02*
X68020000Y-54651000D01*
X69010000Y-54130000D02*
X67825000Y-54130000D01*
X69010000Y-54851000D02*
X68142000Y-54851000D01*
X69010000Y-55051000D02*
X68298000Y-55051000D01*
X69010000Y-54050000D02*
X67808000Y-54050000D01*
X70514000Y-55651000D02*
X69186000Y-55651000D01*
X69010000Y-53930000D02*
X67788000Y-53930000D01*
X71680000Y-54651000D02*
X70690000Y-54651000D01*
X71500000Y-54931000D02*
X70690000Y-54931000D01*
X69010000Y-54491000D02*
X67943000Y-54491000D01*
X71757000Y-54491000D02*
X70690000Y-54491000D01*
X71201000Y-55251000D02*
X68499000Y-55251000D01*
X71558000Y-54851000D02*
X70690000Y-54851000D01*
X70709000Y-55571000D02*
X68991000Y-55571000D01*
X71045000Y-51380199D02*
X71045000Y-51780199D01*
X69010000Y-54330000D02*
X67882000Y-54330000D01*
X69010000Y-55011000D02*
X68263000Y-55011000D01*
X69010000Y-54371000D02*
X67896000Y-54371000D01*
X71844000Y-54250000D02*
X70690000Y-54250000D01*
X69010000Y-53810000D02*
X67776000Y-53810000D01*
X71930000Y-53650000D02*
X70690000Y-53650000D01*
X70863000Y-55491000D02*
X68837000Y-55491000D01*
X71804000Y-54371000D02*
X70690000Y-54371000D01*
X71855000Y-54210000D02*
X70690000Y-54210000D01*
X69010000Y-54971000D02*
X68231000Y-54971000D01*
X69010000Y-55091000D02*
X68334000Y-55091000D01*
X69010000Y-54210000D02*
X67845000Y-54210000D01*
X71635000Y-54731000D02*
X70690000Y-54731000D01*
X69010000Y-54571000D02*
X67980000Y-54571000D01*
X71720000Y-54571000D02*
X70690000Y-54571000D01*
X69010000Y-53690000D02*
X67770000Y-53690000D01*
X71469000Y-54971000D02*
X70690000Y-54971000D01*
X71585000Y-54811000D02*
X70690000Y-54811000D01*
X71288000Y-55171000D02*
X70690000Y-55171000D01*
X71790000Y-54411000D02*
X70690000Y-54411000D01*
X71658000Y-54691000D02*
X70690000Y-54691000D01*
X70618000Y-55611000D02*
X69082000Y-55611000D01*
X71530000Y-54891000D02*
X70690000Y-54891000D01*
X70387000Y-55691000D02*
X69313000Y-55691000D01*
X71924000Y-53810000D02*
X70690000Y-53810000D01*
X69010000Y-54811000D02*
X68115000Y-54811000D01*
X69010000Y-53890000D02*
X67783000Y-53890000D01*
X69010000Y-54090000D02*
X67816000Y-54090000D01*
X69010000Y-54250000D02*
X67856000Y-54250000D01*
X71906000Y-53970000D02*
X70690000Y-53970000D01*
X71739000Y-54531000D02*
X70690000Y-54531000D01*
X71929000Y-53730000D02*
X70690000Y-53730000D01*
X70930000Y-55451000D02*
X68770000Y-55451000D01*
X69010000Y-54531000D02*
X67961000Y-54531000D01*
X71437000Y-55011000D02*
X70690000Y-55011000D01*
X69010000Y-53970000D02*
X67794000Y-53970000D01*
X71912000Y-53930000D02*
X70690000Y-53930000D01*
X69010000Y-55131000D02*
X68372000Y-55131000D01*
X69010000Y-53650000D02*
X67770000Y-53650000D01*
X71970000Y-53650000D02*
G75*
G03*
X71970000Y-53650000I-2120000J0D01*
G01*
%TO.C,R4*%
X81544936Y-56107000D02*
X81999064Y-56107000D01*
X81544936Y-54637000D02*
X81999064Y-54637000D01*
%TO.C,J1*%
X45669000Y-53307500D02*
X46169000Y-52307500D01*
X45179000Y-55007500D02*
X49579000Y-55007500D01*
X41079000Y-55007500D02*
X41079000Y-53697500D01*
X45169000Y-52307500D02*
X45669000Y-53307500D01*
X41079000Y-55007500D02*
X41079000Y-55007500D01*
X36679000Y-55007500D02*
X41079000Y-55007500D01*
X50879000Y-62817500D02*
X35379000Y-62817500D01*
X35379000Y-62817500D02*
X35379000Y-53697500D01*
X49579000Y-61507500D02*
X36679000Y-61507500D01*
X36679000Y-61507500D02*
X36679000Y-55007500D01*
X50879000Y-53697500D02*
X50879000Y-62817500D01*
X35379000Y-53697500D02*
X50879000Y-53697500D01*
X49579000Y-55007500D02*
X49579000Y-61507500D01*
X46169000Y-52307500D02*
X45169000Y-52307500D01*
X45179000Y-53697500D02*
X45179000Y-55007500D01*
%TO.C,C1*%
X76158752Y-38705000D02*
X75636248Y-38705000D01*
X76158752Y-37235000D02*
X75636248Y-37235000D01*
%TO.C,R9*%
X42320800Y-39786536D02*
X42320800Y-41240664D01*
X44140800Y-39786536D02*
X44140800Y-41240664D01*
%TO.C,SW2*%
X57880000Y-58639000D02*
X59086667Y-58639000D01*
X57880000Y-54159000D02*
X59086667Y-54159000D01*
X57880000Y-59239000D02*
X59086667Y-59239000D01*
X57880000Y-58159000D02*
X59086667Y-58159000D01*
X57880000Y-61659000D02*
X59086667Y-61659000D01*
X57880000Y-56219000D02*
X59086667Y-56219000D01*
X57880000Y-56099000D02*
X59086667Y-56099000D01*
X56280000Y-51484000D02*
X63100000Y-51484000D01*
X57880000Y-55979000D02*
X59086667Y-55979000D01*
X59086667Y-55499000D02*
X59086667Y-56769000D01*
X56280000Y-56934000D02*
X56280000Y-57874000D01*
X57880000Y-53559000D02*
X59086667Y-53559000D01*
X57880000Y-55619000D02*
X59086667Y-55619000D01*
X56280000Y-62014000D02*
X56280000Y-63324000D01*
X61500000Y-52959000D02*
X57880000Y-52959000D01*
X57880000Y-60579000D02*
X57880000Y-61849000D01*
X59086667Y-52959000D02*
X59086667Y-54229000D01*
X57880000Y-55859000D02*
X59086667Y-55859000D01*
X57880000Y-53079000D02*
X59086667Y-53079000D01*
X63100000Y-56934000D02*
X63100000Y-57874000D01*
X57880000Y-61059000D02*
X59086667Y-61059000D01*
X56280000Y-63324000D02*
X63100000Y-63324000D01*
X56280000Y-51484000D02*
X56280000Y-52794000D01*
X61500000Y-60579000D02*
X57880000Y-60579000D01*
X57880000Y-58279000D02*
X59086667Y-58279000D01*
X57880000Y-61419000D02*
X59086667Y-61419000D01*
X57880000Y-53319000D02*
X59086667Y-53319000D01*
X56040000Y-51244000D02*
X56040000Y-52627000D01*
X61500000Y-61849000D02*
X61500000Y-60579000D01*
X57880000Y-56579000D02*
X59086667Y-56579000D01*
X57880000Y-58879000D02*
X59086667Y-58879000D01*
X57880000Y-56699000D02*
X59086667Y-56699000D01*
X57880000Y-60699000D02*
X59086667Y-60699000D01*
X57880000Y-59309000D02*
X61500000Y-59309000D01*
X56280000Y-59474000D02*
X56280000Y-60414000D01*
X59086667Y-60579000D02*
X59086667Y-61849000D01*
X57880000Y-61299000D02*
X59086667Y-61299000D01*
X57880000Y-56339000D02*
X59086667Y-56339000D01*
X57880000Y-60939000D02*
X59086667Y-60939000D01*
X57880000Y-56459000D02*
X59086667Y-56459000D01*
X57880000Y-53799000D02*
X59086667Y-53799000D01*
X57880000Y-60819000D02*
X59086667Y-60819000D01*
X57880000Y-55739000D02*
X59086667Y-55739000D01*
X57880000Y-53199000D02*
X59086667Y-53199000D01*
X63100000Y-54394000D02*
X63100000Y-55334000D01*
X63100000Y-51484000D02*
X63100000Y-52794000D01*
X57880000Y-59119000D02*
X59086667Y-59119000D01*
X57880000Y-58759000D02*
X59086667Y-58759000D01*
X57880000Y-61179000D02*
X59086667Y-61179000D01*
X63100000Y-59474000D02*
X63100000Y-60414000D01*
X61500000Y-56769000D02*
X61500000Y-55499000D01*
X57880000Y-53919000D02*
X59086667Y-53919000D01*
X61500000Y-55499000D02*
X57880000Y-55499000D01*
X57880000Y-53439000D02*
X59086667Y-53439000D01*
X57880000Y-54229000D02*
X61500000Y-54229000D01*
X57880000Y-55499000D02*
X57880000Y-56769000D01*
X56280000Y-54394000D02*
X56280000Y-55334000D01*
X61500000Y-59309000D02*
X61500000Y-58039000D01*
X56040000Y-51244000D02*
X57423000Y-51244000D01*
X57880000Y-58039000D02*
X57880000Y-59309000D01*
X57880000Y-61849000D02*
X61500000Y-61849000D01*
X57880000Y-53679000D02*
X59086667Y-53679000D01*
X57880000Y-58399000D02*
X59086667Y-58399000D01*
X63100000Y-62014000D02*
X63100000Y-63324000D01*
X57880000Y-56769000D02*
X61500000Y-56769000D01*
X57880000Y-61539000D02*
X59086667Y-61539000D01*
X57880000Y-52959000D02*
X57880000Y-54229000D01*
X61500000Y-54229000D02*
X61500000Y-52959000D01*
X59086667Y-58039000D02*
X59086667Y-59309000D01*
X57880000Y-61779000D02*
X59086667Y-61779000D01*
X61500000Y-58039000D02*
X57880000Y-58039000D01*
X57880000Y-58519000D02*
X59086667Y-58519000D01*
X57880000Y-54039000D02*
X59086667Y-54039000D01*
X57880000Y-58999000D02*
X59086667Y-58999000D01*
%TO.C,D2*%
X54640000Y-39435000D02*
X58700000Y-39435000D01*
X54640000Y-37165000D02*
X54640000Y-39435000D01*
X58700000Y-37165000D02*
X54640000Y-37165000D01*
%TO.C,D3*%
X54640000Y-42825000D02*
X58700000Y-42825000D01*
X58700000Y-40555000D02*
X54640000Y-40555000D01*
X54640000Y-40555000D02*
X54640000Y-42825000D01*
%TO.C,JP2*%
X49536000Y-40200000D02*
X49536000Y-42800000D01*
X49536000Y-37600000D02*
X50866000Y-37600000D01*
X49536000Y-38930000D02*
X49536000Y-37600000D01*
X49536000Y-40200000D02*
X52196000Y-40200000D01*
X52196000Y-40200000D02*
X52196000Y-42800000D01*
X49536000Y-42800000D02*
X52196000Y-42800000D01*
%TO.C,R7*%
X62317936Y-37390000D02*
X63772064Y-37390000D01*
X62317936Y-39210000D02*
X63772064Y-39210000D01*
%TO.C,R8*%
X62317936Y-42610000D02*
X63772064Y-42610000D01*
X62317936Y-40790000D02*
X63772064Y-40790000D01*
%TO.C,C11*%
X32671652Y-36295000D02*
X32149148Y-36295000D01*
X32671652Y-34825000D02*
X32149148Y-34825000D01*
%TO.C,C13*%
X29183000Y-44065648D02*
X29183000Y-44588152D01*
X27713000Y-44065648D02*
X27713000Y-44588152D01*
%TO.C,D6*%
X29498800Y-36077600D02*
X29498800Y-39977600D01*
X29498800Y-36077600D02*
X27498800Y-36077600D01*
X27498800Y-36077600D02*
X27498800Y-39977600D01*
%TO.C,L3*%
X20396600Y-38063900D02*
X22096600Y-38063900D01*
X22096600Y-44663900D02*
X20396600Y-44663900D01*
X26796600Y-44663900D02*
X25096600Y-44663900D01*
X25096600Y-38063900D02*
X26796600Y-38063900D01*
X20396600Y-44663900D02*
X20396600Y-38063900D01*
X26796600Y-38063900D02*
X26796600Y-44663900D01*
%TO.C,U4*%
X30104400Y-40894000D02*
X30104400Y-44344000D01*
X35224400Y-40894000D02*
X35224400Y-38944000D01*
X30104400Y-40894000D02*
X30104400Y-38944000D01*
X35224400Y-40894000D02*
X35224400Y-42844000D01*
%TO.C,R6*%
X81544936Y-51462000D02*
X81999064Y-51462000D01*
X81544936Y-52932000D02*
X81999064Y-52932000D01*
%TO.C,C8*%
X36638500Y-32345500D02*
X36638500Y-34511500D01*
X37159500Y-32345500D02*
X37159500Y-34403500D01*
X37279500Y-32345500D02*
X37279500Y-34366500D01*
X38559500Y-29040500D02*
X38559500Y-33570500D01*
X37559500Y-28353500D02*
X37559500Y-30265500D01*
X36638500Y-28099500D02*
X36638500Y-30265500D01*
X38119500Y-28669500D02*
X38119500Y-30265500D01*
X36758500Y-32345500D02*
X36758500Y-34494500D01*
X39239500Y-30043500D02*
X39239500Y-32567500D01*
X39279500Y-30140500D02*
X39279500Y-32470500D01*
X36758500Y-28116500D02*
X36758500Y-30265500D01*
X37079500Y-32345500D02*
X37079500Y-34426500D01*
X36878500Y-32345500D02*
X36878500Y-34472500D01*
X38359500Y-28855500D02*
X38359500Y-30265500D01*
X37239500Y-28231500D02*
X37239500Y-30265500D01*
X38999500Y-29591500D02*
X38999500Y-33019500D01*
X39359500Y-30365500D02*
X39359500Y-32245500D01*
X37919500Y-28539500D02*
X37919500Y-30265500D01*
X36598500Y-28094500D02*
X36598500Y-30265500D01*
X37959500Y-32345500D02*
X37959500Y-34047500D01*
X38919500Y-29471500D02*
X38919500Y-33139500D01*
X38639500Y-29123500D02*
X38639500Y-33487500D01*
X37759500Y-28449500D02*
X37759500Y-30265500D01*
X36398500Y-28078500D02*
X36398500Y-34532500D01*
X37119500Y-32345500D02*
X37119500Y-34415500D01*
X37159500Y-28207500D02*
X37159500Y-30265500D01*
X36718500Y-32345500D02*
X36718500Y-34500500D01*
X36838500Y-32345500D02*
X36838500Y-34480500D01*
X36959500Y-28155500D02*
X36959500Y-30265500D01*
X39439500Y-30672500D02*
X39439500Y-31938500D01*
X37679500Y-28409500D02*
X37679500Y-30265500D01*
X38039500Y-28615500D02*
X38039500Y-30265500D01*
X36238500Y-28075500D02*
X36238500Y-34535500D01*
X39479500Y-30903500D02*
X39479500Y-31707500D01*
X39159500Y-29873500D02*
X39159500Y-32737500D01*
X36438500Y-28081500D02*
X36438500Y-34529500D01*
X37599500Y-32345500D02*
X37599500Y-34239500D01*
X37879500Y-28515500D02*
X37879500Y-30265500D01*
X36678500Y-32345500D02*
X36678500Y-34506500D01*
X37759500Y-32345500D02*
X37759500Y-34161500D01*
X37559500Y-32345500D02*
X37559500Y-34257500D01*
X37319500Y-32345500D02*
X37319500Y-34352500D01*
X37999500Y-32345500D02*
X37999500Y-34021500D01*
X38479500Y-28962500D02*
X38479500Y-30265500D01*
X39199500Y-29955500D02*
X39199500Y-32655500D01*
X38399500Y-32345500D02*
X38399500Y-33721500D01*
X32738259Y-29466500D02*
X33368259Y-29466500D01*
X36878500Y-28138500D02*
X36878500Y-30265500D01*
X39399500Y-30503500D02*
X39399500Y-32107500D01*
X39039500Y-29655500D02*
X39039500Y-32955500D01*
X38039500Y-32345500D02*
X38039500Y-33995500D01*
X38159500Y-28698500D02*
X38159500Y-30265500D01*
X38319500Y-32345500D02*
X38319500Y-33789500D01*
X37719500Y-28429500D02*
X37719500Y-30265500D01*
X38159500Y-32345500D02*
X38159500Y-33912500D01*
X37839500Y-28493500D02*
X37839500Y-30265500D01*
X37799500Y-32345500D02*
X37799500Y-34139500D01*
X37079500Y-28184500D02*
X37079500Y-30265500D01*
X38519500Y-32345500D02*
X38519500Y-33610500D01*
X39079500Y-29724500D02*
X39079500Y-32886500D01*
X36838500Y-28130500D02*
X36838500Y-30265500D01*
X37039500Y-28174500D02*
X37039500Y-30265500D01*
X36918500Y-28146500D02*
X36918500Y-30265500D01*
X37439500Y-28303500D02*
X37439500Y-30265500D01*
X37719500Y-32345500D02*
X37719500Y-34181500D01*
X37119500Y-28195500D02*
X37119500Y-30265500D01*
X38399500Y-28889500D02*
X38399500Y-30265500D01*
X37519500Y-32345500D02*
X37519500Y-34275500D01*
X38439500Y-32345500D02*
X38439500Y-33685500D01*
X37199500Y-28219500D02*
X37199500Y-30265500D01*
X36798500Y-28123500D02*
X36798500Y-30265500D01*
X37359500Y-32345500D02*
X37359500Y-34338500D01*
X38199500Y-28727500D02*
X38199500Y-30265500D01*
X37239500Y-32345500D02*
X37239500Y-34379500D01*
X38479500Y-32345500D02*
X38479500Y-33648500D01*
X36558500Y-32345500D02*
X36558500Y-34520500D01*
X38079500Y-28641500D02*
X38079500Y-30265500D01*
X36358500Y-28077500D02*
X36358500Y-34533500D01*
X36718500Y-28110500D02*
X36718500Y-30265500D01*
X38359500Y-32345500D02*
X38359500Y-33755500D01*
X38279500Y-32345500D02*
X38279500Y-33821500D01*
X36518500Y-28087500D02*
X36518500Y-30265500D01*
X36798500Y-32345500D02*
X36798500Y-34487500D01*
X38079500Y-32345500D02*
X38079500Y-33969500D01*
X37519500Y-28335500D02*
X37519500Y-30265500D01*
X33053259Y-29151500D02*
X33053259Y-29781500D01*
X38719500Y-29213500D02*
X38719500Y-33397500D01*
X37199500Y-32345500D02*
X37199500Y-34391500D01*
X38839500Y-29361500D02*
X38839500Y-33249500D01*
X36518500Y-32345500D02*
X36518500Y-34523500D01*
X37639500Y-28389500D02*
X37639500Y-30265500D01*
X38239500Y-28757500D02*
X38239500Y-30265500D01*
X37479500Y-32345500D02*
X37479500Y-34291500D01*
X39119500Y-29796500D02*
X39119500Y-32814500D01*
X38599500Y-29081500D02*
X38599500Y-33529500D01*
X36558500Y-28090500D02*
X36558500Y-30265500D01*
X37439500Y-32345500D02*
X37439500Y-34307500D01*
X37279500Y-28244500D02*
X37279500Y-30265500D01*
X36999500Y-28164500D02*
X36999500Y-30265500D01*
X37319500Y-28258500D02*
X37319500Y-30265500D01*
X37599500Y-28371500D02*
X37599500Y-30265500D01*
X38759500Y-29261500D02*
X38759500Y-33349500D01*
X37959500Y-28563500D02*
X37959500Y-30265500D01*
X37639500Y-32345500D02*
X37639500Y-34221500D01*
X36478500Y-32345500D02*
X36478500Y-34527500D01*
X36678500Y-28104500D02*
X36678500Y-30265500D01*
X37879500Y-32345500D02*
X37879500Y-34095500D01*
X38679500Y-29168500D02*
X38679500Y-33442500D01*
X38799500Y-29310500D02*
X38799500Y-33300500D01*
X36918500Y-32345500D02*
X36918500Y-34464500D01*
X38519500Y-29000500D02*
X38519500Y-30265500D01*
X37999500Y-28589500D02*
X37999500Y-30265500D01*
X37399500Y-28287500D02*
X37399500Y-30265500D01*
X37039500Y-32345500D02*
X37039500Y-34436500D01*
X36278500Y-28075500D02*
X36278500Y-34535500D01*
X38199500Y-32345500D02*
X38199500Y-33883500D01*
X38279500Y-28789500D02*
X38279500Y-30265500D01*
X36999500Y-32345500D02*
X36999500Y-34446500D01*
X38319500Y-28821500D02*
X38319500Y-30265500D01*
X39319500Y-30246500D02*
X39319500Y-32364500D01*
X36478500Y-28083500D02*
X36478500Y-30265500D01*
X36959500Y-32345500D02*
X36959500Y-34455500D01*
X37839500Y-32345500D02*
X37839500Y-34117500D01*
X37679500Y-32345500D02*
X37679500Y-34201500D01*
X37399500Y-32345500D02*
X37399500Y-34323500D01*
X36598500Y-32345500D02*
X36598500Y-34516500D01*
X37479500Y-28319500D02*
X37479500Y-30265500D01*
X37799500Y-28471500D02*
X37799500Y-30265500D01*
X38879500Y-29415500D02*
X38879500Y-33195500D01*
X38439500Y-28925500D02*
X38439500Y-30265500D01*
X38119500Y-32345500D02*
X38119500Y-33941500D01*
X37919500Y-32345500D02*
X37919500Y-34071500D01*
X36318500Y-28075500D02*
X36318500Y-34535500D01*
X38239500Y-32345500D02*
X38239500Y-33853500D01*
X38959500Y-29529500D02*
X38959500Y-33081500D01*
X37359500Y-28272500D02*
X37359500Y-30265500D01*
X39508500Y-31305500D02*
G75*
G03*
X39508500Y-31305500I-3270000J0D01*
G01*
%TO.C,C12*%
X27458800Y-51780600D02*
X24584800Y-51780600D01*
X27458800Y-53180600D02*
X25309800Y-53180600D01*
X32569800Y-50899600D02*
X24427800Y-50899600D01*
X32465800Y-51580600D02*
X29538800Y-51580600D01*
X32434800Y-51700600D02*
X29538800Y-51700600D01*
X31991800Y-52740600D02*
X29538800Y-52740600D01*
X31481800Y-53420600D02*
X25515800Y-53420600D01*
X30050800Y-54420600D02*
X26946800Y-54420600D01*
X27458800Y-52460600D02*
X24851800Y-52460600D01*
X32400800Y-51820600D02*
X29538800Y-51820600D01*
X32492800Y-51460600D02*
X29538800Y-51460600D01*
X32578800Y-50619600D02*
X24418800Y-50619600D01*
X27458800Y-51660600D02*
X24551800Y-51660600D01*
X27458800Y-51500600D02*
X24513800Y-51500600D01*
X31967800Y-52780600D02*
X29538800Y-52780600D01*
X32455800Y-51620600D02*
X29538800Y-51620600D01*
X31748800Y-53100600D02*
X29538800Y-53100600D01*
X31718800Y-53140600D02*
X29538800Y-53140600D01*
X29031800Y-54700600D02*
X27965800Y-54700600D01*
X29266800Y-54660600D02*
X27730800Y-54660600D01*
X27458800Y-51980600D02*
X24648800Y-51980600D01*
X31054800Y-53820600D02*
X25942800Y-53820600D01*
X31213800Y-46609902D02*
X30413800Y-46609902D01*
X32145800Y-52460600D02*
X29538800Y-52460600D01*
X32082800Y-52580600D02*
X29538800Y-52580600D01*
X30311800Y-54300600D02*
X26685800Y-54300600D01*
X27458800Y-53060600D02*
X25218800Y-53060600D01*
X32522800Y-51299600D02*
X24474800Y-51299600D01*
X27458800Y-53220600D02*
X25342800Y-53220600D01*
X27458800Y-51620600D02*
X24541800Y-51620600D01*
X31102800Y-53780600D02*
X25894800Y-53780600D01*
X32423800Y-51740600D02*
X29538800Y-51740600D01*
X32361800Y-51940600D02*
X29538800Y-51940600D01*
X32288800Y-52140600D02*
X29538800Y-52140600D01*
X32474800Y-51540600D02*
X29538800Y-51540600D01*
X32572800Y-50859600D02*
X24424800Y-50859600D01*
X32104800Y-52540600D02*
X29538800Y-52540600D01*
X32125800Y-52500600D02*
X29538800Y-52500600D01*
X32559800Y-51019600D02*
X24437800Y-51019600D01*
X27458800Y-52620600D02*
X24936800Y-52620600D01*
X32387800Y-51860600D02*
X29538800Y-51860600D01*
X32483800Y-51500600D02*
X29538800Y-51500600D01*
X31405800Y-53500600D02*
X25591800Y-53500600D01*
X30600800Y-54140600D02*
X26396800Y-54140600D01*
X31687800Y-53180600D02*
X29538800Y-53180600D01*
X30785800Y-54020600D02*
X26211800Y-54020600D01*
X32566800Y-50939600D02*
X24430800Y-50939600D01*
X32500800Y-51420600D02*
X29538800Y-51420600D01*
X27458800Y-52180600D02*
X24724800Y-52180600D01*
X32060800Y-52620600D02*
X29538800Y-52620600D01*
X31836800Y-52980600D02*
X29538800Y-52980600D01*
X27458800Y-53100600D02*
X25248800Y-53100600D01*
X27458800Y-52900600D02*
X25106800Y-52900600D01*
X32375800Y-51900600D02*
X29538800Y-51900600D01*
X27458800Y-52420600D02*
X24832800Y-52420600D01*
X29446800Y-54620600D02*
X27550800Y-54620600D01*
X27458800Y-51700600D02*
X24562800Y-51700600D01*
X32577800Y-50739600D02*
X24419800Y-50739600D01*
X31622800Y-53260600D02*
X29538800Y-53260600D01*
X27458800Y-51940600D02*
X24635800Y-51940600D01*
X27458800Y-52660600D02*
X24958800Y-52660600D01*
X31553800Y-53340600D02*
X29538800Y-53340600D01*
X32303800Y-52100600D02*
X29538800Y-52100600D01*
X29596800Y-54580600D02*
X27400800Y-54580600D01*
X31588800Y-53300600D02*
X29538800Y-53300600D01*
X27458800Y-52580600D02*
X24914800Y-52580600D01*
X30726800Y-54060600D02*
X26270800Y-54060600D01*
X32535800Y-51219600D02*
X24461800Y-51219600D01*
X27458800Y-52340600D02*
X24794800Y-52340600D01*
X27458800Y-51540600D02*
X24522800Y-51540600D01*
X32555800Y-51059600D02*
X24441800Y-51059600D01*
X27458800Y-53260600D02*
X25374800Y-53260600D01*
X32255800Y-52220600D02*
X29538800Y-52220600D01*
X31863800Y-52940600D02*
X29538800Y-52940600D01*
X31365800Y-53540600D02*
X25631800Y-53540600D01*
X32164800Y-52420600D02*
X29538800Y-52420600D01*
X27458800Y-51740600D02*
X24573800Y-51740600D01*
X27458800Y-51820600D02*
X24596800Y-51820600D01*
X27458800Y-51860600D02*
X24609800Y-51860600D01*
X27458800Y-52260600D02*
X24758800Y-52260600D01*
X30952800Y-53900600D02*
X26044800Y-53900600D01*
X32578800Y-50699600D02*
X24418800Y-50699600D01*
X32546800Y-51139600D02*
X24450800Y-51139600D01*
X29844800Y-54500600D02*
X27152800Y-54500600D01*
X30388800Y-54260600D02*
X26608800Y-54260600D01*
X32575800Y-50779600D02*
X24421800Y-50779600D01*
X27458800Y-53300600D02*
X25408800Y-53300600D01*
X27458800Y-52820600D02*
X25054800Y-52820600D01*
X32574800Y-50819600D02*
X24422800Y-50819600D01*
X27458800Y-52780600D02*
X25029800Y-52780600D01*
X32202800Y-52340600D02*
X29538800Y-52340600D01*
X27458800Y-51340600D02*
X24481800Y-51340600D01*
X31807800Y-53020600D02*
X29538800Y-53020600D01*
X31195800Y-53700600D02*
X25801800Y-53700600D01*
X32508800Y-51380600D02*
X29538800Y-51380600D01*
X27458800Y-53140600D02*
X25278800Y-53140600D01*
X31443800Y-53460600D02*
X25553800Y-53460600D01*
X27458800Y-52860600D02*
X25080800Y-52860600D01*
X30532800Y-54180600D02*
X26464800Y-54180600D01*
X32445800Y-51660600D02*
X29538800Y-51660600D01*
X31942800Y-52820600D02*
X29538800Y-52820600D01*
X30813800Y-46209902D02*
X30813800Y-47009902D01*
X27458800Y-52740600D02*
X25005800Y-52740600D01*
X27458800Y-53340600D02*
X25443800Y-53340600D01*
X30143800Y-54380600D02*
X26853800Y-54380600D01*
X27458800Y-51460600D02*
X24504800Y-51460600D01*
X31778800Y-53060600D02*
X29538800Y-53060600D01*
X27458800Y-52140600D02*
X24708800Y-52140600D01*
X32540800Y-51179600D02*
X24456800Y-51179600D01*
X27458800Y-51900600D02*
X24621800Y-51900600D01*
X32015800Y-52700600D02*
X29538800Y-52700600D01*
X32238800Y-52260600D02*
X29538800Y-52260600D01*
X27458800Y-51420600D02*
X24496800Y-51420600D01*
X27458800Y-53380600D02*
X25479800Y-53380600D01*
X27458800Y-52100600D02*
X24693800Y-52100600D01*
X27458800Y-52980600D02*
X25160800Y-52980600D01*
X32563800Y-50979600D02*
X24433800Y-50979600D01*
X27458800Y-52300600D02*
X24776800Y-52300600D01*
X32578800Y-50659600D02*
X24418800Y-50659600D01*
X31916800Y-52860600D02*
X29538800Y-52860600D01*
X32272800Y-52180600D02*
X29538800Y-52180600D01*
X32319800Y-52060600D02*
X29538800Y-52060600D01*
X27458800Y-52500600D02*
X24871800Y-52500600D01*
X27458800Y-51580600D02*
X24531800Y-51580600D01*
X32550800Y-51099600D02*
X24446800Y-51099600D01*
X32184800Y-52380600D02*
X29538800Y-52380600D01*
X27458800Y-52700600D02*
X24981800Y-52700600D01*
X27458800Y-52060600D02*
X24677800Y-52060600D01*
X29727800Y-54540600D02*
X27269800Y-54540600D01*
X30664800Y-54100600D02*
X26332800Y-54100600D01*
X30843800Y-53980600D02*
X26153800Y-53980600D01*
X32038800Y-52660600D02*
X29538800Y-52660600D01*
X32348800Y-51980600D02*
X29538800Y-51980600D01*
X27458800Y-52220600D02*
X24741800Y-52220600D01*
X31239800Y-53660600D02*
X25757800Y-53660600D01*
X27458800Y-52020600D02*
X24663800Y-52020600D01*
X31654800Y-53220600D02*
X29538800Y-53220600D01*
X32220800Y-52300600D02*
X29538800Y-52300600D01*
X31324800Y-53580600D02*
X25672800Y-53580600D01*
X32528800Y-51259600D02*
X24468800Y-51259600D01*
X32515800Y-51340600D02*
X29538800Y-51340600D01*
X27458800Y-52540600D02*
X24892800Y-52540600D01*
X30462800Y-54220600D02*
X26534800Y-54220600D01*
X30229800Y-54340600D02*
X26767800Y-54340600D01*
X27458800Y-52380600D02*
X24812800Y-52380600D01*
X31149800Y-53740600D02*
X25847800Y-53740600D01*
X27458800Y-51380600D02*
X24488800Y-51380600D01*
X31890800Y-52900600D02*
X29538800Y-52900600D01*
X31517800Y-53380600D02*
X29538800Y-53380600D01*
X31003800Y-53860600D02*
X25993800Y-53860600D01*
X30898800Y-53940600D02*
X26098800Y-53940600D01*
X29951800Y-54460600D02*
X27045800Y-54460600D01*
X27458800Y-53020600D02*
X25189800Y-53020600D01*
X32412800Y-51780600D02*
X29538800Y-51780600D01*
X27458800Y-52940600D02*
X25133800Y-52940600D01*
X32333800Y-52020600D02*
X29538800Y-52020600D01*
X31282800Y-53620600D02*
X25714800Y-53620600D01*
X32618800Y-50619600D02*
G75*
G03*
X32618800Y-50619600I-4120000J0D01*
G01*
%TO.C,Y1*%
X73964000Y-31257000D02*
X67714000Y-31257000D01*
X73964000Y-36307000D02*
X67714000Y-36307000D01*
X67714000Y-31257000D02*
G75*
G03*
X67714000Y-36307000I0J-2525000D01*
G01*
X73964000Y-36307000D02*
G75*
G03*
X73964000Y-31257000I0J2525000D01*
G01*
%TO.C,C3*%
X78754248Y-33047000D02*
X79276752Y-33047000D01*
X78754248Y-34517000D02*
X79276752Y-34517000D01*
%TO.C,C4*%
X62455248Y-34517000D02*
X62977752Y-34517000D01*
X62455248Y-33047000D02*
X62977752Y-33047000D01*
%TO.C,JP4*%
X86681000Y-53781000D02*
X89341000Y-53781000D01*
X86681000Y-48581000D02*
X88011000Y-48581000D01*
X86681000Y-51181000D02*
X86681000Y-53781000D01*
X89341000Y-51181000D02*
X89341000Y-53781000D01*
X86681000Y-49911000D02*
X86681000Y-48581000D01*
X86681000Y-51181000D02*
X89341000Y-51181000D01*
%TO.C,JP5*%
X93151000Y-48581000D02*
X90491000Y-48581000D01*
X93151000Y-51181000D02*
X90491000Y-51181000D01*
X90491000Y-51181000D02*
X90491000Y-48581000D01*
X93151000Y-53781000D02*
X91821000Y-53781000D01*
X93151000Y-52451000D02*
X93151000Y-53781000D01*
X93151000Y-51181000D02*
X93151000Y-48581000D01*
%TO.C,J4*%
X117408000Y-46375000D02*
X117408000Y-36255000D01*
X115831000Y-40042000D02*
X115877000Y-40089000D01*
X112507000Y-46375000D02*
X112507000Y-36255000D01*
X113739000Y-37540000D02*
X113785000Y-37587000D01*
X109547000Y-36255000D02*
X119468000Y-36255000D01*
X113533000Y-37745000D02*
X113569000Y-37780000D01*
X119708000Y-46615000D02*
X119708000Y-46115000D01*
X109547000Y-46375000D02*
X109547000Y-36255000D01*
X118968000Y-46615000D02*
X119708000Y-46615000D01*
X119468000Y-46375000D02*
X119468000Y-36255000D01*
X118908000Y-46375000D02*
X118908000Y-36255000D01*
X116047000Y-39849000D02*
X116082000Y-39884000D01*
X109547000Y-46375000D02*
X119468000Y-46375000D01*
X116343000Y-44499000D02*
G75*
G03*
X116488253Y-43786195I-1535001J683999D01*
G01*
X115492000Y-42279999D02*
G75*
G03*
X114124958Y-42279573I-684000J-1535001D01*
G01*
X113273000Y-43131000D02*
G75*
G03*
X113272573Y-44498042I1534993J-684001D01*
G01*
X116488000Y-43815000D02*
G75*
G03*
X116342756Y-43131682I-1680000J0D01*
G01*
X114124000Y-45350000D02*
G75*
G03*
X115491042Y-45350427I684001J1534993D01*
G01*
X116488000Y-38815000D02*
G75*
G03*
X116488000Y-38815000I-1680000J0D01*
G01*
%TO.C,C5*%
X74088748Y-54235000D02*
X74611252Y-54235000D01*
X74088748Y-52765000D02*
X74611252Y-52765000D01*
%TO.C,D4*%
X38895400Y-38851100D02*
X38895400Y-42911100D01*
X41165400Y-42911100D02*
X41165400Y-38851100D01*
X38895400Y-42911100D02*
X41165400Y-42911100D01*
%TO.C,C10*%
X97792000Y-44309420D02*
X97792000Y-44590580D01*
X96772000Y-44309420D02*
X96772000Y-44590580D01*
%TO.C,kibuzzard-63E8252B*%
G36*
X96800591Y-54759225D02*
G01*
X96897031Y-54816375D01*
X96950609Y-54918769D01*
X96968469Y-55073550D01*
X96968469Y-55166419D01*
X96361250Y-55166419D01*
X96342200Y-55028306D01*
X96360952Y-54901505D01*
X96417209Y-54811613D01*
X96513948Y-54758034D01*
X96654144Y-54740175D01*
X96800591Y-54759225D01*
G37*
G36*
X98212892Y-55847477D02*
G01*
X98195747Y-55963054D01*
X98167357Y-56076395D01*
X98127994Y-56186407D01*
X98078038Y-56292032D01*
X98017969Y-56392251D01*
X97948366Y-56486100D01*
X97869899Y-56572674D01*
X97783325Y-56651141D01*
X97689476Y-56720744D01*
X97589257Y-56780813D01*
X97483632Y-56830769D01*
X97373620Y-56870132D01*
X97260279Y-56898522D01*
X97144702Y-56915667D01*
X97028000Y-56921400D01*
X96911298Y-56915667D01*
X96795721Y-56898522D01*
X96682380Y-56870132D01*
X96572368Y-56830769D01*
X96466743Y-56780813D01*
X96366524Y-56720744D01*
X96272675Y-56651141D01*
X96186101Y-56572674D01*
X96107634Y-56486100D01*
X96038031Y-56392251D01*
X95977962Y-56292032D01*
X95928006Y-56186407D01*
X95888643Y-56076395D01*
X95860253Y-55963054D01*
X95843108Y-55847477D01*
X95837375Y-55730775D01*
X95837375Y-55028306D01*
X96135031Y-55028306D01*
X96140323Y-55165360D01*
X96156198Y-55300298D01*
X96182656Y-55433119D01*
X97897156Y-55433119D01*
X97897156Y-55166419D01*
X97175638Y-55166419D01*
X97175638Y-55073550D01*
X97222072Y-54929484D01*
X97289045Y-54883943D01*
X97397094Y-54844950D01*
X97897156Y-54706838D01*
X97897156Y-54432994D01*
X97411381Y-54580631D01*
X97224453Y-54656831D01*
X97106581Y-54747319D01*
X97101819Y-54747319D01*
X97033655Y-54630638D01*
X96936322Y-54547294D01*
X96809818Y-54497288D01*
X96654144Y-54480619D01*
X96490764Y-54495303D01*
X96359398Y-54539356D01*
X96260047Y-54612778D01*
X96190594Y-54717685D01*
X96148922Y-54856195D01*
X96135031Y-55028306D01*
X95837375Y-55028306D01*
X95837375Y-54194869D01*
X96158844Y-54194869D01*
X97897156Y-54194869D01*
X97897156Y-53361431D01*
X97689987Y-53361431D01*
X97689987Y-53928169D01*
X97063719Y-53928169D01*
X97063719Y-53385244D01*
X96861313Y-53385244D01*
X96861313Y-53928169D01*
X96366012Y-53928169D01*
X96366012Y-53361431D01*
X96158844Y-53361431D01*
X96158844Y-54194869D01*
X95837375Y-54194869D01*
X95837375Y-52563713D01*
X96135031Y-52563713D01*
X96148260Y-52705926D01*
X96187948Y-52824592D01*
X96254094Y-52919709D01*
X96396969Y-53013471D01*
X96587469Y-53044725D01*
X96756537Y-53020020D01*
X96897031Y-52945903D01*
X96979581Y-52864015D01*
X97058956Y-52750111D01*
X97135156Y-52604194D01*
X97196473Y-52502098D01*
X97266125Y-52433934D01*
X97350659Y-52395537D01*
X97456625Y-52382738D01*
X97567651Y-52399406D01*
X97648316Y-52449413D01*
X97697429Y-52529184D01*
X97713800Y-52635150D01*
X97696602Y-52774585D01*
X97645008Y-52907142D01*
X97559019Y-53032819D01*
X97806669Y-53032819D01*
X97870169Y-52910581D01*
X97908269Y-52775644D01*
X97920969Y-52628006D01*
X97901919Y-52443698D01*
X97844769Y-52300346D01*
X97749519Y-52197953D01*
X97616169Y-52136516D01*
X97444719Y-52116038D01*
X97260767Y-52141636D01*
X97113725Y-52218431D01*
X97028794Y-52305479D01*
X96945450Y-52430098D01*
X96863694Y-52592288D01*
X96792521Y-52698121D01*
X96696477Y-52761621D01*
X96575562Y-52782788D01*
X96477931Y-52766119D01*
X96404112Y-52716113D01*
X96357678Y-52636936D01*
X96342200Y-52532756D01*
X96367798Y-52347614D01*
X96444594Y-52163663D01*
X96206469Y-52163663D01*
X96166781Y-52291721D01*
X96142969Y-52425071D01*
X96135031Y-52563713D01*
X95837375Y-52563713D01*
X95837375Y-51813619D01*
X96158844Y-51813619D01*
X97897156Y-51813619D01*
X97897156Y-50980181D01*
X97689987Y-50980181D01*
X97689987Y-51546919D01*
X97063719Y-51546919D01*
X97063719Y-51003994D01*
X96861313Y-51003994D01*
X96861313Y-51546919D01*
X96366012Y-51546919D01*
X96366012Y-50980181D01*
X96158844Y-50980181D01*
X96158844Y-51813619D01*
X95837375Y-51813619D01*
X95837375Y-50699194D01*
X96158844Y-50699194D01*
X96366012Y-50699194D01*
X96366012Y-50344388D01*
X97897156Y-50344388D01*
X97897156Y-50077688D01*
X96366012Y-50077688D01*
X96366012Y-49722881D01*
X96158844Y-49722881D01*
X96158844Y-50699194D01*
X95837375Y-50699194D01*
X95837375Y-49425225D01*
X95843108Y-49308523D01*
X95860253Y-49192946D01*
X95888643Y-49079605D01*
X95928006Y-48969593D01*
X95977962Y-48863968D01*
X96038031Y-48763749D01*
X96107634Y-48669900D01*
X96186101Y-48583326D01*
X96272675Y-48504859D01*
X96366524Y-48435256D01*
X96466743Y-48375187D01*
X96572368Y-48325231D01*
X96682380Y-48285868D01*
X96795721Y-48257478D01*
X96911298Y-48240333D01*
X97028000Y-48234600D01*
X97144702Y-48240333D01*
X97260279Y-48257478D01*
X97373620Y-48285868D01*
X97483632Y-48325231D01*
X97589257Y-48375187D01*
X97689476Y-48435256D01*
X97783325Y-48504859D01*
X97869899Y-48583326D01*
X97948366Y-48669900D01*
X98017969Y-48763749D01*
X98078038Y-48863968D01*
X98127994Y-48969593D01*
X98167357Y-49079605D01*
X98195747Y-49192946D01*
X98212892Y-49308523D01*
X98218625Y-49425225D01*
X98218625Y-55730775D01*
X98212892Y-55847477D01*
G37*
%TO.C,R2*%
X98017000Y-41319064D02*
X98017000Y-40864936D01*
X96547000Y-41319064D02*
X96547000Y-40864936D01*
%TO.C,kibuzzard-63E822E4*%
G36*
X115881944Y-33353375D02*
G01*
X119830056Y-33353375D01*
X119830056Y-35734625D01*
X115881944Y-35734625D01*
X115881944Y-33674844D01*
X116179600Y-33674844D01*
X116565363Y-35413156D01*
X116874925Y-35413156D01*
X117074314Y-34520188D01*
X117424994Y-34520188D01*
X117434407Y-34735058D01*
X117462647Y-34921279D01*
X117509714Y-35078851D01*
X117575608Y-35207773D01*
X117660328Y-35308046D01*
X117763875Y-35379670D01*
X117886249Y-35422644D01*
X118027450Y-35436969D01*
X118186398Y-35422086D01*
X118329869Y-35377438D01*
X118329869Y-35158363D01*
X118194138Y-35213727D01*
X118067931Y-35232181D01*
X117951515Y-35212404D01*
X117856265Y-35153071D01*
X117782181Y-35054183D01*
X117729265Y-34915740D01*
X117697515Y-34737741D01*
X117686931Y-34520188D01*
X118615619Y-34520188D01*
X118625032Y-34735058D01*
X118653272Y-34921279D01*
X118700339Y-35078851D01*
X118766233Y-35207773D01*
X118850953Y-35308046D01*
X118954500Y-35379670D01*
X119076874Y-35422644D01*
X119218075Y-35436969D01*
X119377023Y-35422086D01*
X119520494Y-35377438D01*
X119520494Y-35158363D01*
X119384763Y-35213727D01*
X119258556Y-35232181D01*
X119142140Y-35212404D01*
X119046890Y-35153071D01*
X118972806Y-35054183D01*
X118919890Y-34915740D01*
X118888140Y-34737741D01*
X118877556Y-34520188D01*
X118887147Y-34318641D01*
X118915921Y-34153740D01*
X118963877Y-34025483D01*
X119031015Y-33933871D01*
X119117335Y-33878904D01*
X119222838Y-33860581D01*
X119277606Y-33870106D01*
X119277606Y-34241581D01*
X119532400Y-34241581D01*
X119532400Y-33703419D01*
X119380595Y-33664128D01*
X119210931Y-33651031D01*
X119071405Y-33664612D01*
X118950482Y-33705354D01*
X118848163Y-33773256D01*
X118764447Y-33868320D01*
X118699335Y-33990545D01*
X118652826Y-34139932D01*
X118624921Y-34316479D01*
X118615619Y-34520188D01*
X117686931Y-34520188D01*
X117696522Y-34318641D01*
X117725296Y-34153740D01*
X117773252Y-34025483D01*
X117840390Y-33933871D01*
X117926710Y-33878904D01*
X118032212Y-33860581D01*
X118086981Y-33870106D01*
X118086981Y-34241581D01*
X118341775Y-34241581D01*
X118341775Y-33703419D01*
X118189970Y-33664128D01*
X118020306Y-33651031D01*
X117880780Y-33664612D01*
X117759857Y-33705354D01*
X117657538Y-33773256D01*
X117573822Y-33868320D01*
X117508710Y-33990545D01*
X117462201Y-34139932D01*
X117434296Y-34316479D01*
X117424994Y-34520188D01*
X117074314Y-34520188D01*
X117263069Y-33674844D01*
X116998750Y-33674844D01*
X116727288Y-35175031D01*
X116724906Y-35175031D01*
X116453444Y-33674844D01*
X116179600Y-33674844D01*
X115881944Y-33674844D01*
X115881944Y-33353375D01*
G37*
%TO.C,kibuzzard-63E8237A*%
G36*
X28231624Y-60059887D02*
G01*
X28322588Y-60148470D01*
X28361746Y-60246683D01*
X28385241Y-60383843D01*
X28393073Y-60559950D01*
X28385347Y-60754472D01*
X28362169Y-60903697D01*
X28323540Y-61007625D01*
X28232814Y-61099065D01*
X28099703Y-61129545D01*
X28013978Y-61112400D01*
X28013978Y-60047505D01*
X28099703Y-60030360D01*
X28231624Y-60059887D01*
G37*
G36*
X26927493Y-60579000D02*
G01*
X27562493Y-59626500D01*
X32635508Y-59626500D01*
X33270508Y-60579000D01*
X32635508Y-61531500D01*
X27562492Y-61531500D01*
X27378342Y-61255275D01*
X27800618Y-61255275D01*
X27943969Y-61283850D01*
X28099703Y-61293375D01*
X28257818Y-61276944D01*
X28264397Y-61274325D01*
X28695968Y-61274325D01*
X28882658Y-61274325D01*
X28915043Y-60093225D01*
X28920758Y-60093225D01*
X29029343Y-60950475D01*
X29210318Y-60950475D01*
X29328428Y-60093225D01*
X29330333Y-60093225D01*
X29358908Y-61274325D01*
X29562743Y-61274325D01*
X29677043Y-61274325D01*
X29901833Y-61274325D01*
X30075188Y-60718065D01*
X30078998Y-60718065D01*
X30254258Y-61274325D01*
X30486668Y-61274325D01*
X30297602Y-60779025D01*
X31578233Y-60779025D01*
X31886843Y-60779025D01*
X31886843Y-61179075D01*
X32090678Y-61179075D01*
X32090678Y-60779025D01*
X32397383Y-60779025D01*
X32397383Y-60620910D01*
X32090678Y-60620910D01*
X32090678Y-60226575D01*
X31886843Y-60226575D01*
X31886843Y-60620910D01*
X31578233Y-60620910D01*
X31578233Y-60779025D01*
X30297602Y-60779025D01*
X30216158Y-60565665D01*
X30482858Y-59883675D01*
X30261878Y-59883675D01*
X30086618Y-60417075D01*
X30082808Y-60417075D01*
X29909453Y-59883675D01*
X29682758Y-59883675D01*
X29949458Y-60565665D01*
X29677043Y-61274325D01*
X29562743Y-61274325D01*
X29492258Y-59883675D01*
X29252228Y-59883675D01*
X29137928Y-60769500D01*
X29134118Y-60769500D01*
X29017913Y-59883675D01*
X28768358Y-59883675D01*
X28695968Y-61274325D01*
X28264397Y-61274325D01*
X28381643Y-61227653D01*
X28475702Y-61137879D01*
X28544520Y-61000005D01*
X28575741Y-60879143D01*
X28594473Y-60732458D01*
X28600718Y-60559950D01*
X28593395Y-60381892D01*
X28571428Y-60232528D01*
X28534816Y-60111858D01*
X28483560Y-60019883D01*
X28388839Y-59933628D01*
X28260887Y-59881876D01*
X28099703Y-59864625D01*
X27949684Y-59874150D01*
X27800618Y-59902725D01*
X27800618Y-61255275D01*
X27378342Y-61255275D01*
X26927493Y-60579000D01*
G37*
%TO.C,kibuzzard-63E8231D*%
G36*
X108042340Y-27641285D02*
G01*
X108228871Y-27670257D01*
X108358781Y-27718544D01*
X108473081Y-27831951D01*
X108511181Y-27998341D01*
X108489750Y-28105497D01*
X107158631Y-28105497D01*
X107137200Y-27998341D01*
X107174109Y-27833439D01*
X107284838Y-27719734D01*
X107407604Y-27670786D01*
X107579054Y-27641418D01*
X107799188Y-27631628D01*
X108042340Y-27641285D01*
G37*
G36*
X106632375Y-31091584D02*
G01*
X106632375Y-30150991D01*
X106930031Y-30150991D01*
X106953579Y-30347444D01*
X107024223Y-30508178D01*
X107141963Y-30633194D01*
X107263257Y-30703515D01*
X107415211Y-30753745D01*
X107597823Y-30783882D01*
X107811094Y-30793928D01*
X108023174Y-30784626D01*
X108206977Y-30756721D01*
X108362502Y-30710212D01*
X108489750Y-30645100D01*
X108588721Y-30561384D01*
X108659414Y-30459065D01*
X108701830Y-30338142D01*
X108715969Y-30198616D01*
X108706708Y-30056270D01*
X108678927Y-29921332D01*
X108632625Y-29793803D01*
X107656313Y-29793803D01*
X107656313Y-30348634D01*
X107858719Y-30348634D01*
X107858719Y-30048597D01*
X108482606Y-30048597D01*
X108511181Y-30191472D01*
X108470700Y-30336728D01*
X108349256Y-30443884D01*
X108217494Y-30492832D01*
X108038106Y-30522201D01*
X107811094Y-30531991D01*
X107589241Y-30521672D01*
X107415806Y-30490716D01*
X107290791Y-30439122D01*
X107177384Y-30320655D01*
X107139581Y-30150991D01*
X107153869Y-30005139D01*
X107196731Y-29853334D01*
X106982419Y-29853334D01*
X106943128Y-29999186D01*
X106930031Y-30150991D01*
X106632375Y-30150991D01*
X106632375Y-29543772D01*
X106953844Y-29543772D01*
X108692156Y-29543772D01*
X108692156Y-29281834D01*
X107430094Y-29281834D01*
X107430094Y-29277072D01*
X108692156Y-28905597D01*
X108692156Y-28638897D01*
X106953844Y-28638897D01*
X106953844Y-28888928D01*
X108215906Y-28888928D01*
X108215906Y-28896072D01*
X106953844Y-29267547D01*
X106953844Y-29543772D01*
X106632375Y-29543772D01*
X106632375Y-27998341D01*
X106930031Y-27998341D01*
X106941938Y-28185864D01*
X106977656Y-28372197D01*
X108668344Y-28372197D01*
X108704062Y-28193008D01*
X108715969Y-27998341D01*
X108695430Y-27800697D01*
X108633816Y-27645916D01*
X108521599Y-27528341D01*
X108349256Y-27442319D01*
X108198179Y-27403293D01*
X108014823Y-27379877D01*
X107799188Y-27372072D01*
X107576615Y-27381225D01*
X107389910Y-27408684D01*
X107239073Y-27454448D01*
X107124103Y-27518519D01*
X107016285Y-27636920D01*
X106951595Y-27796860D01*
X106930031Y-27998341D01*
X106632375Y-27998341D01*
X106632375Y-27074416D01*
X109013625Y-27074416D01*
X109013625Y-31091584D01*
X106632375Y-31091584D01*
G37*
%TO.C,JP1*%
X100346000Y-41780000D02*
X102346000Y-41780000D01*
X102346000Y-44580000D02*
X100346000Y-44580000D01*
X100346000Y-44580000D02*
X100346000Y-41780000D01*
X102346000Y-41780000D02*
X102346000Y-44580000D01*
%TO.C,kibuzzard-63E8236A*%
G36*
X28293536Y-57519887D02*
G01*
X28384500Y-57608470D01*
X28423658Y-57706683D01*
X28447153Y-57843843D01*
X28454985Y-58019950D01*
X28447259Y-58214472D01*
X28424082Y-58363697D01*
X28385453Y-58467625D01*
X28294727Y-58559065D01*
X28161615Y-58589545D01*
X28075890Y-58572400D01*
X28075890Y-57507505D01*
X28161615Y-57490360D01*
X28293536Y-57519887D01*
G37*
G36*
X26989405Y-58039000D02*
G01*
X27624405Y-57086500D01*
X32573595Y-57086500D01*
X33208595Y-58039000D01*
X32573595Y-58991500D01*
X27624405Y-58991500D01*
X27440255Y-58715275D01*
X27862530Y-58715275D01*
X28005881Y-58743850D01*
X28161615Y-58753375D01*
X28319730Y-58736944D01*
X28326309Y-58734325D01*
X28757880Y-58734325D01*
X28944570Y-58734325D01*
X28976955Y-57553225D01*
X28982670Y-57553225D01*
X29091255Y-58410475D01*
X29272230Y-58410475D01*
X29390340Y-57553225D01*
X29392245Y-57553225D01*
X29420820Y-58734325D01*
X29624655Y-58734325D01*
X29738955Y-58734325D01*
X29963745Y-58734325D01*
X30137100Y-58178065D01*
X30140910Y-58178065D01*
X30316170Y-58734325D01*
X30548580Y-58734325D01*
X30363877Y-58250455D01*
X31763970Y-58250455D01*
X32335470Y-58250455D01*
X32335470Y-58092340D01*
X31763970Y-58092340D01*
X31763970Y-58250455D01*
X30363877Y-58250455D01*
X30278070Y-58025665D01*
X30544770Y-57343675D01*
X30323790Y-57343675D01*
X30148530Y-57877075D01*
X30144720Y-57877075D01*
X29971365Y-57343675D01*
X29744670Y-57343675D01*
X30011370Y-58025665D01*
X29738955Y-58734325D01*
X29624655Y-58734325D01*
X29554170Y-57343675D01*
X29314140Y-57343675D01*
X29199840Y-58229500D01*
X29196030Y-58229500D01*
X29079825Y-57343675D01*
X28830270Y-57343675D01*
X28757880Y-58734325D01*
X28326309Y-58734325D01*
X28443555Y-58687653D01*
X28537614Y-58597879D01*
X28606433Y-58460005D01*
X28637653Y-58339143D01*
X28656386Y-58192458D01*
X28662630Y-58019950D01*
X28655308Y-57841892D01*
X28633341Y-57692528D01*
X28596729Y-57571858D01*
X28545473Y-57479883D01*
X28450752Y-57393628D01*
X28322799Y-57341876D01*
X28161615Y-57324625D01*
X28011596Y-57334150D01*
X27862530Y-57362725D01*
X27862530Y-58715275D01*
X27440255Y-58715275D01*
X26989405Y-58039000D01*
G37*
G36*
X108176536Y-57646887D02*
G01*
X108267500Y-57735470D01*
X108306658Y-57833683D01*
X108330153Y-57970843D01*
X108337985Y-58146950D01*
X108330259Y-58341472D01*
X108307082Y-58490697D01*
X108268453Y-58594625D01*
X108177727Y-58686065D01*
X108044615Y-58716545D01*
X107958890Y-58699400D01*
X107958890Y-57634505D01*
X108044615Y-57617360D01*
X108176536Y-57646887D01*
G37*
G36*
X106872405Y-58166000D02*
G01*
X107507405Y-57213500D01*
X112456595Y-57213500D01*
X113091595Y-58166000D01*
X112456595Y-59118500D01*
X107507405Y-59118500D01*
X107323255Y-58842275D01*
X107745530Y-58842275D01*
X107888881Y-58870850D01*
X108044615Y-58880375D01*
X108202730Y-58863944D01*
X108209309Y-58861325D01*
X108640880Y-58861325D01*
X108827570Y-58861325D01*
X108859955Y-57680225D01*
X108865670Y-57680225D01*
X108974255Y-58537475D01*
X109155230Y-58537475D01*
X109273340Y-57680225D01*
X109275245Y-57680225D01*
X109303820Y-58861325D01*
X109507655Y-58861325D01*
X109621955Y-58861325D01*
X109846745Y-58861325D01*
X110020100Y-58305065D01*
X110023910Y-58305065D01*
X110199170Y-58861325D01*
X110431580Y-58861325D01*
X110246877Y-58377455D01*
X111646970Y-58377455D01*
X112218470Y-58377455D01*
X112218470Y-58219340D01*
X111646970Y-58219340D01*
X111646970Y-58377455D01*
X110246877Y-58377455D01*
X110161070Y-58152665D01*
X110427770Y-57470675D01*
X110206790Y-57470675D01*
X110031530Y-58004075D01*
X110027720Y-58004075D01*
X109854365Y-57470675D01*
X109627670Y-57470675D01*
X109894370Y-58152665D01*
X109621955Y-58861325D01*
X109507655Y-58861325D01*
X109437170Y-57470675D01*
X109197140Y-57470675D01*
X109082840Y-58356500D01*
X109079030Y-58356500D01*
X108962825Y-57470675D01*
X108713270Y-57470675D01*
X108640880Y-58861325D01*
X108209309Y-58861325D01*
X108326555Y-58814653D01*
X108420614Y-58724879D01*
X108489433Y-58587005D01*
X108520653Y-58466143D01*
X108539386Y-58319458D01*
X108545630Y-58146950D01*
X108538308Y-57968892D01*
X108516341Y-57819528D01*
X108479729Y-57698858D01*
X108428473Y-57606883D01*
X108333752Y-57520628D01*
X108205799Y-57468876D01*
X108044615Y-57451625D01*
X107894596Y-57461150D01*
X107745530Y-57489725D01*
X107745530Y-58842275D01*
X107323255Y-58842275D01*
X106872405Y-58166000D01*
G37*
%TO.C,kibuzzard-63E8231D*%
G36*
X31067375Y-31472584D02*
G01*
X31067375Y-30531991D01*
X31365031Y-30531991D01*
X31388579Y-30728444D01*
X31459223Y-30889178D01*
X31576963Y-31014194D01*
X31698257Y-31084515D01*
X31850211Y-31134745D01*
X32032823Y-31164882D01*
X32246094Y-31174928D01*
X32458174Y-31165626D01*
X32641977Y-31137721D01*
X32797502Y-31091212D01*
X32924750Y-31026100D01*
X33023721Y-30942384D01*
X33094414Y-30840065D01*
X33136830Y-30719142D01*
X33150969Y-30579616D01*
X33141708Y-30437270D01*
X33113927Y-30302332D01*
X33067625Y-30174803D01*
X32091313Y-30174803D01*
X32091313Y-30729634D01*
X32293719Y-30729634D01*
X32293719Y-30429597D01*
X32917606Y-30429597D01*
X32946181Y-30572472D01*
X32905700Y-30717728D01*
X32784256Y-30824884D01*
X32652494Y-30873832D01*
X32473106Y-30903201D01*
X32246094Y-30912991D01*
X32024241Y-30902672D01*
X31850806Y-30871716D01*
X31725791Y-30820122D01*
X31612384Y-30701655D01*
X31574581Y-30531991D01*
X31588869Y-30386139D01*
X31631731Y-30234334D01*
X31417419Y-30234334D01*
X31378128Y-30380186D01*
X31365031Y-30531991D01*
X31067375Y-30531991D01*
X31067375Y-29924772D01*
X31388844Y-29924772D01*
X33127156Y-29924772D01*
X33127156Y-29662834D01*
X31865094Y-29662834D01*
X31865094Y-29658072D01*
X33127156Y-29286597D01*
X33127156Y-29019897D01*
X31388844Y-29019897D01*
X31388844Y-29269928D01*
X32650906Y-29269928D01*
X32650906Y-29277072D01*
X31388844Y-29648547D01*
X31388844Y-29924772D01*
X31067375Y-29924772D01*
X31067375Y-28379341D01*
X31365031Y-28379341D01*
X31376938Y-28566864D01*
X31412656Y-28753197D01*
X33103344Y-28753197D01*
X33139062Y-28574008D01*
X33150969Y-28379341D01*
X33130430Y-28181697D01*
X33068816Y-28026916D01*
X32956599Y-27909341D01*
X32784256Y-27823319D01*
X32633179Y-27784293D01*
X32449823Y-27760877D01*
X32234188Y-27753072D01*
X32011615Y-27762225D01*
X31824910Y-27789684D01*
X31674073Y-27835448D01*
X31559103Y-27899519D01*
X31451285Y-28017920D01*
X31386595Y-28177860D01*
X31365031Y-28379341D01*
X31067375Y-28379341D01*
X31067375Y-27455416D01*
X33448625Y-27455416D01*
X33448625Y-31472584D01*
X31067375Y-31472584D01*
G37*
G36*
X32477340Y-28022285D02*
G01*
X32663871Y-28051257D01*
X32793781Y-28099544D01*
X32908081Y-28212951D01*
X32946181Y-28379341D01*
X32924750Y-28486497D01*
X31593631Y-28486497D01*
X31572200Y-28379341D01*
X31609109Y-28214439D01*
X31719838Y-28100734D01*
X31842604Y-28051786D01*
X32014054Y-28022418D01*
X32234188Y-28012628D01*
X32477340Y-28022285D01*
G37*
%TO.C,kibuzzard-63E8237A*%
G36*
X108114624Y-60186887D02*
G01*
X108205588Y-60275470D01*
X108244746Y-60373683D01*
X108268241Y-60510843D01*
X108276073Y-60686950D01*
X108268347Y-60881472D01*
X108245169Y-61030697D01*
X108206540Y-61134625D01*
X108115814Y-61226065D01*
X107982703Y-61256545D01*
X107896978Y-61239400D01*
X107896978Y-60174505D01*
X107982703Y-60157360D01*
X108114624Y-60186887D01*
G37*
G36*
X106810493Y-60706000D02*
G01*
X107445493Y-59753500D01*
X112518508Y-59753500D01*
X113153508Y-60706000D01*
X112518508Y-61658500D01*
X107445492Y-61658500D01*
X107261342Y-61382275D01*
X107683618Y-61382275D01*
X107826969Y-61410850D01*
X107982703Y-61420375D01*
X108140818Y-61403944D01*
X108147397Y-61401325D01*
X108578968Y-61401325D01*
X108765658Y-61401325D01*
X108798043Y-60220225D01*
X108803758Y-60220225D01*
X108912343Y-61077475D01*
X109093318Y-61077475D01*
X109211428Y-60220225D01*
X109213333Y-60220225D01*
X109241908Y-61401325D01*
X109445743Y-61401325D01*
X109560043Y-61401325D01*
X109784833Y-61401325D01*
X109958188Y-60845065D01*
X109961998Y-60845065D01*
X110137258Y-61401325D01*
X110369668Y-61401325D01*
X110180602Y-60906025D01*
X111461233Y-60906025D01*
X111769843Y-60906025D01*
X111769843Y-61306075D01*
X111973678Y-61306075D01*
X111973678Y-60906025D01*
X112280383Y-60906025D01*
X112280383Y-60747910D01*
X111973678Y-60747910D01*
X111973678Y-60353575D01*
X111769843Y-60353575D01*
X111769843Y-60747910D01*
X111461233Y-60747910D01*
X111461233Y-60906025D01*
X110180602Y-60906025D01*
X110099158Y-60692665D01*
X110365858Y-60010675D01*
X110144878Y-60010675D01*
X109969618Y-60544075D01*
X109965808Y-60544075D01*
X109792453Y-60010675D01*
X109565758Y-60010675D01*
X109832458Y-60692665D01*
X109560043Y-61401325D01*
X109445743Y-61401325D01*
X109375258Y-60010675D01*
X109135228Y-60010675D01*
X109020928Y-60896500D01*
X109017118Y-60896500D01*
X108900913Y-60010675D01*
X108651358Y-60010675D01*
X108578968Y-61401325D01*
X108147397Y-61401325D01*
X108264643Y-61354653D01*
X108358702Y-61264879D01*
X108427520Y-61127005D01*
X108458741Y-61006143D01*
X108477473Y-60859458D01*
X108483718Y-60686950D01*
X108476395Y-60508892D01*
X108454428Y-60359528D01*
X108417816Y-60238858D01*
X108366560Y-60146883D01*
X108271839Y-60060628D01*
X108143887Y-60008876D01*
X107982703Y-59991625D01*
X107832684Y-60001150D01*
X107683618Y-60029725D01*
X107683618Y-61382275D01*
X107261342Y-61382275D01*
X106810493Y-60706000D01*
G37*
%TO.C,kibuzzard-63E822E4*%
G36*
X106632375Y-26358056D02*
G01*
X106632375Y-24976931D01*
X106953844Y-24976931D01*
X106953844Y-25241250D01*
X108454031Y-25512712D01*
X108454031Y-25515094D01*
X106953844Y-25786556D01*
X106953844Y-26060400D01*
X108692156Y-25674637D01*
X108692156Y-25365075D01*
X106953844Y-24976931D01*
X106632375Y-24976931D01*
X106632375Y-24219694D01*
X106930031Y-24219694D01*
X106943612Y-24359220D01*
X106984354Y-24480143D01*
X107052256Y-24582462D01*
X107147320Y-24666178D01*
X107269545Y-24731290D01*
X107418932Y-24777799D01*
X107595479Y-24805704D01*
X107799188Y-24815006D01*
X108014058Y-24805593D01*
X108200279Y-24777353D01*
X108357851Y-24730286D01*
X108486773Y-24664392D01*
X108587046Y-24579672D01*
X108658670Y-24476125D01*
X108701644Y-24353751D01*
X108715969Y-24212550D01*
X108701086Y-24053602D01*
X108656438Y-23910131D01*
X108437363Y-23910131D01*
X108492727Y-24045862D01*
X108511181Y-24172069D01*
X108491404Y-24288485D01*
X108432071Y-24383735D01*
X108333183Y-24457819D01*
X108194740Y-24510735D01*
X108016741Y-24542485D01*
X107799188Y-24553069D01*
X107597641Y-24543478D01*
X107432740Y-24514704D01*
X107304483Y-24466748D01*
X107212871Y-24399610D01*
X107157904Y-24313290D01*
X107139581Y-24207788D01*
X107149106Y-24153019D01*
X107520581Y-24153019D01*
X107520581Y-23898225D01*
X106982419Y-23898225D01*
X106943128Y-24050030D01*
X106930031Y-24219694D01*
X106632375Y-24219694D01*
X106632375Y-23029069D01*
X106930031Y-23029069D01*
X106943612Y-23168595D01*
X106984354Y-23289518D01*
X107052256Y-23391837D01*
X107147320Y-23475553D01*
X107269545Y-23540665D01*
X107418932Y-23587174D01*
X107595479Y-23615079D01*
X107799188Y-23624381D01*
X108014058Y-23614968D01*
X108200279Y-23586728D01*
X108357851Y-23539661D01*
X108486773Y-23473767D01*
X108587046Y-23389047D01*
X108658670Y-23285500D01*
X108701644Y-23163126D01*
X108715969Y-23021925D01*
X108701086Y-22862977D01*
X108656438Y-22719506D01*
X108437363Y-22719506D01*
X108492727Y-22855237D01*
X108511181Y-22981444D01*
X108491404Y-23097860D01*
X108432071Y-23193110D01*
X108333183Y-23267194D01*
X108194740Y-23320110D01*
X108016741Y-23351860D01*
X107799188Y-23362444D01*
X107597641Y-23352853D01*
X107432740Y-23324079D01*
X107304483Y-23276123D01*
X107212871Y-23208985D01*
X107157904Y-23122665D01*
X107139581Y-23017162D01*
X107149106Y-22962394D01*
X107520581Y-22962394D01*
X107520581Y-22707600D01*
X106982419Y-22707600D01*
X106943128Y-22859405D01*
X106930031Y-23029069D01*
X106632375Y-23029069D01*
X106632375Y-22409944D01*
X109013625Y-22409944D01*
X109013625Y-26358056D01*
X106632375Y-26358056D01*
G37*
G36*
X31067375Y-25977056D02*
G01*
X31067375Y-24595931D01*
X31388844Y-24595931D01*
X31388844Y-24860250D01*
X32889031Y-25131712D01*
X32889031Y-25134094D01*
X31388844Y-25405556D01*
X31388844Y-25679400D01*
X33127156Y-25293637D01*
X33127156Y-24984075D01*
X31388844Y-24595931D01*
X31067375Y-24595931D01*
X31067375Y-23838694D01*
X31365031Y-23838694D01*
X31378612Y-23978220D01*
X31419354Y-24099143D01*
X31487256Y-24201462D01*
X31582320Y-24285178D01*
X31704545Y-24350290D01*
X31853932Y-24396799D01*
X32030479Y-24424704D01*
X32234188Y-24434006D01*
X32449058Y-24424593D01*
X32635279Y-24396353D01*
X32792851Y-24349286D01*
X32921773Y-24283392D01*
X33022046Y-24198672D01*
X33093670Y-24095125D01*
X33136644Y-23972751D01*
X33150969Y-23831550D01*
X33136086Y-23672602D01*
X33091438Y-23529131D01*
X32872363Y-23529131D01*
X32927727Y-23664862D01*
X32946181Y-23791069D01*
X32926404Y-23907485D01*
X32867071Y-24002735D01*
X32768183Y-24076819D01*
X32629740Y-24129735D01*
X32451741Y-24161485D01*
X32234188Y-24172069D01*
X32032641Y-24162478D01*
X31867740Y-24133704D01*
X31739483Y-24085748D01*
X31647871Y-24018610D01*
X31592904Y-23932290D01*
X31574581Y-23826788D01*
X31584106Y-23772019D01*
X31955581Y-23772019D01*
X31955581Y-23517225D01*
X31417419Y-23517225D01*
X31378128Y-23669030D01*
X31365031Y-23838694D01*
X31067375Y-23838694D01*
X31067375Y-22648069D01*
X31365031Y-22648069D01*
X31378612Y-22787595D01*
X31419354Y-22908518D01*
X31487256Y-23010837D01*
X31582320Y-23094553D01*
X31704545Y-23159665D01*
X31853932Y-23206174D01*
X32030479Y-23234079D01*
X32234188Y-23243381D01*
X32449058Y-23233968D01*
X32635279Y-23205728D01*
X32792851Y-23158661D01*
X32921773Y-23092767D01*
X33022046Y-23008047D01*
X33093670Y-22904500D01*
X33136644Y-22782126D01*
X33150969Y-22640925D01*
X33136086Y-22481977D01*
X33091438Y-22338506D01*
X32872363Y-22338506D01*
X32927727Y-22474237D01*
X32946181Y-22600444D01*
X32926404Y-22716860D01*
X32867071Y-22812110D01*
X32768183Y-22886194D01*
X32629740Y-22939110D01*
X32451741Y-22970860D01*
X32234188Y-22981444D01*
X32032641Y-22971853D01*
X31867740Y-22943079D01*
X31739483Y-22895123D01*
X31647871Y-22827985D01*
X31592904Y-22741665D01*
X31574581Y-22636162D01*
X31584106Y-22581394D01*
X31955581Y-22581394D01*
X31955581Y-22326600D01*
X31417419Y-22326600D01*
X31378128Y-22478405D01*
X31365031Y-22648069D01*
X31067375Y-22648069D01*
X31067375Y-22028944D01*
X33448625Y-22028944D01*
X33448625Y-25977056D01*
X31067375Y-25977056D01*
G37*
%TO.C,C9*%
X86593000Y-38907000D02*
X88114000Y-38907000D01*
X90194000Y-38226000D02*
X91536000Y-38226000D01*
X90194000Y-37746000D02*
X91276000Y-37746000D01*
X90194000Y-38627000D02*
X91665000Y-38627000D01*
X86864000Y-38026000D02*
X88114000Y-38026000D01*
X90194000Y-37866000D02*
X91354000Y-37866000D01*
X86886000Y-37986000D02*
X88114000Y-37986000D01*
X86789000Y-38186000D02*
X88114000Y-38186000D01*
X87549000Y-37186000D02*
X90759000Y-37186000D01*
X90194000Y-38547000D02*
X91645000Y-38547000D01*
X90194000Y-38426000D02*
X91609000Y-38426000D01*
X90194000Y-39147000D02*
X91733000Y-39147000D01*
X88477000Y-36706000D02*
X89831000Y-36706000D01*
X87253000Y-37466000D02*
X88114000Y-37466000D01*
X87711000Y-37066000D02*
X90597000Y-37066000D01*
X86954000Y-37866000D02*
X88114000Y-37866000D01*
X90194000Y-37266000D02*
X90853000Y-37266000D01*
X86611000Y-38787000D02*
X88114000Y-38787000D01*
X87032000Y-37746000D02*
X88114000Y-37746000D01*
X90194000Y-38146000D02*
X91502000Y-38146000D01*
X90194000Y-38747000D02*
X91690000Y-38747000D01*
X86598000Y-38867000D02*
X88114000Y-38867000D01*
X90194000Y-38106000D02*
X91483000Y-38106000D01*
X90194000Y-38867000D02*
X91710000Y-38867000D01*
X87369000Y-37346000D02*
X88114000Y-37346000D01*
X86674000Y-38506000D02*
X88114000Y-38506000D01*
X87835000Y-36986000D02*
X90473000Y-36986000D01*
X87089000Y-37666000D02*
X88114000Y-37666000D01*
X90194000Y-37626000D02*
X91189000Y-37626000D01*
X90194000Y-38987000D02*
X91723000Y-38987000D01*
X90194000Y-39187000D02*
X91734000Y-39187000D01*
X90194000Y-37506000D02*
X91091000Y-37506000D01*
X87217000Y-37506000D02*
X88114000Y-37506000D01*
X86844000Y-38066000D02*
X88114000Y-38066000D01*
X90194000Y-37706000D02*
X91249000Y-37706000D01*
X86825000Y-38106000D02*
X88114000Y-38106000D01*
X90194000Y-38386000D02*
X91596000Y-38386000D01*
X86979000Y-37826000D02*
X88114000Y-37826000D01*
X86575000Y-39147000D02*
X88114000Y-39147000D01*
X87150000Y-37586000D02*
X88114000Y-37586000D01*
X90194000Y-37226000D02*
X90807000Y-37226000D01*
X86806000Y-38146000D02*
X88114000Y-38146000D01*
X86907000Y-37946000D02*
X88114000Y-37946000D01*
X86930000Y-37906000D02*
X88114000Y-37906000D01*
X90194000Y-38266000D02*
X91552000Y-38266000D01*
X87005000Y-37786000D02*
X88114000Y-37786000D01*
X90194000Y-38026000D02*
X91444000Y-38026000D01*
X90194000Y-37386000D02*
X90980000Y-37386000D01*
X88239000Y-36786000D02*
X90069000Y-36786000D01*
X90194000Y-37666000D02*
X91219000Y-37666000D01*
X86699000Y-38426000D02*
X88114000Y-38426000D01*
X87654000Y-37106000D02*
X90654000Y-37106000D01*
X87328000Y-37386000D02*
X88114000Y-37386000D01*
X90194000Y-38907000D02*
X91715000Y-38907000D01*
X88056000Y-36866000D02*
X90252000Y-36866000D01*
X88143000Y-36826000D02*
X90165000Y-36826000D01*
X90194000Y-38346000D02*
X91582000Y-38346000D01*
X86578000Y-39067000D02*
X88114000Y-39067000D01*
X90194000Y-37466000D02*
X91055000Y-37466000D01*
X86576000Y-39107000D02*
X88114000Y-39107000D01*
X90194000Y-38186000D02*
X91519000Y-38186000D01*
X86604000Y-38827000D02*
X88114000Y-38827000D01*
X87455000Y-37266000D02*
X88114000Y-37266000D01*
X87771000Y-37026000D02*
X90537000Y-37026000D01*
X90194000Y-38587000D02*
X91655000Y-38587000D01*
X86653000Y-38587000D02*
X88114000Y-38587000D01*
X87119000Y-37626000D02*
X88114000Y-37626000D01*
X90194000Y-37586000D02*
X91158000Y-37586000D01*
X90194000Y-37306000D02*
X90897000Y-37306000D01*
X88636000Y-36666000D02*
X89672000Y-36666000D01*
X88349000Y-36746000D02*
X89959000Y-36746000D01*
X87679000Y-42031775D02*
X87679000Y-41531775D01*
X86756000Y-38266000D02*
X88114000Y-38266000D01*
X86574000Y-39187000D02*
X88114000Y-39187000D01*
X87411000Y-37306000D02*
X88114000Y-37306000D01*
X86726000Y-38346000D02*
X88114000Y-38346000D01*
X90194000Y-37906000D02*
X91378000Y-37906000D01*
X90194000Y-39107000D02*
X91732000Y-39107000D01*
X87501000Y-37226000D02*
X88114000Y-37226000D01*
X86581000Y-39027000D02*
X88114000Y-39027000D01*
X90194000Y-38466000D02*
X91622000Y-38466000D01*
X90194000Y-38787000D02*
X91697000Y-38787000D01*
X88870000Y-36626000D02*
X89438000Y-36626000D01*
X86574000Y-39227000D02*
X88114000Y-39227000D01*
X90194000Y-39227000D02*
X91734000Y-39227000D01*
X87903000Y-36946000D02*
X90405000Y-36946000D01*
X90194000Y-37546000D02*
X91125000Y-37546000D01*
X87600000Y-37146000D02*
X90708000Y-37146000D01*
X90194000Y-37346000D02*
X90939000Y-37346000D01*
X90194000Y-38066000D02*
X91464000Y-38066000D01*
X90194000Y-38707000D02*
X91682000Y-38707000D01*
X90194000Y-37986000D02*
X91422000Y-37986000D01*
X86643000Y-38627000D02*
X88114000Y-38627000D01*
X90194000Y-38506000D02*
X91634000Y-38506000D01*
X90194000Y-38827000D02*
X91704000Y-38827000D01*
X86772000Y-38226000D02*
X88114000Y-38226000D01*
X90194000Y-38667000D02*
X91674000Y-38667000D01*
X86626000Y-38707000D02*
X88114000Y-38707000D01*
X90194000Y-38947000D02*
X91719000Y-38947000D01*
X90194000Y-39067000D02*
X91730000Y-39067000D01*
X90194000Y-37426000D02*
X91018000Y-37426000D01*
X86663000Y-38547000D02*
X88114000Y-38547000D01*
X86740000Y-38306000D02*
X88114000Y-38306000D01*
X86585000Y-38987000D02*
X88114000Y-38987000D01*
X86686000Y-38466000D02*
X88114000Y-38466000D01*
X90194000Y-37826000D02*
X91329000Y-37826000D01*
X87976000Y-36906000D02*
X90332000Y-36906000D01*
X87059000Y-37706000D02*
X88114000Y-37706000D01*
X86589000Y-38947000D02*
X88114000Y-38947000D01*
X86712000Y-38386000D02*
X88114000Y-38386000D01*
X87290000Y-37426000D02*
X88114000Y-37426000D01*
X90194000Y-39027000D02*
X91727000Y-39027000D01*
X86618000Y-38747000D02*
X88114000Y-38747000D01*
X87429000Y-41781775D02*
X87929000Y-41781775D01*
X87183000Y-37546000D02*
X88114000Y-37546000D01*
X90194000Y-38306000D02*
X91568000Y-38306000D01*
X86634000Y-38667000D02*
X88114000Y-38667000D01*
X90194000Y-37786000D02*
X91303000Y-37786000D01*
X90194000Y-37946000D02*
X91401000Y-37946000D01*
X91774000Y-39227000D02*
G75*
G03*
X91774000Y-39227000I-2620000J0D01*
G01*
%TO.C,Q1*%
X94702000Y-34322000D02*
X104942000Y-34322000D01*
X94702000Y-34322000D02*
X94702000Y-38963000D01*
X94702000Y-38963000D02*
X104942000Y-38963000D01*
X97972000Y-34322000D02*
X97972000Y-35832000D01*
X104942000Y-34322000D02*
X104942000Y-38963000D01*
X101673000Y-34322000D02*
X101673000Y-35832000D01*
X94702000Y-35832000D02*
X104942000Y-35832000D01*
%TO.C,U1*%
X93091000Y-41437000D02*
X91291000Y-41437000D01*
X93091000Y-44557000D02*
X92291000Y-44557000D01*
X93091000Y-44557000D02*
X93891000Y-44557000D01*
X93091000Y-41437000D02*
X93891000Y-41437000D01*
%TO.C,kibuzzard-63E822D9*%
G36*
X112043071Y-47469227D02*
G01*
X112132666Y-47535306D01*
X112185351Y-47650797D01*
X112202912Y-47821056D01*
X112185351Y-48004115D01*
X112132666Y-48124666D01*
X112043071Y-48191638D01*
X111914781Y-48213963D01*
X111776669Y-48197294D01*
X111776669Y-47466250D01*
X111914781Y-47447200D01*
X112043071Y-47469227D01*
G37*
G36*
X119168664Y-47484109D02*
G01*
X119282369Y-47594838D01*
X119331317Y-47717604D01*
X119360685Y-47889054D01*
X119370475Y-48109188D01*
X119360818Y-48352340D01*
X119331846Y-48538871D01*
X119283559Y-48668781D01*
X119170152Y-48783081D01*
X119003763Y-48821181D01*
X118896606Y-48799750D01*
X118896606Y-47468631D01*
X119003763Y-47447200D01*
X119168664Y-47484109D01*
G37*
G36*
X111212312Y-46942375D02*
G01*
X119927688Y-46942375D01*
X119927688Y-49323625D01*
X111212312Y-49323625D01*
X111212312Y-49002156D01*
X111509969Y-49002156D01*
X111776669Y-49002156D01*
X111776669Y-48406844D01*
X111914781Y-48418750D01*
X112084511Y-48402875D01*
X112222227Y-48355250D01*
X112327928Y-48275875D01*
X112402673Y-48161840D01*
X112447520Y-48010233D01*
X112462469Y-47821056D01*
X112447917Y-47635186D01*
X112404260Y-47487152D01*
X112331500Y-47376953D01*
X112226990Y-47300885D01*
X112114254Y-47263844D01*
X112576769Y-47263844D01*
X112731550Y-49002156D01*
X112988725Y-49002156D01*
X113129219Y-47835344D01*
X113136362Y-47835344D01*
X113255425Y-49002156D01*
X113564988Y-49002156D01*
X113795969Y-49002156D01*
X114029331Y-49002156D01*
X114069812Y-47525781D01*
X114076956Y-47525781D01*
X114212687Y-48597344D01*
X114438906Y-48597344D01*
X114586544Y-47525781D01*
X114588925Y-47525781D01*
X114624644Y-49002156D01*
X114879437Y-49002156D01*
X114834781Y-48121094D01*
X116208175Y-48121094D01*
X116217477Y-48333174D01*
X116245382Y-48516977D01*
X116291891Y-48672502D01*
X116357003Y-48799750D01*
X116440719Y-48898721D01*
X116543038Y-48969414D01*
X116663961Y-49011830D01*
X116803488Y-49025969D01*
X116945833Y-49016708D01*
X117016515Y-49002156D01*
X117458331Y-49002156D01*
X117720269Y-49002156D01*
X117720269Y-47740094D01*
X117725031Y-47740094D01*
X118096506Y-49002156D01*
X118363206Y-49002156D01*
X118363206Y-48978344D01*
X118629906Y-48978344D01*
X118809095Y-49014062D01*
X119003763Y-49025969D01*
X119201406Y-49005430D01*
X119356187Y-48943816D01*
X119473762Y-48831599D01*
X119559784Y-48659256D01*
X119598810Y-48508179D01*
X119622226Y-48324823D01*
X119630031Y-48109188D01*
X119620878Y-47886615D01*
X119593420Y-47699910D01*
X119547655Y-47549073D01*
X119483584Y-47434103D01*
X119365183Y-47326285D01*
X119205243Y-47261595D01*
X119003763Y-47240031D01*
X118816239Y-47251938D01*
X118629906Y-47287656D01*
X118629906Y-48978344D01*
X118363206Y-48978344D01*
X118363206Y-47263844D01*
X118113175Y-47263844D01*
X118113175Y-48525906D01*
X118106031Y-48525906D01*
X117734556Y-47263844D01*
X117458331Y-47263844D01*
X117458331Y-49002156D01*
X117016515Y-49002156D01*
X117080771Y-48988927D01*
X117208300Y-48942625D01*
X117208300Y-47966313D01*
X116653469Y-47966313D01*
X116653469Y-48168719D01*
X116953506Y-48168719D01*
X116953506Y-48792606D01*
X116810631Y-48821181D01*
X116665375Y-48780700D01*
X116558219Y-48659256D01*
X116509271Y-48527494D01*
X116479902Y-48348106D01*
X116470112Y-48121094D01*
X116480431Y-47899241D01*
X116511387Y-47725806D01*
X116562981Y-47600791D01*
X116681448Y-47487384D01*
X116851112Y-47449581D01*
X116996964Y-47463869D01*
X117148769Y-47506731D01*
X117148769Y-47292419D01*
X117002917Y-47253128D01*
X116851112Y-47240031D01*
X116654659Y-47263579D01*
X116493925Y-47334223D01*
X116368909Y-47451963D01*
X116298588Y-47573257D01*
X116248359Y-47725211D01*
X116218221Y-47907823D01*
X116208175Y-48121094D01*
X114834781Y-48121094D01*
X114791331Y-47263844D01*
X114491294Y-47263844D01*
X114348419Y-48371125D01*
X114343656Y-48371125D01*
X114198400Y-47263844D01*
X113886456Y-47263844D01*
X113795969Y-49002156D01*
X113564988Y-49002156D01*
X113719769Y-47263844D01*
X113481644Y-47263844D01*
X113393537Y-48752125D01*
X113388775Y-48752125D01*
X113262569Y-47549594D01*
X113050637Y-47549594D01*
X112919669Y-48585438D01*
X112914906Y-48585438D01*
X112831562Y-47263844D01*
X112576769Y-47263844D01*
X112114254Y-47263844D01*
X112088083Y-47255245D01*
X111914781Y-47240031D01*
X111777727Y-47245323D01*
X111642790Y-47261198D01*
X111509969Y-47287656D01*
X111509969Y-49002156D01*
X111212312Y-49002156D01*
X111212312Y-46942375D01*
G37*
%TO.C,C2*%
X89288252Y-42445000D02*
X88765748Y-42445000D01*
X89288252Y-43915000D02*
X88765748Y-43915000D01*
%TD*%
%LPC*%
D12*
%TO.C,R3*%
X103010000Y-53371000D03*
X103010000Y-51371000D03*
%TD*%
D13*
%TO.C,SW1*%
X99960000Y-50171000D03*
X99960000Y-54371000D03*
%TD*%
D14*
%TO.C,U3*%
X78120000Y-41330000D03*
X77320000Y-41330000D03*
X76520000Y-41330000D03*
X75720000Y-41330000D03*
X74920000Y-41330000D03*
X74120000Y-41330000D03*
X73320000Y-41330000D03*
X72520000Y-41330000D03*
D15*
X71070000Y-42780000D03*
X71070000Y-43580000D03*
X71070000Y-44380000D03*
X71070000Y-45180000D03*
X71070000Y-45980000D03*
X71070000Y-46780000D03*
X71070000Y-47580000D03*
X71070000Y-48380000D03*
D14*
X72520000Y-49830000D03*
X73320000Y-49830000D03*
X74120000Y-49830000D03*
X74920000Y-49830000D03*
X75720000Y-49830000D03*
X76520000Y-49830000D03*
X77320000Y-49830000D03*
X78120000Y-49830000D03*
D15*
X79570000Y-48380000D03*
X79570000Y-47580000D03*
X79570000Y-46780000D03*
X79570000Y-45980000D03*
X79570000Y-45180000D03*
X79570000Y-44380000D03*
X79570000Y-43580000D03*
X79570000Y-42780000D03*
%TD*%
D16*
%TO.C,U2*%
X82280000Y-57460000D03*
X82280000Y-58730000D03*
X82280000Y-60000000D03*
X82280000Y-61270000D03*
X87230000Y-61270000D03*
X87230000Y-60000000D03*
X87230000Y-58730000D03*
X87230000Y-57460000D03*
%TD*%
D17*
%TO.C,JP3*%
X91900000Y-61650000D03*
D18*
X94440000Y-61650000D03*
%TD*%
D19*
%TO.C,J6*%
X24081000Y-58000000D03*
D20*
X24081000Y-60500000D03*
%TD*%
D21*
%TO.C,J2*%
X25280000Y-24180000D03*
D22*
X25280000Y-29180000D03*
%TD*%
D21*
%TO.C,J3*%
X114800000Y-29330000D03*
D22*
X114800000Y-24330000D03*
%TD*%
D23*
%TO.C,J5*%
X116010000Y-60550000D03*
D20*
X116010000Y-58050000D03*
%TD*%
D24*
%TO.C,R1*%
X77581000Y-58674000D03*
X75581000Y-58674000D03*
%TD*%
D25*
%TO.C,R5*%
X90940000Y-58710000D03*
X92940000Y-58710000D03*
%TD*%
D26*
%TO.C,C6*%
X81026000Y-38150800D03*
D27*
X82526000Y-38150800D03*
%TD*%
D26*
%TO.C,C7*%
X69850000Y-52900000D03*
D27*
X69850000Y-54400000D03*
%TD*%
D25*
%TO.C,R4*%
X80772000Y-55372000D03*
X82772000Y-55372000D03*
%TD*%
D28*
%TO.C,J1*%
X45669000Y-56987500D03*
D29*
X45669000Y-59527500D03*
X43129000Y-56987500D03*
X43129000Y-59527500D03*
X40589000Y-56987500D03*
X40589000Y-59527500D03*
%TD*%
D30*
%TO.C,C1*%
X76935000Y-37970000D03*
X74860000Y-37970000D03*
%TD*%
D31*
%TO.C,R9*%
X43230800Y-38963600D03*
X43230800Y-42063600D03*
%TD*%
D32*
%TO.C,SW2*%
X55385000Y-53594000D03*
X55385000Y-56134000D03*
X55385000Y-58674000D03*
X55385000Y-61214000D03*
X63995000Y-61214000D03*
X63995000Y-58674000D03*
X63995000Y-56134000D03*
X63995000Y-53594000D03*
%TD*%
D33*
%TO.C,D2*%
X55612500Y-38300000D03*
X58587500Y-38300000D03*
%TD*%
%TO.C,D3*%
X55612500Y-41690000D03*
X58587500Y-41690000D03*
%TD*%
D17*
%TO.C,JP2*%
X50866000Y-38930000D03*
D18*
X50866000Y-41470000D03*
%TD*%
D34*
%TO.C,R7*%
X61495000Y-38300000D03*
X64595000Y-38300000D03*
%TD*%
%TO.C,R8*%
X61495000Y-41700000D03*
X64595000Y-41700000D03*
%TD*%
D30*
%TO.C,C11*%
X33447900Y-35560000D03*
X31372900Y-35560000D03*
%TD*%
D35*
%TO.C,C13*%
X28448000Y-43289400D03*
X28448000Y-45364400D03*
%TD*%
D36*
%TO.C,D6*%
X28498800Y-36677600D03*
X28498800Y-39977600D03*
%TD*%
D37*
%TO.C,L3*%
X23596600Y-38613900D03*
X23596600Y-44113900D03*
%TD*%
D38*
%TO.C,U4*%
X30759400Y-43369000D03*
X32029400Y-43369000D03*
X33299400Y-43369000D03*
X34569400Y-43369000D03*
X34569400Y-38419000D03*
X33299400Y-38419000D03*
X32029400Y-38419000D03*
X30759400Y-38419000D03*
%TD*%
D25*
%TO.C,R6*%
X80772000Y-52197000D03*
X82772000Y-52197000D03*
%TD*%
D39*
%TO.C,C8*%
X34988500Y-31305500D03*
D40*
X37488500Y-31305500D03*
%TD*%
D39*
%TO.C,C12*%
X28498800Y-48869600D03*
D40*
X28498800Y-52369600D03*
%TD*%
D41*
%TO.C,Y1*%
X73279000Y-33782000D03*
X68399000Y-33782000D03*
%TD*%
D42*
%TO.C,C3*%
X77978000Y-33782000D03*
X80053000Y-33782000D03*
%TD*%
%TO.C,C4*%
X61679000Y-33782000D03*
X63754000Y-33782000D03*
%TD*%
D17*
%TO.C,JP4*%
X88011000Y-49911000D03*
D18*
X88011000Y-52451000D03*
%TD*%
D17*
%TO.C,JP5*%
X91821000Y-52451000D03*
D18*
X91821000Y-49911000D03*
%TD*%
D21*
%TO.C,J4*%
X114808000Y-43815000D03*
D22*
X114808000Y-38815000D03*
%TD*%
D42*
%TO.C,C5*%
X73312500Y-53500000D03*
X75387500Y-53500000D03*
%TD*%
D43*
%TO.C,D4*%
X40030400Y-41938600D03*
X40030400Y-38963600D03*
%TD*%
D44*
%TO.C,C10*%
X97282000Y-43675000D03*
X97282000Y-45225000D03*
%TD*%
D45*
%TO.C,R2*%
X97282000Y-42004500D03*
X97282000Y-40179500D03*
%TD*%
D46*
%TO.C,JP1*%
X101346000Y-43830000D03*
X101346000Y-42530000D03*
%TD*%
D39*
%TO.C,C9*%
X89154000Y-40227000D03*
D40*
X89154000Y-38227000D03*
%TD*%
D47*
%TO.C,Q1*%
X97282000Y-37592000D03*
D48*
X99822000Y-37592000D03*
X102362000Y-37592000D03*
%TD*%
D49*
%TO.C,U1*%
X91953500Y-42047000D03*
X91953500Y-42997000D03*
X91953500Y-43947000D03*
X94228500Y-43947000D03*
X94228500Y-42047000D03*
%TD*%
D50*
%TO.C,C2*%
X89977000Y-43180000D03*
X88077000Y-43180000D03*
%TD*%
D51*
X40640000Y-30480000D03*
X78740000Y-30480000D03*
X48260000Y-30480000D03*
X43180000Y-30480000D03*
X55880000Y-30480000D03*
X86360000Y-30480000D03*
X86360000Y-27940000D03*
X91440000Y-30480000D03*
X55880000Y-27940000D03*
X104140000Y-27940000D03*
X99060000Y-27940000D03*
X68580000Y-30480000D03*
X60960000Y-27940000D03*
X76200000Y-30480000D03*
X81280000Y-30480000D03*
X40640000Y-27940000D03*
X101600000Y-30480000D03*
X43180000Y-27940000D03*
X99060000Y-30480000D03*
X83820000Y-30480000D03*
X53340000Y-27940000D03*
X58420000Y-30480000D03*
X71120000Y-27940000D03*
X38100000Y-27940000D03*
X68580000Y-27940000D03*
X73660000Y-30480000D03*
X73660000Y-27940000D03*
X101600000Y-27940000D03*
X88900000Y-27940000D03*
X63500000Y-27940000D03*
X76200000Y-27940000D03*
X91440000Y-27940000D03*
X45720000Y-30480000D03*
X58420000Y-27940000D03*
X50800000Y-27940000D03*
X53340000Y-30480000D03*
X81280000Y-27940000D03*
X96520000Y-30480000D03*
X45720000Y-27940000D03*
X63500000Y-30480000D03*
X104140000Y-30480000D03*
X83820000Y-27940000D03*
X66040000Y-30480000D03*
X50800000Y-30480000D03*
X60960000Y-30480000D03*
X96520000Y-27940000D03*
X48260000Y-27940000D03*
X71120000Y-30480000D03*
X93980000Y-30480000D03*
X78740000Y-27940000D03*
X88900000Y-30480000D03*
X93980000Y-27940000D03*
X66040000Y-27940000D03*
D52*
X101346000Y-47371000D03*
X72847200Y-43891200D03*
X90678000Y-44958000D03*
X103010000Y-54971000D03*
X75710000Y-43110000D03*
X73320000Y-48180000D03*
X82740500Y-53784500D03*
X89281000Y-57404000D03*
X74100000Y-43130000D03*
X66200000Y-38300000D03*
X66484500Y-60706000D03*
X70866000Y-49784000D03*
X67310000Y-56959500D03*
X89317000Y-58710000D03*
X79603600Y-41605200D03*
X53848000Y-41605200D03*
X52425600Y-45161200D03*
X99949000Y-48895000D03*
X81280000Y-45212000D03*
M02*
