%TF.GenerationSoftware,KiCad,Pcbnew,(6.0.11)*%
%TF.CreationDate,2023-02-12T20:14:36+01:00*%
%TF.ProjectId,DMX_PWM_LED_Driver,444d585f-5057-44d5-9f4c-45445f447269,rev?*%
%TF.SameCoordinates,Original*%
%TF.FileFunction,Paste,Top*%
%TF.FilePolarity,Positive*%
%FSLAX46Y46*%
G04 Gerber Fmt 4.6, Leading zero omitted, Abs format (unit mm)*
G04 Created by KiCad (PCBNEW (6.0.11)) date 2023-02-12 20:14:36*
%MOMM*%
%LPD*%
G01*
G04 APERTURE LIST*
G04 Aperture macros list*
%AMRoundRect*
0 Rectangle with rounded corners*
0 $1 Rounding radius*
0 $2 $3 $4 $5 $6 $7 $8 $9 X,Y pos of 4 corners*
0 Add a 4 corners polygon primitive as box body*
4,1,4,$2,$3,$4,$5,$6,$7,$8,$9,$2,$3,0*
0 Add four circle primitives for the rounded corners*
1,1,$1+$1,$2,$3*
1,1,$1+$1,$4,$5*
1,1,$1+$1,$6,$7*
1,1,$1+$1,$8,$9*
0 Add four rect primitives between the rounded corners*
20,1,$1+$1,$2,$3,$4,$5,0*
20,1,$1+$1,$4,$5,$6,$7,0*
20,1,$1+$1,$6,$7,$8,$9,0*
20,1,$1+$1,$8,$9,$2,$3,0*%
G04 Aperture macros list end*
%ADD10RoundRect,0.249999X0.450001X-0.350001X0.450001X0.350001X-0.450001X0.350001X-0.450001X-0.350001X0*%
%ADD11RoundRect,0.200000X-0.800000X0.200000X-0.800000X-0.200000X0.800000X-0.200000X0.800000X0.200000X0*%
%ADD12R,0.550000X1.600000*%
%ADD13R,1.600000X0.550000*%
%ADD14RoundRect,0.150000X-0.825000X-0.150000X0.825000X-0.150000X0.825000X0.150000X-0.825000X0.150000X0*%
%ADD15RoundRect,0.249999X0.350001X0.450001X-0.350001X0.450001X-0.350001X-0.450001X0.350001X-0.450001X0*%
%ADD16RoundRect,0.249999X-0.350001X-0.450001X0.350001X-0.450001X0.350001X0.450001X-0.350001X0.450001X0*%
%ADD17RoundRect,0.250000X0.337500X0.475000X-0.337500X0.475000X-0.337500X-0.475000X0.337500X-0.475000X0*%
%ADD18RoundRect,0.250000X-0.625000X0.400000X-0.625000X-0.400000X0.625000X-0.400000X0.625000X0.400000X0*%
%ADD19R,2.440000X1.120000*%
%ADD20RoundRect,0.250000X-0.462500X-0.625000X0.462500X-0.625000X0.462500X0.625000X-0.462500X0.625000X0*%
%ADD21RoundRect,0.250000X-0.400000X-0.625000X0.400000X-0.625000X0.400000X0.625000X-0.400000X0.625000X0*%
%ADD22RoundRect,0.250000X-0.475000X0.337500X-0.475000X-0.337500X0.475000X-0.337500X0.475000X0.337500X0*%
%ADD23R,1.200000X0.900000*%
%ADD24R,2.400000X1.500000*%
%ADD25RoundRect,0.150000X0.150000X-0.825000X0.150000X0.825000X-0.150000X0.825000X-0.150000X-0.825000X0*%
%ADD26RoundRect,0.250000X-0.337500X-0.475000X0.337500X-0.475000X0.337500X0.475000X-0.337500X0.475000X0*%
%ADD27RoundRect,0.250000X0.625000X-0.462500X0.625000X0.462500X-0.625000X0.462500X-0.625000X-0.462500X0*%
%ADD28RoundRect,0.225000X-0.250000X0.225000X-0.250000X-0.225000X0.250000X-0.225000X0.250000X0.225000X0*%
%ADD29RoundRect,0.250000X0.450000X-0.262500X0.450000X0.262500X-0.450000X0.262500X-0.450000X-0.262500X0*%
%ADD30RoundRect,0.150000X-0.512500X-0.150000X0.512500X-0.150000X0.512500X0.150000X-0.512500X0.150000X0*%
%ADD31RoundRect,0.250000X0.250000X0.475000X-0.250000X0.475000X-0.250000X-0.475000X0.250000X-0.475000X0*%
G04 APERTURE END LIST*
D10*
%TO.C,R3*%
X103010000Y-53371000D03*
X103010000Y-51371000D03*
%TD*%
D11*
%TO.C,SW1*%
X99960000Y-50171000D03*
X99960000Y-54371000D03*
%TD*%
D12*
%TO.C,U3*%
X78120000Y-41330000D03*
X77320000Y-41330000D03*
X76520000Y-41330000D03*
X75720000Y-41330000D03*
X74920000Y-41330000D03*
X74120000Y-41330000D03*
X73320000Y-41330000D03*
X72520000Y-41330000D03*
D13*
X71070000Y-42780000D03*
X71070000Y-43580000D03*
X71070000Y-44380000D03*
X71070000Y-45180000D03*
X71070000Y-45980000D03*
X71070000Y-46780000D03*
X71070000Y-47580000D03*
X71070000Y-48380000D03*
D12*
X72520000Y-49830000D03*
X73320000Y-49830000D03*
X74120000Y-49830000D03*
X74920000Y-49830000D03*
X75720000Y-49830000D03*
X76520000Y-49830000D03*
X77320000Y-49830000D03*
X78120000Y-49830000D03*
D13*
X79570000Y-48380000D03*
X79570000Y-47580000D03*
X79570000Y-46780000D03*
X79570000Y-45980000D03*
X79570000Y-45180000D03*
X79570000Y-44380000D03*
X79570000Y-43580000D03*
X79570000Y-42780000D03*
%TD*%
D14*
%TO.C,U2*%
X82280000Y-57460000D03*
X82280000Y-58730000D03*
X82280000Y-60000000D03*
X82280000Y-61270000D03*
X87230000Y-61270000D03*
X87230000Y-60000000D03*
X87230000Y-58730000D03*
X87230000Y-57460000D03*
%TD*%
D15*
%TO.C,R1*%
X77581000Y-58674000D03*
X75581000Y-58674000D03*
%TD*%
D16*
%TO.C,R5*%
X90940000Y-58710000D03*
X92940000Y-58710000D03*
%TD*%
%TO.C,R4*%
X80772000Y-55372000D03*
X82772000Y-55372000D03*
%TD*%
D17*
%TO.C,C1*%
X76935000Y-37970000D03*
X74860000Y-37970000D03*
%TD*%
D18*
%TO.C,R9*%
X43230800Y-38963600D03*
X43230800Y-42063600D03*
%TD*%
D19*
%TO.C,SW2*%
X55385000Y-53594000D03*
X55385000Y-56134000D03*
X55385000Y-58674000D03*
X55385000Y-61214000D03*
X63995000Y-61214000D03*
X63995000Y-58674000D03*
X63995000Y-56134000D03*
X63995000Y-53594000D03*
%TD*%
D20*
%TO.C,D2*%
X55612500Y-38300000D03*
X58587500Y-38300000D03*
%TD*%
%TO.C,D3*%
X55612500Y-41690000D03*
X58587500Y-41690000D03*
%TD*%
D21*
%TO.C,R7*%
X61495000Y-38300000D03*
X64595000Y-38300000D03*
%TD*%
%TO.C,R8*%
X61495000Y-41700000D03*
X64595000Y-41700000D03*
%TD*%
D17*
%TO.C,C11*%
X33447900Y-35560000D03*
X31372900Y-35560000D03*
%TD*%
D22*
%TO.C,C13*%
X28448000Y-43289400D03*
X28448000Y-45364400D03*
%TD*%
D23*
%TO.C,D6*%
X28498800Y-36677600D03*
X28498800Y-39977600D03*
%TD*%
D24*
%TO.C,L3*%
X23596600Y-38613900D03*
X23596600Y-44113900D03*
%TD*%
D25*
%TO.C,U4*%
X30759400Y-43369000D03*
X32029400Y-43369000D03*
X33299400Y-43369000D03*
X34569400Y-43369000D03*
X34569400Y-38419000D03*
X33299400Y-38419000D03*
X32029400Y-38419000D03*
X30759400Y-38419000D03*
%TD*%
D16*
%TO.C,R6*%
X80772000Y-52197000D03*
X82772000Y-52197000D03*
%TD*%
D26*
%TO.C,C3*%
X77978000Y-33782000D03*
X80053000Y-33782000D03*
%TD*%
%TO.C,C4*%
X61679000Y-33782000D03*
X63754000Y-33782000D03*
%TD*%
%TO.C,C5*%
X73312500Y-53500000D03*
X75387500Y-53500000D03*
%TD*%
D27*
%TO.C,D4*%
X40030400Y-41938600D03*
X40030400Y-38963600D03*
%TD*%
D28*
%TO.C,C10*%
X97282000Y-43675000D03*
X97282000Y-45225000D03*
%TD*%
D29*
%TO.C,R2*%
X97282000Y-42004500D03*
X97282000Y-40179500D03*
%TD*%
D30*
%TO.C,U1*%
X91953500Y-42047000D03*
X91953500Y-42997000D03*
X91953500Y-43947000D03*
X94228500Y-43947000D03*
X94228500Y-42047000D03*
%TD*%
D31*
%TO.C,C2*%
X89977000Y-43180000D03*
X88077000Y-43180000D03*
%TD*%
M02*
