%TF.GenerationSoftware,KiCad,Pcbnew,(6.0.8)*%
%TF.CreationDate,2022-10-05T23:26:50+02:00*%
%TF.ProjectId,DMX_ControllerBoard,444d585f-436f-46e7-9472-6f6c6c657242,rev?*%
%TF.SameCoordinates,Original*%
%TF.FileFunction,Paste,Top*%
%TF.FilePolarity,Positive*%
%FSLAX46Y46*%
G04 Gerber Fmt 4.6, Leading zero omitted, Abs format (unit mm)*
G04 Created by KiCad (PCBNEW (6.0.8)) date 2022-10-05 23:26:50*
%MOMM*%
%LPD*%
G01*
G04 APERTURE LIST*
G04 Aperture macros list*
%AMRoundRect*
0 Rectangle with rounded corners*
0 $1 Rounding radius*
0 $2 $3 $4 $5 $6 $7 $8 $9 X,Y pos of 4 corners*
0 Add a 4 corners polygon primitive as box body*
4,1,4,$2,$3,$4,$5,$6,$7,$8,$9,$2,$3,0*
0 Add four circle primitives for the rounded corners*
1,1,$1+$1,$2,$3*
1,1,$1+$1,$4,$5*
1,1,$1+$1,$6,$7*
1,1,$1+$1,$8,$9*
0 Add four rect primitives between the rounded corners*
20,1,$1+$1,$2,$3,$4,$5,0*
20,1,$1+$1,$4,$5,$6,$7,0*
20,1,$1+$1,$6,$7,$8,$9,0*
20,1,$1+$1,$8,$9,$2,$3,0*%
G04 Aperture macros list end*
%ADD10RoundRect,0.250000X-0.337500X-0.475000X0.337500X-0.475000X0.337500X0.475000X-0.337500X0.475000X0*%
%ADD11R,0.900000X1.200000*%
%ADD12R,1.500000X2.400000*%
%ADD13RoundRect,0.249999X-0.350001X-0.450001X0.350001X-0.450001X0.350001X0.450001X-0.350001X0.450001X0*%
%ADD14RoundRect,0.200000X0.200000X0.800000X-0.200000X0.800000X-0.200000X-0.800000X0.200000X-0.800000X0*%
%ADD15RoundRect,0.150000X-0.150000X0.825000X-0.150000X-0.825000X0.150000X-0.825000X0.150000X0.825000X0*%
%ADD16RoundRect,0.150000X0.825000X0.150000X-0.825000X0.150000X-0.825000X-0.150000X0.825000X-0.150000X0*%
%ADD17RoundRect,0.250000X-0.650000X0.325000X-0.650000X-0.325000X0.650000X-0.325000X0.650000X0.325000X0*%
%ADD18RoundRect,0.250000X-0.475000X0.250000X-0.475000X-0.250000X0.475000X-0.250000X0.475000X0.250000X0*%
%ADD19R,1.500000X0.900000*%
%ADD20R,0.900000X1.500000*%
%ADD21R,1.050000X1.050000*%
%ADD22RoundRect,0.250000X-0.475000X0.337500X-0.475000X-0.337500X0.475000X-0.337500X0.475000X0.337500X0*%
%ADD23RoundRect,0.250000X-0.462500X-0.625000X0.462500X-0.625000X0.462500X0.625000X-0.462500X0.625000X0*%
%ADD24RoundRect,0.250000X0.400000X0.625000X-0.400000X0.625000X-0.400000X-0.625000X0.400000X-0.625000X0*%
%ADD25RoundRect,0.249999X-0.450001X0.350001X-0.450001X-0.350001X0.450001X-0.350001X0.450001X0.350001X0*%
%ADD26RoundRect,0.200000X-0.200000X-0.800000X0.200000X-0.800000X0.200000X0.800000X-0.200000X0.800000X0*%
%ADD27RoundRect,0.249999X0.450001X-0.350001X0.450001X0.350001X-0.450001X0.350001X-0.450001X-0.350001X0*%
%ADD28RoundRect,0.250000X0.250000X0.475000X-0.250000X0.475000X-0.250000X-0.475000X0.250000X-0.475000X0*%
%ADD29RoundRect,0.250000X-0.350000X-0.450000X0.350000X-0.450000X0.350000X0.450000X-0.350000X0.450000X0*%
%ADD30R,0.800000X0.300000*%
%ADD31R,1.500000X2.000000*%
%ADD32R,3.800000X2.000000*%
%ADD33R,0.300000X0.800000*%
G04 APERTURE END LIST*
D10*
%TO.C,C13*%
X38078500Y-36385500D03*
X40153500Y-36385500D03*
%TD*%
D11*
%TO.C,D6*%
X32640000Y-36385500D03*
X35940000Y-36385500D03*
%TD*%
D12*
%TO.C,L3*%
X32810000Y-41465500D03*
X38310000Y-41465500D03*
%TD*%
D13*
%TO.C,R3*%
X67516500Y-34417000D03*
X69516500Y-34417000D03*
%TD*%
D14*
%TO.C,SW1*%
X69532500Y-37655500D03*
X65332500Y-37655500D03*
%TD*%
D15*
%TO.C,U2*%
X102692200Y-39435000D03*
X101422200Y-39435000D03*
X100152200Y-39435000D03*
X98882200Y-39435000D03*
X98882200Y-44385000D03*
X100152200Y-44385000D03*
X101422200Y-44385000D03*
X102692200Y-44385000D03*
%TD*%
D16*
%TO.C,U4*%
X38797000Y-33972500D03*
X38797000Y-32702500D03*
X38797000Y-31432500D03*
X38797000Y-30162500D03*
X33847000Y-30162500D03*
X33847000Y-31432500D03*
X33847000Y-32702500D03*
X33847000Y-33972500D03*
%TD*%
D17*
%TO.C,C1*%
X65849500Y-27735000D03*
X65849500Y-30685000D03*
%TD*%
D18*
%TO.C,C3*%
X58478500Y-34569000D03*
X58478500Y-36469000D03*
%TD*%
%TO.C,C4*%
X60764500Y-34569000D03*
X60764500Y-36469000D03*
%TD*%
D19*
%TO.C,U3*%
X73228500Y-26802000D03*
X73228500Y-28072000D03*
X73228500Y-29342000D03*
X73228500Y-30612000D03*
X73228500Y-31882000D03*
X73228500Y-33152000D03*
X73228500Y-34422000D03*
X73228500Y-35692000D03*
X73228500Y-36962000D03*
X73228500Y-38232000D03*
X73228500Y-39502000D03*
X73228500Y-40772000D03*
X73228500Y-42042000D03*
X73228500Y-43312000D03*
D20*
X76268500Y-44562000D03*
X77538500Y-44562000D03*
X78808500Y-44562000D03*
X80078500Y-44562000D03*
X81348500Y-44562000D03*
X82618500Y-44562000D03*
X83888500Y-44562000D03*
X85158500Y-44562000D03*
X86428500Y-44562000D03*
X87698500Y-44562000D03*
D19*
X90728500Y-43312000D03*
X90728500Y-42042000D03*
X90728500Y-40772000D03*
X90728500Y-39502000D03*
X90728500Y-38232000D03*
X90728500Y-36962000D03*
X90728500Y-35692000D03*
X90728500Y-34422000D03*
X90728500Y-33152000D03*
X90728500Y-31882000D03*
X90728500Y-30612000D03*
X90728500Y-29342000D03*
X90728500Y-28072000D03*
X90728500Y-26802000D03*
D21*
X79773500Y-35667000D03*
X82823500Y-35667000D03*
X82823500Y-34142000D03*
X81298500Y-35667000D03*
X79773500Y-32617000D03*
X81298500Y-34142000D03*
X81298500Y-32617000D03*
X82823500Y-32617000D03*
X79773500Y-34142000D03*
%TD*%
D13*
%TO.C,R1*%
X102673400Y-36588700D03*
X104673400Y-36588700D03*
%TD*%
D22*
%TO.C,C11*%
X30988000Y-30395000D03*
X30988000Y-32470000D03*
%TD*%
D23*
%TO.C,D1*%
X43851500Y-40830500D03*
X46826500Y-40830500D03*
%TD*%
D24*
%TO.C,R8*%
X46825500Y-44958000D03*
X43725500Y-44958000D03*
%TD*%
D25*
%TO.C,R5*%
X95631000Y-30178500D03*
X95631000Y-32178500D03*
%TD*%
D26*
%TO.C,SW2*%
X95626500Y-34988500D03*
X99826500Y-34988500D03*
%TD*%
D25*
%TO.C,R9*%
X116700300Y-33391600D03*
X116700300Y-35391600D03*
%TD*%
D14*
%TO.C,SW3*%
X116728700Y-38467600D03*
X112528700Y-38467600D03*
%TD*%
D27*
%TO.C,R4*%
X109791500Y-44434000D03*
X109791500Y-42434000D03*
%TD*%
D28*
%TO.C,C2*%
X55938500Y-43459000D03*
X54038500Y-43459000D03*
%TD*%
D29*
%TO.C,R2*%
X71136000Y-51435000D03*
X73136000Y-51435000D03*
%TD*%
D18*
%TO.C,C6*%
X70675500Y-28133000D03*
X70675500Y-30033000D03*
%TD*%
D29*
%TO.C,R6*%
X93615000Y-47498000D03*
X95615000Y-47498000D03*
%TD*%
D30*
%TO.C,U5*%
X66141000Y-48780000D03*
X66141000Y-49280000D03*
X66141000Y-49780000D03*
X66141000Y-50280000D03*
X69241000Y-50280000D03*
X69241000Y-49780000D03*
X69241000Y-49280000D03*
X69241000Y-48780000D03*
%TD*%
D31*
%TO.C,U1*%
X51357500Y-40894000D03*
D32*
X53657500Y-34594000D03*
D31*
X53657500Y-40894000D03*
X55957500Y-40894000D03*
%TD*%
D18*
%TO.C,C5*%
X68262500Y-28194000D03*
X68262500Y-30094000D03*
%TD*%
D33*
%TO.C,U6*%
X90309000Y-50572000D03*
X90809000Y-50572000D03*
X91309000Y-50572000D03*
X91809000Y-50572000D03*
X91809000Y-47472000D03*
X91309000Y-47472000D03*
X90809000Y-47472000D03*
X90309000Y-47472000D03*
%TD*%
M02*
