%TF.GenerationSoftware,KiCad,Pcbnew,(6.0.8)*%
%TF.CreationDate,2022-10-05T23:26:50+02:00*%
%TF.ProjectId,DMX_ControllerBoard,444d585f-436f-46e7-9472-6f6c6c657242,rev?*%
%TF.SameCoordinates,Original*%
%TF.FileFunction,Copper,L1,Top*%
%TF.FilePolarity,Positive*%
%FSLAX46Y46*%
G04 Gerber Fmt 4.6, Leading zero omitted, Abs format (unit mm)*
G04 Created by KiCad (PCBNEW (6.0.8)) date 2022-10-05 23:26:50*
%MOMM*%
%LPD*%
G01*
G04 APERTURE LIST*
G04 Aperture macros list*
%AMRoundRect*
0 Rectangle with rounded corners*
0 $1 Rounding radius*
0 $2 $3 $4 $5 $6 $7 $8 $9 X,Y pos of 4 corners*
0 Add a 4 corners polygon primitive as box body*
4,1,4,$2,$3,$4,$5,$6,$7,$8,$9,$2,$3,0*
0 Add four circle primitives for the rounded corners*
1,1,$1+$1,$2,$3*
1,1,$1+$1,$4,$5*
1,1,$1+$1,$6,$7*
1,1,$1+$1,$8,$9*
0 Add four rect primitives between the rounded corners*
20,1,$1+$1,$2,$3,$4,$5,0*
20,1,$1+$1,$4,$5,$6,$7,0*
20,1,$1+$1,$6,$7,$8,$9,0*
20,1,$1+$1,$8,$9,$2,$3,0*%
G04 Aperture macros list end*
%TA.AperFunction,ComponentPad*%
%ADD10R,1.600000X1.600000*%
%TD*%
%TA.AperFunction,ComponentPad*%
%ADD11C,1.600000*%
%TD*%
%TA.AperFunction,SMDPad,CuDef*%
%ADD12RoundRect,0.250000X-0.337500X-0.475000X0.337500X-0.475000X0.337500X0.475000X-0.337500X0.475000X0*%
%TD*%
%TA.AperFunction,SMDPad,CuDef*%
%ADD13R,0.900000X1.200000*%
%TD*%
%TA.AperFunction,ComponentPad*%
%ADD14R,2.600000X2.600000*%
%TD*%
%TA.AperFunction,ComponentPad*%
%ADD15C,2.600000*%
%TD*%
%TA.AperFunction,ComponentPad*%
%ADD16RoundRect,0.250000X0.750000X-0.600000X0.750000X0.600000X-0.750000X0.600000X-0.750000X-0.600000X0*%
%TD*%
%TA.AperFunction,ComponentPad*%
%ADD17O,2.000000X1.700000*%
%TD*%
%TA.AperFunction,SMDPad,CuDef*%
%ADD18R,1.500000X2.400000*%
%TD*%
%TA.AperFunction,SMDPad,CuDef*%
%ADD19RoundRect,0.249999X-0.350001X-0.450001X0.350001X-0.450001X0.350001X0.450001X-0.350001X0.450001X0*%
%TD*%
%TA.AperFunction,SMDPad,CuDef*%
%ADD20RoundRect,0.200000X0.200000X0.800000X-0.200000X0.800000X-0.200000X-0.800000X0.200000X-0.800000X0*%
%TD*%
%TA.AperFunction,SMDPad,CuDef*%
%ADD21RoundRect,0.150000X-0.150000X0.825000X-0.150000X-0.825000X0.150000X-0.825000X0.150000X0.825000X0*%
%TD*%
%TA.AperFunction,SMDPad,CuDef*%
%ADD22RoundRect,0.150000X0.825000X0.150000X-0.825000X0.150000X-0.825000X-0.150000X0.825000X-0.150000X0*%
%TD*%
%TA.AperFunction,SMDPad,CuDef*%
%ADD23RoundRect,0.250000X-0.650000X0.325000X-0.650000X-0.325000X0.650000X-0.325000X0.650000X0.325000X0*%
%TD*%
%TA.AperFunction,SMDPad,CuDef*%
%ADD24RoundRect,0.250000X-0.475000X0.250000X-0.475000X-0.250000X0.475000X-0.250000X0.475000X0.250000X0*%
%TD*%
%TA.AperFunction,SMDPad,CuDef*%
%ADD25R,1.500000X0.900000*%
%TD*%
%TA.AperFunction,SMDPad,CuDef*%
%ADD26R,0.900000X1.500000*%
%TD*%
%TA.AperFunction,SMDPad,CuDef*%
%ADD27R,1.050000X1.050000*%
%TD*%
%TA.AperFunction,ComponentPad*%
%ADD28C,0.475000*%
%TD*%
%TA.AperFunction,SMDPad,CuDef*%
%ADD29R,4.200000X4.200000*%
%TD*%
%TA.AperFunction,SMDPad,CuDef*%
%ADD30RoundRect,0.250000X-0.475000X0.337500X-0.475000X-0.337500X0.475000X-0.337500X0.475000X0.337500X0*%
%TD*%
%TA.AperFunction,SMDPad,CuDef*%
%ADD31RoundRect,0.250000X-0.462500X-0.625000X0.462500X-0.625000X0.462500X0.625000X-0.462500X0.625000X0*%
%TD*%
%TA.AperFunction,SMDPad,CuDef*%
%ADD32RoundRect,0.250000X0.400000X0.625000X-0.400000X0.625000X-0.400000X-0.625000X0.400000X-0.625000X0*%
%TD*%
%TA.AperFunction,SMDPad,CuDef*%
%ADD33RoundRect,0.249999X-0.450001X0.350001X-0.450001X-0.350001X0.450001X-0.350001X0.450001X0.350001X0*%
%TD*%
%TA.AperFunction,SMDPad,CuDef*%
%ADD34RoundRect,0.200000X-0.200000X-0.800000X0.200000X-0.800000X0.200000X0.800000X-0.200000X0.800000X0*%
%TD*%
%TA.AperFunction,ComponentPad*%
%ADD35R,1.700000X1.700000*%
%TD*%
%TA.AperFunction,ComponentPad*%
%ADD36O,1.700000X1.700000*%
%TD*%
%TA.AperFunction,SMDPad,CuDef*%
%ADD37RoundRect,0.249999X0.450001X-0.350001X0.450001X0.350001X-0.450001X0.350001X-0.450001X-0.350001X0*%
%TD*%
%TA.AperFunction,SMDPad,CuDef*%
%ADD38RoundRect,0.250000X0.250000X0.475000X-0.250000X0.475000X-0.250000X-0.475000X0.250000X-0.475000X0*%
%TD*%
%TA.AperFunction,SMDPad,CuDef*%
%ADD39RoundRect,0.250000X-0.350000X-0.450000X0.350000X-0.450000X0.350000X0.450000X-0.350000X0.450000X0*%
%TD*%
%TA.AperFunction,SMDPad,CuDef*%
%ADD40R,0.800000X0.300000*%
%TD*%
%TA.AperFunction,SMDPad,CuDef*%
%ADD41R,1.500000X2.000000*%
%TD*%
%TA.AperFunction,SMDPad,CuDef*%
%ADD42R,3.800000X2.000000*%
%TD*%
%TA.AperFunction,SMDPad,CuDef*%
%ADD43R,0.300000X0.800000*%
%TD*%
%TA.AperFunction,ViaPad*%
%ADD44C,1.000000*%
%TD*%
%TA.AperFunction,ViaPad*%
%ADD45C,0.800000*%
%TD*%
%TA.AperFunction,Conductor*%
%ADD46C,0.750000*%
%TD*%
%TA.AperFunction,Conductor*%
%ADD47C,1.000000*%
%TD*%
%TA.AperFunction,Conductor*%
%ADD48C,0.250000*%
%TD*%
G04 APERTURE END LIST*
D10*
%TO.P,C8,1*%
%TO.N,VCC*%
X26162000Y-32702500D03*
D11*
%TO.P,C8,2*%
%TO.N,GND*%
X26162000Y-30202500D03*
%TD*%
D10*
%TO.P,C12,1*%
%TO.N,+5V*%
X42799000Y-30099000D03*
D11*
%TO.P,C12,2*%
%TO.N,GND*%
X46299000Y-30099000D03*
%TD*%
D12*
%TO.P,C13,1*%
%TO.N,GND*%
X38078500Y-36385500D03*
%TO.P,C13,2*%
%TO.N,+5V*%
X40153500Y-36385500D03*
%TD*%
D13*
%TO.P,D6,1,K*%
%TO.N,Net-(D6-Pad1)*%
X32640000Y-36385500D03*
%TO.P,D6,2,A*%
%TO.N,GND*%
X35940000Y-36385500D03*
%TD*%
D14*
%TO.P,J3,1,Pin_1*%
%TO.N,GND*%
X24257000Y-38544500D03*
D15*
%TO.P,J3,2,Pin_2*%
%TO.N,VCC*%
X24257000Y-43544500D03*
%TD*%
D16*
%TO.P,J5,1,Pin_1*%
%TO.N,Net-(J5-Pad1)*%
X114731800Y-49542700D03*
D17*
%TO.P,J5,2,Pin_2*%
%TO.N,Net-(J5-Pad2)*%
X114731800Y-47042700D03*
%TD*%
D18*
%TO.P,L3,1*%
%TO.N,Net-(D6-Pad1)*%
X32810000Y-41465500D03*
%TO.P,L3,2*%
%TO.N,+5V*%
X38310000Y-41465500D03*
%TD*%
D19*
%TO.P,R3,1*%
%TO.N,+3.3V*%
X67516500Y-34417000D03*
%TO.P,R3,2*%
%TO.N,RESET*%
X69516500Y-34417000D03*
%TD*%
D20*
%TO.P,SW1,1,A*%
%TO.N,RESET*%
X69532500Y-37655500D03*
%TO.P,SW1,2,B*%
%TO.N,GND*%
X65332500Y-37655500D03*
%TD*%
D21*
%TO.P,U2,1,RO*%
%TO.N,unconnected-(U2-Pad1)*%
X102692200Y-39435000D03*
%TO.P,U2,2,~{RE}*%
%TO.N,Net-(R1-Pad1)*%
X101422200Y-39435000D03*
%TO.P,U2,3,DE*%
X100152200Y-39435000D03*
%TO.P,U2,4,DI*%
%TO.N,RS485_DIN*%
X98882200Y-39435000D03*
%TO.P,U2,5,GND*%
%TO.N,GND*%
X98882200Y-44385000D03*
%TO.P,U2,6,A*%
%TO.N,Net-(J5-Pad1)*%
X100152200Y-44385000D03*
%TO.P,U2,7,B*%
%TO.N,Net-(J5-Pad2)*%
X101422200Y-44385000D03*
%TO.P,U2,8,VCC*%
%TO.N,+5V*%
X102692200Y-44385000D03*
%TD*%
D22*
%TO.P,U4,1,NC*%
%TO.N,unconnected-(U4-Pad1)*%
X38797000Y-33972500D03*
%TO.P,U4,2,NC*%
%TO.N,unconnected-(U4-Pad2)*%
X38797000Y-32702500D03*
%TO.P,U4,3,NC*%
%TO.N,unconnected-(U4-Pad3)*%
X38797000Y-31432500D03*
%TO.P,U4,4,FB*%
%TO.N,+5V*%
X38797000Y-30162500D03*
%TO.P,U4,5,~{ON}/OFF*%
%TO.N,GND*%
X33847000Y-30162500D03*
%TO.P,U4,6,GND*%
X33847000Y-31432500D03*
%TO.P,U4,7,VIN*%
%TO.N,VCC*%
X33847000Y-32702500D03*
%TO.P,U4,8,OUT*%
%TO.N,Net-(D6-Pad1)*%
X33847000Y-33972500D03*
%TD*%
D23*
%TO.P,C1,1*%
%TO.N,+3.3V*%
X65849500Y-27735000D03*
%TO.P,C1,2*%
%TO.N,GND*%
X65849500Y-30685000D03*
%TD*%
D24*
%TO.P,C3,1*%
%TO.N,+3.3V*%
X58478500Y-34569000D03*
%TO.P,C3,2*%
%TO.N,GND*%
X58478500Y-36469000D03*
%TD*%
%TO.P,C4,1*%
%TO.N,+3.3V*%
X60764500Y-34569000D03*
%TO.P,C4,2*%
%TO.N,GND*%
X60764500Y-36469000D03*
%TD*%
D25*
%TO.P,U3,1,GND*%
%TO.N,GND*%
X73228500Y-26802000D03*
%TO.P,U3,2,VDD*%
%TO.N,+3.3V*%
X73228500Y-28072000D03*
%TO.P,U3,3,EN*%
%TO.N,RESET*%
X73228500Y-29342000D03*
%TO.P,U3,4,SENSOR_VP*%
%TO.N,unconnected-(U3-Pad4)*%
X73228500Y-30612000D03*
%TO.P,U3,5,SENSOR_VN*%
%TO.N,unconnected-(U3-Pad5)*%
X73228500Y-31882000D03*
%TO.P,U3,6,IO34*%
%TO.N,unconnected-(U3-Pad6)*%
X73228500Y-33152000D03*
%TO.P,U3,7,IO35*%
%TO.N,unconnected-(U3-Pad7)*%
X73228500Y-34422000D03*
%TO.P,U3,8,IO32*%
%TO.N,unconnected-(U3-Pad8)*%
X73228500Y-35692000D03*
%TO.P,U3,9,IO33*%
%TO.N,unconnected-(U3-Pad9)*%
X73228500Y-36962000D03*
%TO.P,U3,10,IO25*%
%TO.N,unconnected-(U3-Pad10)*%
X73228500Y-38232000D03*
%TO.P,U3,11,IO26*%
%TO.N,unconnected-(U3-Pad11)*%
X73228500Y-39502000D03*
%TO.P,U3,12,IO27*%
%TO.N,unconnected-(U3-Pad12)*%
X73228500Y-40772000D03*
%TO.P,U3,13,IO14*%
%TO.N,B1*%
X73228500Y-42042000D03*
%TO.P,U3,14,IO12*%
%TO.N,unconnected-(U3-Pad14)*%
X73228500Y-43312000D03*
D26*
%TO.P,U3,15,GND*%
%TO.N,GND*%
X76268500Y-44562000D03*
%TO.P,U3,16,IO13*%
%TO.N,B2*%
X77538500Y-44562000D03*
%TO.P,U3,17,SHD/SD2*%
%TO.N,unconnected-(U3-Pad17)*%
X78808500Y-44562000D03*
%TO.P,U3,18,SWP/SD3*%
%TO.N,unconnected-(U3-Pad18)*%
X80078500Y-44562000D03*
%TO.P,U3,19,SCS/CMD*%
%TO.N,unconnected-(U3-Pad19)*%
X81348500Y-44562000D03*
%TO.P,U3,20,SCK/CLK*%
%TO.N,unconnected-(U3-Pad20)*%
X82618500Y-44562000D03*
%TO.P,U3,21,SDO/SD0*%
%TO.N,unconnected-(U3-Pad21)*%
X83888500Y-44562000D03*
%TO.P,U3,22,SDI/SD1*%
%TO.N,unconnected-(U3-Pad22)*%
X85158500Y-44562000D03*
%TO.P,U3,23,IO15*%
%TO.N,B3*%
X86428500Y-44562000D03*
%TO.P,U3,24,IO2*%
%TO.N,unconnected-(U3-Pad24)*%
X87698500Y-44562000D03*
D25*
%TO.P,U3,25,IO0*%
%TO.N,BOOT_MODE*%
X90728500Y-43312000D03*
%TO.P,U3,26,IO4*%
%TO.N,unconnected-(U3-Pad26)*%
X90728500Y-42042000D03*
%TO.P,U3,27,IO16*%
%TO.N,B4*%
X90728500Y-40772000D03*
%TO.P,U3,28,IO17*%
%TO.N,RS485_DIN*%
X90728500Y-39502000D03*
%TO.P,U3,29,IO5*%
%TO.N,unconnected-(U3-Pad29)*%
X90728500Y-38232000D03*
%TO.P,U3,30,IO18*%
%TO.N,ERROR_LED*%
X90728500Y-36962000D03*
%TO.P,U3,31,IO19*%
%TO.N,FACTORY_RESET*%
X90728500Y-35692000D03*
%TO.P,U3,32,NC*%
%TO.N,unconnected-(U3-Pad32)*%
X90728500Y-34422000D03*
%TO.P,U3,33,IO21*%
%TO.N,unconnected-(U3-Pad33)*%
X90728500Y-33152000D03*
%TO.P,U3,34,RXD0/IO3*%
%TO.N,RXD*%
X90728500Y-31882000D03*
%TO.P,U3,35,TXD0/IO1*%
%TO.N,TXD*%
X90728500Y-30612000D03*
%TO.P,U3,36,IO22*%
%TO.N,unconnected-(U3-Pad36)*%
X90728500Y-29342000D03*
%TO.P,U3,37,IO23*%
%TO.N,unconnected-(U3-Pad37)*%
X90728500Y-28072000D03*
%TO.P,U3,38,GND*%
%TO.N,GND*%
X90728500Y-26802000D03*
D27*
%TO.P,U3,39,GND*%
X79773500Y-35667000D03*
D28*
X81298500Y-34904500D03*
X81298500Y-33379500D03*
X79773500Y-33379500D03*
D27*
X82823500Y-35667000D03*
X82823500Y-34142000D03*
D28*
X82061000Y-32617000D03*
X82823500Y-33379500D03*
X80536000Y-35667000D03*
D27*
X81298500Y-35667000D03*
D28*
X79773500Y-34904500D03*
X82061000Y-34142000D03*
X80536000Y-32617000D03*
D27*
X79773500Y-32617000D03*
X81298500Y-34142000D03*
D28*
X82823500Y-34904500D03*
X80536000Y-34142000D03*
D27*
X81298500Y-32617000D03*
X82823500Y-32617000D03*
D29*
X81298500Y-34142000D03*
D27*
X79773500Y-34142000D03*
D28*
X82061000Y-35667000D03*
%TD*%
D19*
%TO.P,R1,1*%
%TO.N,Net-(R1-Pad1)*%
X102673400Y-36588700D03*
%TO.P,R1,2*%
%TO.N,+5V*%
X104673400Y-36588700D03*
%TD*%
D30*
%TO.P,C11,1*%
%TO.N,GND*%
X30988000Y-30395000D03*
%TO.P,C11,2*%
%TO.N,VCC*%
X30988000Y-32470000D03*
%TD*%
D31*
%TO.P,D1,1,K*%
%TO.N,GND*%
X43851500Y-40830500D03*
%TO.P,D1,2,A*%
%TO.N,Net-(D1-Pad2)*%
X46826500Y-40830500D03*
%TD*%
D32*
%TO.P,R8,1*%
%TO.N,Net-(D1-Pad2)*%
X46825500Y-44958000D03*
%TO.P,R8,2*%
%TO.N,ERROR_LED*%
X43725500Y-44958000D03*
%TD*%
D14*
%TO.P,J1,1,Pin_1*%
%TO.N,+5V*%
X43116500Y-59055000D03*
D15*
%TO.P,J1,2,Pin_2*%
%TO.N,GND*%
X48196500Y-59055000D03*
%TO.P,J1,3,Pin_3*%
%TO.N,Button1_sense*%
X53276500Y-59055000D03*
%TD*%
D14*
%TO.P,J2,1,Pin_1*%
%TO.N,+5V*%
X58356500Y-59055000D03*
D15*
%TO.P,J2,2,Pin_2*%
%TO.N,GND*%
X63436500Y-59055000D03*
%TO.P,J2,3,Pin_3*%
%TO.N,Button2_sense*%
X68516500Y-59055000D03*
%TD*%
D14*
%TO.P,J4,1,Pin_1*%
%TO.N,+5V*%
X73596500Y-59055000D03*
D15*
%TO.P,J4,2,Pin_2*%
%TO.N,GND*%
X78676500Y-59055000D03*
%TO.P,J4,3,Pin_3*%
%TO.N,Button3_sense*%
X83756500Y-59055000D03*
%TD*%
D14*
%TO.P,J6,1,Pin_1*%
%TO.N,+5V*%
X88836500Y-59055000D03*
D15*
%TO.P,J6,2,Pin_2*%
%TO.N,GND*%
X93916500Y-59055000D03*
%TO.P,J6,3,Pin_3*%
%TO.N,Button4_sense*%
X98996500Y-59055000D03*
%TD*%
D33*
%TO.P,R5,1*%
%TO.N,+3.3V*%
X95631000Y-30178500D03*
%TO.P,R5,2*%
%TO.N,BOOT_MODE*%
X95631000Y-32178500D03*
%TD*%
D34*
%TO.P,SW2,1,A*%
%TO.N,BOOT_MODE*%
X95626500Y-34988500D03*
%TO.P,SW2,2,B*%
%TO.N,GND*%
X99826500Y-34988500D03*
%TD*%
D35*
%TO.P,J7,1,Pin_1*%
%TO.N,BOOT_MODE*%
X99758500Y-27432000D03*
D36*
%TO.P,J7,2,Pin_2*%
%TO.N,TXD*%
X102298500Y-27432000D03*
%TO.P,J7,3,Pin_3*%
%TO.N,RXD*%
X104838500Y-27432000D03*
%TO.P,J7,4,Pin_4*%
%TO.N,+3.3V*%
X107378500Y-27432000D03*
%TO.P,J7,5,Pin_5*%
%TO.N,RESET*%
X109918500Y-27432000D03*
%TO.P,J7,6,Pin_6*%
%TO.N,GND*%
X112458500Y-27432000D03*
%TD*%
D33*
%TO.P,R9,1*%
%TO.N,+3.3V*%
X116700300Y-33391600D03*
%TO.P,R9,2*%
%TO.N,FACTORY_RESET*%
X116700300Y-35391600D03*
%TD*%
D20*
%TO.P,SW3,1,A*%
%TO.N,FACTORY_RESET*%
X116728700Y-38467600D03*
%TO.P,SW3,2,B*%
%TO.N,GND*%
X112528700Y-38467600D03*
%TD*%
D35*
%TO.P,JP1,1,1*%
%TO.N,Net-(JP1-Pad1)*%
X106387900Y-44450000D03*
D36*
%TO.P,JP1,2,2*%
%TO.N,Net-(J5-Pad1)*%
X106387900Y-46990000D03*
%TD*%
D37*
%TO.P,R4,1*%
%TO.N,Net-(JP1-Pad1)*%
X109791500Y-44434000D03*
%TO.P,R4,2*%
%TO.N,Net-(J5-Pad2)*%
X109791500Y-42434000D03*
%TD*%
D38*
%TO.P,C2,1*%
%TO.N,+5V*%
X55938500Y-43459000D03*
%TO.P,C2,2*%
%TO.N,GND*%
X54038500Y-43459000D03*
%TD*%
D39*
%TO.P,R2,1*%
%TO.N,Net-(R2-Pad1)*%
X71136000Y-51435000D03*
%TO.P,R2,2*%
%TO.N,+5V*%
X73136000Y-51435000D03*
%TD*%
D24*
%TO.P,C6,1*%
%TO.N,+3.3V*%
X70675500Y-28133000D03*
%TO.P,C6,2*%
%TO.N,GND*%
X70675500Y-30033000D03*
%TD*%
D39*
%TO.P,R6,1*%
%TO.N,Net-(R6-Pad1)*%
X93615000Y-47498000D03*
%TO.P,R6,2*%
%TO.N,+5V*%
X95615000Y-47498000D03*
%TD*%
D40*
%TO.P,U5,1,VCCA*%
%TO.N,+5V*%
X66141000Y-48780000D03*
%TO.P,U5,2,1A*%
%TO.N,Button1_sense*%
X66141000Y-49280000D03*
%TO.P,U5,3,2A*%
%TO.N,Button2_sense*%
X66141000Y-49780000D03*
%TO.P,U5,4,GND*%
%TO.N,GND*%
X66141000Y-50280000D03*
%TO.P,U5,5,DIR*%
%TO.N,Net-(R2-Pad1)*%
X69241000Y-50280000D03*
%TO.P,U5,6,2B*%
%TO.N,B2*%
X69241000Y-49780000D03*
%TO.P,U5,7,1B*%
%TO.N,B1*%
X69241000Y-49280000D03*
%TO.P,U5,8,VCCB*%
%TO.N,+3.3V*%
X69241000Y-48780000D03*
%TD*%
D41*
%TO.P,U1,1,GND*%
%TO.N,GND*%
X51357500Y-40894000D03*
D42*
%TO.P,U1,2,VO*%
%TO.N,+3.3V*%
X53657500Y-34594000D03*
D41*
X53657500Y-40894000D03*
%TO.P,U1,3,VI*%
%TO.N,+5V*%
X55957500Y-40894000D03*
%TD*%
D24*
%TO.P,C5,1*%
%TO.N,+3.3V*%
X68262500Y-28194000D03*
%TO.P,C5,2*%
%TO.N,GND*%
X68262500Y-30094000D03*
%TD*%
D43*
%TO.P,U6,1,VCCA*%
%TO.N,+5V*%
X90309000Y-50572000D03*
%TO.P,U6,2,1A*%
%TO.N,Button3_sense*%
X90809000Y-50572000D03*
%TO.P,U6,3,2A*%
%TO.N,Button4_sense*%
X91309000Y-50572000D03*
%TO.P,U6,4,GND*%
%TO.N,GND*%
X91809000Y-50572000D03*
%TO.P,U6,5,DIR*%
%TO.N,Net-(R6-Pad1)*%
X91809000Y-47472000D03*
%TO.P,U6,6,2B*%
%TO.N,B4*%
X91309000Y-47472000D03*
%TO.P,U6,7,1B*%
%TO.N,B3*%
X90809000Y-47472000D03*
%TO.P,U6,8,VCCB*%
%TO.N,+3.3V*%
X90309000Y-47472000D03*
%TD*%
D44*
%TO.N,GND*%
X34353500Y-27305000D03*
D45*
X58483500Y-37846000D03*
X92646500Y-26797000D03*
D44*
X31750000Y-28702000D03*
D45*
X92964000Y-50546000D03*
X60769500Y-37846000D03*
D44*
X34417000Y-28638500D03*
X30416500Y-27305000D03*
X33041166Y-27305000D03*
X33083500Y-28638500D03*
D45*
X98869500Y-46228000D03*
X65849500Y-32131000D03*
X64198500Y-37719000D03*
X101092000Y-34988500D03*
X74993500Y-44577000D03*
X42164000Y-40830500D03*
X70675500Y-31242000D03*
X112522000Y-36195000D03*
D44*
X30416500Y-28702000D03*
D45*
X66167000Y-51308000D03*
X68262500Y-31369000D03*
X51371500Y-42672000D03*
X54038500Y-44958000D03*
X75374500Y-26797000D03*
D44*
X31728833Y-27305000D03*
D45*
%TO.N,RESET*%
X75120500Y-34417000D03*
X86487000Y-33782000D03*
X71183500Y-34417000D03*
%TO.N,+3.3V*%
X89027000Y-47371000D03*
X69596000Y-46355000D03*
X92773500Y-28067000D03*
X75374500Y-28067000D03*
%TO.N,+5V*%
X103949500Y-44323000D03*
X73152000Y-52959000D03*
X106133900Y-36576000D03*
X89154000Y-50673000D03*
X95631000Y-49022000D03*
X66167000Y-47625000D03*
X55943500Y-45085000D03*
%TO.N,BOOT_MODE*%
X93472000Y-29591000D03*
X95694500Y-37592000D03*
X95631000Y-43307000D03*
%TO.N,RXD*%
X92202000Y-31877000D03*
%TO.N,TXD*%
X92329000Y-30607000D03*
%TO.N,ERROR_LED*%
X43751500Y-42926000D03*
X88455500Y-36957000D03*
%TO.N,B4*%
X92964000Y-40767000D03*
X92964000Y-45466000D03*
%TO.N,FACTORY_RESET*%
X92329000Y-35687000D03*
X110998000Y-35433000D03*
%TD*%
D46*
%TO.N,GND*%
X51357500Y-42658000D02*
X51371500Y-42672000D01*
X58478500Y-36469000D02*
X58478500Y-37841000D01*
X65849500Y-30685000D02*
X65849500Y-32131000D01*
X90728500Y-26802000D02*
X92641500Y-26802000D01*
X51357500Y-40894000D02*
X51357500Y-42658000D01*
D47*
X38078500Y-36385500D02*
X35940000Y-36385500D01*
D46*
X68262500Y-30094000D02*
X68262500Y-31369000D01*
X75369500Y-26802000D02*
X75374500Y-26797000D01*
X76268500Y-44562000D02*
X75008500Y-44562000D01*
X60764500Y-37841000D02*
X60769500Y-37846000D01*
X70675500Y-30033000D02*
X70675500Y-31242000D01*
X112528700Y-36201700D02*
X112522000Y-36195000D01*
X92641500Y-26802000D02*
X92646500Y-26797000D01*
X35814000Y-31432500D02*
X35940000Y-31558500D01*
X75008500Y-44562000D02*
X74993500Y-44577000D01*
D48*
X99826500Y-34988500D02*
X101092000Y-34988500D01*
D46*
X112528700Y-38467600D02*
X112528700Y-36201700D01*
X98882200Y-46215300D02*
X98869500Y-46228000D01*
X35940000Y-31558500D02*
X35940000Y-30796500D01*
X35306000Y-30162500D02*
X33847000Y-30162500D01*
D48*
X66141000Y-50280000D02*
X66141000Y-51282000D01*
X43851500Y-40830500D02*
X42164000Y-40830500D01*
D46*
X35940000Y-36385500D02*
X35940000Y-31558500D01*
X65332500Y-37655500D02*
X64262000Y-37655500D01*
X98882200Y-44385000D02*
X98882200Y-46215300D01*
X64262000Y-37655500D02*
X64198500Y-37719000D01*
X33847000Y-31432500D02*
X35814000Y-31432500D01*
X54038500Y-43459000D02*
X54038500Y-44958000D01*
D48*
X66141000Y-51282000D02*
X66167000Y-51308000D01*
X92938000Y-50572000D02*
X92964000Y-50546000D01*
D46*
X73228500Y-26802000D02*
X75369500Y-26802000D01*
D48*
X91809000Y-50572000D02*
X92938000Y-50572000D01*
D46*
X60764500Y-36469000D02*
X60764500Y-37841000D01*
X35940000Y-30796500D02*
X35306000Y-30162500D01*
X58478500Y-37841000D02*
X58483500Y-37846000D01*
%TO.N,VCC*%
X25353000Y-43544500D02*
X26162000Y-42735500D01*
X30988000Y-32470000D02*
X26394500Y-32470000D01*
X26162000Y-42735500D02*
X26162000Y-32702500D01*
X33847000Y-32702500D02*
X31220500Y-32702500D01*
X24257000Y-43544500D02*
X25353000Y-43544500D01*
X31220500Y-32702500D02*
X30988000Y-32470000D01*
X26394500Y-32470000D02*
X26162000Y-32702500D01*
%TO.N,Net-(D6-Pad1)*%
X33847000Y-35178500D02*
X32640000Y-36385500D01*
X32640000Y-41295500D02*
X32810000Y-41465500D01*
X32640000Y-36385500D02*
X32640000Y-41295500D01*
X33847000Y-33972500D02*
X33847000Y-35178500D01*
D48*
%TO.N,RESET*%
X86487000Y-33782000D02*
X86487000Y-36830000D01*
X78676500Y-37973000D02*
X75120500Y-34417000D01*
D46*
X69532500Y-37655500D02*
X69532500Y-34433000D01*
X69532500Y-34433000D02*
X69516500Y-34417000D01*
D48*
X71183500Y-34417000D02*
X69516500Y-34417000D01*
X85344000Y-37973000D02*
X78676500Y-37973000D01*
X74363500Y-29342000D02*
X75120500Y-30099000D01*
X75120500Y-30099000D02*
X75120500Y-34417000D01*
X86487000Y-36830000D02*
X85344000Y-37973000D01*
X73228500Y-29342000D02*
X74363500Y-29342000D01*
D46*
%TO.N,+3.3V*%
X107378500Y-27432000D02*
X107378500Y-30131000D01*
X70614500Y-28194000D02*
X70675500Y-28133000D01*
D48*
X68834000Y-47117000D02*
X69596000Y-46355000D01*
D46*
X68262500Y-28194000D02*
X70614500Y-28194000D01*
X53657500Y-34594000D02*
X58453500Y-34594000D01*
D48*
X68834000Y-47117000D02*
X63094000Y-41377000D01*
D46*
X65849500Y-27735000D02*
X67803500Y-27735000D01*
X53657500Y-40894000D02*
X53657500Y-34594000D01*
X73228500Y-28072000D02*
X75369500Y-28072000D01*
X70675500Y-28133000D02*
X73167500Y-28133000D01*
X93519500Y-28067000D02*
X95631000Y-30178500D01*
X58478500Y-34569000D02*
X60764500Y-34569000D01*
X65849500Y-27735000D02*
X63006500Y-27735000D01*
D48*
X63094000Y-41377000D02*
X63094000Y-34569000D01*
X89027000Y-47371000D02*
X90208000Y-47371000D01*
D46*
X67803500Y-27735000D02*
X68262500Y-28194000D01*
D48*
X90208000Y-47371000D02*
X90309000Y-47472000D01*
D46*
X107378500Y-30131000D02*
X107426000Y-30178500D01*
X67364500Y-34569000D02*
X67516500Y-34417000D01*
X75369500Y-28072000D02*
X75374500Y-28067000D01*
X92773500Y-28067000D02*
X93519500Y-28067000D01*
D48*
X69241000Y-47524000D02*
X68834000Y-47117000D01*
D46*
X60764500Y-34569000D02*
X63094000Y-34569000D01*
X107426000Y-30178500D02*
X113487200Y-30178500D01*
X63094000Y-34569000D02*
X67364500Y-34569000D01*
X63006500Y-27735000D02*
X60764500Y-29977000D01*
X73167500Y-28133000D02*
X73228500Y-28072000D01*
X60764500Y-29977000D02*
X60764500Y-34569000D01*
X95631000Y-30178500D02*
X107426000Y-30178500D01*
X113487200Y-30178500D02*
X116700300Y-33391600D01*
D48*
X69241000Y-48780000D02*
X69241000Y-47524000D01*
D46*
X58453500Y-34594000D02*
X58478500Y-34569000D01*
%TO.N,+5V*%
X38310000Y-41465500D02*
X38417500Y-41465500D01*
D48*
X89255000Y-50572000D02*
X89154000Y-50673000D01*
X66141000Y-47651000D02*
X66167000Y-47625000D01*
D46*
X42799000Y-35560000D02*
X41973500Y-36385500D01*
D48*
X73136000Y-52943000D02*
X73152000Y-52959000D01*
X95615000Y-47498000D02*
X95615000Y-49006000D01*
D46*
X42799000Y-30099000D02*
X38860500Y-30099000D01*
X55938500Y-40913000D02*
X55957500Y-40894000D01*
X38860500Y-30099000D02*
X38797000Y-30162500D01*
X38417500Y-41465500D02*
X40153500Y-39729500D01*
D48*
X90309000Y-50572000D02*
X89255000Y-50572000D01*
D46*
X40153500Y-39729500D02*
X40153500Y-36385500D01*
D48*
X106121200Y-36588700D02*
X106133900Y-36576000D01*
D46*
X55938500Y-43459000D02*
X55938500Y-40913000D01*
X41973500Y-36385500D02*
X40153500Y-36385500D01*
X42799000Y-30099000D02*
X42799000Y-35560000D01*
D48*
X104673400Y-36588700D02*
X106121200Y-36588700D01*
X73136000Y-51435000D02*
X73136000Y-52943000D01*
D46*
X103887500Y-44385000D02*
X103949500Y-44323000D01*
X55938500Y-43459000D02*
X55938500Y-45080000D01*
D48*
X66141000Y-48780000D02*
X66141000Y-47651000D01*
D46*
X102692200Y-44385000D02*
X103887500Y-44385000D01*
D48*
X95615000Y-49006000D02*
X95631000Y-49022000D01*
D46*
X55938500Y-45080000D02*
X55943500Y-45085000D01*
D48*
%TO.N,Net-(J5-Pad1)*%
X100799900Y-46990000D02*
X100152200Y-46342300D01*
X108940600Y-49542700D02*
X106387900Y-46990000D01*
X114731800Y-49542700D02*
X108940600Y-49542700D01*
X100152200Y-46342300D02*
X100152200Y-44385000D01*
X106387900Y-46990000D02*
X100799900Y-46990000D01*
%TO.N,Net-(J5-Pad2)*%
X113007900Y-42434000D02*
X109791500Y-42434000D01*
X101422200Y-43014900D02*
X102003100Y-42434000D01*
X114731800Y-44157900D02*
X113007900Y-42434000D01*
X114731800Y-47042700D02*
X114731800Y-44157900D01*
X101422200Y-44385000D02*
X101422200Y-43014900D01*
X102003100Y-42434000D02*
X109791500Y-42434000D01*
%TO.N,Net-(R1-Pad1)*%
X101422200Y-37839900D02*
X102673400Y-36588700D01*
X101422200Y-39435000D02*
X101422200Y-37839900D01*
X100152200Y-39435000D02*
X100152200Y-37579300D01*
X101142800Y-36588700D02*
X102673400Y-36588700D01*
X100152200Y-37579300D02*
X101142800Y-36588700D01*
D46*
%TO.N,BOOT_MODE*%
X95631000Y-43307000D02*
X90733500Y-43307000D01*
D48*
X93472000Y-31369000D02*
X93472000Y-29591000D01*
X93726000Y-31623000D02*
X93472000Y-31369000D01*
X95631000Y-32178500D02*
X94281500Y-32178500D01*
D46*
X95694500Y-35056500D02*
X95626500Y-34988500D01*
X95626500Y-32183000D02*
X95631000Y-32178500D01*
D48*
X94281500Y-32178500D02*
X93726000Y-31623000D01*
D46*
X95694500Y-37592000D02*
X95694500Y-35056500D01*
X90733500Y-43307000D02*
X90728500Y-43312000D01*
X95626500Y-34988500D02*
X95626500Y-32183000D01*
%TO.N,RXD*%
X90733500Y-31877000D02*
X90728500Y-31882000D01*
X92202000Y-31877000D02*
X90733500Y-31877000D01*
%TO.N,TXD*%
X90733500Y-30607000D02*
X90728500Y-30612000D01*
X92329000Y-30607000D02*
X90733500Y-30607000D01*
D48*
%TO.N,Net-(D1-Pad2)*%
X46826500Y-40830500D02*
X46826500Y-44957000D01*
X46826500Y-44957000D02*
X46825500Y-44958000D01*
%TO.N,ERROR_LED*%
X90723500Y-36957000D02*
X90728500Y-36962000D01*
X43725500Y-42952000D02*
X43751500Y-42926000D01*
X43725500Y-44958000D02*
X43725500Y-42952000D01*
X88455500Y-36957000D02*
X90723500Y-36957000D01*
%TO.N,B2*%
X72900500Y-49780000D02*
X77538500Y-45142000D01*
X69241000Y-49780000D02*
X72900500Y-49780000D01*
X77538500Y-45142000D02*
X77538500Y-44562000D01*
%TO.N,B3*%
X90138000Y-46101000D02*
X86967500Y-46101000D01*
X86967500Y-46101000D02*
X86428500Y-45562000D01*
X90809000Y-47472000D02*
X90809000Y-46772000D01*
X90809000Y-46772000D02*
X90138000Y-46101000D01*
X86428500Y-45562000D02*
X86428500Y-44562000D01*
%TO.N,B4*%
X92615000Y-45466000D02*
X91309000Y-46772000D01*
X92964000Y-45466000D02*
X92615000Y-45466000D01*
X92959000Y-40772000D02*
X92964000Y-40767000D01*
X90728500Y-40772000D02*
X92959000Y-40772000D01*
X91309000Y-46772000D02*
X91309000Y-47472000D01*
%TO.N,B1*%
X70608000Y-49280000D02*
X69241000Y-49280000D01*
X71374000Y-48514000D02*
X70608000Y-49280000D01*
X71374000Y-42896500D02*
X71374000Y-48514000D01*
X73228500Y-42042000D02*
X72228500Y-42042000D01*
X72228500Y-42042000D02*
X71374000Y-42896500D01*
D46*
%TO.N,FACTORY_RESET*%
X116728700Y-35420000D02*
X116700300Y-35391600D01*
D48*
X92324000Y-35692000D02*
X92329000Y-35687000D01*
X110998000Y-35433000D02*
X116658900Y-35433000D01*
X116658900Y-35433000D02*
X116700300Y-35391600D01*
X90728500Y-35692000D02*
X92324000Y-35692000D01*
D46*
X116728700Y-38467600D02*
X116728700Y-35420000D01*
%TO.N,RS485_DIN*%
X90728500Y-39502000D02*
X98815200Y-39502000D01*
X98815200Y-39502000D02*
X98882200Y-39435000D01*
D48*
%TO.N,Net-(JP1-Pad1)*%
X106403900Y-44434000D02*
X106387900Y-44450000D01*
X109791500Y-44434000D02*
X106403900Y-44434000D01*
%TO.N,Button1_sense*%
X53276500Y-56959500D02*
X60956000Y-49280000D01*
X60956000Y-49280000D02*
X66141000Y-49280000D01*
X53276500Y-59055000D02*
X53276500Y-56959500D01*
%TO.N,Button2_sense*%
X64008000Y-50292000D02*
X64008000Y-54546500D01*
X64008000Y-54546500D02*
X68516500Y-59055000D01*
X66141000Y-49780000D02*
X64520000Y-49780000D01*
X64520000Y-49780000D02*
X64008000Y-50292000D01*
%TO.N,Button3_sense*%
X90809000Y-52002500D02*
X83756500Y-59055000D01*
X90809000Y-50572000D02*
X90809000Y-52002500D01*
%TO.N,Button4_sense*%
X91309000Y-50572000D02*
X91309000Y-51367500D01*
X91309000Y-51367500D02*
X98996500Y-59055000D01*
%TO.N,Net-(R2-Pad1)*%
X69241000Y-50280000D02*
X69981000Y-50280000D01*
X69981000Y-50280000D02*
X71136000Y-51435000D01*
%TO.N,Net-(R6-Pad1)*%
X91809000Y-47472000D02*
X93589000Y-47472000D01*
X93589000Y-47472000D02*
X93615000Y-47498000D01*
%TD*%
%TA.AperFunction,Conductor*%
%TO.N,GND*%
G36*
X35184621Y-26309002D02*
G01*
X35231114Y-26362658D01*
X35242500Y-26415000D01*
X35242500Y-29364534D01*
X35222498Y-29432655D01*
X35168842Y-29479148D01*
X35098568Y-29489252D01*
X35052361Y-29472988D01*
X34942221Y-29407852D01*
X34927790Y-29401607D01*
X34781935Y-29359231D01*
X34769333Y-29356930D01*
X34740916Y-29354693D01*
X34735986Y-29354500D01*
X34119115Y-29354500D01*
X34103876Y-29358975D01*
X34102671Y-29360365D01*
X34101000Y-29368048D01*
X34101000Y-31496000D01*
X32075723Y-31496000D01*
X32007602Y-31475998D01*
X31961109Y-31422342D01*
X31951005Y-31352068D01*
X31980499Y-31287488D01*
X31986550Y-31280982D01*
X32056739Y-31210671D01*
X32065753Y-31199257D01*
X32138760Y-31080817D01*
X32191532Y-31033323D01*
X32261603Y-31021899D01*
X32326727Y-31050173D01*
X32366227Y-31109167D01*
X32372019Y-31146571D01*
X32372101Y-31175206D01*
X32379370Y-31178500D01*
X33574885Y-31178500D01*
X33590124Y-31174025D01*
X33591329Y-31172635D01*
X33593000Y-31164952D01*
X33593000Y-29372616D01*
X33588525Y-29357377D01*
X33587135Y-29356172D01*
X33579452Y-29354501D01*
X32958017Y-29354501D01*
X32953080Y-29354695D01*
X32924664Y-29356930D01*
X32912069Y-29359230D01*
X32766210Y-29401607D01*
X32751779Y-29407852D01*
X32622322Y-29484411D01*
X32609896Y-29494051D01*
X32503551Y-29600396D01*
X32493911Y-29612822D01*
X32417352Y-29742279D01*
X32411105Y-29756714D01*
X32407725Y-29768348D01*
X32369511Y-29828182D01*
X32305014Y-29857858D01*
X32234711Y-29847953D01*
X32180924Y-29801613D01*
X32167205Y-29773067D01*
X32156413Y-29740718D01*
X32150239Y-29727538D01*
X32064937Y-29589693D01*
X32055901Y-29578292D01*
X31941171Y-29463761D01*
X31929760Y-29454749D01*
X31791757Y-29369684D01*
X31778576Y-29363537D01*
X31624290Y-29312362D01*
X31610914Y-29309495D01*
X31516562Y-29299828D01*
X31510145Y-29299500D01*
X31260115Y-29299500D01*
X31244876Y-29303975D01*
X31243671Y-29305365D01*
X31242000Y-29313048D01*
X31242000Y-30523000D01*
X31221998Y-30591121D01*
X31168342Y-30637614D01*
X31116000Y-30649000D01*
X29773116Y-30649000D01*
X29757877Y-30653475D01*
X29756672Y-30654865D01*
X29755001Y-30662548D01*
X29755001Y-30779595D01*
X29755338Y-30786114D01*
X29765257Y-30881706D01*
X29768149Y-30895100D01*
X29819588Y-31049284D01*
X29825761Y-31062462D01*
X29911063Y-31200307D01*
X29920099Y-31211708D01*
X29989338Y-31280827D01*
X30023417Y-31343110D01*
X30018414Y-31413930D01*
X29975916Y-31470803D01*
X29909418Y-31495671D01*
X29900320Y-31496000D01*
X29526500Y-31496000D01*
X29458379Y-31475998D01*
X29411886Y-31422342D01*
X29400500Y-31370000D01*
X29400500Y-30122885D01*
X29755000Y-30122885D01*
X29759475Y-30138124D01*
X29760865Y-30139329D01*
X29768548Y-30141000D01*
X30715885Y-30141000D01*
X30731124Y-30136525D01*
X30732329Y-30135135D01*
X30734000Y-30127452D01*
X30734000Y-29317616D01*
X30729525Y-29302377D01*
X30728135Y-29301172D01*
X30720452Y-29299501D01*
X30465905Y-29299501D01*
X30459386Y-29299838D01*
X30363794Y-29309757D01*
X30350400Y-29312649D01*
X30196216Y-29364088D01*
X30183038Y-29370261D01*
X30045193Y-29455563D01*
X30033792Y-29464599D01*
X29919261Y-29579329D01*
X29910249Y-29590740D01*
X29825184Y-29728743D01*
X29819037Y-29741924D01*
X29767862Y-29896210D01*
X29764995Y-29909586D01*
X29755328Y-30003938D01*
X29755000Y-30010355D01*
X29755000Y-30122885D01*
X29400500Y-30122885D01*
X29400500Y-26415000D01*
X29420502Y-26346879D01*
X29474158Y-26300386D01*
X29526500Y-26289000D01*
X35116500Y-26289000D01*
X35184621Y-26309002D01*
G37*
%TD.AperFunction*%
%TD*%
M02*
