M48
; DRILL file {KiCad (6.0.8)} date Wed Oct  5 23:26:50 2022
; FORMAT={-:-/ absolute / inch / decimal}
; #@! TF.CreationDate,2022-10-05T23:26:50+02:00
; #@! TF.GenerationSoftware,Kicad,Pcbnew,(6.0.8)
; #@! TF.FileFunction,Plated,1,4,PTH
FMAT,2
INCH
; #@! TA.AperFunction,Plated,PTH,ComponentDrill
T1C0.0079
; #@! TA.AperFunction,Plated,PTH,ViaDrill
T2C0.0157
; #@! TA.AperFunction,Plated,PTH,ViaDrill
T3C0.0236
; #@! TA.AperFunction,Plated,PTH,ComponentDrill
T4C0.0315
; #@! TA.AperFunction,Plated,PTH,ComponentDrill
T5C0.0394
; #@! TA.AperFunction,Plated,PTH,ComponentDrill
T6C0.0512
%
G90
G05
T1
X3.1407Y-1.3142
X3.1407Y-1.3742
X3.1707Y-1.2841
X3.1707Y-1.3442
X3.1707Y-1.4042
X3.2007Y-1.3142
X3.2007Y-1.3742
X3.2307Y-1.2841
X3.2307Y-1.3442
X3.2307Y-1.4042
X3.2608Y-1.3142
X3.2608Y-1.3742
T2
X1.66Y-1.6075
X1.7225Y-1.69
X2.0225Y-1.68
X2.1275Y-1.77
X2.2025Y-1.775
X2.3025Y-1.49
X2.3925Y-1.49
X2.5275Y-1.485
X2.5925Y-1.265
X2.605Y-1.875
X2.605Y-2.02
X2.6875Y-1.235
X2.74Y-1.825
X2.7825Y-1.23
X2.8025Y-1.355
X2.88Y-2.085
X2.9525Y-1.755
X2.9575Y-1.355
X2.9675Y-1.055
X2.9675Y-1.105
X3.405Y-1.33
X3.4825Y-1.455
X3.505Y-1.865
X3.51Y-1.995
X3.63Y-1.255
X3.635Y-1.205
X3.635Y-1.405
X3.6475Y-1.055
X3.6525Y-1.105
X3.66Y-1.605
X3.66Y-1.79
X3.66Y-1.99
X3.68Y-1.165
X3.765Y-1.705
X3.765Y-1.93
X3.7675Y-1.48
X3.8925Y-1.82
X3.98Y-1.3775
X4.0925Y-1.745
X4.1785Y-1.44
X4.37Y-1.395
X4.43Y-1.425
T3
X1.1975Y-1.075
X1.1975Y-1.13
X1.2492Y-1.075
X1.25Y-1.13
X1.3008Y-1.075
X1.3025Y-1.1275
X1.3525Y-1.075
X1.355Y-1.1275
T4
X1.03Y-1.1891
X1.03Y-1.2875
X1.685Y-1.185
X1.8228Y-1.185
T5
X3.9275Y-1.08
X4.0275Y-1.08
X4.1275Y-1.08
X4.1885Y-1.75
X4.1885Y-1.85
X4.2275Y-1.08
X4.3275Y-1.08
X4.4275Y-1.08
X4.517Y-1.8521
X4.517Y-1.9505
T6
X0.955Y-1.5175
X0.955Y-1.7144
X1.6975Y-2.325
X1.8975Y-2.325
X2.0975Y-2.325
X2.2975Y-2.325
X2.4975Y-2.325
X2.6975Y-2.325
X2.8975Y-2.325
X3.0975Y-2.325
X3.2975Y-2.325
X3.4975Y-2.325
X3.6975Y-2.325
X3.8975Y-2.325
T0
M30
