%TF.GenerationSoftware,KiCad,Pcbnew,(6.0.8)*%
%TF.CreationDate,2022-10-05T23:26:50+02:00*%
%TF.ProjectId,DMX_ControllerBoard,444d585f-436f-46e7-9472-6f6c6c657242,rev?*%
%TF.SameCoordinates,Original*%
%TF.FileFunction,Copper,L3,Inr*%
%TF.FilePolarity,Positive*%
%FSLAX46Y46*%
G04 Gerber Fmt 4.6, Leading zero omitted, Abs format (unit mm)*
G04 Created by KiCad (PCBNEW (6.0.8)) date 2022-10-05 23:26:50*
%MOMM*%
%LPD*%
G01*
G04 APERTURE LIST*
G04 Aperture macros list*
%AMRoundRect*
0 Rectangle with rounded corners*
0 $1 Rounding radius*
0 $2 $3 $4 $5 $6 $7 $8 $9 X,Y pos of 4 corners*
0 Add a 4 corners polygon primitive as box body*
4,1,4,$2,$3,$4,$5,$6,$7,$8,$9,$2,$3,0*
0 Add four circle primitives for the rounded corners*
1,1,$1+$1,$2,$3*
1,1,$1+$1,$4,$5*
1,1,$1+$1,$6,$7*
1,1,$1+$1,$8,$9*
0 Add four rect primitives between the rounded corners*
20,1,$1+$1,$2,$3,$4,$5,0*
20,1,$1+$1,$4,$5,$6,$7,0*
20,1,$1+$1,$6,$7,$8,$9,0*
20,1,$1+$1,$8,$9,$2,$3,0*%
G04 Aperture macros list end*
%TA.AperFunction,ComponentPad*%
%ADD10R,1.600000X1.600000*%
%TD*%
%TA.AperFunction,ComponentPad*%
%ADD11C,1.600000*%
%TD*%
%TA.AperFunction,ComponentPad*%
%ADD12R,2.600000X2.600000*%
%TD*%
%TA.AperFunction,ComponentPad*%
%ADD13C,2.600000*%
%TD*%
%TA.AperFunction,ComponentPad*%
%ADD14RoundRect,0.250000X0.750000X-0.600000X0.750000X0.600000X-0.750000X0.600000X-0.750000X-0.600000X0*%
%TD*%
%TA.AperFunction,ComponentPad*%
%ADD15O,2.000000X1.700000*%
%TD*%
%TA.AperFunction,ComponentPad*%
%ADD16C,0.475000*%
%TD*%
%TA.AperFunction,ComponentPad*%
%ADD17R,1.700000X1.700000*%
%TD*%
%TA.AperFunction,ComponentPad*%
%ADD18O,1.700000X1.700000*%
%TD*%
%TA.AperFunction,ViaPad*%
%ADD19C,1.000000*%
%TD*%
%TA.AperFunction,ViaPad*%
%ADD20C,0.800000*%
%TD*%
G04 APERTURE END LIST*
D10*
%TO.N,VCC*%
%TO.C,C8*%
X26162000Y-32702500D03*
D11*
%TO.N,GND*%
X26162000Y-30202500D03*
%TD*%
D10*
%TO.N,+5V*%
%TO.C,C12*%
X42799000Y-30099000D03*
D11*
%TO.N,GND*%
X46299000Y-30099000D03*
%TD*%
D12*
%TO.N,GND*%
%TO.C,J3*%
X24257000Y-38544500D03*
D13*
%TO.N,VCC*%
X24257000Y-43544500D03*
%TD*%
D14*
%TO.N,Net-(J5-Pad1)*%
%TO.C,J5*%
X114731800Y-49542700D03*
D15*
%TO.N,Net-(J5-Pad2)*%
X114731800Y-47042700D03*
%TD*%
D16*
%TO.N,GND*%
%TO.C,U3*%
X81298500Y-34904500D03*
X81298500Y-33379500D03*
X79773500Y-33379500D03*
X82061000Y-32617000D03*
X82823500Y-33379500D03*
X80536000Y-35667000D03*
X79773500Y-34904500D03*
X82061000Y-34142000D03*
X80536000Y-32617000D03*
X82823500Y-34904500D03*
X80536000Y-34142000D03*
X82061000Y-35667000D03*
%TD*%
D12*
%TO.N,+5V*%
%TO.C,J1*%
X43116500Y-59055000D03*
D13*
%TO.N,GND*%
X48196500Y-59055000D03*
%TO.N,Button1_sense*%
X53276500Y-59055000D03*
%TD*%
D12*
%TO.N,+5V*%
%TO.C,J2*%
X58356500Y-59055000D03*
D13*
%TO.N,GND*%
X63436500Y-59055000D03*
%TO.N,Button2_sense*%
X68516500Y-59055000D03*
%TD*%
D12*
%TO.N,+5V*%
%TO.C,J4*%
X73596500Y-59055000D03*
D13*
%TO.N,GND*%
X78676500Y-59055000D03*
%TO.N,Button3_sense*%
X83756500Y-59055000D03*
%TD*%
D12*
%TO.N,+5V*%
%TO.C,J6*%
X88836500Y-59055000D03*
D13*
%TO.N,GND*%
X93916500Y-59055000D03*
%TO.N,Button4_sense*%
X98996500Y-59055000D03*
%TD*%
D17*
%TO.N,BOOT_MODE*%
%TO.C,J7*%
X99758500Y-27432000D03*
D18*
%TO.N,TXD*%
X102298500Y-27432000D03*
%TO.N,RXD*%
X104838500Y-27432000D03*
%TO.N,+3.3V*%
X107378500Y-27432000D03*
%TO.N,RESET*%
X109918500Y-27432000D03*
%TO.N,GND*%
X112458500Y-27432000D03*
%TD*%
D17*
%TO.N,Net-(JP1-Pad1)*%
%TO.C,JP1*%
X106387900Y-44450000D03*
D18*
%TO.N,Net-(J5-Pad1)*%
X106387900Y-46990000D03*
%TD*%
D19*
%TO.N,GND*%
X34353500Y-27305000D03*
D20*
X58483500Y-37846000D03*
X92646500Y-26797000D03*
D19*
X31750000Y-28702000D03*
D20*
X92964000Y-50546000D03*
X60769500Y-37846000D03*
D19*
X34417000Y-28638500D03*
X30416500Y-27305000D03*
X33041166Y-27305000D03*
X33083500Y-28638500D03*
D20*
X98869500Y-46228000D03*
X65849500Y-32131000D03*
X64198500Y-37719000D03*
X101092000Y-34988500D03*
X74993500Y-44577000D03*
X42164000Y-40830500D03*
X70675500Y-31242000D03*
X112522000Y-36195000D03*
D19*
X30416500Y-28702000D03*
D20*
X66167000Y-51308000D03*
X68262500Y-31369000D03*
X51371500Y-42672000D03*
X54038500Y-44958000D03*
X75374500Y-26797000D03*
D19*
X31728833Y-27305000D03*
D20*
%TO.N,RESET*%
X75120500Y-34417000D03*
X86487000Y-33782000D03*
X71183500Y-34417000D03*
%TO.N,+3.3V*%
X89027000Y-47371000D03*
X69596000Y-46355000D03*
X92773500Y-28067000D03*
X75374500Y-28067000D03*
%TO.N,+5V*%
X103949500Y-44323000D03*
X73152000Y-52959000D03*
X106133900Y-36576000D03*
X89154000Y-50673000D03*
X95631000Y-49022000D03*
X66167000Y-47625000D03*
X55943500Y-45085000D03*
%TO.N,BOOT_MODE*%
X93472000Y-29591000D03*
X95694500Y-37592000D03*
X95631000Y-43307000D03*
%TO.N,RXD*%
X92202000Y-31877000D03*
%TO.N,TXD*%
X92329000Y-30607000D03*
%TO.N,ERROR_LED*%
X43751500Y-42926000D03*
X88455500Y-36957000D03*
%TO.N,B4*%
X92964000Y-40767000D03*
X92964000Y-45466000D03*
%TO.N,FACTORY_RESET*%
X92329000Y-35687000D03*
X110998000Y-35433000D03*
%TD*%
%TA.AperFunction,Conductor*%
%TO.N,+5V*%
G36*
X117112518Y-26097960D02*
G01*
X117127351Y-26100270D01*
X117127355Y-26100270D01*
X117136224Y-26101651D01*
X117150289Y-26099812D01*
X117176504Y-26099136D01*
X117351080Y-26112875D01*
X117370606Y-26115968D01*
X117564413Y-26162496D01*
X117583208Y-26168604D01*
X117756535Y-26240397D01*
X117767346Y-26244875D01*
X117784962Y-26253851D01*
X117866160Y-26303608D01*
X117954906Y-26357991D01*
X117970888Y-26369601D01*
X118120131Y-26497064D01*
X118122454Y-26499048D01*
X118136432Y-26513026D01*
X118265880Y-26664586D01*
X118277491Y-26680568D01*
X118308776Y-26731618D01*
X118381636Y-26850512D01*
X118390612Y-26868128D01*
X118466886Y-27052262D01*
X118472996Y-27071066D01*
X118519527Y-27264867D01*
X118522620Y-27284394D01*
X118524242Y-27305000D01*
X118530217Y-27380888D01*
X118535798Y-27451786D01*
X118535150Y-27468849D01*
X118535300Y-27468851D01*
X118535191Y-27477820D01*
X118533809Y-27486695D01*
X118537683Y-27516311D01*
X118537936Y-27518246D01*
X118539000Y-27534588D01*
X118538897Y-42765148D01*
X118538761Y-63045628D01*
X118537261Y-63065013D01*
X118534950Y-63079851D01*
X118534950Y-63079856D01*
X118533569Y-63088724D01*
X118535408Y-63102789D01*
X118536084Y-63129004D01*
X118522345Y-63303581D01*
X118519252Y-63323109D01*
X118472724Y-63516914D01*
X118466618Y-63535706D01*
X118390345Y-63719851D01*
X118381369Y-63737468D01*
X118277231Y-63907409D01*
X118265613Y-63923401D01*
X118136164Y-64074971D01*
X118122200Y-64088935D01*
X117970678Y-64218352D01*
X117970637Y-64218387D01*
X117954645Y-64230006D01*
X117784775Y-64334107D01*
X117784710Y-64334147D01*
X117767098Y-64343122D01*
X117582949Y-64419405D01*
X117564155Y-64425511D01*
X117370343Y-64472047D01*
X117350825Y-64475138D01*
X117273403Y-64481234D01*
X117183516Y-64488310D01*
X117166368Y-64487660D01*
X117166366Y-64487799D01*
X117157389Y-64487690D01*
X117148520Y-64486309D01*
X117139620Y-64487473D01*
X117139618Y-64487473D01*
X117116966Y-64490436D01*
X117100625Y-64491500D01*
X21001827Y-64491500D01*
X20982442Y-64490000D01*
X20967609Y-64487690D01*
X20967605Y-64487690D01*
X20958736Y-64486309D01*
X20944671Y-64488148D01*
X20918456Y-64488824D01*
X20785349Y-64478348D01*
X20743886Y-64475085D01*
X20724357Y-64471992D01*
X20530557Y-64425464D01*
X20511754Y-64419354D01*
X20327620Y-64343084D01*
X20310003Y-64334107D01*
X20140073Y-64229973D01*
X20124078Y-64218352D01*
X19972526Y-64088915D01*
X19958545Y-64074934D01*
X19829108Y-63923382D01*
X19817487Y-63907387D01*
X19713353Y-63737457D01*
X19704376Y-63719840D01*
X19628106Y-63535706D01*
X19621996Y-63516903D01*
X19575468Y-63323103D01*
X19572375Y-63303574D01*
X19559469Y-63139583D01*
X19560454Y-63117258D01*
X19559794Y-63117199D01*
X19560229Y-63112351D01*
X19561036Y-63107552D01*
X19561189Y-63095000D01*
X19557233Y-63067376D01*
X19555960Y-63049514D01*
X19555960Y-60399669D01*
X41308501Y-60399669D01*
X41308871Y-60406490D01*
X41314395Y-60457352D01*
X41318021Y-60472604D01*
X41363176Y-60593054D01*
X41371714Y-60608649D01*
X41448215Y-60710724D01*
X41460776Y-60723285D01*
X41562851Y-60799786D01*
X41578446Y-60808324D01*
X41698894Y-60853478D01*
X41714149Y-60857105D01*
X41765014Y-60862631D01*
X41771828Y-60863000D01*
X42844385Y-60863000D01*
X42859624Y-60858525D01*
X42860829Y-60857135D01*
X42862500Y-60849452D01*
X42862500Y-60844884D01*
X43370500Y-60844884D01*
X43374975Y-60860123D01*
X43376365Y-60861328D01*
X43384048Y-60862999D01*
X44461169Y-60862999D01*
X44467990Y-60862629D01*
X44518852Y-60857105D01*
X44534104Y-60853479D01*
X44654554Y-60808324D01*
X44670149Y-60799786D01*
X44772224Y-60723285D01*
X44784785Y-60710724D01*
X44861286Y-60608649D01*
X44869824Y-60593054D01*
X44914978Y-60472606D01*
X44918605Y-60457351D01*
X44924131Y-60406486D01*
X44924500Y-60399672D01*
X44924500Y-59327115D01*
X44920025Y-59311876D01*
X44918635Y-59310671D01*
X44910952Y-59309000D01*
X43388615Y-59309000D01*
X43373376Y-59313475D01*
X43372171Y-59314865D01*
X43370500Y-59322548D01*
X43370500Y-60844884D01*
X42862500Y-60844884D01*
X42862500Y-59327115D01*
X42858025Y-59311876D01*
X42856635Y-59310671D01*
X42848952Y-59309000D01*
X41326616Y-59309000D01*
X41311377Y-59313475D01*
X41310172Y-59314865D01*
X41308501Y-59322548D01*
X41308501Y-60399669D01*
X19555960Y-60399669D01*
X19555960Y-57841503D01*
X20763443Y-57841503D01*
X20800968Y-58126534D01*
X20876829Y-58403836D01*
X20878513Y-58407784D01*
X20930358Y-58529331D01*
X20989623Y-58668276D01*
X21137261Y-58914961D01*
X21317013Y-59139328D01*
X21331468Y-59153045D01*
X21510087Y-59322548D01*
X21525551Y-59337223D01*
X21759017Y-59504986D01*
X21762812Y-59506995D01*
X21762813Y-59506996D01*
X21784569Y-59518515D01*
X22013092Y-59639512D01*
X22283073Y-59738311D01*
X22563964Y-59799555D01*
X22592541Y-59801804D01*
X22786982Y-59817107D01*
X22786991Y-59817107D01*
X22789439Y-59817300D01*
X22944971Y-59817300D01*
X22947107Y-59817154D01*
X22947118Y-59817154D01*
X23155248Y-59802965D01*
X23155254Y-59802964D01*
X23159525Y-59802673D01*
X23163720Y-59801804D01*
X23163722Y-59801804D01*
X23300284Y-59773523D01*
X23441042Y-59744374D01*
X23712043Y-59648407D01*
X23967512Y-59516550D01*
X23971013Y-59514089D01*
X23971017Y-59514087D01*
X24085117Y-59433896D01*
X24202723Y-59351241D01*
X24413322Y-59155540D01*
X24534470Y-59007526D01*
X46383550Y-59007526D01*
X46396447Y-59276019D01*
X46448888Y-59539656D01*
X46539720Y-59792646D01*
X46541932Y-59796762D01*
X46541933Y-59796765D01*
X46552863Y-59817107D01*
X46666950Y-60029431D01*
X46669741Y-60033168D01*
X46669745Y-60033175D01*
X46751387Y-60142506D01*
X46827781Y-60244810D01*
X46831090Y-60248090D01*
X46831095Y-60248096D01*
X46990874Y-60406486D01*
X47018680Y-60434050D01*
X47022442Y-60436808D01*
X47022445Y-60436811D01*
X47134799Y-60519192D01*
X47235454Y-60592995D01*
X47239589Y-60595171D01*
X47239593Y-60595173D01*
X47459218Y-60710724D01*
X47473340Y-60718154D01*
X47727113Y-60806775D01*
X47731706Y-60807647D01*
X47986609Y-60856042D01*
X47986612Y-60856042D01*
X47991198Y-60856913D01*
X48118870Y-60861929D01*
X48255125Y-60867283D01*
X48255130Y-60867283D01*
X48259793Y-60867466D01*
X48364107Y-60856042D01*
X48522344Y-60838713D01*
X48522350Y-60838712D01*
X48526997Y-60838203D01*
X48640485Y-60808324D01*
X48782418Y-60770956D01*
X48782420Y-60770955D01*
X48786941Y-60769765D01*
X48895126Y-60723285D01*
X49029620Y-60665502D01*
X49029622Y-60665501D01*
X49033914Y-60663657D01*
X49152571Y-60590230D01*
X49258517Y-60524669D01*
X49258521Y-60524666D01*
X49262490Y-60522210D01*
X49467649Y-60348530D01*
X49644882Y-60146434D01*
X49790297Y-59920361D01*
X49900699Y-59675278D01*
X49937709Y-59544051D01*
X49972393Y-59421072D01*
X49972394Y-59421069D01*
X49973663Y-59416568D01*
X49991543Y-59276019D01*
X50007188Y-59153045D01*
X50007188Y-59153041D01*
X50007586Y-59149915D01*
X50010071Y-59055000D01*
X50006543Y-59007526D01*
X51463550Y-59007526D01*
X51476447Y-59276019D01*
X51528888Y-59539656D01*
X51619720Y-59792646D01*
X51621932Y-59796762D01*
X51621933Y-59796765D01*
X51632863Y-59817107D01*
X51746950Y-60029431D01*
X51749741Y-60033168D01*
X51749745Y-60033175D01*
X51831387Y-60142506D01*
X51907781Y-60244810D01*
X51911090Y-60248090D01*
X51911095Y-60248096D01*
X52070874Y-60406486D01*
X52098680Y-60434050D01*
X52102442Y-60436808D01*
X52102445Y-60436811D01*
X52214799Y-60519192D01*
X52315454Y-60592995D01*
X52319589Y-60595171D01*
X52319593Y-60595173D01*
X52539218Y-60710724D01*
X52553340Y-60718154D01*
X52807113Y-60806775D01*
X52811706Y-60807647D01*
X53066609Y-60856042D01*
X53066612Y-60856042D01*
X53071198Y-60856913D01*
X53198870Y-60861929D01*
X53335125Y-60867283D01*
X53335130Y-60867283D01*
X53339793Y-60867466D01*
X53444107Y-60856042D01*
X53602344Y-60838713D01*
X53602350Y-60838712D01*
X53606997Y-60838203D01*
X53720485Y-60808324D01*
X53862418Y-60770956D01*
X53862420Y-60770955D01*
X53866941Y-60769765D01*
X53975126Y-60723285D01*
X54109620Y-60665502D01*
X54109622Y-60665501D01*
X54113914Y-60663657D01*
X54232571Y-60590230D01*
X54338517Y-60524669D01*
X54338521Y-60524666D01*
X54342490Y-60522210D01*
X54487241Y-60399669D01*
X56548501Y-60399669D01*
X56548871Y-60406490D01*
X56554395Y-60457352D01*
X56558021Y-60472604D01*
X56603176Y-60593054D01*
X56611714Y-60608649D01*
X56688215Y-60710724D01*
X56700776Y-60723285D01*
X56802851Y-60799786D01*
X56818446Y-60808324D01*
X56938894Y-60853478D01*
X56954149Y-60857105D01*
X57005014Y-60862631D01*
X57011828Y-60863000D01*
X58084385Y-60863000D01*
X58099624Y-60858525D01*
X58100829Y-60857135D01*
X58102500Y-60849452D01*
X58102500Y-60844884D01*
X58610500Y-60844884D01*
X58614975Y-60860123D01*
X58616365Y-60861328D01*
X58624048Y-60862999D01*
X59701169Y-60862999D01*
X59707990Y-60862629D01*
X59758852Y-60857105D01*
X59774104Y-60853479D01*
X59894554Y-60808324D01*
X59910149Y-60799786D01*
X60012224Y-60723285D01*
X60024785Y-60710724D01*
X60101286Y-60608649D01*
X60109824Y-60593054D01*
X60154978Y-60472606D01*
X60158605Y-60457351D01*
X60164131Y-60406486D01*
X60164500Y-60399672D01*
X60164500Y-59327115D01*
X60160025Y-59311876D01*
X60158635Y-59310671D01*
X60150952Y-59309000D01*
X58628615Y-59309000D01*
X58613376Y-59313475D01*
X58612171Y-59314865D01*
X58610500Y-59322548D01*
X58610500Y-60844884D01*
X58102500Y-60844884D01*
X58102500Y-59327115D01*
X58098025Y-59311876D01*
X58096635Y-59310671D01*
X58088952Y-59309000D01*
X56566616Y-59309000D01*
X56551377Y-59313475D01*
X56550172Y-59314865D01*
X56548501Y-59322548D01*
X56548501Y-60399669D01*
X54487241Y-60399669D01*
X54547649Y-60348530D01*
X54724882Y-60146434D01*
X54870297Y-59920361D01*
X54980699Y-59675278D01*
X55017709Y-59544051D01*
X55052393Y-59421072D01*
X55052394Y-59421069D01*
X55053663Y-59416568D01*
X55071543Y-59276019D01*
X55087188Y-59153045D01*
X55087188Y-59153041D01*
X55087586Y-59149915D01*
X55090071Y-59055000D01*
X55086543Y-59007526D01*
X61623550Y-59007526D01*
X61636447Y-59276019D01*
X61688888Y-59539656D01*
X61779720Y-59792646D01*
X61781932Y-59796762D01*
X61781933Y-59796765D01*
X61792863Y-59817107D01*
X61906950Y-60029431D01*
X61909741Y-60033168D01*
X61909745Y-60033175D01*
X61991387Y-60142506D01*
X62067781Y-60244810D01*
X62071090Y-60248090D01*
X62071095Y-60248096D01*
X62230874Y-60406486D01*
X62258680Y-60434050D01*
X62262442Y-60436808D01*
X62262445Y-60436811D01*
X62374799Y-60519192D01*
X62475454Y-60592995D01*
X62479589Y-60595171D01*
X62479593Y-60595173D01*
X62699218Y-60710724D01*
X62713340Y-60718154D01*
X62967113Y-60806775D01*
X62971706Y-60807647D01*
X63226609Y-60856042D01*
X63226612Y-60856042D01*
X63231198Y-60856913D01*
X63358870Y-60861929D01*
X63495125Y-60867283D01*
X63495130Y-60867283D01*
X63499793Y-60867466D01*
X63604107Y-60856042D01*
X63762344Y-60838713D01*
X63762350Y-60838712D01*
X63766997Y-60838203D01*
X63880485Y-60808324D01*
X64022418Y-60770956D01*
X64022420Y-60770955D01*
X64026941Y-60769765D01*
X64135126Y-60723285D01*
X64269620Y-60665502D01*
X64269622Y-60665501D01*
X64273914Y-60663657D01*
X64392571Y-60590230D01*
X64498517Y-60524669D01*
X64498521Y-60524666D01*
X64502490Y-60522210D01*
X64707649Y-60348530D01*
X64884882Y-60146434D01*
X65030297Y-59920361D01*
X65140699Y-59675278D01*
X65177709Y-59544051D01*
X65212393Y-59421072D01*
X65212394Y-59421069D01*
X65213663Y-59416568D01*
X65231543Y-59276019D01*
X65247188Y-59153045D01*
X65247188Y-59153041D01*
X65247586Y-59149915D01*
X65250071Y-59055000D01*
X65246543Y-59007526D01*
X66703550Y-59007526D01*
X66716447Y-59276019D01*
X66768888Y-59539656D01*
X66859720Y-59792646D01*
X66861932Y-59796762D01*
X66861933Y-59796765D01*
X66872863Y-59817107D01*
X66986950Y-60029431D01*
X66989741Y-60033168D01*
X66989745Y-60033175D01*
X67071387Y-60142506D01*
X67147781Y-60244810D01*
X67151090Y-60248090D01*
X67151095Y-60248096D01*
X67310874Y-60406486D01*
X67338680Y-60434050D01*
X67342442Y-60436808D01*
X67342445Y-60436811D01*
X67454799Y-60519192D01*
X67555454Y-60592995D01*
X67559589Y-60595171D01*
X67559593Y-60595173D01*
X67779218Y-60710724D01*
X67793340Y-60718154D01*
X68047113Y-60806775D01*
X68051706Y-60807647D01*
X68306609Y-60856042D01*
X68306612Y-60856042D01*
X68311198Y-60856913D01*
X68438870Y-60861929D01*
X68575125Y-60867283D01*
X68575130Y-60867283D01*
X68579793Y-60867466D01*
X68684107Y-60856042D01*
X68842344Y-60838713D01*
X68842350Y-60838712D01*
X68846997Y-60838203D01*
X68960485Y-60808324D01*
X69102418Y-60770956D01*
X69102420Y-60770955D01*
X69106941Y-60769765D01*
X69215126Y-60723285D01*
X69349620Y-60665502D01*
X69349622Y-60665501D01*
X69353914Y-60663657D01*
X69472571Y-60590230D01*
X69578517Y-60524669D01*
X69578521Y-60524666D01*
X69582490Y-60522210D01*
X69727241Y-60399669D01*
X71788501Y-60399669D01*
X71788871Y-60406490D01*
X71794395Y-60457352D01*
X71798021Y-60472604D01*
X71843176Y-60593054D01*
X71851714Y-60608649D01*
X71928215Y-60710724D01*
X71940776Y-60723285D01*
X72042851Y-60799786D01*
X72058446Y-60808324D01*
X72178894Y-60853478D01*
X72194149Y-60857105D01*
X72245014Y-60862631D01*
X72251828Y-60863000D01*
X73324385Y-60863000D01*
X73339624Y-60858525D01*
X73340829Y-60857135D01*
X73342500Y-60849452D01*
X73342500Y-60844884D01*
X73850500Y-60844884D01*
X73854975Y-60860123D01*
X73856365Y-60861328D01*
X73864048Y-60862999D01*
X74941169Y-60862999D01*
X74947990Y-60862629D01*
X74998852Y-60857105D01*
X75014104Y-60853479D01*
X75134554Y-60808324D01*
X75150149Y-60799786D01*
X75252224Y-60723285D01*
X75264785Y-60710724D01*
X75341286Y-60608649D01*
X75349824Y-60593054D01*
X75394978Y-60472606D01*
X75398605Y-60457351D01*
X75404131Y-60406486D01*
X75404500Y-60399672D01*
X75404500Y-59327115D01*
X75400025Y-59311876D01*
X75398635Y-59310671D01*
X75390952Y-59309000D01*
X73868615Y-59309000D01*
X73853376Y-59313475D01*
X73852171Y-59314865D01*
X73850500Y-59322548D01*
X73850500Y-60844884D01*
X73342500Y-60844884D01*
X73342500Y-59327115D01*
X73338025Y-59311876D01*
X73336635Y-59310671D01*
X73328952Y-59309000D01*
X71806616Y-59309000D01*
X71791377Y-59313475D01*
X71790172Y-59314865D01*
X71788501Y-59322548D01*
X71788501Y-60399669D01*
X69727241Y-60399669D01*
X69787649Y-60348530D01*
X69964882Y-60146434D01*
X70110297Y-59920361D01*
X70220699Y-59675278D01*
X70257709Y-59544051D01*
X70292393Y-59421072D01*
X70292394Y-59421069D01*
X70293663Y-59416568D01*
X70311543Y-59276019D01*
X70327188Y-59153045D01*
X70327188Y-59153041D01*
X70327586Y-59149915D01*
X70330071Y-59055000D01*
X70326543Y-59007526D01*
X76863550Y-59007526D01*
X76876447Y-59276019D01*
X76928888Y-59539656D01*
X77019720Y-59792646D01*
X77021932Y-59796762D01*
X77021933Y-59796765D01*
X77032863Y-59817107D01*
X77146950Y-60029431D01*
X77149741Y-60033168D01*
X77149745Y-60033175D01*
X77231387Y-60142506D01*
X77307781Y-60244810D01*
X77311090Y-60248090D01*
X77311095Y-60248096D01*
X77470874Y-60406486D01*
X77498680Y-60434050D01*
X77502442Y-60436808D01*
X77502445Y-60436811D01*
X77614799Y-60519192D01*
X77715454Y-60592995D01*
X77719589Y-60595171D01*
X77719593Y-60595173D01*
X77939218Y-60710724D01*
X77953340Y-60718154D01*
X78207113Y-60806775D01*
X78211706Y-60807647D01*
X78466609Y-60856042D01*
X78466612Y-60856042D01*
X78471198Y-60856913D01*
X78598870Y-60861929D01*
X78735125Y-60867283D01*
X78735130Y-60867283D01*
X78739793Y-60867466D01*
X78844107Y-60856042D01*
X79002344Y-60838713D01*
X79002350Y-60838712D01*
X79006997Y-60838203D01*
X79120485Y-60808324D01*
X79262418Y-60770956D01*
X79262420Y-60770955D01*
X79266941Y-60769765D01*
X79375126Y-60723285D01*
X79509620Y-60665502D01*
X79509622Y-60665501D01*
X79513914Y-60663657D01*
X79632571Y-60590230D01*
X79738517Y-60524669D01*
X79738521Y-60524666D01*
X79742490Y-60522210D01*
X79947649Y-60348530D01*
X80124882Y-60146434D01*
X80270297Y-59920361D01*
X80380699Y-59675278D01*
X80417709Y-59544051D01*
X80452393Y-59421072D01*
X80452394Y-59421069D01*
X80453663Y-59416568D01*
X80471543Y-59276019D01*
X80487188Y-59153045D01*
X80487188Y-59153041D01*
X80487586Y-59149915D01*
X80490071Y-59055000D01*
X80486543Y-59007526D01*
X81943550Y-59007526D01*
X81956447Y-59276019D01*
X82008888Y-59539656D01*
X82099720Y-59792646D01*
X82101932Y-59796762D01*
X82101933Y-59796765D01*
X82112863Y-59817107D01*
X82226950Y-60029431D01*
X82229741Y-60033168D01*
X82229745Y-60033175D01*
X82311387Y-60142506D01*
X82387781Y-60244810D01*
X82391090Y-60248090D01*
X82391095Y-60248096D01*
X82550874Y-60406486D01*
X82578680Y-60434050D01*
X82582442Y-60436808D01*
X82582445Y-60436811D01*
X82694799Y-60519192D01*
X82795454Y-60592995D01*
X82799589Y-60595171D01*
X82799593Y-60595173D01*
X83019218Y-60710724D01*
X83033340Y-60718154D01*
X83287113Y-60806775D01*
X83291706Y-60807647D01*
X83546609Y-60856042D01*
X83546612Y-60856042D01*
X83551198Y-60856913D01*
X83678870Y-60861929D01*
X83815125Y-60867283D01*
X83815130Y-60867283D01*
X83819793Y-60867466D01*
X83924107Y-60856042D01*
X84082344Y-60838713D01*
X84082350Y-60838712D01*
X84086997Y-60838203D01*
X84200485Y-60808324D01*
X84342418Y-60770956D01*
X84342420Y-60770955D01*
X84346941Y-60769765D01*
X84455126Y-60723285D01*
X84589620Y-60665502D01*
X84589622Y-60665501D01*
X84593914Y-60663657D01*
X84712571Y-60590230D01*
X84818517Y-60524669D01*
X84818521Y-60524666D01*
X84822490Y-60522210D01*
X84967241Y-60399669D01*
X87028501Y-60399669D01*
X87028871Y-60406490D01*
X87034395Y-60457352D01*
X87038021Y-60472604D01*
X87083176Y-60593054D01*
X87091714Y-60608649D01*
X87168215Y-60710724D01*
X87180776Y-60723285D01*
X87282851Y-60799786D01*
X87298446Y-60808324D01*
X87418894Y-60853478D01*
X87434149Y-60857105D01*
X87485014Y-60862631D01*
X87491828Y-60863000D01*
X88564385Y-60863000D01*
X88579624Y-60858525D01*
X88580829Y-60857135D01*
X88582500Y-60849452D01*
X88582500Y-60844884D01*
X89090500Y-60844884D01*
X89094975Y-60860123D01*
X89096365Y-60861328D01*
X89104048Y-60862999D01*
X90181169Y-60862999D01*
X90187990Y-60862629D01*
X90238852Y-60857105D01*
X90254104Y-60853479D01*
X90374554Y-60808324D01*
X90390149Y-60799786D01*
X90492224Y-60723285D01*
X90504785Y-60710724D01*
X90581286Y-60608649D01*
X90589824Y-60593054D01*
X90634978Y-60472606D01*
X90638605Y-60457351D01*
X90644131Y-60406486D01*
X90644500Y-60399672D01*
X90644500Y-59327115D01*
X90640025Y-59311876D01*
X90638635Y-59310671D01*
X90630952Y-59309000D01*
X89108615Y-59309000D01*
X89093376Y-59313475D01*
X89092171Y-59314865D01*
X89090500Y-59322548D01*
X89090500Y-60844884D01*
X88582500Y-60844884D01*
X88582500Y-59327115D01*
X88578025Y-59311876D01*
X88576635Y-59310671D01*
X88568952Y-59309000D01*
X87046616Y-59309000D01*
X87031377Y-59313475D01*
X87030172Y-59314865D01*
X87028501Y-59322548D01*
X87028501Y-60399669D01*
X84967241Y-60399669D01*
X85027649Y-60348530D01*
X85204882Y-60146434D01*
X85350297Y-59920361D01*
X85460699Y-59675278D01*
X85497709Y-59544051D01*
X85532393Y-59421072D01*
X85532394Y-59421069D01*
X85533663Y-59416568D01*
X85551543Y-59276019D01*
X85567188Y-59153045D01*
X85567188Y-59153041D01*
X85567586Y-59149915D01*
X85570071Y-59055000D01*
X85566543Y-59007526D01*
X92103550Y-59007526D01*
X92116447Y-59276019D01*
X92168888Y-59539656D01*
X92259720Y-59792646D01*
X92261932Y-59796762D01*
X92261933Y-59796765D01*
X92272863Y-59817107D01*
X92386950Y-60029431D01*
X92389741Y-60033168D01*
X92389745Y-60033175D01*
X92471387Y-60142506D01*
X92547781Y-60244810D01*
X92551090Y-60248090D01*
X92551095Y-60248096D01*
X92710874Y-60406486D01*
X92738680Y-60434050D01*
X92742442Y-60436808D01*
X92742445Y-60436811D01*
X92854799Y-60519192D01*
X92955454Y-60592995D01*
X92959589Y-60595171D01*
X92959593Y-60595173D01*
X93179218Y-60710724D01*
X93193340Y-60718154D01*
X93447113Y-60806775D01*
X93451706Y-60807647D01*
X93706609Y-60856042D01*
X93706612Y-60856042D01*
X93711198Y-60856913D01*
X93838870Y-60861929D01*
X93975125Y-60867283D01*
X93975130Y-60867283D01*
X93979793Y-60867466D01*
X94084107Y-60856042D01*
X94242344Y-60838713D01*
X94242350Y-60838712D01*
X94246997Y-60838203D01*
X94360485Y-60808324D01*
X94502418Y-60770956D01*
X94502420Y-60770955D01*
X94506941Y-60769765D01*
X94615126Y-60723285D01*
X94749620Y-60665502D01*
X94749622Y-60665501D01*
X94753914Y-60663657D01*
X94872571Y-60590230D01*
X94978517Y-60524669D01*
X94978521Y-60524666D01*
X94982490Y-60522210D01*
X95187649Y-60348530D01*
X95364882Y-60146434D01*
X95510297Y-59920361D01*
X95620699Y-59675278D01*
X95657709Y-59544051D01*
X95692393Y-59421072D01*
X95692394Y-59421069D01*
X95693663Y-59416568D01*
X95711543Y-59276019D01*
X95727188Y-59153045D01*
X95727188Y-59153041D01*
X95727586Y-59149915D01*
X95730071Y-59055000D01*
X95726543Y-59007526D01*
X97183550Y-59007526D01*
X97196447Y-59276019D01*
X97248888Y-59539656D01*
X97339720Y-59792646D01*
X97341932Y-59796762D01*
X97341933Y-59796765D01*
X97352863Y-59817107D01*
X97466950Y-60029431D01*
X97469741Y-60033168D01*
X97469745Y-60033175D01*
X97551387Y-60142506D01*
X97627781Y-60244810D01*
X97631090Y-60248090D01*
X97631095Y-60248096D01*
X97790874Y-60406486D01*
X97818680Y-60434050D01*
X97822442Y-60436808D01*
X97822445Y-60436811D01*
X97934799Y-60519192D01*
X98035454Y-60592995D01*
X98039589Y-60595171D01*
X98039593Y-60595173D01*
X98259218Y-60710724D01*
X98273340Y-60718154D01*
X98527113Y-60806775D01*
X98531706Y-60807647D01*
X98786609Y-60856042D01*
X98786612Y-60856042D01*
X98791198Y-60856913D01*
X98918870Y-60861929D01*
X99055125Y-60867283D01*
X99055130Y-60867283D01*
X99059793Y-60867466D01*
X99164107Y-60856042D01*
X99322344Y-60838713D01*
X99322350Y-60838712D01*
X99326997Y-60838203D01*
X99440485Y-60808324D01*
X99582418Y-60770956D01*
X99582420Y-60770955D01*
X99586941Y-60769765D01*
X99695126Y-60723285D01*
X99829620Y-60665502D01*
X99829622Y-60665501D01*
X99833914Y-60663657D01*
X99952571Y-60590230D01*
X100058517Y-60524669D01*
X100058521Y-60524666D01*
X100062490Y-60522210D01*
X100267649Y-60348530D01*
X100444882Y-60146434D01*
X100590297Y-59920361D01*
X100700699Y-59675278D01*
X100737709Y-59544051D01*
X100772393Y-59421072D01*
X100772394Y-59421069D01*
X100773663Y-59416568D01*
X100791543Y-59276019D01*
X100807188Y-59153045D01*
X100807188Y-59153041D01*
X100807586Y-59149915D01*
X100810071Y-59055000D01*
X100790150Y-58786937D01*
X100766860Y-58684008D01*
X100731861Y-58529331D01*
X100731860Y-58529326D01*
X100730827Y-58524763D01*
X100633402Y-58274238D01*
X100500018Y-58040864D01*
X100342855Y-57841503D01*
X113168643Y-57841503D01*
X113206168Y-58126534D01*
X113282029Y-58403836D01*
X113283713Y-58407784D01*
X113335558Y-58529331D01*
X113394823Y-58668276D01*
X113542461Y-58914961D01*
X113722213Y-59139328D01*
X113736668Y-59153045D01*
X113915287Y-59322548D01*
X113930751Y-59337223D01*
X114164217Y-59504986D01*
X114168012Y-59506995D01*
X114168013Y-59506996D01*
X114189769Y-59518515D01*
X114418292Y-59639512D01*
X114688273Y-59738311D01*
X114969164Y-59799555D01*
X114997741Y-59801804D01*
X115192182Y-59817107D01*
X115192191Y-59817107D01*
X115194639Y-59817300D01*
X115350171Y-59817300D01*
X115352307Y-59817154D01*
X115352318Y-59817154D01*
X115560448Y-59802965D01*
X115560454Y-59802964D01*
X115564725Y-59802673D01*
X115568920Y-59801804D01*
X115568922Y-59801804D01*
X115705484Y-59773523D01*
X115846242Y-59744374D01*
X116117243Y-59648407D01*
X116372712Y-59516550D01*
X116376213Y-59514089D01*
X116376217Y-59514087D01*
X116490318Y-59433895D01*
X116607923Y-59351241D01*
X116818522Y-59155540D01*
X117000613Y-58933068D01*
X117150827Y-58687942D01*
X117266383Y-58424698D01*
X117345144Y-58148206D01*
X117385651Y-57863584D01*
X117385745Y-57845751D01*
X117387135Y-57580383D01*
X117387135Y-57580376D01*
X117387157Y-57576097D01*
X117375863Y-57490306D01*
X117350192Y-57295322D01*
X117349632Y-57291066D01*
X117273771Y-57013764D01*
X117160977Y-56749324D01*
X117013339Y-56502639D01*
X116833587Y-56278272D01*
X116625049Y-56080377D01*
X116391583Y-55912614D01*
X116369743Y-55901050D01*
X116346554Y-55888772D01*
X116137508Y-55778088D01*
X115867527Y-55679289D01*
X115586636Y-55618045D01*
X115555585Y-55615601D01*
X115363618Y-55600493D01*
X115363609Y-55600493D01*
X115361161Y-55600300D01*
X115205629Y-55600300D01*
X115203493Y-55600446D01*
X115203482Y-55600446D01*
X114995352Y-55614635D01*
X114995346Y-55614636D01*
X114991075Y-55614927D01*
X114986880Y-55615796D01*
X114986878Y-55615796D01*
X114850317Y-55644076D01*
X114709558Y-55673226D01*
X114438557Y-55769193D01*
X114183088Y-55901050D01*
X114179587Y-55903511D01*
X114179583Y-55903513D01*
X114169494Y-55910604D01*
X113947877Y-56066359D01*
X113737278Y-56262060D01*
X113555187Y-56484532D01*
X113404973Y-56729658D01*
X113289417Y-56992902D01*
X113210656Y-57269394D01*
X113182553Y-57466858D01*
X113178543Y-57495039D01*
X113170149Y-57554016D01*
X113170127Y-57558305D01*
X113170126Y-57558312D01*
X113168721Y-57826569D01*
X113168643Y-57841503D01*
X100342855Y-57841503D01*
X100333605Y-57829769D01*
X100137817Y-57645591D01*
X99952377Y-57516946D01*
X99920799Y-57495039D01*
X99920796Y-57495037D01*
X99916957Y-57492374D01*
X99912764Y-57490306D01*
X99680064Y-57375551D01*
X99680061Y-57375550D01*
X99675876Y-57373486D01*
X99628245Y-57358239D01*
X99574121Y-57340914D01*
X99419870Y-57291538D01*
X99415263Y-57290788D01*
X99415260Y-57290787D01*
X99159174Y-57249081D01*
X99159175Y-57249081D01*
X99154563Y-57248330D01*
X99024219Y-57246624D01*
X98890461Y-57244873D01*
X98890458Y-57244873D01*
X98885784Y-57244812D01*
X98619437Y-57281060D01*
X98361374Y-57356278D01*
X98117263Y-57468815D01*
X98113354Y-57471378D01*
X97896381Y-57613631D01*
X97896376Y-57613635D01*
X97892468Y-57616197D01*
X97691926Y-57795188D01*
X97520044Y-58001854D01*
X97380596Y-58231656D01*
X97276648Y-58479545D01*
X97210481Y-58740077D01*
X97183550Y-59007526D01*
X95726543Y-59007526D01*
X95710150Y-58786937D01*
X95686860Y-58684008D01*
X95651861Y-58529331D01*
X95651860Y-58529326D01*
X95650827Y-58524763D01*
X95553402Y-58274238D01*
X95420018Y-58040864D01*
X95253605Y-57829769D01*
X95057817Y-57645591D01*
X94872377Y-57516946D01*
X94840799Y-57495039D01*
X94840796Y-57495037D01*
X94836957Y-57492374D01*
X94832764Y-57490306D01*
X94600064Y-57375551D01*
X94600061Y-57375550D01*
X94595876Y-57373486D01*
X94548245Y-57358239D01*
X94494121Y-57340914D01*
X94339870Y-57291538D01*
X94335263Y-57290788D01*
X94335260Y-57290787D01*
X94079174Y-57249081D01*
X94079175Y-57249081D01*
X94074563Y-57248330D01*
X93944219Y-57246624D01*
X93810461Y-57244873D01*
X93810458Y-57244873D01*
X93805784Y-57244812D01*
X93539437Y-57281060D01*
X93281374Y-57356278D01*
X93037263Y-57468815D01*
X93033354Y-57471378D01*
X92816381Y-57613631D01*
X92816376Y-57613635D01*
X92812468Y-57616197D01*
X92611926Y-57795188D01*
X92440044Y-58001854D01*
X92300596Y-58231656D01*
X92196648Y-58479545D01*
X92130481Y-58740077D01*
X92103550Y-59007526D01*
X85566543Y-59007526D01*
X85550150Y-58786937D01*
X85549233Y-58782885D01*
X87028500Y-58782885D01*
X87032975Y-58798124D01*
X87034365Y-58799329D01*
X87042048Y-58801000D01*
X88564385Y-58801000D01*
X88579624Y-58796525D01*
X88580829Y-58795135D01*
X88582500Y-58787452D01*
X88582500Y-58782885D01*
X89090500Y-58782885D01*
X89094975Y-58798124D01*
X89096365Y-58799329D01*
X89104048Y-58801000D01*
X90626384Y-58801000D01*
X90641623Y-58796525D01*
X90642828Y-58795135D01*
X90644499Y-58787452D01*
X90644499Y-57710331D01*
X90644129Y-57703510D01*
X90638605Y-57652648D01*
X90634979Y-57637396D01*
X90589824Y-57516946D01*
X90581286Y-57501351D01*
X90504785Y-57399276D01*
X90492224Y-57386715D01*
X90390149Y-57310214D01*
X90374554Y-57301676D01*
X90254106Y-57256522D01*
X90238851Y-57252895D01*
X90187986Y-57247369D01*
X90181172Y-57247000D01*
X89108615Y-57247000D01*
X89093376Y-57251475D01*
X89092171Y-57252865D01*
X89090500Y-57260548D01*
X89090500Y-58782885D01*
X88582500Y-58782885D01*
X88582500Y-57265116D01*
X88578025Y-57249877D01*
X88576635Y-57248672D01*
X88568952Y-57247001D01*
X87491831Y-57247001D01*
X87485010Y-57247371D01*
X87434148Y-57252895D01*
X87418896Y-57256521D01*
X87298446Y-57301676D01*
X87282851Y-57310214D01*
X87180776Y-57386715D01*
X87168215Y-57399276D01*
X87091714Y-57501351D01*
X87083176Y-57516946D01*
X87038022Y-57637394D01*
X87034395Y-57652649D01*
X87028869Y-57703514D01*
X87028500Y-57710328D01*
X87028500Y-58782885D01*
X85549233Y-58782885D01*
X85526860Y-58684008D01*
X85491861Y-58529331D01*
X85491860Y-58529326D01*
X85490827Y-58524763D01*
X85393402Y-58274238D01*
X85260018Y-58040864D01*
X85093605Y-57829769D01*
X84897817Y-57645591D01*
X84712377Y-57516946D01*
X84680799Y-57495039D01*
X84680796Y-57495037D01*
X84676957Y-57492374D01*
X84672764Y-57490306D01*
X84440064Y-57375551D01*
X84440061Y-57375550D01*
X84435876Y-57373486D01*
X84388245Y-57358239D01*
X84334121Y-57340914D01*
X84179870Y-57291538D01*
X84175263Y-57290788D01*
X84175260Y-57290787D01*
X83919174Y-57249081D01*
X83919175Y-57249081D01*
X83914563Y-57248330D01*
X83784219Y-57246624D01*
X83650461Y-57244873D01*
X83650458Y-57244873D01*
X83645784Y-57244812D01*
X83379437Y-57281060D01*
X83121374Y-57356278D01*
X82877263Y-57468815D01*
X82873354Y-57471378D01*
X82656381Y-57613631D01*
X82656376Y-57613635D01*
X82652468Y-57616197D01*
X82451926Y-57795188D01*
X82280044Y-58001854D01*
X82140596Y-58231656D01*
X82036648Y-58479545D01*
X81970481Y-58740077D01*
X81943550Y-59007526D01*
X80486543Y-59007526D01*
X80470150Y-58786937D01*
X80446860Y-58684008D01*
X80411861Y-58529331D01*
X80411860Y-58529326D01*
X80410827Y-58524763D01*
X80313402Y-58274238D01*
X80180018Y-58040864D01*
X80013605Y-57829769D01*
X79817817Y-57645591D01*
X79632377Y-57516946D01*
X79600799Y-57495039D01*
X79600796Y-57495037D01*
X79596957Y-57492374D01*
X79592764Y-57490306D01*
X79360064Y-57375551D01*
X79360061Y-57375550D01*
X79355876Y-57373486D01*
X79308245Y-57358239D01*
X79254121Y-57340914D01*
X79099870Y-57291538D01*
X79095263Y-57290788D01*
X79095260Y-57290787D01*
X78839174Y-57249081D01*
X78839175Y-57249081D01*
X78834563Y-57248330D01*
X78704219Y-57246624D01*
X78570461Y-57244873D01*
X78570458Y-57244873D01*
X78565784Y-57244812D01*
X78299437Y-57281060D01*
X78041374Y-57356278D01*
X77797263Y-57468815D01*
X77793354Y-57471378D01*
X77576381Y-57613631D01*
X77576376Y-57613635D01*
X77572468Y-57616197D01*
X77371926Y-57795188D01*
X77200044Y-58001854D01*
X77060596Y-58231656D01*
X76956648Y-58479545D01*
X76890481Y-58740077D01*
X76863550Y-59007526D01*
X70326543Y-59007526D01*
X70310150Y-58786937D01*
X70309233Y-58782885D01*
X71788500Y-58782885D01*
X71792975Y-58798124D01*
X71794365Y-58799329D01*
X71802048Y-58801000D01*
X73324385Y-58801000D01*
X73339624Y-58796525D01*
X73340829Y-58795135D01*
X73342500Y-58787452D01*
X73342500Y-58782885D01*
X73850500Y-58782885D01*
X73854975Y-58798124D01*
X73856365Y-58799329D01*
X73864048Y-58801000D01*
X75386384Y-58801000D01*
X75401623Y-58796525D01*
X75402828Y-58795135D01*
X75404499Y-58787452D01*
X75404499Y-57710331D01*
X75404129Y-57703510D01*
X75398605Y-57652648D01*
X75394979Y-57637396D01*
X75349824Y-57516946D01*
X75341286Y-57501351D01*
X75264785Y-57399276D01*
X75252224Y-57386715D01*
X75150149Y-57310214D01*
X75134554Y-57301676D01*
X75014106Y-57256522D01*
X74998851Y-57252895D01*
X74947986Y-57247369D01*
X74941172Y-57247000D01*
X73868615Y-57247000D01*
X73853376Y-57251475D01*
X73852171Y-57252865D01*
X73850500Y-57260548D01*
X73850500Y-58782885D01*
X73342500Y-58782885D01*
X73342500Y-57265116D01*
X73338025Y-57249877D01*
X73336635Y-57248672D01*
X73328952Y-57247001D01*
X72251831Y-57247001D01*
X72245010Y-57247371D01*
X72194148Y-57252895D01*
X72178896Y-57256521D01*
X72058446Y-57301676D01*
X72042851Y-57310214D01*
X71940776Y-57386715D01*
X71928215Y-57399276D01*
X71851714Y-57501351D01*
X71843176Y-57516946D01*
X71798022Y-57637394D01*
X71794395Y-57652649D01*
X71788869Y-57703514D01*
X71788500Y-57710328D01*
X71788500Y-58782885D01*
X70309233Y-58782885D01*
X70286860Y-58684008D01*
X70251861Y-58529331D01*
X70251860Y-58529326D01*
X70250827Y-58524763D01*
X70153402Y-58274238D01*
X70020018Y-58040864D01*
X69853605Y-57829769D01*
X69657817Y-57645591D01*
X69472377Y-57516946D01*
X69440799Y-57495039D01*
X69440796Y-57495037D01*
X69436957Y-57492374D01*
X69432764Y-57490306D01*
X69200064Y-57375551D01*
X69200061Y-57375550D01*
X69195876Y-57373486D01*
X69148245Y-57358239D01*
X69094121Y-57340914D01*
X68939870Y-57291538D01*
X68935263Y-57290788D01*
X68935260Y-57290787D01*
X68679174Y-57249081D01*
X68679175Y-57249081D01*
X68674563Y-57248330D01*
X68544219Y-57246624D01*
X68410461Y-57244873D01*
X68410458Y-57244873D01*
X68405784Y-57244812D01*
X68139437Y-57281060D01*
X67881374Y-57356278D01*
X67637263Y-57468815D01*
X67633354Y-57471378D01*
X67416381Y-57613631D01*
X67416376Y-57613635D01*
X67412468Y-57616197D01*
X67211926Y-57795188D01*
X67040044Y-58001854D01*
X66900596Y-58231656D01*
X66796648Y-58479545D01*
X66730481Y-58740077D01*
X66703550Y-59007526D01*
X65246543Y-59007526D01*
X65230150Y-58786937D01*
X65206860Y-58684008D01*
X65171861Y-58529331D01*
X65171860Y-58529326D01*
X65170827Y-58524763D01*
X65073402Y-58274238D01*
X64940018Y-58040864D01*
X64773605Y-57829769D01*
X64577817Y-57645591D01*
X64392377Y-57516946D01*
X64360799Y-57495039D01*
X64360796Y-57495037D01*
X64356957Y-57492374D01*
X64352764Y-57490306D01*
X64120064Y-57375551D01*
X64120061Y-57375550D01*
X64115876Y-57373486D01*
X64068245Y-57358239D01*
X64014121Y-57340914D01*
X63859870Y-57291538D01*
X63855263Y-57290788D01*
X63855260Y-57290787D01*
X63599174Y-57249081D01*
X63599175Y-57249081D01*
X63594563Y-57248330D01*
X63464219Y-57246624D01*
X63330461Y-57244873D01*
X63330458Y-57244873D01*
X63325784Y-57244812D01*
X63059437Y-57281060D01*
X62801374Y-57356278D01*
X62557263Y-57468815D01*
X62553354Y-57471378D01*
X62336381Y-57613631D01*
X62336376Y-57613635D01*
X62332468Y-57616197D01*
X62131926Y-57795188D01*
X61960044Y-58001854D01*
X61820596Y-58231656D01*
X61716648Y-58479545D01*
X61650481Y-58740077D01*
X61623550Y-59007526D01*
X55086543Y-59007526D01*
X55070150Y-58786937D01*
X55069233Y-58782885D01*
X56548500Y-58782885D01*
X56552975Y-58798124D01*
X56554365Y-58799329D01*
X56562048Y-58801000D01*
X58084385Y-58801000D01*
X58099624Y-58796525D01*
X58100829Y-58795135D01*
X58102500Y-58787452D01*
X58102500Y-58782885D01*
X58610500Y-58782885D01*
X58614975Y-58798124D01*
X58616365Y-58799329D01*
X58624048Y-58801000D01*
X60146384Y-58801000D01*
X60161623Y-58796525D01*
X60162828Y-58795135D01*
X60164499Y-58787452D01*
X60164499Y-57710331D01*
X60164129Y-57703510D01*
X60158605Y-57652648D01*
X60154979Y-57637396D01*
X60109824Y-57516946D01*
X60101286Y-57501351D01*
X60024785Y-57399276D01*
X60012224Y-57386715D01*
X59910149Y-57310214D01*
X59894554Y-57301676D01*
X59774106Y-57256522D01*
X59758851Y-57252895D01*
X59707986Y-57247369D01*
X59701172Y-57247000D01*
X58628615Y-57247000D01*
X58613376Y-57251475D01*
X58612171Y-57252865D01*
X58610500Y-57260548D01*
X58610500Y-58782885D01*
X58102500Y-58782885D01*
X58102500Y-57265116D01*
X58098025Y-57249877D01*
X58096635Y-57248672D01*
X58088952Y-57247001D01*
X57011831Y-57247001D01*
X57005010Y-57247371D01*
X56954148Y-57252895D01*
X56938896Y-57256521D01*
X56818446Y-57301676D01*
X56802851Y-57310214D01*
X56700776Y-57386715D01*
X56688215Y-57399276D01*
X56611714Y-57501351D01*
X56603176Y-57516946D01*
X56558022Y-57637394D01*
X56554395Y-57652649D01*
X56548869Y-57703514D01*
X56548500Y-57710328D01*
X56548500Y-58782885D01*
X55069233Y-58782885D01*
X55046860Y-58684008D01*
X55011861Y-58529331D01*
X55011860Y-58529326D01*
X55010827Y-58524763D01*
X54913402Y-58274238D01*
X54780018Y-58040864D01*
X54613605Y-57829769D01*
X54417817Y-57645591D01*
X54232377Y-57516946D01*
X54200799Y-57495039D01*
X54200796Y-57495037D01*
X54196957Y-57492374D01*
X54192764Y-57490306D01*
X53960064Y-57375551D01*
X53960061Y-57375550D01*
X53955876Y-57373486D01*
X53908245Y-57358239D01*
X53854121Y-57340914D01*
X53699870Y-57291538D01*
X53695263Y-57290788D01*
X53695260Y-57290787D01*
X53439174Y-57249081D01*
X53439175Y-57249081D01*
X53434563Y-57248330D01*
X53304219Y-57246624D01*
X53170461Y-57244873D01*
X53170458Y-57244873D01*
X53165784Y-57244812D01*
X52899437Y-57281060D01*
X52641374Y-57356278D01*
X52397263Y-57468815D01*
X52393354Y-57471378D01*
X52176381Y-57613631D01*
X52176376Y-57613635D01*
X52172468Y-57616197D01*
X51971926Y-57795188D01*
X51800044Y-58001854D01*
X51660596Y-58231656D01*
X51556648Y-58479545D01*
X51490481Y-58740077D01*
X51463550Y-59007526D01*
X50006543Y-59007526D01*
X49990150Y-58786937D01*
X49966860Y-58684008D01*
X49931861Y-58529331D01*
X49931860Y-58529326D01*
X49930827Y-58524763D01*
X49833402Y-58274238D01*
X49700018Y-58040864D01*
X49533605Y-57829769D01*
X49337817Y-57645591D01*
X49152377Y-57516946D01*
X49120799Y-57495039D01*
X49120796Y-57495037D01*
X49116957Y-57492374D01*
X49112764Y-57490306D01*
X48880064Y-57375551D01*
X48880061Y-57375550D01*
X48875876Y-57373486D01*
X48828245Y-57358239D01*
X48774121Y-57340914D01*
X48619870Y-57291538D01*
X48615263Y-57290788D01*
X48615260Y-57290787D01*
X48359174Y-57249081D01*
X48359175Y-57249081D01*
X48354563Y-57248330D01*
X48224219Y-57246624D01*
X48090461Y-57244873D01*
X48090458Y-57244873D01*
X48085784Y-57244812D01*
X47819437Y-57281060D01*
X47561374Y-57356278D01*
X47317263Y-57468815D01*
X47313354Y-57471378D01*
X47096381Y-57613631D01*
X47096376Y-57613635D01*
X47092468Y-57616197D01*
X46891926Y-57795188D01*
X46720044Y-58001854D01*
X46580596Y-58231656D01*
X46476648Y-58479545D01*
X46410481Y-58740077D01*
X46383550Y-59007526D01*
X24534470Y-59007526D01*
X24595413Y-58933068D01*
X24687446Y-58782885D01*
X41308500Y-58782885D01*
X41312975Y-58798124D01*
X41314365Y-58799329D01*
X41322048Y-58801000D01*
X42844385Y-58801000D01*
X42859624Y-58796525D01*
X42860829Y-58795135D01*
X42862500Y-58787452D01*
X42862500Y-58782885D01*
X43370500Y-58782885D01*
X43374975Y-58798124D01*
X43376365Y-58799329D01*
X43384048Y-58801000D01*
X44906384Y-58801000D01*
X44921623Y-58796525D01*
X44922828Y-58795135D01*
X44924499Y-58787452D01*
X44924499Y-57710331D01*
X44924129Y-57703510D01*
X44918605Y-57652648D01*
X44914979Y-57637396D01*
X44869824Y-57516946D01*
X44861286Y-57501351D01*
X44784785Y-57399276D01*
X44772224Y-57386715D01*
X44670149Y-57310214D01*
X44654554Y-57301676D01*
X44534106Y-57256522D01*
X44518851Y-57252895D01*
X44467986Y-57247369D01*
X44461172Y-57247000D01*
X43388615Y-57247000D01*
X43373376Y-57251475D01*
X43372171Y-57252865D01*
X43370500Y-57260548D01*
X43370500Y-58782885D01*
X42862500Y-58782885D01*
X42862500Y-57265116D01*
X42858025Y-57249877D01*
X42856635Y-57248672D01*
X42848952Y-57247001D01*
X41771831Y-57247001D01*
X41765010Y-57247371D01*
X41714148Y-57252895D01*
X41698896Y-57256521D01*
X41578446Y-57301676D01*
X41562851Y-57310214D01*
X41460776Y-57386715D01*
X41448215Y-57399276D01*
X41371714Y-57501351D01*
X41363176Y-57516946D01*
X41318022Y-57637394D01*
X41314395Y-57652649D01*
X41308869Y-57703514D01*
X41308500Y-57710328D01*
X41308500Y-58782885D01*
X24687446Y-58782885D01*
X24745627Y-58687942D01*
X24861183Y-58424698D01*
X24939944Y-58148206D01*
X24980451Y-57863584D01*
X24980545Y-57845751D01*
X24981935Y-57580383D01*
X24981935Y-57580376D01*
X24981957Y-57576097D01*
X24970663Y-57490306D01*
X24944992Y-57295322D01*
X24944432Y-57291066D01*
X24868571Y-57013764D01*
X24755777Y-56749324D01*
X24608139Y-56502639D01*
X24428387Y-56278272D01*
X24219849Y-56080377D01*
X23986383Y-55912614D01*
X23964543Y-55901050D01*
X23941354Y-55888772D01*
X23732308Y-55778088D01*
X23462327Y-55679289D01*
X23181436Y-55618045D01*
X23150385Y-55615601D01*
X22958418Y-55600493D01*
X22958409Y-55600493D01*
X22955961Y-55600300D01*
X22800429Y-55600300D01*
X22798293Y-55600446D01*
X22798282Y-55600446D01*
X22590152Y-55614635D01*
X22590146Y-55614636D01*
X22585875Y-55614927D01*
X22581680Y-55615796D01*
X22581678Y-55615796D01*
X22445117Y-55644076D01*
X22304358Y-55673226D01*
X22033357Y-55769193D01*
X21777888Y-55901050D01*
X21774387Y-55903511D01*
X21774383Y-55903513D01*
X21764294Y-55910604D01*
X21542677Y-56066359D01*
X21332078Y-56262060D01*
X21149987Y-56484532D01*
X20999773Y-56729658D01*
X20884217Y-56992902D01*
X20805456Y-57269394D01*
X20777353Y-57466858D01*
X20773343Y-57495039D01*
X20764949Y-57554016D01*
X20764927Y-57558305D01*
X20764926Y-57558312D01*
X20763521Y-57826569D01*
X20763443Y-57841503D01*
X19555960Y-57841503D01*
X19555960Y-51308000D01*
X65253496Y-51308000D01*
X65254186Y-51314565D01*
X65268894Y-51454500D01*
X65273458Y-51497928D01*
X65332473Y-51679556D01*
X65427960Y-51844944D01*
X65555747Y-51986866D01*
X65710248Y-52099118D01*
X65716276Y-52101802D01*
X65716278Y-52101803D01*
X65878681Y-52174109D01*
X65884712Y-52176794D01*
X65978113Y-52196647D01*
X66065056Y-52215128D01*
X66065061Y-52215128D01*
X66071513Y-52216500D01*
X66262487Y-52216500D01*
X66268939Y-52215128D01*
X66268944Y-52215128D01*
X66355888Y-52196647D01*
X66449288Y-52176794D01*
X66455319Y-52174109D01*
X66617722Y-52101803D01*
X66617724Y-52101802D01*
X66623752Y-52099118D01*
X66778253Y-51986866D01*
X66906040Y-51844944D01*
X67001527Y-51679556D01*
X67060542Y-51497928D01*
X67065107Y-51454500D01*
X67079814Y-51314565D01*
X67080504Y-51308000D01*
X67079814Y-51301435D01*
X67061232Y-51124635D01*
X67061232Y-51124633D01*
X67060542Y-51118072D01*
X67001527Y-50936444D01*
X66980990Y-50900872D01*
X66964314Y-50871990D01*
X66906040Y-50771056D01*
X66880064Y-50742206D01*
X66782675Y-50634045D01*
X66782674Y-50634044D01*
X66778253Y-50629134D01*
X66663829Y-50546000D01*
X92050496Y-50546000D01*
X92051186Y-50552565D01*
X92058826Y-50625251D01*
X92070458Y-50735928D01*
X92129473Y-50917556D01*
X92224960Y-51082944D01*
X92229378Y-51087851D01*
X92229379Y-51087852D01*
X92256589Y-51118072D01*
X92352747Y-51224866D01*
X92451843Y-51296864D01*
X92476207Y-51314565D01*
X92507248Y-51337118D01*
X92513276Y-51339802D01*
X92513278Y-51339803D01*
X92675681Y-51412109D01*
X92681712Y-51414794D01*
X92775113Y-51434647D01*
X92862056Y-51453128D01*
X92862061Y-51453128D01*
X92868513Y-51454500D01*
X93059487Y-51454500D01*
X93065939Y-51453128D01*
X93065944Y-51453128D01*
X93152888Y-51434647D01*
X93246288Y-51414794D01*
X93252319Y-51412109D01*
X93414722Y-51339803D01*
X93414724Y-51339802D01*
X93420752Y-51337118D01*
X93451794Y-51314565D01*
X93476157Y-51296864D01*
X93575253Y-51224866D01*
X93671411Y-51118072D01*
X93698621Y-51087852D01*
X93698622Y-51087851D01*
X93703040Y-51082944D01*
X93798527Y-50917556D01*
X93857542Y-50735928D01*
X93869175Y-50625251D01*
X93876814Y-50552565D01*
X93877504Y-50546000D01*
X93874161Y-50514197D01*
X93858232Y-50362635D01*
X93858232Y-50362633D01*
X93857542Y-50356072D01*
X93798527Y-50174444D01*
X93703040Y-50009056D01*
X93575253Y-49867134D01*
X93420752Y-49754882D01*
X93414724Y-49752198D01*
X93414722Y-49752197D01*
X93252319Y-49679891D01*
X93252318Y-49679891D01*
X93246288Y-49677206D01*
X93152888Y-49657353D01*
X93065944Y-49638872D01*
X93065939Y-49638872D01*
X93059487Y-49637500D01*
X92868513Y-49637500D01*
X92862061Y-49638872D01*
X92862056Y-49638872D01*
X92775113Y-49657353D01*
X92681712Y-49677206D01*
X92675682Y-49679891D01*
X92675681Y-49679891D01*
X92513278Y-49752197D01*
X92513276Y-49752198D01*
X92507248Y-49754882D01*
X92352747Y-49867134D01*
X92224960Y-50009056D01*
X92129473Y-50174444D01*
X92070458Y-50356072D01*
X92069768Y-50362633D01*
X92069768Y-50362635D01*
X92053839Y-50514197D01*
X92050496Y-50546000D01*
X66663829Y-50546000D01*
X66629094Y-50520763D01*
X66629093Y-50520762D01*
X66623752Y-50516882D01*
X66617724Y-50514198D01*
X66617722Y-50514197D01*
X66455319Y-50441891D01*
X66455318Y-50441891D01*
X66449288Y-50439206D01*
X66355888Y-50419353D01*
X66268944Y-50400872D01*
X66268939Y-50400872D01*
X66262487Y-50399500D01*
X66071513Y-50399500D01*
X66065061Y-50400872D01*
X66065056Y-50400872D01*
X65978112Y-50419353D01*
X65884712Y-50439206D01*
X65878682Y-50441891D01*
X65878681Y-50441891D01*
X65716278Y-50514197D01*
X65716276Y-50514198D01*
X65710248Y-50516882D01*
X65704907Y-50520762D01*
X65704906Y-50520763D01*
X65670171Y-50546000D01*
X65555747Y-50629134D01*
X65551326Y-50634044D01*
X65551325Y-50634045D01*
X65453937Y-50742206D01*
X65427960Y-50771056D01*
X65369686Y-50871990D01*
X65353011Y-50900872D01*
X65332473Y-50936444D01*
X65273458Y-51118072D01*
X65272768Y-51124633D01*
X65272768Y-51124635D01*
X65254186Y-51301435D01*
X65253496Y-51308000D01*
X19555960Y-51308000D01*
X19555960Y-47371000D01*
X88113496Y-47371000D01*
X88114186Y-47377565D01*
X88126194Y-47491811D01*
X88133458Y-47560928D01*
X88192473Y-47742556D01*
X88195776Y-47748278D01*
X88195777Y-47748279D01*
X88203213Y-47761158D01*
X88287960Y-47907944D01*
X88415747Y-48049866D01*
X88570248Y-48162118D01*
X88576276Y-48164802D01*
X88576278Y-48164803D01*
X88702906Y-48221181D01*
X88744712Y-48239794D01*
X88835887Y-48259174D01*
X88925056Y-48278128D01*
X88925061Y-48278128D01*
X88931513Y-48279500D01*
X89122487Y-48279500D01*
X89128939Y-48278128D01*
X89128944Y-48278128D01*
X89218113Y-48259174D01*
X89309288Y-48239794D01*
X89351094Y-48221181D01*
X89477722Y-48164803D01*
X89477724Y-48164802D01*
X89483752Y-48162118D01*
X89638253Y-48049866D01*
X89766040Y-47907944D01*
X89850787Y-47761158D01*
X89858223Y-47748279D01*
X89858224Y-47748278D01*
X89861527Y-47742556D01*
X89920542Y-47560928D01*
X89927807Y-47491811D01*
X89939814Y-47377565D01*
X89940504Y-47371000D01*
X89930737Y-47278069D01*
X89921232Y-47187635D01*
X89921232Y-47187633D01*
X89920542Y-47181072D01*
X89861527Y-46999444D01*
X89856075Y-46990000D01*
X89808077Y-46906866D01*
X89766040Y-46834056D01*
X89701469Y-46762342D01*
X89642675Y-46697045D01*
X89642674Y-46697044D01*
X89638253Y-46692134D01*
X89510831Y-46599556D01*
X89489094Y-46583763D01*
X89489093Y-46583762D01*
X89483752Y-46579882D01*
X89477724Y-46577198D01*
X89477722Y-46577197D01*
X89315319Y-46504891D01*
X89315318Y-46504891D01*
X89309288Y-46502206D01*
X89215888Y-46482353D01*
X89128944Y-46463872D01*
X89128939Y-46463872D01*
X89122487Y-46462500D01*
X88931513Y-46462500D01*
X88925061Y-46463872D01*
X88925056Y-46463872D01*
X88838112Y-46482353D01*
X88744712Y-46502206D01*
X88738682Y-46504891D01*
X88738681Y-46504891D01*
X88576278Y-46577197D01*
X88576276Y-46577198D01*
X88570248Y-46579882D01*
X88564907Y-46583762D01*
X88564906Y-46583763D01*
X88543169Y-46599556D01*
X88415747Y-46692134D01*
X88411326Y-46697044D01*
X88411325Y-46697045D01*
X88352532Y-46762342D01*
X88287960Y-46834056D01*
X88245923Y-46906866D01*
X88197926Y-46990000D01*
X88192473Y-46999444D01*
X88133458Y-47181072D01*
X88132768Y-47187633D01*
X88132768Y-47187635D01*
X88123263Y-47278069D01*
X88113496Y-47371000D01*
X19555960Y-47371000D01*
X19555960Y-46355000D01*
X68682496Y-46355000D01*
X68683186Y-46361565D01*
X68701399Y-46534848D01*
X68702458Y-46544928D01*
X68761473Y-46726556D01*
X68764776Y-46732278D01*
X68764777Y-46732279D01*
X68798686Y-46791010D01*
X68856960Y-46891944D01*
X68984747Y-47033866D01*
X69011413Y-47053240D01*
X69124122Y-47135128D01*
X69139248Y-47146118D01*
X69145276Y-47148802D01*
X69145278Y-47148803D01*
X69214708Y-47179715D01*
X69313712Y-47223794D01*
X69407112Y-47243647D01*
X69494056Y-47262128D01*
X69494061Y-47262128D01*
X69500513Y-47263500D01*
X69691487Y-47263500D01*
X69697939Y-47262128D01*
X69697944Y-47262128D01*
X69784887Y-47243647D01*
X69878288Y-47223794D01*
X69977292Y-47179715D01*
X70046722Y-47148803D01*
X70046724Y-47148802D01*
X70052752Y-47146118D01*
X70067879Y-47135128D01*
X70180587Y-47053240D01*
X70207253Y-47033866D01*
X70335040Y-46891944D01*
X70393314Y-46791010D01*
X70427223Y-46732279D01*
X70427224Y-46732278D01*
X70430527Y-46726556D01*
X70489542Y-46544928D01*
X70490602Y-46534848D01*
X70508814Y-46361565D01*
X70509504Y-46355000D01*
X70508084Y-46341492D01*
X70490232Y-46171635D01*
X70490232Y-46171633D01*
X70489542Y-46165072D01*
X70430527Y-45983444D01*
X70424548Y-45973087D01*
X70357203Y-45856444D01*
X70335040Y-45818056D01*
X70227238Y-45698329D01*
X70211675Y-45681045D01*
X70211674Y-45681044D01*
X70207253Y-45676134D01*
X70052752Y-45563882D01*
X70046724Y-45561198D01*
X70046722Y-45561197D01*
X69884319Y-45488891D01*
X69884318Y-45488891D01*
X69878288Y-45486206D01*
X69783227Y-45466000D01*
X69697944Y-45447872D01*
X69697939Y-45447872D01*
X69691487Y-45446500D01*
X69500513Y-45446500D01*
X69494061Y-45447872D01*
X69494056Y-45447872D01*
X69408773Y-45466000D01*
X69313712Y-45486206D01*
X69307682Y-45488891D01*
X69307681Y-45488891D01*
X69145278Y-45561197D01*
X69145276Y-45561198D01*
X69139248Y-45563882D01*
X68984747Y-45676134D01*
X68980326Y-45681044D01*
X68980325Y-45681045D01*
X68964763Y-45698329D01*
X68856960Y-45818056D01*
X68834797Y-45856444D01*
X68767453Y-45973087D01*
X68761473Y-45983444D01*
X68702458Y-46165072D01*
X68701768Y-46171633D01*
X68701768Y-46171635D01*
X68683916Y-46341492D01*
X68682496Y-46355000D01*
X19555960Y-46355000D01*
X19555960Y-43497026D01*
X22444050Y-43497026D01*
X22444274Y-43501692D01*
X22444274Y-43501697D01*
X22448994Y-43599955D01*
X22456947Y-43765519D01*
X22509388Y-44029156D01*
X22600220Y-44282146D01*
X22602432Y-44286262D01*
X22602433Y-44286265D01*
X22677932Y-44426774D01*
X22727450Y-44518931D01*
X22730241Y-44522668D01*
X22730245Y-44522675D01*
X22811887Y-44632006D01*
X22888281Y-44734310D01*
X22891590Y-44737590D01*
X22891595Y-44737596D01*
X23075863Y-44920262D01*
X23079180Y-44923550D01*
X23082942Y-44926308D01*
X23082945Y-44926311D01*
X23117210Y-44951435D01*
X23295954Y-45082495D01*
X23300089Y-45084671D01*
X23300093Y-45084673D01*
X23529698Y-45205475D01*
X23533840Y-45207654D01*
X23787613Y-45296275D01*
X23792206Y-45297147D01*
X24047109Y-45345542D01*
X24047112Y-45345542D01*
X24051698Y-45346413D01*
X24179370Y-45351429D01*
X24315625Y-45356783D01*
X24315630Y-45356783D01*
X24320293Y-45356966D01*
X24424607Y-45345542D01*
X24582844Y-45328213D01*
X24582850Y-45328212D01*
X24587497Y-45327703D01*
X24618654Y-45319500D01*
X24842918Y-45260456D01*
X24842920Y-45260455D01*
X24847441Y-45259265D01*
X24851738Y-45257419D01*
X25090120Y-45155002D01*
X25090122Y-45155001D01*
X25094414Y-45153157D01*
X25213071Y-45079730D01*
X25319017Y-45014169D01*
X25319021Y-45014166D01*
X25322990Y-45011710D01*
X25386435Y-44958000D01*
X53124996Y-44958000D01*
X53125686Y-44964565D01*
X53130900Y-45014169D01*
X53144958Y-45147928D01*
X53203973Y-45329556D01*
X53207276Y-45335278D01*
X53207277Y-45335279D01*
X53219798Y-45356966D01*
X53299460Y-45494944D01*
X53303878Y-45499851D01*
X53303879Y-45499852D01*
X53346066Y-45546705D01*
X53427247Y-45636866D01*
X53492493Y-45684270D01*
X53550429Y-45726363D01*
X53581748Y-45749118D01*
X53587776Y-45751802D01*
X53587778Y-45751803D01*
X53725562Y-45813148D01*
X53756212Y-45826794D01*
X53849613Y-45846647D01*
X53936556Y-45865128D01*
X53936561Y-45865128D01*
X53943013Y-45866500D01*
X54133987Y-45866500D01*
X54140439Y-45865128D01*
X54140444Y-45865128D01*
X54227387Y-45846647D01*
X54320788Y-45826794D01*
X54351438Y-45813148D01*
X54489222Y-45751803D01*
X54489224Y-45751802D01*
X54495252Y-45749118D01*
X54526572Y-45726363D01*
X54584507Y-45684270D01*
X54649753Y-45636866D01*
X54730934Y-45546705D01*
X54773121Y-45499852D01*
X54773122Y-45499851D01*
X54777540Y-45494944D01*
X54857202Y-45356966D01*
X54869723Y-45335279D01*
X54869724Y-45335278D01*
X54873027Y-45329556D01*
X54932042Y-45147928D01*
X54946101Y-45014169D01*
X54951314Y-44964565D01*
X54952004Y-44958000D01*
X54934562Y-44792045D01*
X54932732Y-44774635D01*
X54932732Y-44774633D01*
X54932042Y-44768072D01*
X54873027Y-44586444D01*
X54867575Y-44577000D01*
X74079996Y-44577000D01*
X74080686Y-44583565D01*
X74090692Y-44678763D01*
X74099958Y-44766928D01*
X74158973Y-44948556D01*
X74162276Y-44954278D01*
X74162277Y-44954279D01*
X74168216Y-44964565D01*
X74254460Y-45113944D01*
X74258878Y-45118851D01*
X74258879Y-45118852D01*
X74290712Y-45154206D01*
X74382247Y-45255866D01*
X74435743Y-45294733D01*
X74524482Y-45359206D01*
X74536748Y-45368118D01*
X74542776Y-45370802D01*
X74542778Y-45370803D01*
X74691195Y-45436882D01*
X74711212Y-45445794D01*
X74775388Y-45459435D01*
X74891556Y-45484128D01*
X74891561Y-45484128D01*
X74898013Y-45485500D01*
X75088987Y-45485500D01*
X75095439Y-45484128D01*
X75095444Y-45484128D01*
X75180727Y-45466000D01*
X92050496Y-45466000D01*
X92051186Y-45472565D01*
X92068863Y-45640749D01*
X92070458Y-45655928D01*
X92129473Y-45837556D01*
X92132776Y-45843278D01*
X92132777Y-45843279D01*
X92137074Y-45850721D01*
X92224960Y-46002944D01*
X92229378Y-46007851D01*
X92229379Y-46007852D01*
X92256589Y-46038072D01*
X92352747Y-46144866D01*
X92451843Y-46216864D01*
X92476207Y-46234565D01*
X92507248Y-46257118D01*
X92513276Y-46259802D01*
X92513278Y-46259803D01*
X92675681Y-46332109D01*
X92681712Y-46334794D01*
X92745888Y-46348435D01*
X92862056Y-46373128D01*
X92862061Y-46373128D01*
X92868513Y-46374500D01*
X93059487Y-46374500D01*
X93065939Y-46373128D01*
X93065944Y-46373128D01*
X93182112Y-46348435D01*
X93246288Y-46334794D01*
X93252319Y-46332109D01*
X93414722Y-46259803D01*
X93414724Y-46259802D01*
X93420752Y-46257118D01*
X93451794Y-46234565D01*
X93460830Y-46228000D01*
X97955996Y-46228000D01*
X97956686Y-46234565D01*
X97971394Y-46374500D01*
X97975958Y-46417928D01*
X98034973Y-46599556D01*
X98130460Y-46764944D01*
X98258247Y-46906866D01*
X98333927Y-46961851D01*
X98394320Y-47005729D01*
X98412748Y-47019118D01*
X98418776Y-47021802D01*
X98418778Y-47021803D01*
X98504364Y-47059908D01*
X98587212Y-47096794D01*
X98659743Y-47112211D01*
X98767556Y-47135128D01*
X98767561Y-47135128D01*
X98774013Y-47136500D01*
X98964987Y-47136500D01*
X98971439Y-47135128D01*
X98971444Y-47135128D01*
X99079257Y-47112211D01*
X99151788Y-47096794D01*
X99234636Y-47059908D01*
X99320222Y-47021803D01*
X99320224Y-47021802D01*
X99326252Y-47019118D01*
X99344681Y-47005729D01*
X99405073Y-46961851D01*
X99412170Y-46956695D01*
X105025151Y-46956695D01*
X105025448Y-46961848D01*
X105025448Y-46961851D01*
X105030911Y-47056590D01*
X105038010Y-47179715D01*
X105039147Y-47184761D01*
X105039148Y-47184767D01*
X105048253Y-47225166D01*
X105087122Y-47397639D01*
X105125361Y-47491811D01*
X105153214Y-47560404D01*
X105171166Y-47604616D01*
X105173865Y-47609020D01*
X105259203Y-47748279D01*
X105287887Y-47795088D01*
X105434150Y-47963938D01*
X105606026Y-48106632D01*
X105798900Y-48219338D01*
X106007592Y-48299030D01*
X106012660Y-48300061D01*
X106012663Y-48300062D01*
X106119917Y-48321883D01*
X106226497Y-48343567D01*
X106231672Y-48343757D01*
X106231674Y-48343757D01*
X106444573Y-48351564D01*
X106444577Y-48351564D01*
X106449737Y-48351753D01*
X106454857Y-48351097D01*
X106454859Y-48351097D01*
X106666188Y-48324025D01*
X106666189Y-48324025D01*
X106671316Y-48323368D01*
X106676266Y-48321883D01*
X106880329Y-48260661D01*
X106880334Y-48260659D01*
X106885284Y-48259174D01*
X107085894Y-48160896D01*
X107267760Y-48031173D01*
X107425996Y-47873489D01*
X107485494Y-47790689D01*
X107553335Y-47696277D01*
X107556353Y-47692077D01*
X107621171Y-47560928D01*
X107653036Y-47496453D01*
X107653037Y-47496451D01*
X107655330Y-47491811D01*
X107720270Y-47278069D01*
X107749429Y-47056590D01*
X107749511Y-47053240D01*
X107750974Y-46993365D01*
X107750974Y-46993361D01*
X107751056Y-46990000D01*
X107750108Y-46978474D01*
X113219902Y-46978474D01*
X113220102Y-46983803D01*
X113220102Y-46983805D01*
X113222127Y-47037749D01*
X113228551Y-47208858D01*
X113275893Y-47434491D01*
X113277851Y-47439450D01*
X113277852Y-47439452D01*
X113341189Y-47599829D01*
X113360576Y-47648921D01*
X113480177Y-47846017D01*
X113483674Y-47850047D01*
X113585369Y-47967240D01*
X113631277Y-48020145D01*
X113666920Y-48049370D01*
X113706914Y-48108029D01*
X113708846Y-48178999D01*
X113672102Y-48239748D01*
X113653332Y-48253948D01*
X113540090Y-48324025D01*
X113507452Y-48344222D01*
X113382495Y-48469397D01*
X113289685Y-48619962D01*
X113234003Y-48787839D01*
X113223300Y-48892300D01*
X113223300Y-50193100D01*
X113234274Y-50298866D01*
X113290250Y-50466646D01*
X113383322Y-50617048D01*
X113508497Y-50742005D01*
X113514727Y-50745845D01*
X113514728Y-50745846D01*
X113651890Y-50830394D01*
X113659062Y-50834815D01*
X113738805Y-50861264D01*
X113820411Y-50888332D01*
X113820413Y-50888332D01*
X113826939Y-50890497D01*
X113833775Y-50891197D01*
X113833778Y-50891198D01*
X113876831Y-50895609D01*
X113931400Y-50901200D01*
X115532200Y-50901200D01*
X115535446Y-50900863D01*
X115535450Y-50900863D01*
X115631108Y-50890938D01*
X115631112Y-50890937D01*
X115637966Y-50890226D01*
X115644502Y-50888045D01*
X115644504Y-50888045D01*
X115776606Y-50843972D01*
X115805746Y-50834250D01*
X115956148Y-50741178D01*
X116081105Y-50616003D01*
X116124256Y-50546000D01*
X116170075Y-50471668D01*
X116170076Y-50471666D01*
X116173915Y-50465438D01*
X116229597Y-50297561D01*
X116240300Y-50193100D01*
X116240300Y-48892300D01*
X116229326Y-48786534D01*
X116173350Y-48618754D01*
X116080278Y-48468352D01*
X115955103Y-48343395D01*
X115809460Y-48253619D01*
X115761968Y-48200848D01*
X115750544Y-48130776D01*
X115778818Y-48065652D01*
X115788605Y-48055190D01*
X115835185Y-48010754D01*
X115902935Y-47946124D01*
X116040554Y-47761158D01*
X116053208Y-47736271D01*
X116142622Y-47560404D01*
X116145040Y-47555649D01*
X116164863Y-47491811D01*
X116211824Y-47340571D01*
X116213407Y-47335473D01*
X116228209Y-47223794D01*
X116242998Y-47112211D01*
X116242998Y-47112206D01*
X116243698Y-47106926D01*
X116235049Y-46876542D01*
X116187707Y-46650909D01*
X116133880Y-46514610D01*
X116104985Y-46441444D01*
X116104984Y-46441442D01*
X116103024Y-46436479D01*
X116087785Y-46411365D01*
X115986190Y-46243943D01*
X115983423Y-46239383D01*
X115924635Y-46171635D01*
X115835823Y-46069288D01*
X115835821Y-46069286D01*
X115832323Y-46065255D01*
X115762315Y-46007852D01*
X115658173Y-45922460D01*
X115658167Y-45922456D01*
X115654045Y-45919076D01*
X115649409Y-45916437D01*
X115649406Y-45916435D01*
X115458329Y-45807668D01*
X115453686Y-45805025D01*
X115236975Y-45726363D01*
X115231726Y-45725414D01*
X115231723Y-45725413D01*
X115014192Y-45686077D01*
X115014185Y-45686076D01*
X115010108Y-45685339D01*
X114992386Y-45684503D01*
X114987444Y-45684270D01*
X114987437Y-45684270D01*
X114985956Y-45684200D01*
X114523910Y-45684200D01*
X114456991Y-45689878D01*
X114357391Y-45698329D01*
X114357387Y-45698330D01*
X114352080Y-45698780D01*
X114346925Y-45700118D01*
X114346919Y-45700119D01*
X114134097Y-45755357D01*
X114134093Y-45755358D01*
X114128928Y-45756699D01*
X114124062Y-45758891D01*
X114124059Y-45758892D01*
X114016431Y-45807375D01*
X113918725Y-45851388D01*
X113727481Y-45980141D01*
X113560665Y-46139276D01*
X113423046Y-46324242D01*
X113420630Y-46328993D01*
X113420628Y-46328997D01*
X113378750Y-46411365D01*
X113318560Y-46529751D01*
X113316978Y-46534845D01*
X113316977Y-46534848D01*
X113257450Y-46726556D01*
X113250193Y-46749927D01*
X113249492Y-46755216D01*
X113222789Y-46956695D01*
X113219902Y-46978474D01*
X107750108Y-46978474D01*
X107732752Y-46767361D01*
X107678331Y-46550702D01*
X107589254Y-46345840D01*
X107467914Y-46158277D01*
X107464432Y-46154450D01*
X107320698Y-45996488D01*
X107289646Y-45932642D01*
X107298041Y-45862143D01*
X107343217Y-45807375D01*
X107369661Y-45793706D01*
X107476197Y-45753767D01*
X107484605Y-45750615D01*
X107601161Y-45663261D01*
X107688515Y-45546705D01*
X107739645Y-45410316D01*
X107746400Y-45348134D01*
X107746400Y-43551866D01*
X107739645Y-43489684D01*
X107688515Y-43353295D01*
X107601161Y-43236739D01*
X107484605Y-43149385D01*
X107348216Y-43098255D01*
X107286034Y-43091500D01*
X105489766Y-43091500D01*
X105427584Y-43098255D01*
X105291195Y-43149385D01*
X105174639Y-43236739D01*
X105087285Y-43353295D01*
X105036155Y-43489684D01*
X105029400Y-43551866D01*
X105029400Y-45348134D01*
X105036155Y-45410316D01*
X105087285Y-45546705D01*
X105174639Y-45663261D01*
X105291195Y-45750615D01*
X105299604Y-45753767D01*
X105299605Y-45753768D01*
X105408351Y-45794535D01*
X105465116Y-45837176D01*
X105489816Y-45903738D01*
X105474609Y-45973087D01*
X105455216Y-45999568D01*
X105328529Y-46132138D01*
X105325615Y-46136410D01*
X105325614Y-46136411D01*
X105255371Y-46239383D01*
X105202643Y-46316680D01*
X105187903Y-46348435D01*
X105115279Y-46504891D01*
X105108588Y-46519305D01*
X105048889Y-46734570D01*
X105025151Y-46956695D01*
X99412170Y-46956695D01*
X99480753Y-46906866D01*
X99608540Y-46764944D01*
X99704027Y-46599556D01*
X99763042Y-46417928D01*
X99767607Y-46374500D01*
X99782314Y-46234565D01*
X99783004Y-46228000D01*
X99775274Y-46154450D01*
X99763732Y-46044635D01*
X99763732Y-46044633D01*
X99763042Y-46038072D01*
X99704027Y-45856444D01*
X99676347Y-45808500D01*
X99629976Y-45728184D01*
X99608540Y-45691056D01*
X99603393Y-45685339D01*
X99485175Y-45554045D01*
X99485174Y-45554044D01*
X99480753Y-45549134D01*
X99366329Y-45466000D01*
X99331594Y-45440763D01*
X99331593Y-45440762D01*
X99326252Y-45436882D01*
X99320224Y-45434198D01*
X99320222Y-45434197D01*
X99157819Y-45361891D01*
X99157818Y-45361891D01*
X99151788Y-45359206D01*
X99039221Y-45335279D01*
X98971444Y-45320872D01*
X98971439Y-45320872D01*
X98964987Y-45319500D01*
X98774013Y-45319500D01*
X98767561Y-45320872D01*
X98767556Y-45320872D01*
X98699779Y-45335279D01*
X98587212Y-45359206D01*
X98581182Y-45361891D01*
X98581181Y-45361891D01*
X98418778Y-45434197D01*
X98418776Y-45434198D01*
X98412748Y-45436882D01*
X98407407Y-45440762D01*
X98407406Y-45440763D01*
X98372671Y-45466000D01*
X98258247Y-45549134D01*
X98253826Y-45554044D01*
X98253825Y-45554045D01*
X98135608Y-45685339D01*
X98130460Y-45691056D01*
X98109024Y-45728184D01*
X98062654Y-45808500D01*
X98034973Y-45856444D01*
X97975958Y-46038072D01*
X97975268Y-46044633D01*
X97975268Y-46044635D01*
X97963726Y-46154450D01*
X97955996Y-46228000D01*
X93460830Y-46228000D01*
X93476157Y-46216864D01*
X93575253Y-46144866D01*
X93671411Y-46038072D01*
X93698621Y-46007852D01*
X93698622Y-46007851D01*
X93703040Y-46002944D01*
X93790926Y-45850721D01*
X93795223Y-45843279D01*
X93795224Y-45843278D01*
X93798527Y-45837556D01*
X93857542Y-45655928D01*
X93859138Y-45640749D01*
X93876814Y-45472565D01*
X93877504Y-45466000D01*
X93875599Y-45447872D01*
X93858232Y-45282635D01*
X93858232Y-45282633D01*
X93857542Y-45276072D01*
X93798527Y-45094444D01*
X93703040Y-44929056D01*
X93698083Y-44923550D01*
X93579675Y-44792045D01*
X93579674Y-44792044D01*
X93575253Y-44787134D01*
X93420752Y-44674882D01*
X93414724Y-44672198D01*
X93414722Y-44672197D01*
X93252319Y-44599891D01*
X93252318Y-44599891D01*
X93246288Y-44597206D01*
X93151227Y-44577000D01*
X93065944Y-44558872D01*
X93065939Y-44558872D01*
X93059487Y-44557500D01*
X92868513Y-44557500D01*
X92862061Y-44558872D01*
X92862056Y-44558872D01*
X92776773Y-44577000D01*
X92681712Y-44597206D01*
X92675682Y-44599891D01*
X92675681Y-44599891D01*
X92513278Y-44672197D01*
X92513276Y-44672198D01*
X92507248Y-44674882D01*
X92352747Y-44787134D01*
X92348326Y-44792044D01*
X92348325Y-44792045D01*
X92229918Y-44923550D01*
X92224960Y-44929056D01*
X92129473Y-45094444D01*
X92070458Y-45276072D01*
X92069768Y-45282633D01*
X92069768Y-45282635D01*
X92052401Y-45447872D01*
X92050496Y-45466000D01*
X75180727Y-45466000D01*
X75211612Y-45459435D01*
X75275788Y-45445794D01*
X75295805Y-45436882D01*
X75444222Y-45370803D01*
X75444224Y-45370802D01*
X75450252Y-45368118D01*
X75462519Y-45359206D01*
X75551257Y-45294733D01*
X75604753Y-45255866D01*
X75696288Y-45154206D01*
X75728121Y-45118852D01*
X75728122Y-45118851D01*
X75732540Y-45113944D01*
X75818784Y-44964565D01*
X75824723Y-44954279D01*
X75824724Y-44954278D01*
X75828027Y-44948556D01*
X75887042Y-44766928D01*
X75896309Y-44678763D01*
X75906314Y-44583565D01*
X75907004Y-44577000D01*
X75905099Y-44558872D01*
X75887732Y-44393635D01*
X75887732Y-44393633D01*
X75887042Y-44387072D01*
X75828027Y-44205444D01*
X75804549Y-44164778D01*
X75760125Y-44087834D01*
X75732540Y-44040056D01*
X75718605Y-44024579D01*
X75609175Y-43903045D01*
X75609174Y-43903044D01*
X75604753Y-43898134D01*
X75464407Y-43796166D01*
X75455594Y-43789763D01*
X75455593Y-43789762D01*
X75450252Y-43785882D01*
X75444224Y-43783198D01*
X75444222Y-43783197D01*
X75281819Y-43710891D01*
X75281818Y-43710891D01*
X75275788Y-43708206D01*
X75163221Y-43684279D01*
X75095444Y-43669872D01*
X75095439Y-43669872D01*
X75088987Y-43668500D01*
X74898013Y-43668500D01*
X74891561Y-43669872D01*
X74891556Y-43669872D01*
X74823779Y-43684279D01*
X74711212Y-43708206D01*
X74705182Y-43710891D01*
X74705181Y-43710891D01*
X74542778Y-43783197D01*
X74542776Y-43783198D01*
X74536748Y-43785882D01*
X74531407Y-43789762D01*
X74531406Y-43789763D01*
X74522593Y-43796166D01*
X74382247Y-43898134D01*
X74377826Y-43903044D01*
X74377825Y-43903045D01*
X74268396Y-44024579D01*
X74254460Y-44040056D01*
X74226875Y-44087834D01*
X74182452Y-44164778D01*
X74158973Y-44205444D01*
X74099958Y-44387072D01*
X74099268Y-44393633D01*
X74099268Y-44393635D01*
X74081901Y-44558872D01*
X74079996Y-44577000D01*
X54867575Y-44577000D01*
X54780841Y-44426774D01*
X54777540Y-44421056D01*
X54763624Y-44405600D01*
X54654175Y-44284045D01*
X54654174Y-44284044D01*
X54649753Y-44279134D01*
X54509407Y-44177166D01*
X54500594Y-44170763D01*
X54500593Y-44170762D01*
X54495252Y-44166882D01*
X54489224Y-44164198D01*
X54489222Y-44164197D01*
X54326819Y-44091891D01*
X54326818Y-44091891D01*
X54320788Y-44089206D01*
X54227388Y-44069353D01*
X54140444Y-44050872D01*
X54140439Y-44050872D01*
X54133987Y-44049500D01*
X53943013Y-44049500D01*
X53936561Y-44050872D01*
X53936556Y-44050872D01*
X53849612Y-44069353D01*
X53756212Y-44089206D01*
X53750182Y-44091891D01*
X53750181Y-44091891D01*
X53587778Y-44164197D01*
X53587776Y-44164198D01*
X53581748Y-44166882D01*
X53576407Y-44170762D01*
X53576406Y-44170763D01*
X53567593Y-44177166D01*
X53427247Y-44279134D01*
X53422826Y-44284044D01*
X53422825Y-44284045D01*
X53313377Y-44405600D01*
X53299460Y-44421056D01*
X53296159Y-44426774D01*
X53209426Y-44577000D01*
X53203973Y-44586444D01*
X53144958Y-44768072D01*
X53144268Y-44774633D01*
X53144268Y-44774635D01*
X53142438Y-44792045D01*
X53124996Y-44958000D01*
X25386435Y-44958000D01*
X25528149Y-44838030D01*
X25705382Y-44635934D01*
X25731176Y-44595834D01*
X25848269Y-44413791D01*
X25850797Y-44409861D01*
X25961199Y-44164778D01*
X25998209Y-44033551D01*
X26032893Y-43910572D01*
X26032894Y-43910569D01*
X26034163Y-43906068D01*
X26043442Y-43833128D01*
X26067688Y-43642545D01*
X26067688Y-43642541D01*
X26068086Y-43639415D01*
X26070571Y-43544500D01*
X26052433Y-43300435D01*
X26050996Y-43281092D01*
X26050996Y-43281091D01*
X26050650Y-43276437D01*
X26043292Y-43243919D01*
X25992361Y-43018831D01*
X25992360Y-43018826D01*
X25991327Y-43014263D01*
X25957003Y-42926000D01*
X42837996Y-42926000D01*
X42838686Y-42932565D01*
X42856101Y-43098255D01*
X42857958Y-43115928D01*
X42916973Y-43297556D01*
X42920276Y-43303278D01*
X42920277Y-43303279D01*
X42926216Y-43313565D01*
X43012460Y-43462944D01*
X43016878Y-43467851D01*
X43016879Y-43467852D01*
X43095602Y-43555283D01*
X43140247Y-43604866D01*
X43227831Y-43668500D01*
X43282482Y-43708206D01*
X43294748Y-43717118D01*
X43300776Y-43719802D01*
X43300778Y-43719803D01*
X43449195Y-43785882D01*
X43469212Y-43794794D01*
X43562613Y-43814647D01*
X43649556Y-43833128D01*
X43649561Y-43833128D01*
X43656013Y-43834500D01*
X43846987Y-43834500D01*
X43853439Y-43833128D01*
X43853444Y-43833128D01*
X43940387Y-43814647D01*
X44033788Y-43794794D01*
X44053805Y-43785882D01*
X44202222Y-43719803D01*
X44202224Y-43719802D01*
X44208252Y-43717118D01*
X44220519Y-43708206D01*
X44275169Y-43668500D01*
X44362753Y-43604866D01*
X44407398Y-43555283D01*
X44486121Y-43467852D01*
X44486122Y-43467851D01*
X44490540Y-43462944D01*
X44576784Y-43313565D01*
X44582723Y-43303279D01*
X44582724Y-43303278D01*
X44586027Y-43297556D01*
X44645042Y-43115928D01*
X44646900Y-43098255D01*
X44664314Y-42932565D01*
X44665004Y-42926000D01*
X44648614Y-42770056D01*
X44645732Y-42742635D01*
X44645732Y-42742633D01*
X44645042Y-42736072D01*
X44624224Y-42672000D01*
X50457996Y-42672000D01*
X50458686Y-42678565D01*
X50468096Y-42768092D01*
X50477958Y-42861928D01*
X50536973Y-43043556D01*
X50540276Y-43049278D01*
X50540277Y-43049279D01*
X50564867Y-43091869D01*
X50632460Y-43208944D01*
X50636878Y-43213851D01*
X50636879Y-43213852D01*
X50720750Y-43307000D01*
X50760247Y-43350866D01*
X50914748Y-43463118D01*
X50920776Y-43465802D01*
X50920778Y-43465803D01*
X51083181Y-43538109D01*
X51089212Y-43540794D01*
X51182613Y-43560647D01*
X51269556Y-43579128D01*
X51269561Y-43579128D01*
X51276013Y-43580500D01*
X51466987Y-43580500D01*
X51473439Y-43579128D01*
X51473444Y-43579128D01*
X51560387Y-43560647D01*
X51653788Y-43540794D01*
X51659819Y-43538109D01*
X51822222Y-43465803D01*
X51822224Y-43465802D01*
X51828252Y-43463118D01*
X51982753Y-43350866D01*
X52022250Y-43307000D01*
X94717496Y-43307000D01*
X94718186Y-43313565D01*
X94736697Y-43489684D01*
X94737458Y-43496928D01*
X94796473Y-43678556D01*
X94891960Y-43843944D01*
X94896378Y-43848851D01*
X94896379Y-43848852D01*
X94951952Y-43910572D01*
X95019747Y-43985866D01*
X95085380Y-44033551D01*
X95161982Y-44089206D01*
X95174248Y-44098118D01*
X95180276Y-44100802D01*
X95180278Y-44100803D01*
X95337412Y-44170763D01*
X95348712Y-44175794D01*
X95442113Y-44195647D01*
X95529056Y-44214128D01*
X95529061Y-44214128D01*
X95535513Y-44215500D01*
X95726487Y-44215500D01*
X95732939Y-44214128D01*
X95732944Y-44214128D01*
X95819887Y-44195647D01*
X95913288Y-44175794D01*
X95924588Y-44170763D01*
X96081722Y-44100803D01*
X96081724Y-44100802D01*
X96087752Y-44098118D01*
X96100019Y-44089206D01*
X96176620Y-44033551D01*
X96242253Y-43985866D01*
X96310048Y-43910572D01*
X96365621Y-43848852D01*
X96365622Y-43848851D01*
X96370040Y-43843944D01*
X96465527Y-43678556D01*
X96524542Y-43496928D01*
X96525304Y-43489684D01*
X96543814Y-43313565D01*
X96544504Y-43307000D01*
X96524542Y-43117072D01*
X96465527Y-42935444D01*
X96460075Y-42926000D01*
X96373341Y-42775774D01*
X96370040Y-42770056D01*
X96322411Y-42717158D01*
X96246675Y-42633045D01*
X96246674Y-42633044D01*
X96242253Y-42628134D01*
X96087752Y-42515882D01*
X96081724Y-42513198D01*
X96081722Y-42513197D01*
X95919319Y-42440891D01*
X95919318Y-42440891D01*
X95913288Y-42438206D01*
X95819888Y-42418353D01*
X95732944Y-42399872D01*
X95732939Y-42399872D01*
X95726487Y-42398500D01*
X95535513Y-42398500D01*
X95529061Y-42399872D01*
X95529056Y-42399872D01*
X95442113Y-42418353D01*
X95348712Y-42438206D01*
X95342682Y-42440891D01*
X95342681Y-42440891D01*
X95180278Y-42513197D01*
X95180276Y-42513198D01*
X95174248Y-42515882D01*
X95019747Y-42628134D01*
X95015326Y-42633044D01*
X95015325Y-42633045D01*
X94939590Y-42717158D01*
X94891960Y-42770056D01*
X94888659Y-42775774D01*
X94801926Y-42926000D01*
X94796473Y-42935444D01*
X94737458Y-43117072D01*
X94717496Y-43307000D01*
X52022250Y-43307000D01*
X52106121Y-43213852D01*
X52106122Y-43213851D01*
X52110540Y-43208944D01*
X52178133Y-43091869D01*
X52202723Y-43049279D01*
X52202724Y-43049278D01*
X52206027Y-43043556D01*
X52265042Y-42861928D01*
X52274905Y-42768092D01*
X52284314Y-42678565D01*
X52285004Y-42672000D01*
X52269732Y-42526695D01*
X52265732Y-42488635D01*
X52265732Y-42488633D01*
X52265042Y-42482072D01*
X52206027Y-42300444D01*
X52110540Y-42135056D01*
X51982753Y-41993134D01*
X51828252Y-41880882D01*
X51822224Y-41878198D01*
X51822222Y-41878197D01*
X51659819Y-41805891D01*
X51659818Y-41805891D01*
X51653788Y-41803206D01*
X51560388Y-41783353D01*
X51473444Y-41764872D01*
X51473439Y-41764872D01*
X51466987Y-41763500D01*
X51276013Y-41763500D01*
X51269561Y-41764872D01*
X51269556Y-41764872D01*
X51182612Y-41783353D01*
X51089212Y-41803206D01*
X51083182Y-41805891D01*
X51083181Y-41805891D01*
X50920778Y-41878197D01*
X50920776Y-41878198D01*
X50914748Y-41880882D01*
X50760247Y-41993134D01*
X50632460Y-42135056D01*
X50536973Y-42300444D01*
X50477958Y-42482072D01*
X50477268Y-42488633D01*
X50477268Y-42488635D01*
X50473268Y-42526695D01*
X50457996Y-42672000D01*
X44624224Y-42672000D01*
X44586027Y-42554444D01*
X44572125Y-42530364D01*
X44518125Y-42436834D01*
X44490540Y-42389056D01*
X44410754Y-42300444D01*
X44367175Y-42252045D01*
X44367174Y-42252044D01*
X44362753Y-42247134D01*
X44208252Y-42134882D01*
X44202224Y-42132198D01*
X44202222Y-42132197D01*
X44039819Y-42059891D01*
X44039818Y-42059891D01*
X44033788Y-42057206D01*
X43940387Y-42037353D01*
X43853444Y-42018872D01*
X43853439Y-42018872D01*
X43846987Y-42017500D01*
X43656013Y-42017500D01*
X43649561Y-42018872D01*
X43649556Y-42018872D01*
X43562613Y-42037353D01*
X43469212Y-42057206D01*
X43463182Y-42059891D01*
X43463181Y-42059891D01*
X43300778Y-42132197D01*
X43300776Y-42132198D01*
X43294748Y-42134882D01*
X43140247Y-42247134D01*
X43135826Y-42252044D01*
X43135825Y-42252045D01*
X43092247Y-42300444D01*
X43012460Y-42389056D01*
X42984875Y-42436834D01*
X42930876Y-42530364D01*
X42916973Y-42554444D01*
X42857958Y-42736072D01*
X42857268Y-42742633D01*
X42857268Y-42742635D01*
X42854386Y-42770056D01*
X42837996Y-42926000D01*
X25957003Y-42926000D01*
X25893902Y-42763738D01*
X25760518Y-42530364D01*
X25749102Y-42515882D01*
X25645251Y-42384148D01*
X25594105Y-42319269D01*
X25398317Y-42135091D01*
X25228811Y-42017500D01*
X25181299Y-41984539D01*
X25181296Y-41984537D01*
X25177457Y-41981874D01*
X25173264Y-41979806D01*
X24940564Y-41865051D01*
X24940561Y-41865050D01*
X24936376Y-41862986D01*
X24888745Y-41847739D01*
X24749623Y-41803206D01*
X24680370Y-41781038D01*
X24675763Y-41780288D01*
X24675760Y-41780287D01*
X24419674Y-41738581D01*
X24419675Y-41738581D01*
X24415063Y-41737830D01*
X24284719Y-41736124D01*
X24150961Y-41734373D01*
X24150958Y-41734373D01*
X24146284Y-41734312D01*
X23879937Y-41770560D01*
X23621874Y-41845778D01*
X23377763Y-41958315D01*
X23373854Y-41960878D01*
X23156881Y-42103131D01*
X23156876Y-42103135D01*
X23152968Y-42105697D01*
X23123024Y-42132423D01*
X22994502Y-42247134D01*
X22952426Y-42284688D01*
X22780544Y-42491354D01*
X22778121Y-42495347D01*
X22674909Y-42665435D01*
X22641096Y-42721156D01*
X22639287Y-42725470D01*
X22639285Y-42725474D01*
X22618193Y-42775774D01*
X22537148Y-42969045D01*
X22470981Y-43229577D01*
X22444050Y-43497026D01*
X19555960Y-43497026D01*
X19555960Y-40830500D01*
X41250496Y-40830500D01*
X41270458Y-41020428D01*
X41329473Y-41202056D01*
X41424960Y-41367444D01*
X41429378Y-41372351D01*
X41429379Y-41372352D01*
X41495571Y-41445866D01*
X41552747Y-41509366D01*
X41707248Y-41621618D01*
X41713276Y-41624302D01*
X41713278Y-41624303D01*
X41875681Y-41696609D01*
X41881712Y-41699294D01*
X41975112Y-41719147D01*
X42062056Y-41737628D01*
X42062061Y-41737628D01*
X42068513Y-41739000D01*
X42259487Y-41739000D01*
X42265939Y-41737628D01*
X42265944Y-41737628D01*
X42352888Y-41719147D01*
X42446288Y-41699294D01*
X42452319Y-41696609D01*
X42614722Y-41624303D01*
X42614724Y-41624302D01*
X42620752Y-41621618D01*
X42775253Y-41509366D01*
X42832429Y-41445866D01*
X42898621Y-41372352D01*
X42898622Y-41372351D01*
X42903040Y-41367444D01*
X42998527Y-41202056D01*
X43057542Y-41020428D01*
X43077504Y-40830500D01*
X43070830Y-40767000D01*
X92050496Y-40767000D01*
X92070458Y-40956928D01*
X92129473Y-41138556D01*
X92224960Y-41303944D01*
X92229378Y-41308851D01*
X92229379Y-41308852D01*
X92286555Y-41372352D01*
X92352747Y-41445866D01*
X92507248Y-41558118D01*
X92513276Y-41560802D01*
X92513278Y-41560803D01*
X92675681Y-41633109D01*
X92681712Y-41635794D01*
X92775112Y-41655647D01*
X92862056Y-41674128D01*
X92862061Y-41674128D01*
X92868513Y-41675500D01*
X93059487Y-41675500D01*
X93065939Y-41674128D01*
X93065944Y-41674128D01*
X93152888Y-41655647D01*
X93246288Y-41635794D01*
X93252319Y-41633109D01*
X93414722Y-41560803D01*
X93414724Y-41560802D01*
X93420752Y-41558118D01*
X93575253Y-41445866D01*
X93641445Y-41372352D01*
X93698621Y-41308852D01*
X93698622Y-41308851D01*
X93703040Y-41303944D01*
X93798527Y-41138556D01*
X93857542Y-40956928D01*
X93877504Y-40767000D01*
X93857542Y-40577072D01*
X93798527Y-40395444D01*
X93703040Y-40230056D01*
X93636851Y-40156545D01*
X93579675Y-40093045D01*
X93579674Y-40093044D01*
X93575253Y-40088134D01*
X93420752Y-39975882D01*
X93414724Y-39973198D01*
X93414722Y-39973197D01*
X93252319Y-39900891D01*
X93252318Y-39900891D01*
X93246288Y-39898206D01*
X93152887Y-39878353D01*
X93065944Y-39859872D01*
X93065939Y-39859872D01*
X93059487Y-39858500D01*
X92868513Y-39858500D01*
X92862061Y-39859872D01*
X92862056Y-39859872D01*
X92775113Y-39878353D01*
X92681712Y-39898206D01*
X92675682Y-39900891D01*
X92675681Y-39900891D01*
X92513278Y-39973197D01*
X92513276Y-39973198D01*
X92507248Y-39975882D01*
X92352747Y-40088134D01*
X92348326Y-40093044D01*
X92348325Y-40093045D01*
X92291150Y-40156545D01*
X92224960Y-40230056D01*
X92129473Y-40395444D01*
X92070458Y-40577072D01*
X92050496Y-40767000D01*
X43070830Y-40767000D01*
X43057542Y-40640572D01*
X42998527Y-40458944D01*
X42903040Y-40293556D01*
X42845865Y-40230056D01*
X42779675Y-40156545D01*
X42779674Y-40156544D01*
X42775253Y-40151634D01*
X42620752Y-40039382D01*
X42614724Y-40036698D01*
X42614722Y-40036697D01*
X42452319Y-39964391D01*
X42452318Y-39964391D01*
X42446288Y-39961706D01*
X42352887Y-39941853D01*
X42265944Y-39923372D01*
X42265939Y-39923372D01*
X42259487Y-39922000D01*
X42068513Y-39922000D01*
X42062061Y-39923372D01*
X42062056Y-39923372D01*
X41975113Y-39941853D01*
X41881712Y-39961706D01*
X41875682Y-39964391D01*
X41875681Y-39964391D01*
X41713278Y-40036697D01*
X41713276Y-40036698D01*
X41707248Y-40039382D01*
X41552747Y-40151634D01*
X41548326Y-40156544D01*
X41548325Y-40156545D01*
X41482136Y-40230056D01*
X41424960Y-40293556D01*
X41329473Y-40458944D01*
X41270458Y-40640572D01*
X41250496Y-40830500D01*
X19555960Y-40830500D01*
X19555960Y-39892634D01*
X22448500Y-39892634D01*
X22455255Y-39954816D01*
X22506385Y-40091205D01*
X22593739Y-40207761D01*
X22710295Y-40295115D01*
X22846684Y-40346245D01*
X22908866Y-40353000D01*
X25605134Y-40353000D01*
X25667316Y-40346245D01*
X25803705Y-40295115D01*
X25920261Y-40207761D01*
X26007615Y-40091205D01*
X26058745Y-39954816D01*
X26065500Y-39892634D01*
X26065500Y-37846000D01*
X57569996Y-37846000D01*
X57570686Y-37852565D01*
X57572046Y-37865500D01*
X57589958Y-38035928D01*
X57648973Y-38217556D01*
X57744460Y-38382944D01*
X57872247Y-38524866D01*
X57955164Y-38585109D01*
X58011622Y-38626128D01*
X58026748Y-38637118D01*
X58032776Y-38639802D01*
X58032778Y-38639803D01*
X58195181Y-38712109D01*
X58201212Y-38714794D01*
X58294612Y-38734647D01*
X58381556Y-38753128D01*
X58381561Y-38753128D01*
X58388013Y-38754500D01*
X58578987Y-38754500D01*
X58585439Y-38753128D01*
X58585444Y-38753128D01*
X58672388Y-38734647D01*
X58765788Y-38714794D01*
X58771819Y-38712109D01*
X58934222Y-38639803D01*
X58934224Y-38639802D01*
X58940252Y-38637118D01*
X58955379Y-38626128D01*
X59011836Y-38585109D01*
X59094753Y-38524866D01*
X59222540Y-38382944D01*
X59318027Y-38217556D01*
X59377042Y-38035928D01*
X59394955Y-37865500D01*
X59396314Y-37852565D01*
X59397004Y-37846000D01*
X59855996Y-37846000D01*
X59856686Y-37852565D01*
X59858046Y-37865500D01*
X59875958Y-38035928D01*
X59934973Y-38217556D01*
X60030460Y-38382944D01*
X60158247Y-38524866D01*
X60241164Y-38585109D01*
X60297622Y-38626128D01*
X60312748Y-38637118D01*
X60318776Y-38639802D01*
X60318778Y-38639803D01*
X60481181Y-38712109D01*
X60487212Y-38714794D01*
X60580612Y-38734647D01*
X60667556Y-38753128D01*
X60667561Y-38753128D01*
X60674013Y-38754500D01*
X60864987Y-38754500D01*
X60871439Y-38753128D01*
X60871444Y-38753128D01*
X60958388Y-38734647D01*
X61051788Y-38714794D01*
X61057819Y-38712109D01*
X61220222Y-38639803D01*
X61220224Y-38639802D01*
X61226252Y-38637118D01*
X61241379Y-38626128D01*
X61297836Y-38585109D01*
X61380753Y-38524866D01*
X61508540Y-38382944D01*
X61604027Y-38217556D01*
X61663042Y-38035928D01*
X61680955Y-37865500D01*
X61682314Y-37852565D01*
X61683004Y-37846000D01*
X61682314Y-37839435D01*
X61669656Y-37719000D01*
X63284996Y-37719000D01*
X63285686Y-37725565D01*
X63300394Y-37865500D01*
X63304958Y-37908928D01*
X63363973Y-38090556D01*
X63459460Y-38255944D01*
X63587247Y-38397866D01*
X63670164Y-38458109D01*
X63726622Y-38499128D01*
X63741748Y-38510118D01*
X63747776Y-38512802D01*
X63747778Y-38512803D01*
X63783594Y-38528749D01*
X63916212Y-38587794D01*
X64009613Y-38607647D01*
X64096556Y-38626128D01*
X64096561Y-38626128D01*
X64103013Y-38627500D01*
X64293987Y-38627500D01*
X64300439Y-38626128D01*
X64300444Y-38626128D01*
X64387387Y-38607647D01*
X64480788Y-38587794D01*
X64613406Y-38528749D01*
X64649222Y-38512803D01*
X64649224Y-38512802D01*
X64655252Y-38510118D01*
X64670379Y-38499128D01*
X64726836Y-38458109D01*
X64809753Y-38397866D01*
X64937540Y-38255944D01*
X65033027Y-38090556D01*
X65092042Y-37908928D01*
X65096607Y-37865500D01*
X65111314Y-37725565D01*
X65112004Y-37719000D01*
X65104730Y-37649794D01*
X65092732Y-37535635D01*
X65092732Y-37535633D01*
X65092042Y-37529072D01*
X65033027Y-37347444D01*
X64937540Y-37182056D01*
X64911564Y-37153206D01*
X64814175Y-37045045D01*
X64814174Y-37045044D01*
X64809753Y-37040134D01*
X64695329Y-36957000D01*
X87541996Y-36957000D01*
X87542686Y-36963565D01*
X87560619Y-37134184D01*
X87561958Y-37146928D01*
X87620973Y-37328556D01*
X87716460Y-37493944D01*
X87720878Y-37498851D01*
X87720879Y-37498852D01*
X87748089Y-37529072D01*
X87844247Y-37635866D01*
X87943343Y-37707864D01*
X87967707Y-37725565D01*
X87998748Y-37748118D01*
X88004776Y-37750802D01*
X88004778Y-37750803D01*
X88167181Y-37823109D01*
X88173212Y-37825794D01*
X88237388Y-37839435D01*
X88353556Y-37864128D01*
X88353561Y-37864128D01*
X88360013Y-37865500D01*
X88550987Y-37865500D01*
X88557439Y-37864128D01*
X88557444Y-37864128D01*
X88673612Y-37839435D01*
X88737788Y-37825794D01*
X88743819Y-37823109D01*
X88906222Y-37750803D01*
X88906224Y-37750802D01*
X88912252Y-37748118D01*
X88943294Y-37725565D01*
X88967657Y-37707864D01*
X89066753Y-37635866D01*
X89106250Y-37592000D01*
X94780996Y-37592000D01*
X94781686Y-37598565D01*
X94797687Y-37750803D01*
X94800958Y-37781928D01*
X94859973Y-37963556D01*
X94955460Y-38128944D01*
X94959878Y-38133851D01*
X94959879Y-38133852D01*
X95064663Y-38250226D01*
X95083247Y-38270866D01*
X95237748Y-38383118D01*
X95243776Y-38385802D01*
X95243778Y-38385803D01*
X95279594Y-38401749D01*
X95412212Y-38460794D01*
X95505613Y-38480647D01*
X95592556Y-38499128D01*
X95592561Y-38499128D01*
X95599013Y-38500500D01*
X95789987Y-38500500D01*
X95796439Y-38499128D01*
X95796444Y-38499128D01*
X95883387Y-38480647D01*
X95976788Y-38460794D01*
X96109406Y-38401749D01*
X96145222Y-38385803D01*
X96145224Y-38385802D01*
X96151252Y-38383118D01*
X96305753Y-38270866D01*
X96324337Y-38250226D01*
X96429121Y-38133852D01*
X96429122Y-38133851D01*
X96433540Y-38128944D01*
X96529027Y-37963556D01*
X96588042Y-37781928D01*
X96591314Y-37750803D01*
X96607314Y-37598565D01*
X96608004Y-37592000D01*
X96588042Y-37402072D01*
X96529027Y-37220444D01*
X96433540Y-37055056D01*
X96305753Y-36913134D01*
X96206657Y-36841136D01*
X96156594Y-36804763D01*
X96156593Y-36804762D01*
X96151252Y-36800882D01*
X96145224Y-36798198D01*
X96145222Y-36798197D01*
X95982819Y-36725891D01*
X95982818Y-36725891D01*
X95976788Y-36723206D01*
X95883388Y-36703353D01*
X95796444Y-36684872D01*
X95796439Y-36684872D01*
X95789987Y-36683500D01*
X95599013Y-36683500D01*
X95592561Y-36684872D01*
X95592556Y-36684872D01*
X95505612Y-36703353D01*
X95412212Y-36723206D01*
X95406182Y-36725891D01*
X95406181Y-36725891D01*
X95243778Y-36798197D01*
X95243776Y-36798198D01*
X95237748Y-36800882D01*
X95232407Y-36804762D01*
X95232406Y-36804763D01*
X95182343Y-36841136D01*
X95083247Y-36913134D01*
X94955460Y-37055056D01*
X94859973Y-37220444D01*
X94800958Y-37402072D01*
X94780996Y-37592000D01*
X89106250Y-37592000D01*
X89162911Y-37529072D01*
X89190121Y-37498852D01*
X89190122Y-37498851D01*
X89194540Y-37493944D01*
X89290027Y-37328556D01*
X89349042Y-37146928D01*
X89350382Y-37134184D01*
X89368314Y-36963565D01*
X89369004Y-36957000D01*
X89367099Y-36938872D01*
X89349732Y-36773635D01*
X89349732Y-36773633D01*
X89349042Y-36767072D01*
X89290027Y-36585444D01*
X89194540Y-36420056D01*
X89168564Y-36391206D01*
X89071175Y-36283045D01*
X89071174Y-36283044D01*
X89066753Y-36278134D01*
X88952329Y-36195000D01*
X88917594Y-36169763D01*
X88917593Y-36169762D01*
X88912252Y-36165882D01*
X88906224Y-36163198D01*
X88906222Y-36163197D01*
X88743819Y-36090891D01*
X88743818Y-36090891D01*
X88737788Y-36088206D01*
X88625221Y-36064279D01*
X88557444Y-36049872D01*
X88557439Y-36049872D01*
X88550987Y-36048500D01*
X88360013Y-36048500D01*
X88353561Y-36049872D01*
X88353556Y-36049872D01*
X88285779Y-36064279D01*
X88173212Y-36088206D01*
X88167182Y-36090891D01*
X88167181Y-36090891D01*
X88004778Y-36163197D01*
X88004776Y-36163198D01*
X87998748Y-36165882D01*
X87993407Y-36169762D01*
X87993406Y-36169763D01*
X87958671Y-36195000D01*
X87844247Y-36278134D01*
X87839826Y-36283044D01*
X87839825Y-36283045D01*
X87742437Y-36391206D01*
X87716460Y-36420056D01*
X87620973Y-36585444D01*
X87561958Y-36767072D01*
X87561268Y-36773633D01*
X87561268Y-36773635D01*
X87543901Y-36938872D01*
X87541996Y-36957000D01*
X64695329Y-36957000D01*
X64660594Y-36931763D01*
X64660593Y-36931762D01*
X64655252Y-36927882D01*
X64649224Y-36925198D01*
X64649222Y-36925197D01*
X64486819Y-36852891D01*
X64486818Y-36852891D01*
X64480788Y-36850206D01*
X64387388Y-36830353D01*
X64300444Y-36811872D01*
X64300439Y-36811872D01*
X64293987Y-36810500D01*
X64103013Y-36810500D01*
X64096561Y-36811872D01*
X64096556Y-36811872D01*
X64009612Y-36830353D01*
X63916212Y-36850206D01*
X63910182Y-36852891D01*
X63910181Y-36852891D01*
X63747778Y-36925197D01*
X63747776Y-36925198D01*
X63741748Y-36927882D01*
X63736407Y-36931762D01*
X63736406Y-36931763D01*
X63701671Y-36957000D01*
X63587247Y-37040134D01*
X63582826Y-37045044D01*
X63582825Y-37045045D01*
X63485437Y-37153206D01*
X63459460Y-37182056D01*
X63363973Y-37347444D01*
X63304958Y-37529072D01*
X63304268Y-37535633D01*
X63304268Y-37535635D01*
X63292270Y-37649794D01*
X63284996Y-37719000D01*
X61669656Y-37719000D01*
X61663732Y-37662635D01*
X61663732Y-37662633D01*
X61663042Y-37656072D01*
X61604027Y-37474444D01*
X61508540Y-37309056D01*
X61428754Y-37220444D01*
X61385175Y-37172045D01*
X61385174Y-37172044D01*
X61380753Y-37167134D01*
X61240407Y-37065166D01*
X61231594Y-37058763D01*
X61231593Y-37058762D01*
X61226252Y-37054882D01*
X61220224Y-37052198D01*
X61220222Y-37052197D01*
X61057819Y-36979891D01*
X61057818Y-36979891D01*
X61051788Y-36977206D01*
X60956727Y-36957000D01*
X60871444Y-36938872D01*
X60871439Y-36938872D01*
X60864987Y-36937500D01*
X60674013Y-36937500D01*
X60667561Y-36938872D01*
X60667556Y-36938872D01*
X60582273Y-36957000D01*
X60487212Y-36977206D01*
X60481182Y-36979891D01*
X60481181Y-36979891D01*
X60318778Y-37052197D01*
X60318776Y-37052198D01*
X60312748Y-37054882D01*
X60307407Y-37058762D01*
X60307406Y-37058763D01*
X60298593Y-37065166D01*
X60158247Y-37167134D01*
X60153826Y-37172044D01*
X60153825Y-37172045D01*
X60110247Y-37220444D01*
X60030460Y-37309056D01*
X59934973Y-37474444D01*
X59875958Y-37656072D01*
X59875268Y-37662633D01*
X59875268Y-37662635D01*
X59856686Y-37839435D01*
X59855996Y-37846000D01*
X59397004Y-37846000D01*
X59396314Y-37839435D01*
X59377732Y-37662635D01*
X59377732Y-37662633D01*
X59377042Y-37656072D01*
X59318027Y-37474444D01*
X59222540Y-37309056D01*
X59142754Y-37220444D01*
X59099175Y-37172045D01*
X59099174Y-37172044D01*
X59094753Y-37167134D01*
X58954407Y-37065166D01*
X58945594Y-37058763D01*
X58945593Y-37058762D01*
X58940252Y-37054882D01*
X58934224Y-37052198D01*
X58934222Y-37052197D01*
X58771819Y-36979891D01*
X58771818Y-36979891D01*
X58765788Y-36977206D01*
X58670727Y-36957000D01*
X58585444Y-36938872D01*
X58585439Y-36938872D01*
X58578987Y-36937500D01*
X58388013Y-36937500D01*
X58381561Y-36938872D01*
X58381556Y-36938872D01*
X58296273Y-36957000D01*
X58201212Y-36977206D01*
X58195182Y-36979891D01*
X58195181Y-36979891D01*
X58032778Y-37052197D01*
X58032776Y-37052198D01*
X58026748Y-37054882D01*
X58021407Y-37058762D01*
X58021406Y-37058763D01*
X58012593Y-37065166D01*
X57872247Y-37167134D01*
X57867826Y-37172044D01*
X57867825Y-37172045D01*
X57824247Y-37220444D01*
X57744460Y-37309056D01*
X57648973Y-37474444D01*
X57589958Y-37656072D01*
X57589268Y-37662633D01*
X57589268Y-37662635D01*
X57570686Y-37839435D01*
X57569996Y-37846000D01*
X26065500Y-37846000D01*
X26065500Y-37196366D01*
X26058745Y-37134184D01*
X26007615Y-36997795D01*
X25920261Y-36881239D01*
X25803705Y-36793885D01*
X25667316Y-36742755D01*
X25605134Y-36736000D01*
X22908866Y-36736000D01*
X22846684Y-36742755D01*
X22710295Y-36793885D01*
X22593739Y-36881239D01*
X22506385Y-36997795D01*
X22455255Y-37134184D01*
X22448500Y-37196366D01*
X22448500Y-39892634D01*
X19555960Y-39892634D01*
X19555960Y-34417000D01*
X70269996Y-34417000D01*
X70270686Y-34423565D01*
X70287841Y-34586782D01*
X70289958Y-34606928D01*
X70348973Y-34788556D01*
X70444460Y-34953944D01*
X70448878Y-34958851D01*
X70448879Y-34958852D01*
X70493253Y-35008134D01*
X70572247Y-35095866D01*
X70726748Y-35208118D01*
X70732776Y-35210802D01*
X70732778Y-35210803D01*
X70800744Y-35241063D01*
X70901212Y-35285794D01*
X70959112Y-35298101D01*
X71081556Y-35324128D01*
X71081561Y-35324128D01*
X71088013Y-35325500D01*
X71278987Y-35325500D01*
X71285439Y-35324128D01*
X71285444Y-35324128D01*
X71407888Y-35298101D01*
X71465788Y-35285794D01*
X71566256Y-35241063D01*
X71634222Y-35210803D01*
X71634224Y-35210802D01*
X71640252Y-35208118D01*
X71794753Y-35095866D01*
X71873747Y-35008134D01*
X71918121Y-34958852D01*
X71918122Y-34958851D01*
X71922540Y-34953944D01*
X72018027Y-34788556D01*
X72077042Y-34606928D01*
X72079160Y-34586782D01*
X72096314Y-34423565D01*
X72097004Y-34417000D01*
X74206996Y-34417000D01*
X74207686Y-34423565D01*
X74224841Y-34586782D01*
X74226958Y-34606928D01*
X74285973Y-34788556D01*
X74381460Y-34953944D01*
X74385878Y-34958851D01*
X74385879Y-34958852D01*
X74430253Y-35008134D01*
X74509247Y-35095866D01*
X74663748Y-35208118D01*
X74669776Y-35210802D01*
X74669778Y-35210803D01*
X74737744Y-35241063D01*
X74838212Y-35285794D01*
X74896112Y-35298101D01*
X75018556Y-35324128D01*
X75018561Y-35324128D01*
X75025013Y-35325500D01*
X75215987Y-35325500D01*
X75222439Y-35324128D01*
X75222444Y-35324128D01*
X75344888Y-35298101D01*
X75402788Y-35285794D01*
X75503256Y-35241063D01*
X75571222Y-35210803D01*
X75571224Y-35210802D01*
X75577252Y-35208118D01*
X75731753Y-35095866D01*
X75810747Y-35008134D01*
X75855121Y-34958852D01*
X75855122Y-34958851D01*
X75859540Y-34953944D01*
X75894138Y-34894018D01*
X79022853Y-34894018D01*
X79039185Y-35060583D01*
X79041409Y-35067268D01*
X79041409Y-35067269D01*
X79050922Y-35095866D01*
X79092013Y-35219391D01*
X79095660Y-35225413D01*
X79095661Y-35225415D01*
X79158329Y-35328891D01*
X79178712Y-35362548D01*
X79294973Y-35482940D01*
X79435017Y-35574582D01*
X79591884Y-35632920D01*
X79656396Y-35641528D01*
X79686584Y-35645556D01*
X79751461Y-35674392D01*
X79790449Y-35733725D01*
X79795318Y-35758152D01*
X79797423Y-35779618D01*
X79801685Y-35823083D01*
X79803909Y-35829768D01*
X79803909Y-35829769D01*
X79819597Y-35876928D01*
X79854513Y-35981891D01*
X79858160Y-35987913D01*
X79858161Y-35987915D01*
X79933229Y-36111866D01*
X79941212Y-36125048D01*
X80057473Y-36245440D01*
X80197517Y-36337082D01*
X80354384Y-36395420D01*
X80361365Y-36396351D01*
X80361367Y-36396352D01*
X80513297Y-36416624D01*
X80513301Y-36416624D01*
X80520278Y-36417555D01*
X80527290Y-36416917D01*
X80527293Y-36416917D01*
X80679935Y-36403026D01*
X80679938Y-36403025D01*
X80686953Y-36402387D01*
X80740686Y-36384928D01*
X80839430Y-36352844D01*
X80839432Y-36352843D01*
X80846126Y-36350668D01*
X80925812Y-36303166D01*
X80983833Y-36268579D01*
X80983835Y-36268578D01*
X80989885Y-36264971D01*
X81111085Y-36149554D01*
X81194758Y-36023616D01*
X81249116Y-35977946D01*
X81319536Y-35968914D01*
X81383660Y-35999388D01*
X81407482Y-36028073D01*
X81458229Y-36111866D01*
X81466212Y-36125048D01*
X81582473Y-36245440D01*
X81722517Y-36337082D01*
X81879384Y-36395420D01*
X81886365Y-36396351D01*
X81886367Y-36396352D01*
X82038297Y-36416624D01*
X82038301Y-36416624D01*
X82045278Y-36417555D01*
X82052290Y-36416917D01*
X82052293Y-36416917D01*
X82204935Y-36403026D01*
X82204938Y-36403025D01*
X82211953Y-36402387D01*
X82265686Y-36384928D01*
X82364430Y-36352844D01*
X82364432Y-36352843D01*
X82371126Y-36350668D01*
X82450812Y-36303166D01*
X82508833Y-36268579D01*
X82508835Y-36268578D01*
X82514885Y-36264971D01*
X82636085Y-36149554D01*
X82639986Y-36143683D01*
X82724802Y-36016025D01*
X82724803Y-36016023D01*
X82728703Y-36010153D01*
X82754367Y-35942592D01*
X82785634Y-35860281D01*
X82785635Y-35860278D01*
X82788135Y-35853696D01*
X82802260Y-35753188D01*
X82831548Y-35688514D01*
X82833887Y-35687000D01*
X91415496Y-35687000D01*
X91416186Y-35693565D01*
X91433539Y-35858666D01*
X91435458Y-35876928D01*
X91494473Y-36058556D01*
X91589960Y-36223944D01*
X91594378Y-36228851D01*
X91594379Y-36228852D01*
X91638753Y-36278134D01*
X91717747Y-36365866D01*
X91872248Y-36478118D01*
X91878276Y-36480802D01*
X91878278Y-36480803D01*
X92040681Y-36553109D01*
X92046712Y-36555794D01*
X92140113Y-36575647D01*
X92227056Y-36594128D01*
X92227061Y-36594128D01*
X92233513Y-36595500D01*
X92424487Y-36595500D01*
X92430939Y-36594128D01*
X92430944Y-36594128D01*
X92517887Y-36575647D01*
X92611288Y-36555794D01*
X92617319Y-36553109D01*
X92779722Y-36480803D01*
X92779724Y-36480802D01*
X92785752Y-36478118D01*
X92940253Y-36365866D01*
X93019247Y-36278134D01*
X93063621Y-36228852D01*
X93063622Y-36228851D01*
X93068040Y-36223944D01*
X93163527Y-36058556D01*
X93222542Y-35876928D01*
X93224462Y-35858666D01*
X93241814Y-35693565D01*
X93242504Y-35687000D01*
X93239300Y-35656518D01*
X93223232Y-35503635D01*
X93223232Y-35503633D01*
X93222542Y-35497072D01*
X93163527Y-35315444D01*
X93068040Y-35150056D01*
X93022744Y-35099749D01*
X92944675Y-35013045D01*
X92944674Y-35013044D01*
X92940253Y-35008134D01*
X92913229Y-34988500D01*
X100178496Y-34988500D01*
X100179186Y-34995065D01*
X100190189Y-35099749D01*
X100198458Y-35178428D01*
X100257473Y-35360056D01*
X100352960Y-35525444D01*
X100357378Y-35530351D01*
X100357379Y-35530352D01*
X100467361Y-35652499D01*
X100480747Y-35667366D01*
X100635248Y-35779618D01*
X100641276Y-35782302D01*
X100641278Y-35782303D01*
X100803681Y-35854609D01*
X100809712Y-35857294D01*
X100902082Y-35876928D01*
X100990056Y-35895628D01*
X100990061Y-35895628D01*
X100996513Y-35897000D01*
X101187487Y-35897000D01*
X101193939Y-35895628D01*
X101193944Y-35895628D01*
X101281918Y-35876928D01*
X101374288Y-35857294D01*
X101380319Y-35854609D01*
X101542722Y-35782303D01*
X101542724Y-35782302D01*
X101548752Y-35779618D01*
X101703253Y-35667366D01*
X101716639Y-35652499D01*
X101826621Y-35530352D01*
X101826622Y-35530351D01*
X101831040Y-35525444D01*
X101884413Y-35433000D01*
X110084496Y-35433000D01*
X110085186Y-35439565D01*
X110100805Y-35588168D01*
X110104458Y-35622928D01*
X110163473Y-35804556D01*
X110166776Y-35810278D01*
X110166777Y-35810279D01*
X110174378Y-35823444D01*
X110258960Y-35969944D01*
X110263378Y-35974851D01*
X110263379Y-35974852D01*
X110364208Y-36086834D01*
X110386747Y-36111866D01*
X110430539Y-36143683D01*
X110510207Y-36201565D01*
X110541248Y-36224118D01*
X110547276Y-36226802D01*
X110547278Y-36226803D01*
X110709681Y-36299109D01*
X110715712Y-36301794D01*
X110809113Y-36321647D01*
X110896056Y-36340128D01*
X110896061Y-36340128D01*
X110902513Y-36341500D01*
X111093487Y-36341500D01*
X111099939Y-36340128D01*
X111099944Y-36340128D01*
X111186888Y-36321647D01*
X111280288Y-36301794D01*
X111446116Y-36227963D01*
X111516482Y-36218529D01*
X111580779Y-36248635D01*
X111618593Y-36308724D01*
X111622674Y-36329899D01*
X111627768Y-36378365D01*
X111628458Y-36384928D01*
X111687473Y-36566556D01*
X111782960Y-36731944D01*
X111787378Y-36736851D01*
X111787379Y-36736852D01*
X111814589Y-36767072D01*
X111910747Y-36873866D01*
X111959450Y-36909251D01*
X112052982Y-36977206D01*
X112065248Y-36986118D01*
X112071276Y-36988802D01*
X112071278Y-36988803D01*
X112219695Y-37054882D01*
X112239712Y-37063794D01*
X112333113Y-37083647D01*
X112420056Y-37102128D01*
X112420061Y-37102128D01*
X112426513Y-37103500D01*
X112617487Y-37103500D01*
X112623939Y-37102128D01*
X112623944Y-37102128D01*
X112710887Y-37083647D01*
X112804288Y-37063794D01*
X112824305Y-37054882D01*
X112972722Y-36988803D01*
X112972724Y-36988802D01*
X112978752Y-36986118D01*
X112991019Y-36977206D01*
X113084550Y-36909251D01*
X113133253Y-36873866D01*
X113229411Y-36767072D01*
X113256621Y-36736852D01*
X113256622Y-36736851D01*
X113261040Y-36731944D01*
X113356527Y-36566556D01*
X113415542Y-36384928D01*
X113417138Y-36369749D01*
X113434814Y-36201565D01*
X113435504Y-36195000D01*
X113431238Y-36154413D01*
X113416232Y-36011635D01*
X113416232Y-36011633D01*
X113415542Y-36005072D01*
X113356527Y-35823444D01*
X113261040Y-35658056D01*
X113256037Y-35652499D01*
X113137675Y-35521045D01*
X113137674Y-35521044D01*
X113133253Y-35516134D01*
X113018829Y-35433000D01*
X112984094Y-35407763D01*
X112984093Y-35407762D01*
X112978752Y-35403882D01*
X112972724Y-35401198D01*
X112972722Y-35401197D01*
X112810319Y-35328891D01*
X112810318Y-35328891D01*
X112804288Y-35326206D01*
X112710888Y-35306353D01*
X112623944Y-35287872D01*
X112623939Y-35287872D01*
X112617487Y-35286500D01*
X112426513Y-35286500D01*
X112420061Y-35287872D01*
X112420056Y-35287872D01*
X112333112Y-35306353D01*
X112239712Y-35326206D01*
X112073884Y-35400037D01*
X112003518Y-35409471D01*
X111939221Y-35379365D01*
X111901407Y-35319276D01*
X111897326Y-35298101D01*
X111892232Y-35249635D01*
X111892232Y-35249633D01*
X111891542Y-35243072D01*
X111832527Y-35061444D01*
X111737040Y-34896056D01*
X111655175Y-34805135D01*
X111613675Y-34759045D01*
X111613674Y-34759044D01*
X111609253Y-34754134D01*
X111468907Y-34652166D01*
X111460094Y-34645763D01*
X111460093Y-34645762D01*
X111454752Y-34641882D01*
X111448724Y-34639198D01*
X111448722Y-34639197D01*
X111286319Y-34566891D01*
X111286318Y-34566891D01*
X111280288Y-34564206D01*
X111186888Y-34544353D01*
X111099944Y-34525872D01*
X111099939Y-34525872D01*
X111093487Y-34524500D01*
X110902513Y-34524500D01*
X110896061Y-34525872D01*
X110896056Y-34525872D01*
X110809112Y-34544353D01*
X110715712Y-34564206D01*
X110709682Y-34566891D01*
X110709681Y-34566891D01*
X110547278Y-34639197D01*
X110547276Y-34639198D01*
X110541248Y-34641882D01*
X110535907Y-34645762D01*
X110535906Y-34645763D01*
X110527093Y-34652166D01*
X110386747Y-34754134D01*
X110382326Y-34759044D01*
X110382325Y-34759045D01*
X110340826Y-34805135D01*
X110258960Y-34896056D01*
X110163473Y-35061444D01*
X110104458Y-35243072D01*
X110103768Y-35249633D01*
X110103768Y-35249635D01*
X110087839Y-35401197D01*
X110084496Y-35433000D01*
X101884413Y-35433000D01*
X101926527Y-35360056D01*
X101985542Y-35178428D01*
X101993812Y-35099749D01*
X102004814Y-34995065D01*
X102005504Y-34988500D01*
X102001271Y-34948226D01*
X101986232Y-34805135D01*
X101986232Y-34805133D01*
X101985542Y-34798572D01*
X101926527Y-34616944D01*
X101905270Y-34580125D01*
X101834341Y-34457274D01*
X101831040Y-34451556D01*
X101703253Y-34309634D01*
X101548752Y-34197382D01*
X101542724Y-34194698D01*
X101542722Y-34194697D01*
X101380319Y-34122391D01*
X101380318Y-34122391D01*
X101374288Y-34119706D01*
X101280887Y-34099853D01*
X101193944Y-34081372D01*
X101193939Y-34081372D01*
X101187487Y-34080000D01*
X100996513Y-34080000D01*
X100990061Y-34081372D01*
X100990056Y-34081372D01*
X100903113Y-34099853D01*
X100809712Y-34119706D01*
X100803682Y-34122391D01*
X100803681Y-34122391D01*
X100641278Y-34194697D01*
X100641276Y-34194698D01*
X100635248Y-34197382D01*
X100480747Y-34309634D01*
X100352960Y-34451556D01*
X100349659Y-34457274D01*
X100278731Y-34580125D01*
X100257473Y-34616944D01*
X100198458Y-34798572D01*
X100197768Y-34805133D01*
X100197768Y-34805135D01*
X100182729Y-34948226D01*
X100178496Y-34988500D01*
X92913229Y-34988500D01*
X92816342Y-34918107D01*
X92791094Y-34899763D01*
X92791093Y-34899762D01*
X92785752Y-34895882D01*
X92779724Y-34893198D01*
X92779722Y-34893197D01*
X92617319Y-34820891D01*
X92617318Y-34820891D01*
X92611288Y-34818206D01*
X92498721Y-34794279D01*
X92430944Y-34779872D01*
X92430939Y-34779872D01*
X92424487Y-34778500D01*
X92233513Y-34778500D01*
X92227061Y-34779872D01*
X92227056Y-34779872D01*
X92159279Y-34794279D01*
X92046712Y-34818206D01*
X92040682Y-34820891D01*
X92040681Y-34820891D01*
X91878278Y-34893197D01*
X91878276Y-34893198D01*
X91872248Y-34895882D01*
X91866907Y-34899762D01*
X91866906Y-34899763D01*
X91841658Y-34918107D01*
X91717747Y-35008134D01*
X91713326Y-35013044D01*
X91713325Y-35013045D01*
X91635257Y-35099749D01*
X91589960Y-35150056D01*
X91494473Y-35315444D01*
X91435458Y-35497072D01*
X91434768Y-35503633D01*
X91434768Y-35503635D01*
X91418700Y-35656518D01*
X91415496Y-35687000D01*
X82833887Y-35687000D01*
X82891152Y-35649940D01*
X82915614Y-35645242D01*
X82967434Y-35640526D01*
X82967436Y-35640526D01*
X82974453Y-35639887D01*
X82981151Y-35637711D01*
X82981154Y-35637710D01*
X83126930Y-35590344D01*
X83126932Y-35590343D01*
X83133626Y-35588168D01*
X83237631Y-35526169D01*
X83271333Y-35506079D01*
X83271335Y-35506078D01*
X83277385Y-35502471D01*
X83398585Y-35387054D01*
X83403694Y-35379365D01*
X83487302Y-35253525D01*
X83487303Y-35253523D01*
X83491203Y-35247653D01*
X83550635Y-35091196D01*
X83573927Y-34925461D01*
X83574220Y-34904500D01*
X83555564Y-34738179D01*
X83538961Y-34690500D01*
X83502842Y-34586782D01*
X83500524Y-34580125D01*
X83494637Y-34570703D01*
X83415567Y-34444166D01*
X83411834Y-34438192D01*
X83293904Y-34319435D01*
X83284121Y-34313226D01*
X83180976Y-34247769D01*
X83134177Y-34194380D01*
X83123672Y-34124165D01*
X83152796Y-34059417D01*
X83183972Y-34033156D01*
X83237124Y-34001471D01*
X83271333Y-33981079D01*
X83271335Y-33981078D01*
X83277385Y-33977471D01*
X83398585Y-33862054D01*
X83402486Y-33856183D01*
X83451773Y-33782000D01*
X85573496Y-33782000D01*
X85574186Y-33788565D01*
X85590915Y-33947729D01*
X85593458Y-33971928D01*
X85652473Y-34153556D01*
X85655776Y-34159278D01*
X85655777Y-34159279D01*
X85662713Y-34171293D01*
X85747960Y-34318944D01*
X85875747Y-34460866D01*
X85963331Y-34524500D01*
X86017982Y-34564206D01*
X86030248Y-34573118D01*
X86036276Y-34575802D01*
X86036278Y-34575803D01*
X86184695Y-34641882D01*
X86204712Y-34650794D01*
X86298112Y-34670647D01*
X86385056Y-34689128D01*
X86385061Y-34689128D01*
X86391513Y-34690500D01*
X86582487Y-34690500D01*
X86588939Y-34689128D01*
X86588944Y-34689128D01*
X86675888Y-34670647D01*
X86769288Y-34650794D01*
X86789305Y-34641882D01*
X86937722Y-34575803D01*
X86937724Y-34575802D01*
X86943752Y-34573118D01*
X86956019Y-34564206D01*
X87010669Y-34524500D01*
X87098253Y-34460866D01*
X87226040Y-34318944D01*
X87311287Y-34171293D01*
X87318223Y-34159279D01*
X87318224Y-34159278D01*
X87321527Y-34153556D01*
X87380542Y-33971928D01*
X87383086Y-33947729D01*
X87399814Y-33788565D01*
X87400504Y-33782000D01*
X87394884Y-33728525D01*
X87381232Y-33598635D01*
X87381232Y-33598633D01*
X87380542Y-33592072D01*
X87321527Y-33410444D01*
X87318022Y-33404372D01*
X87229341Y-33250774D01*
X87226040Y-33245056D01*
X87182190Y-33196355D01*
X87102675Y-33108045D01*
X87102674Y-33108044D01*
X87098253Y-33103134D01*
X86957907Y-33001166D01*
X86949094Y-32994763D01*
X86949093Y-32994762D01*
X86943752Y-32990882D01*
X86937724Y-32988198D01*
X86937722Y-32988197D01*
X86775319Y-32915891D01*
X86775318Y-32915891D01*
X86769288Y-32913206D01*
X86675887Y-32893353D01*
X86588944Y-32874872D01*
X86588939Y-32874872D01*
X86582487Y-32873500D01*
X86391513Y-32873500D01*
X86385061Y-32874872D01*
X86385056Y-32874872D01*
X86298113Y-32893353D01*
X86204712Y-32913206D01*
X86198682Y-32915891D01*
X86198681Y-32915891D01*
X86036278Y-32988197D01*
X86036276Y-32988198D01*
X86030248Y-32990882D01*
X86024907Y-32994762D01*
X86024906Y-32994763D01*
X86016093Y-33001166D01*
X85875747Y-33103134D01*
X85871326Y-33108044D01*
X85871325Y-33108045D01*
X85791811Y-33196355D01*
X85747960Y-33245056D01*
X85744659Y-33250774D01*
X85655979Y-33404372D01*
X85652473Y-33410444D01*
X85593458Y-33592072D01*
X85592768Y-33598633D01*
X85592768Y-33598635D01*
X85579116Y-33728525D01*
X85573496Y-33782000D01*
X83451773Y-33782000D01*
X83487302Y-33728525D01*
X83487303Y-33728523D01*
X83491203Y-33722653D01*
X83540806Y-33592072D01*
X83548134Y-33572781D01*
X83548135Y-33572778D01*
X83550635Y-33566196D01*
X83573927Y-33400461D01*
X83574220Y-33379500D01*
X83555564Y-33213179D01*
X83500524Y-33055125D01*
X83494637Y-33045703D01*
X83415567Y-32919166D01*
X83411834Y-32913192D01*
X83293904Y-32794435D01*
X83152594Y-32704757D01*
X83126193Y-32695356D01*
X83001563Y-32650977D01*
X83001558Y-32650976D01*
X82994928Y-32648615D01*
X82987940Y-32647782D01*
X82987937Y-32647781D01*
X82950191Y-32643280D01*
X82911994Y-32638725D01*
X82846721Y-32610799D01*
X82806908Y-32552016D01*
X82801698Y-32527656D01*
X82793849Y-32457678D01*
X82793064Y-32450679D01*
X82738024Y-32292625D01*
X82732137Y-32283203D01*
X82653067Y-32156666D01*
X82649334Y-32150692D01*
X82636299Y-32137565D01*
X82536366Y-32036932D01*
X82531404Y-32031935D01*
X82390094Y-31942257D01*
X82330021Y-31920866D01*
X82239063Y-31888477D01*
X82239058Y-31888476D01*
X82232428Y-31886115D01*
X82225440Y-31885282D01*
X82225437Y-31885281D01*
X82100934Y-31870435D01*
X82066241Y-31866298D01*
X82059239Y-31867034D01*
X82059237Y-31867034D01*
X81906794Y-31883057D01*
X81906792Y-31883057D01*
X81899794Y-31883793D01*
X81851522Y-31900226D01*
X81748029Y-31935457D01*
X81748026Y-31935458D01*
X81741359Y-31937728D01*
X81598811Y-32025425D01*
X81479234Y-32142523D01*
X81475418Y-32148444D01*
X81475415Y-32148448D01*
X81404007Y-32259251D01*
X81350293Y-32305676D01*
X81280006Y-32315691D01*
X81215463Y-32286115D01*
X81191242Y-32257766D01*
X81165405Y-32216420D01*
X81124334Y-32150692D01*
X81111299Y-32137565D01*
X81011366Y-32036932D01*
X81006404Y-32031935D01*
X80865094Y-31942257D01*
X80805021Y-31920866D01*
X80714063Y-31888477D01*
X80714058Y-31888476D01*
X80707428Y-31886115D01*
X80700440Y-31885282D01*
X80700437Y-31885281D01*
X80575934Y-31870435D01*
X80541241Y-31866298D01*
X80534239Y-31867034D01*
X80534237Y-31867034D01*
X80381794Y-31883057D01*
X80381792Y-31883057D01*
X80374794Y-31883793D01*
X80326522Y-31900226D01*
X80223029Y-31935457D01*
X80223026Y-31935458D01*
X80216359Y-31937728D01*
X80073811Y-32025425D01*
X79954234Y-32142523D01*
X79950419Y-32148443D01*
X79950418Y-32148444D01*
X79868131Y-32276128D01*
X79863571Y-32283203D01*
X79806329Y-32440474D01*
X79795316Y-32527656D01*
X79795106Y-32529315D01*
X79766725Y-32594391D01*
X79707665Y-32633793D01*
X79683274Y-32638832D01*
X79648373Y-32642501D01*
X79619294Y-32645557D01*
X79619292Y-32645557D01*
X79612294Y-32646293D01*
X79529187Y-32674585D01*
X79460529Y-32697957D01*
X79460526Y-32697958D01*
X79453859Y-32700228D01*
X79311311Y-32787925D01*
X79191734Y-32905023D01*
X79187919Y-32910943D01*
X79187918Y-32910944D01*
X79105069Y-33039500D01*
X79101071Y-33045703D01*
X79043829Y-33202974D01*
X79022853Y-33369018D01*
X79039185Y-33535583D01*
X79041409Y-33542268D01*
X79041409Y-33542269D01*
X79051559Y-33572781D01*
X79092013Y-33694391D01*
X79095660Y-33700413D01*
X79095661Y-33700415D01*
X79129562Y-33756391D01*
X79178712Y-33837548D01*
X79294973Y-33957940D01*
X79300865Y-33961795D01*
X79300869Y-33961799D01*
X79416362Y-34037375D01*
X79462411Y-34091412D01*
X79471934Y-34161767D01*
X79441909Y-34226102D01*
X79413391Y-34250124D01*
X79317311Y-34309233D01*
X79317307Y-34309236D01*
X79311311Y-34312925D01*
X79191734Y-34430023D01*
X79101071Y-34570703D01*
X79043829Y-34727974D01*
X79022853Y-34894018D01*
X75894138Y-34894018D01*
X75955027Y-34788556D01*
X76014042Y-34606928D01*
X76016160Y-34586782D01*
X76033314Y-34423565D01*
X76034004Y-34417000D01*
X76023097Y-34313226D01*
X76014732Y-34233635D01*
X76014732Y-34233633D01*
X76014042Y-34227072D01*
X75955027Y-34045444D01*
X75950369Y-34037375D01*
X75904506Y-33957940D01*
X75859540Y-33880056D01*
X75731753Y-33738134D01*
X75577252Y-33625882D01*
X75571224Y-33623198D01*
X75571222Y-33623197D01*
X75408819Y-33550891D01*
X75408818Y-33550891D01*
X75402788Y-33548206D01*
X75309388Y-33528353D01*
X75222444Y-33509872D01*
X75222439Y-33509872D01*
X75215987Y-33508500D01*
X75025013Y-33508500D01*
X75018561Y-33509872D01*
X75018556Y-33509872D01*
X74931612Y-33528353D01*
X74838212Y-33548206D01*
X74832182Y-33550891D01*
X74832181Y-33550891D01*
X74669778Y-33623197D01*
X74669776Y-33623198D01*
X74663748Y-33625882D01*
X74509247Y-33738134D01*
X74381460Y-33880056D01*
X74336494Y-33957940D01*
X74290632Y-34037375D01*
X74285973Y-34045444D01*
X74226958Y-34227072D01*
X74226268Y-34233633D01*
X74226268Y-34233635D01*
X74217903Y-34313226D01*
X74206996Y-34417000D01*
X72097004Y-34417000D01*
X72086097Y-34313226D01*
X72077732Y-34233635D01*
X72077732Y-34233633D01*
X72077042Y-34227072D01*
X72018027Y-34045444D01*
X72013369Y-34037375D01*
X71967506Y-33957940D01*
X71922540Y-33880056D01*
X71794753Y-33738134D01*
X71640252Y-33625882D01*
X71634224Y-33623198D01*
X71634222Y-33623197D01*
X71471819Y-33550891D01*
X71471818Y-33550891D01*
X71465788Y-33548206D01*
X71372388Y-33528353D01*
X71285444Y-33509872D01*
X71285439Y-33509872D01*
X71278987Y-33508500D01*
X71088013Y-33508500D01*
X71081561Y-33509872D01*
X71081556Y-33509872D01*
X70994612Y-33528353D01*
X70901212Y-33548206D01*
X70895182Y-33550891D01*
X70895181Y-33550891D01*
X70732778Y-33623197D01*
X70732776Y-33623198D01*
X70726748Y-33625882D01*
X70572247Y-33738134D01*
X70444460Y-33880056D01*
X70399494Y-33957940D01*
X70353632Y-34037375D01*
X70348973Y-34045444D01*
X70289958Y-34227072D01*
X70289268Y-34233633D01*
X70289268Y-34233635D01*
X70280903Y-34313226D01*
X70269996Y-34417000D01*
X19555960Y-34417000D01*
X19555960Y-30202500D01*
X24848502Y-30202500D01*
X24868457Y-30430587D01*
X24869881Y-30435900D01*
X24869881Y-30435902D01*
X24902933Y-30559251D01*
X24927716Y-30651743D01*
X24930039Y-30656724D01*
X24930039Y-30656725D01*
X25022151Y-30854262D01*
X25022154Y-30854267D01*
X25024477Y-30859249D01*
X25155802Y-31046800D01*
X25301502Y-31192500D01*
X25335528Y-31254812D01*
X25330463Y-31325627D01*
X25287916Y-31382463D01*
X25251263Y-31399632D01*
X25251684Y-31400755D01*
X25115295Y-31451885D01*
X24998739Y-31539239D01*
X24911385Y-31655795D01*
X24860255Y-31792184D01*
X24853500Y-31854366D01*
X24853500Y-33550634D01*
X24860255Y-33612816D01*
X24911385Y-33749205D01*
X24998739Y-33865761D01*
X25115295Y-33953115D01*
X25251684Y-34004245D01*
X25313866Y-34011000D01*
X27010134Y-34011000D01*
X27072316Y-34004245D01*
X27208705Y-33953115D01*
X27325261Y-33865761D01*
X27412615Y-33749205D01*
X27463745Y-33612816D01*
X27470500Y-33550634D01*
X27470500Y-32131000D01*
X64935996Y-32131000D01*
X64936686Y-32137565D01*
X64951394Y-32277500D01*
X64955958Y-32320928D01*
X65014973Y-32502556D01*
X65018276Y-32508278D01*
X65018277Y-32508279D01*
X65030422Y-32529315D01*
X65110460Y-32667944D01*
X65114878Y-32672851D01*
X65114879Y-32672852D01*
X65147009Y-32708536D01*
X65238247Y-32809866D01*
X65325831Y-32873500D01*
X65380482Y-32913206D01*
X65392748Y-32922118D01*
X65398776Y-32924802D01*
X65398778Y-32924803D01*
X65547195Y-32990882D01*
X65567212Y-32999794D01*
X65660612Y-33019647D01*
X65747556Y-33038128D01*
X65747561Y-33038128D01*
X65754013Y-33039500D01*
X65944987Y-33039500D01*
X65951439Y-33038128D01*
X65951444Y-33038128D01*
X66038388Y-33019647D01*
X66131788Y-32999794D01*
X66151805Y-32990882D01*
X66300222Y-32924803D01*
X66300224Y-32924802D01*
X66306252Y-32922118D01*
X66318519Y-32913206D01*
X66373169Y-32873500D01*
X66460753Y-32809866D01*
X66551991Y-32708536D01*
X66584121Y-32672852D01*
X66584122Y-32672851D01*
X66588540Y-32667944D01*
X66668578Y-32529315D01*
X66680723Y-32508279D01*
X66680724Y-32508278D01*
X66684027Y-32502556D01*
X66743042Y-32320928D01*
X66747607Y-32277500D01*
X66762314Y-32137565D01*
X66763004Y-32131000D01*
X66762314Y-32124435D01*
X66743732Y-31947635D01*
X66743732Y-31947633D01*
X66743042Y-31941072D01*
X66684027Y-31759444D01*
X66588540Y-31594056D01*
X66562564Y-31565206D01*
X66465175Y-31457045D01*
X66465174Y-31457044D01*
X66460753Y-31452134D01*
X66346329Y-31369000D01*
X67348996Y-31369000D01*
X67349686Y-31375565D01*
X67366889Y-31539239D01*
X67368958Y-31558928D01*
X67427973Y-31740556D01*
X67431276Y-31746278D01*
X67431277Y-31746279D01*
X67462316Y-31800040D01*
X67523460Y-31905944D01*
X67527878Y-31910851D01*
X67527879Y-31910852D01*
X67556156Y-31942257D01*
X67651247Y-32047866D01*
X67734164Y-32108109D01*
X67790622Y-32149128D01*
X67805748Y-32160118D01*
X67811776Y-32162802D01*
X67811778Y-32162803D01*
X67974181Y-32235109D01*
X67980212Y-32237794D01*
X68073612Y-32257647D01*
X68160556Y-32276128D01*
X68160561Y-32276128D01*
X68167013Y-32277500D01*
X68357987Y-32277500D01*
X68364439Y-32276128D01*
X68364444Y-32276128D01*
X68451388Y-32257647D01*
X68544788Y-32237794D01*
X68550819Y-32235109D01*
X68713222Y-32162803D01*
X68713224Y-32162802D01*
X68719252Y-32160118D01*
X68734379Y-32149128D01*
X68790836Y-32108109D01*
X68873753Y-32047866D01*
X68968844Y-31942257D01*
X68997121Y-31910852D01*
X68997122Y-31910851D01*
X69001540Y-31905944D01*
X69062684Y-31800040D01*
X69093723Y-31746279D01*
X69093724Y-31746278D01*
X69097027Y-31740556D01*
X69156042Y-31558928D01*
X69158112Y-31539239D01*
X69175314Y-31375565D01*
X69176004Y-31369000D01*
X69170517Y-31316790D01*
X69162656Y-31242000D01*
X69761996Y-31242000D01*
X69762686Y-31248565D01*
X69780695Y-31419907D01*
X69781958Y-31431928D01*
X69840973Y-31613556D01*
X69936460Y-31778944D01*
X69940878Y-31783851D01*
X69940879Y-31783852D01*
X70015865Y-31867132D01*
X70064247Y-31920866D01*
X70163343Y-31992864D01*
X70208160Y-32025425D01*
X70218748Y-32033118D01*
X70224776Y-32035802D01*
X70224778Y-32035803D01*
X70387181Y-32108109D01*
X70393212Y-32110794D01*
X70457388Y-32124435D01*
X70573556Y-32149128D01*
X70573561Y-32149128D01*
X70580013Y-32150500D01*
X70770987Y-32150500D01*
X70777439Y-32149128D01*
X70777444Y-32149128D01*
X70893612Y-32124435D01*
X70957788Y-32110794D01*
X70963819Y-32108109D01*
X71126222Y-32035803D01*
X71126224Y-32035802D01*
X71132252Y-32033118D01*
X71142841Y-32025425D01*
X71187657Y-31992864D01*
X71286753Y-31920866D01*
X71335135Y-31867132D01*
X71410121Y-31783852D01*
X71410122Y-31783851D01*
X71414540Y-31778944D01*
X71510027Y-31613556D01*
X71569042Y-31431928D01*
X71570306Y-31419907D01*
X71588314Y-31248565D01*
X71589004Y-31242000D01*
X71587099Y-31223872D01*
X71569732Y-31058635D01*
X71569732Y-31058633D01*
X71569042Y-31052072D01*
X71510027Y-30870444D01*
X71414540Y-30705056D01*
X71286753Y-30563134D01*
X71155686Y-30467908D01*
X71137594Y-30454763D01*
X71137593Y-30454762D01*
X71132252Y-30450882D01*
X71126224Y-30448198D01*
X71126222Y-30448197D01*
X70963819Y-30375891D01*
X70963818Y-30375891D01*
X70957788Y-30373206D01*
X70862727Y-30353000D01*
X70777444Y-30334872D01*
X70777439Y-30334872D01*
X70770987Y-30333500D01*
X70580013Y-30333500D01*
X70573561Y-30334872D01*
X70573556Y-30334872D01*
X70488273Y-30353000D01*
X70393212Y-30373206D01*
X70387182Y-30375891D01*
X70387181Y-30375891D01*
X70224778Y-30448197D01*
X70224776Y-30448198D01*
X70218748Y-30450882D01*
X70213407Y-30454762D01*
X70213406Y-30454763D01*
X70195314Y-30467908D01*
X70064247Y-30563134D01*
X69936460Y-30705056D01*
X69840973Y-30870444D01*
X69781958Y-31052072D01*
X69781268Y-31058633D01*
X69781268Y-31058635D01*
X69763901Y-31223872D01*
X69761996Y-31242000D01*
X69162656Y-31242000D01*
X69156732Y-31185635D01*
X69156732Y-31185633D01*
X69156042Y-31179072D01*
X69097027Y-30997444D01*
X69001540Y-30832056D01*
X68975564Y-30803206D01*
X68878175Y-30695045D01*
X68878174Y-30695044D01*
X68873753Y-30690134D01*
X68759329Y-30607000D01*
X68724594Y-30581763D01*
X68724593Y-30581762D01*
X68719252Y-30577882D01*
X68713224Y-30575198D01*
X68713222Y-30575197D01*
X68550819Y-30502891D01*
X68550818Y-30502891D01*
X68544788Y-30500206D01*
X68451387Y-30480353D01*
X68364444Y-30461872D01*
X68364439Y-30461872D01*
X68357987Y-30460500D01*
X68167013Y-30460500D01*
X68160561Y-30461872D01*
X68160556Y-30461872D01*
X68073613Y-30480353D01*
X67980212Y-30500206D01*
X67974182Y-30502891D01*
X67974181Y-30502891D01*
X67811778Y-30575197D01*
X67811776Y-30575198D01*
X67805748Y-30577882D01*
X67800407Y-30581762D01*
X67800406Y-30581763D01*
X67765671Y-30607000D01*
X67651247Y-30690134D01*
X67646826Y-30695044D01*
X67646825Y-30695045D01*
X67549437Y-30803206D01*
X67523460Y-30832056D01*
X67427973Y-30997444D01*
X67368958Y-31179072D01*
X67368268Y-31185633D01*
X67368268Y-31185635D01*
X67354483Y-31316790D01*
X67348996Y-31369000D01*
X66346329Y-31369000D01*
X66346267Y-31368955D01*
X66311594Y-31343763D01*
X66311593Y-31343762D01*
X66306252Y-31339882D01*
X66300224Y-31337198D01*
X66300222Y-31337197D01*
X66137819Y-31264891D01*
X66137818Y-31264891D01*
X66131788Y-31262206D01*
X66021903Y-31238849D01*
X65951444Y-31223872D01*
X65951439Y-31223872D01*
X65944987Y-31222500D01*
X65754013Y-31222500D01*
X65747561Y-31223872D01*
X65747556Y-31223872D01*
X65677097Y-31238849D01*
X65567212Y-31262206D01*
X65561182Y-31264891D01*
X65561181Y-31264891D01*
X65398778Y-31337197D01*
X65398776Y-31337198D01*
X65392748Y-31339882D01*
X65387407Y-31343762D01*
X65387406Y-31343763D01*
X65352733Y-31368955D01*
X65238247Y-31452134D01*
X65233826Y-31457044D01*
X65233825Y-31457045D01*
X65136437Y-31565206D01*
X65110460Y-31594056D01*
X65014973Y-31759444D01*
X64955958Y-31941072D01*
X64955268Y-31947633D01*
X64955268Y-31947635D01*
X64936686Y-32124435D01*
X64935996Y-32131000D01*
X27470500Y-32131000D01*
X27470500Y-31854366D01*
X27463745Y-31792184D01*
X27412615Y-31655795D01*
X27325261Y-31539239D01*
X27208705Y-31451885D01*
X27072316Y-31400755D01*
X27073046Y-31398809D01*
X27020795Y-31368955D01*
X26987979Y-31305997D01*
X26994409Y-31235293D01*
X27022498Y-31192500D01*
X27168198Y-31046800D01*
X27240411Y-30943669D01*
X41491001Y-30943669D01*
X41491371Y-30950490D01*
X41496895Y-31001352D01*
X41500521Y-31016604D01*
X41545676Y-31137054D01*
X41554214Y-31152649D01*
X41630715Y-31254724D01*
X41643276Y-31267285D01*
X41745351Y-31343786D01*
X41760946Y-31352324D01*
X41881394Y-31397478D01*
X41896649Y-31401105D01*
X41947514Y-31406631D01*
X41954328Y-31407000D01*
X42526885Y-31407000D01*
X42542124Y-31402525D01*
X42543329Y-31401135D01*
X42545000Y-31393452D01*
X42545000Y-31388884D01*
X43053000Y-31388884D01*
X43057475Y-31404123D01*
X43058865Y-31405328D01*
X43066548Y-31406999D01*
X43643669Y-31406999D01*
X43650490Y-31406629D01*
X43701352Y-31401105D01*
X43716604Y-31397479D01*
X43837054Y-31352324D01*
X43852649Y-31343786D01*
X43954724Y-31267285D01*
X43967285Y-31254724D01*
X44043786Y-31152649D01*
X44052324Y-31137054D01*
X44097478Y-31016606D01*
X44101105Y-31001351D01*
X44106631Y-30950486D01*
X44107000Y-30943672D01*
X44107000Y-30371115D01*
X44102525Y-30355876D01*
X44101135Y-30354671D01*
X44093452Y-30353000D01*
X43071115Y-30353000D01*
X43055876Y-30357475D01*
X43054671Y-30358865D01*
X43053000Y-30366548D01*
X43053000Y-31388884D01*
X42545000Y-31388884D01*
X42545000Y-30371115D01*
X42540525Y-30355876D01*
X42539135Y-30354671D01*
X42531452Y-30353000D01*
X41509116Y-30353000D01*
X41493877Y-30357475D01*
X41492672Y-30358865D01*
X41491001Y-30366548D01*
X41491001Y-30943669D01*
X27240411Y-30943669D01*
X27299523Y-30859249D01*
X27301846Y-30854267D01*
X27301849Y-30854262D01*
X27393961Y-30656725D01*
X27393961Y-30656724D01*
X27396284Y-30651743D01*
X27421068Y-30559251D01*
X27454119Y-30435902D01*
X27454119Y-30435900D01*
X27455543Y-30430587D01*
X27475498Y-30202500D01*
X27466443Y-30099000D01*
X44985502Y-30099000D01*
X45005457Y-30327087D01*
X45006881Y-30332400D01*
X45006881Y-30332402D01*
X45051288Y-30498128D01*
X45064716Y-30548243D01*
X45067039Y-30553224D01*
X45067039Y-30553225D01*
X45159151Y-30750762D01*
X45159154Y-30750767D01*
X45161477Y-30755749D01*
X45190311Y-30796928D01*
X45288442Y-30937073D01*
X45292802Y-30943300D01*
X45454700Y-31105198D01*
X45459208Y-31108355D01*
X45459211Y-31108357D01*
X45474911Y-31119350D01*
X45642251Y-31236523D01*
X45647233Y-31238846D01*
X45647238Y-31238849D01*
X45791239Y-31305997D01*
X45849757Y-31333284D01*
X45855065Y-31334706D01*
X45855067Y-31334707D01*
X46065598Y-31391119D01*
X46065600Y-31391119D01*
X46070913Y-31392543D01*
X46299000Y-31412498D01*
X46527087Y-31392543D01*
X46532400Y-31391119D01*
X46532402Y-31391119D01*
X46742933Y-31334707D01*
X46742935Y-31334706D01*
X46748243Y-31333284D01*
X46806761Y-31305997D01*
X46950762Y-31238849D01*
X46950767Y-31238846D01*
X46955749Y-31236523D01*
X47123089Y-31119350D01*
X47138789Y-31108357D01*
X47138792Y-31108355D01*
X47143300Y-31105198D01*
X47305198Y-30943300D01*
X47309559Y-30937073D01*
X47407689Y-30796928D01*
X47436523Y-30755749D01*
X47438846Y-30750767D01*
X47438849Y-30750762D01*
X47530961Y-30553225D01*
X47530961Y-30553224D01*
X47533284Y-30548243D01*
X47546713Y-30498128D01*
X47591119Y-30332402D01*
X47591119Y-30332400D01*
X47592543Y-30327087D01*
X47612498Y-30099000D01*
X47592543Y-29870913D01*
X47584028Y-29839135D01*
X47534707Y-29655067D01*
X47534706Y-29655065D01*
X47533284Y-29649757D01*
X47530961Y-29644775D01*
X47438849Y-29447238D01*
X47438846Y-29447233D01*
X47437480Y-29444303D01*
X50735443Y-29444303D01*
X50736002Y-29448547D01*
X50736002Y-29448551D01*
X50738910Y-29470636D01*
X50772968Y-29729334D01*
X50774101Y-29733474D01*
X50774101Y-29733476D01*
X50780026Y-29755134D01*
X50848829Y-30006636D01*
X50850513Y-30010584D01*
X50946425Y-30235444D01*
X50961623Y-30271076D01*
X51022747Y-30373206D01*
X51098755Y-30500206D01*
X51109261Y-30517761D01*
X51289013Y-30742128D01*
X51497551Y-30940023D01*
X51731017Y-31107786D01*
X51734812Y-31109795D01*
X51734813Y-31109796D01*
X51756569Y-31121315D01*
X51985092Y-31242312D01*
X52019250Y-31254812D01*
X52233685Y-31333284D01*
X52255073Y-31341111D01*
X52535964Y-31402355D01*
X52558429Y-31404123D01*
X52758982Y-31419907D01*
X52758991Y-31419907D01*
X52761439Y-31420100D01*
X52916971Y-31420100D01*
X52919107Y-31419954D01*
X52919118Y-31419954D01*
X53127248Y-31405765D01*
X53127254Y-31405764D01*
X53131525Y-31405473D01*
X53135720Y-31404604D01*
X53135722Y-31404604D01*
X53275946Y-31375565D01*
X53413042Y-31347174D01*
X53684043Y-31251207D01*
X53939512Y-31119350D01*
X53943013Y-31116889D01*
X53943017Y-31116887D01*
X54107406Y-31001352D01*
X54174723Y-30954041D01*
X54337041Y-30803206D01*
X54382179Y-30761261D01*
X54382181Y-30761258D01*
X54385322Y-30758340D01*
X54567413Y-30535868D01*
X54717627Y-30290742D01*
X54799393Y-30104475D01*
X54831457Y-30031430D01*
X54833183Y-30027498D01*
X54911944Y-29751006D01*
X54952451Y-29466384D01*
X54952545Y-29448551D01*
X54953935Y-29183183D01*
X54953935Y-29183176D01*
X54953957Y-29178897D01*
X54943136Y-29096699D01*
X54922937Y-28943276D01*
X54916432Y-28893866D01*
X54915233Y-28889481D01*
X54886306Y-28783745D01*
X54840571Y-28616564D01*
X54767085Y-28444279D01*
X54729463Y-28356076D01*
X54729461Y-28356072D01*
X54727777Y-28352124D01*
X54653227Y-28227560D01*
X54582343Y-28109121D01*
X54582340Y-28109117D01*
X54580139Y-28105439D01*
X54400387Y-27881072D01*
X54204776Y-27695444D01*
X54194958Y-27686127D01*
X54194955Y-27686125D01*
X54191849Y-27683177D01*
X53985068Y-27534589D01*
X53961872Y-27517921D01*
X53961871Y-27517920D01*
X53958383Y-27515414D01*
X53948808Y-27510344D01*
X53865976Y-27466487D01*
X53704308Y-27380888D01*
X53496934Y-27305000D01*
X53438358Y-27283564D01*
X53438356Y-27283563D01*
X53434327Y-27282089D01*
X53153436Y-27220845D01*
X53122385Y-27218401D01*
X52930418Y-27203293D01*
X52930409Y-27203293D01*
X52927961Y-27203100D01*
X52772429Y-27203100D01*
X52770293Y-27203246D01*
X52770282Y-27203246D01*
X52562152Y-27217435D01*
X52562146Y-27217436D01*
X52557875Y-27217727D01*
X52553680Y-27218596D01*
X52553678Y-27218596D01*
X52417117Y-27246876D01*
X52276358Y-27276026D01*
X52005357Y-27371993D01*
X52001548Y-27373959D01*
X51756005Y-27500693D01*
X51749888Y-27503850D01*
X51746387Y-27506311D01*
X51746383Y-27506313D01*
X51689559Y-27546250D01*
X51514677Y-27669159D01*
X51499592Y-27683177D01*
X51310617Y-27858784D01*
X51304078Y-27864860D01*
X51121987Y-28087332D01*
X50971773Y-28332458D01*
X50970047Y-28336391D01*
X50970046Y-28336392D01*
X50938068Y-28409240D01*
X50856217Y-28595702D01*
X50855042Y-28599829D01*
X50855041Y-28599830D01*
X50853869Y-28603944D01*
X50777456Y-28872194D01*
X50736949Y-29156816D01*
X50736927Y-29161105D01*
X50736926Y-29161112D01*
X50735499Y-29433553D01*
X50735443Y-29444303D01*
X47437480Y-29444303D01*
X47436523Y-29442251D01*
X47305198Y-29254700D01*
X47143300Y-29092802D01*
X47138792Y-29089645D01*
X47138789Y-29089643D01*
X47060611Y-29034902D01*
X46955749Y-28961477D01*
X46950767Y-28959154D01*
X46950762Y-28959151D01*
X46753225Y-28867039D01*
X46753224Y-28867039D01*
X46748243Y-28864716D01*
X46742935Y-28863294D01*
X46742933Y-28863293D01*
X46532402Y-28806881D01*
X46532400Y-28806881D01*
X46527087Y-28805457D01*
X46299000Y-28785502D01*
X46070913Y-28805457D01*
X46065600Y-28806881D01*
X46065598Y-28806881D01*
X45855067Y-28863293D01*
X45855065Y-28863294D01*
X45849757Y-28864716D01*
X45844776Y-28867039D01*
X45844775Y-28867039D01*
X45647238Y-28959151D01*
X45647233Y-28959154D01*
X45642251Y-28961477D01*
X45537389Y-29034902D01*
X45459211Y-29089643D01*
X45459208Y-29089645D01*
X45454700Y-29092802D01*
X45292802Y-29254700D01*
X45161477Y-29442251D01*
X45159154Y-29447233D01*
X45159151Y-29447238D01*
X45067039Y-29644775D01*
X45064716Y-29649757D01*
X45063294Y-29655065D01*
X45063293Y-29655067D01*
X45013972Y-29839135D01*
X45005457Y-29870913D01*
X44985502Y-30099000D01*
X27466443Y-30099000D01*
X27455543Y-29974413D01*
X27454119Y-29969098D01*
X27416013Y-29826885D01*
X41491000Y-29826885D01*
X41495475Y-29842124D01*
X41496865Y-29843329D01*
X41504548Y-29845000D01*
X42526885Y-29845000D01*
X42542124Y-29840525D01*
X42543329Y-29839135D01*
X42545000Y-29831452D01*
X42545000Y-29826885D01*
X43053000Y-29826885D01*
X43057475Y-29842124D01*
X43058865Y-29843329D01*
X43066548Y-29845000D01*
X44088884Y-29845000D01*
X44104123Y-29840525D01*
X44105328Y-29839135D01*
X44106999Y-29831452D01*
X44106999Y-29254331D01*
X44106629Y-29247510D01*
X44101105Y-29196648D01*
X44097479Y-29181396D01*
X44052324Y-29060946D01*
X44043786Y-29045351D01*
X43967285Y-28943276D01*
X43954724Y-28930715D01*
X43852649Y-28854214D01*
X43837054Y-28845676D01*
X43716606Y-28800522D01*
X43701351Y-28796895D01*
X43650486Y-28791369D01*
X43643672Y-28791000D01*
X43071115Y-28791000D01*
X43055876Y-28795475D01*
X43054671Y-28796865D01*
X43053000Y-28804548D01*
X43053000Y-29826885D01*
X42545000Y-29826885D01*
X42545000Y-28809116D01*
X42540525Y-28793877D01*
X42539135Y-28792672D01*
X42531452Y-28791001D01*
X41954331Y-28791001D01*
X41947510Y-28791371D01*
X41896648Y-28796895D01*
X41881396Y-28800521D01*
X41760946Y-28845676D01*
X41745351Y-28854214D01*
X41643276Y-28930715D01*
X41630715Y-28943276D01*
X41554214Y-29045351D01*
X41545676Y-29060946D01*
X41500522Y-29181394D01*
X41496895Y-29196649D01*
X41491369Y-29247514D01*
X41491000Y-29254328D01*
X41491000Y-29826885D01*
X27416013Y-29826885D01*
X27397707Y-29758567D01*
X27397706Y-29758565D01*
X27396284Y-29753257D01*
X27378298Y-29714686D01*
X27301849Y-29550738D01*
X27301846Y-29550733D01*
X27299523Y-29545751D01*
X27220961Y-29433553D01*
X27171357Y-29362711D01*
X27171355Y-29362708D01*
X27168198Y-29358200D01*
X27006300Y-29196302D01*
X27001792Y-29193145D01*
X27001789Y-29193143D01*
X26904683Y-29125149D01*
X26818749Y-29064977D01*
X26813767Y-29062654D01*
X26813762Y-29062651D01*
X26616225Y-28970539D01*
X26616224Y-28970539D01*
X26611243Y-28968216D01*
X26605935Y-28966794D01*
X26605933Y-28966793D01*
X26395402Y-28910381D01*
X26395400Y-28910381D01*
X26390087Y-28908957D01*
X26162000Y-28889002D01*
X25933913Y-28908957D01*
X25928600Y-28910381D01*
X25928598Y-28910381D01*
X25718067Y-28966793D01*
X25718065Y-28966794D01*
X25712757Y-28968216D01*
X25707776Y-28970539D01*
X25707775Y-28970539D01*
X25510238Y-29062651D01*
X25510233Y-29062654D01*
X25505251Y-29064977D01*
X25419317Y-29125149D01*
X25322211Y-29193143D01*
X25322208Y-29193145D01*
X25317700Y-29196302D01*
X25155802Y-29358200D01*
X25152645Y-29362708D01*
X25152643Y-29362711D01*
X25103039Y-29433553D01*
X25024477Y-29545751D01*
X25022154Y-29550733D01*
X25022151Y-29550738D01*
X24945702Y-29714686D01*
X24927716Y-29753257D01*
X24926294Y-29758565D01*
X24926293Y-29758567D01*
X24869881Y-29969098D01*
X24868457Y-29974413D01*
X24848502Y-30202500D01*
X19555960Y-30202500D01*
X19555960Y-27546250D01*
X19557706Y-27525345D01*
X19560230Y-27510344D01*
X19560230Y-27510341D01*
X19561036Y-27505552D01*
X19561189Y-27493000D01*
X19559794Y-27483260D01*
X19558910Y-27455515D01*
X19572375Y-27284426D01*
X19575468Y-27264897D01*
X19621996Y-27071097D01*
X19628106Y-27052294D01*
X19704376Y-26868160D01*
X19713353Y-26850543D01*
X19817487Y-26680613D01*
X19829108Y-26664618D01*
X19958545Y-26513066D01*
X19972526Y-26499085D01*
X20124078Y-26369648D01*
X20140073Y-26358027D01*
X20310003Y-26253893D01*
X20327620Y-26244916D01*
X20511754Y-26168646D01*
X20530557Y-26162536D01*
X20724357Y-26116008D01*
X20743886Y-26112915D01*
X20911447Y-26099728D01*
X20928335Y-26100370D01*
X20928337Y-26100200D01*
X20937313Y-26100310D01*
X20946184Y-26101691D01*
X20955086Y-26100527D01*
X20955089Y-26100527D01*
X20977745Y-26097564D01*
X20994082Y-26096500D01*
X21100319Y-26096500D01*
X30076193Y-26096496D01*
X30144313Y-26116498D01*
X30190806Y-26170154D01*
X30200910Y-26240428D01*
X30171416Y-26305008D01*
X30111767Y-26343370D01*
X30110636Y-26343703D01*
X30036881Y-26365410D01*
X30031423Y-26368263D01*
X30031419Y-26368265D01*
X29952488Y-26409530D01*
X29861610Y-26457040D01*
X29707475Y-26580968D01*
X29580346Y-26732474D01*
X29577379Y-26737872D01*
X29577375Y-26737877D01*
X29515454Y-26850512D01*
X29485067Y-26905787D01*
X29483206Y-26911654D01*
X29483205Y-26911656D01*
X29461409Y-26980365D01*
X29425265Y-27094306D01*
X29403219Y-27290851D01*
X29403735Y-27296995D01*
X29418755Y-27475866D01*
X29419768Y-27487934D01*
X29430793Y-27526382D01*
X29472571Y-27672078D01*
X29474283Y-27678050D01*
X29564687Y-27853956D01*
X29616779Y-27919680D01*
X29620761Y-27924704D01*
X29647399Y-27990514D01*
X29634228Y-28060279D01*
X29618540Y-28083956D01*
X29580346Y-28129474D01*
X29577379Y-28134872D01*
X29577375Y-28134877D01*
X29575112Y-28138994D01*
X29485067Y-28302787D01*
X29483206Y-28308654D01*
X29483205Y-28308656D01*
X29454319Y-28399715D01*
X29425265Y-28491306D01*
X29403219Y-28687851D01*
X29403735Y-28693995D01*
X29418419Y-28868865D01*
X29419768Y-28884934D01*
X29428976Y-28917045D01*
X29472300Y-29068134D01*
X29474283Y-29075050D01*
X29564687Y-29250956D01*
X29687535Y-29405953D01*
X29692228Y-29409947D01*
X29692229Y-29409948D01*
X29825337Y-29523231D01*
X29838150Y-29534136D01*
X30010794Y-29630624D01*
X30198892Y-29691740D01*
X30395277Y-29715158D01*
X30401412Y-29714686D01*
X30401414Y-29714686D01*
X30586330Y-29700457D01*
X30586334Y-29700456D01*
X30592472Y-29699984D01*
X30782963Y-29646798D01*
X30788467Y-29644018D01*
X30788469Y-29644017D01*
X30953995Y-29560404D01*
X30953997Y-29560403D01*
X30959496Y-29557625D01*
X31003518Y-29523231D01*
X31069513Y-29497053D01*
X31139183Y-29510710D01*
X31162754Y-29526565D01*
X31171650Y-29534136D01*
X31344294Y-29630624D01*
X31532392Y-29691740D01*
X31728777Y-29715158D01*
X31734912Y-29714686D01*
X31734914Y-29714686D01*
X31919830Y-29700457D01*
X31919834Y-29700456D01*
X31925972Y-29699984D01*
X32116463Y-29646798D01*
X32121967Y-29644018D01*
X32121969Y-29644017D01*
X32287495Y-29560404D01*
X32287497Y-29560403D01*
X32292996Y-29557625D01*
X32380413Y-29489327D01*
X32446403Y-29463151D01*
X32519453Y-29478630D01*
X32677794Y-29567124D01*
X32865892Y-29628240D01*
X33062277Y-29651658D01*
X33068412Y-29651186D01*
X33068414Y-29651186D01*
X33253330Y-29636957D01*
X33253334Y-29636956D01*
X33259472Y-29636484D01*
X33449963Y-29583298D01*
X33455467Y-29580518D01*
X33455469Y-29580517D01*
X33620995Y-29496904D01*
X33620997Y-29496903D01*
X33626496Y-29494125D01*
X33670518Y-29459731D01*
X33736513Y-29433553D01*
X33806183Y-29447210D01*
X33829754Y-29463065D01*
X33838650Y-29470636D01*
X34011294Y-29567124D01*
X34199392Y-29628240D01*
X34395777Y-29651658D01*
X34401912Y-29651186D01*
X34401914Y-29651186D01*
X34586830Y-29636957D01*
X34586834Y-29636956D01*
X34592972Y-29636484D01*
X34783463Y-29583298D01*
X34788967Y-29580518D01*
X34788969Y-29580517D01*
X34954495Y-29496904D01*
X34954497Y-29496903D01*
X34959996Y-29494125D01*
X35115847Y-29372361D01*
X35217409Y-29254700D01*
X35241049Y-29227313D01*
X35241050Y-29227311D01*
X35245078Y-29222645D01*
X35342769Y-29050679D01*
X35405197Y-28863013D01*
X35429985Y-28666795D01*
X35430188Y-28652253D01*
X35430331Y-28642023D01*
X35430331Y-28642020D01*
X35430380Y-28638500D01*
X35411080Y-28441667D01*
X35401937Y-28411382D01*
X35387162Y-28362447D01*
X35353916Y-28252331D01*
X35261066Y-28077704D01*
X35246855Y-28060279D01*
X35205602Y-28009699D01*
X35178048Y-27944268D01*
X35190243Y-27874326D01*
X35193689Y-27867826D01*
X35276222Y-27722542D01*
X35279269Y-27717179D01*
X35341697Y-27529513D01*
X35366485Y-27333295D01*
X35366880Y-27305000D01*
X35347580Y-27108167D01*
X35290416Y-26918831D01*
X35197566Y-26744204D01*
X35108988Y-26635597D01*
X35076460Y-26595713D01*
X35076457Y-26595710D01*
X35072565Y-26590938D01*
X35066224Y-26585692D01*
X34924925Y-26468799D01*
X34924921Y-26468797D01*
X34920175Y-26464870D01*
X34746201Y-26370802D01*
X34699244Y-26356266D01*
X34655932Y-26342859D01*
X34596772Y-26303608D01*
X34568225Y-26238603D01*
X34579354Y-26168484D01*
X34626625Y-26115513D01*
X34693190Y-26096494D01*
X74511664Y-26096478D01*
X74579785Y-26116480D01*
X74626278Y-26170136D01*
X74636382Y-26240410D01*
X74620784Y-26285476D01*
X74539973Y-26425444D01*
X74480958Y-26607072D01*
X74480268Y-26613633D01*
X74480268Y-26613635D01*
X74468275Y-26727747D01*
X74460996Y-26797000D01*
X74461686Y-26803565D01*
X74466624Y-26850543D01*
X74480958Y-26986928D01*
X74539973Y-27168556D01*
X74543276Y-27174278D01*
X74543277Y-27174279D01*
X74568193Y-27217435D01*
X74635460Y-27333944D01*
X74647838Y-27347691D01*
X74678554Y-27411697D01*
X74669790Y-27482150D01*
X74647839Y-27516307D01*
X74635460Y-27530056D01*
X74539973Y-27695444D01*
X74480958Y-27877072D01*
X74480268Y-27883633D01*
X74480268Y-27883635D01*
X74463138Y-28046616D01*
X74460996Y-28067000D01*
X74480958Y-28256928D01*
X74539973Y-28438556D01*
X74543276Y-28444278D01*
X74543277Y-28444279D01*
X74557855Y-28469529D01*
X74635460Y-28603944D01*
X74763247Y-28745866D01*
X74829158Y-28793753D01*
X74912375Y-28854214D01*
X74917748Y-28858118D01*
X74923776Y-28860802D01*
X74923778Y-28860803D01*
X75080804Y-28930715D01*
X75092212Y-28935794D01*
X75185612Y-28955647D01*
X75272556Y-28974128D01*
X75272561Y-28974128D01*
X75279013Y-28975500D01*
X75469987Y-28975500D01*
X75476439Y-28974128D01*
X75476444Y-28974128D01*
X75563388Y-28955647D01*
X75656788Y-28935794D01*
X75668196Y-28930715D01*
X75825222Y-28860803D01*
X75825224Y-28860802D01*
X75831252Y-28858118D01*
X75836626Y-28854214D01*
X75919842Y-28793753D01*
X75985753Y-28745866D01*
X76113540Y-28603944D01*
X76191145Y-28469529D01*
X76205723Y-28444279D01*
X76205724Y-28444278D01*
X76209027Y-28438556D01*
X76268042Y-28256928D01*
X76288004Y-28067000D01*
X76285862Y-28046616D01*
X76268732Y-27883635D01*
X76268732Y-27883633D01*
X76268042Y-27877072D01*
X76209027Y-27695444D01*
X76113540Y-27530056D01*
X76101162Y-27516309D01*
X76070446Y-27452303D01*
X76079210Y-27381850D01*
X76101161Y-27347693D01*
X76113540Y-27333944D01*
X76180807Y-27217435D01*
X76205723Y-27174279D01*
X76205724Y-27174278D01*
X76209027Y-27168556D01*
X76268042Y-26986928D01*
X76282377Y-26850543D01*
X76287314Y-26803565D01*
X76288004Y-26797000D01*
X76280725Y-26727747D01*
X76268732Y-26613635D01*
X76268732Y-26613633D01*
X76268042Y-26607072D01*
X76209027Y-26425444D01*
X76177480Y-26370802D01*
X76128217Y-26285477D01*
X76111479Y-26216482D01*
X76134699Y-26149390D01*
X76190507Y-26105503D01*
X76237336Y-26096477D01*
X84010433Y-26096474D01*
X91783668Y-26096470D01*
X91851789Y-26116472D01*
X91898282Y-26170128D01*
X91908386Y-26240402D01*
X91892787Y-26285470D01*
X91841829Y-26373732D01*
X91811973Y-26425444D01*
X91752958Y-26607072D01*
X91752268Y-26613633D01*
X91752268Y-26613635D01*
X91740275Y-26727747D01*
X91732996Y-26797000D01*
X91733686Y-26803565D01*
X91738624Y-26850543D01*
X91752958Y-26986928D01*
X91811973Y-27168556D01*
X91815276Y-27174278D01*
X91815277Y-27174279D01*
X91840193Y-27217435D01*
X91907460Y-27333944D01*
X91911875Y-27338847D01*
X91911879Y-27338852D01*
X91992576Y-27428475D01*
X92023294Y-27492482D01*
X92014529Y-27562936D01*
X92008068Y-27575769D01*
X91938973Y-27695444D01*
X91879958Y-27877072D01*
X91879268Y-27883633D01*
X91879268Y-27883635D01*
X91862138Y-28046616D01*
X91859996Y-28067000D01*
X91879958Y-28256928D01*
X91938973Y-28438556D01*
X91942276Y-28444278D01*
X91942277Y-28444279D01*
X91956855Y-28469529D01*
X92034460Y-28603944D01*
X92162247Y-28745866D01*
X92228158Y-28793753D01*
X92311375Y-28854214D01*
X92316748Y-28858118D01*
X92322776Y-28860802D01*
X92322778Y-28860803D01*
X92479804Y-28930715D01*
X92491212Y-28935794D01*
X92597717Y-28958432D01*
X92660189Y-28992160D01*
X92694511Y-29054310D01*
X92689783Y-29125149D01*
X92680639Y-29144678D01*
X92637473Y-29219444D01*
X92578458Y-29401072D01*
X92577768Y-29407633D01*
X92577768Y-29407635D01*
X92558955Y-29586632D01*
X92531942Y-29652289D01*
X92473720Y-29692919D01*
X92424487Y-29698333D01*
X92424487Y-29698500D01*
X92233513Y-29698500D01*
X92227061Y-29699872D01*
X92227056Y-29699872D01*
X92140113Y-29718353D01*
X92046712Y-29738206D01*
X92040682Y-29740891D01*
X92040681Y-29740891D01*
X91878278Y-29813197D01*
X91878276Y-29813198D01*
X91872248Y-29815882D01*
X91866907Y-29819762D01*
X91866906Y-29819763D01*
X91832171Y-29845000D01*
X91717747Y-29928134D01*
X91713326Y-29933044D01*
X91713325Y-29933045D01*
X91647064Y-30006636D01*
X91589960Y-30070056D01*
X91494473Y-30235444D01*
X91435458Y-30417072D01*
X91434768Y-30423633D01*
X91434768Y-30423635D01*
X91421148Y-30553225D01*
X91415496Y-30607000D01*
X91416186Y-30613565D01*
X91423826Y-30686251D01*
X91435458Y-30796928D01*
X91494473Y-30978556D01*
X91563560Y-31098218D01*
X91580297Y-31167210D01*
X91557077Y-31234302D01*
X91548076Y-31245525D01*
X91469058Y-31333284D01*
X91462960Y-31340056D01*
X91367473Y-31505444D01*
X91308458Y-31687072D01*
X91288496Y-31877000D01*
X91289186Y-31883565D01*
X91306863Y-32051749D01*
X91308458Y-32066928D01*
X91367473Y-32248556D01*
X91462960Y-32413944D01*
X91467378Y-32418851D01*
X91467379Y-32418852D01*
X91566840Y-32529315D01*
X91590747Y-32555866D01*
X91674890Y-32617000D01*
X91721656Y-32650977D01*
X91745248Y-32668118D01*
X91751276Y-32670802D01*
X91751278Y-32670803D01*
X91913681Y-32743109D01*
X91919712Y-32745794D01*
X92013112Y-32765647D01*
X92100056Y-32784128D01*
X92100061Y-32784128D01*
X92106513Y-32785500D01*
X92297487Y-32785500D01*
X92303939Y-32784128D01*
X92303944Y-32784128D01*
X92390888Y-32765647D01*
X92484288Y-32745794D01*
X92490319Y-32743109D01*
X92652722Y-32670803D01*
X92652724Y-32670802D01*
X92658752Y-32668118D01*
X92682345Y-32650977D01*
X92729110Y-32617000D01*
X92813253Y-32555866D01*
X92837160Y-32529315D01*
X92936621Y-32418852D01*
X92936622Y-32418851D01*
X92941040Y-32413944D01*
X93036527Y-32248556D01*
X93095542Y-32066928D01*
X93097138Y-32051749D01*
X93114814Y-31883565D01*
X93115504Y-31877000D01*
X93095542Y-31687072D01*
X93036527Y-31505444D01*
X92967440Y-31385782D01*
X92950703Y-31316790D01*
X92973923Y-31249698D01*
X92982924Y-31238475D01*
X93063621Y-31148852D01*
X93063622Y-31148851D01*
X93068040Y-31143944D01*
X93163527Y-30978556D01*
X93222542Y-30796928D01*
X93233767Y-30690134D01*
X93242045Y-30611368D01*
X93269058Y-30545711D01*
X93327280Y-30505081D01*
X93376513Y-30499667D01*
X93376513Y-30499500D01*
X93567487Y-30499500D01*
X93573939Y-30498128D01*
X93573944Y-30498128D01*
X93660887Y-30479647D01*
X93754288Y-30459794D01*
X93774305Y-30450882D01*
X93922722Y-30384803D01*
X93922724Y-30384802D01*
X93928752Y-30382118D01*
X93941019Y-30373206D01*
X94049486Y-30294399D01*
X94083253Y-30269866D01*
X94211040Y-30127944D01*
X94283467Y-30002497D01*
X94303223Y-29968279D01*
X94303224Y-29968278D01*
X94306527Y-29962556D01*
X94365542Y-29780928D01*
X94370177Y-29736834D01*
X94384814Y-29597565D01*
X94385504Y-29591000D01*
X94373169Y-29473641D01*
X94366232Y-29407635D01*
X94366232Y-29407633D01*
X94365542Y-29401072D01*
X94306527Y-29219444D01*
X94211040Y-29054056D01*
X94133750Y-28968216D01*
X94087675Y-28917045D01*
X94087674Y-28917044D01*
X94083253Y-28912134D01*
X93984157Y-28840136D01*
X93934094Y-28803763D01*
X93934093Y-28803762D01*
X93928752Y-28799882D01*
X93922724Y-28797198D01*
X93922722Y-28797197D01*
X93760319Y-28724891D01*
X93760318Y-28724891D01*
X93754288Y-28722206D01*
X93647783Y-28699568D01*
X93585311Y-28665840D01*
X93550989Y-28603690D01*
X93555717Y-28532851D01*
X93564861Y-28513322D01*
X93588041Y-28473173D01*
X93608027Y-28438556D01*
X93667042Y-28256928D01*
X93687004Y-28067000D01*
X93684862Y-28046616D01*
X93667732Y-27883635D01*
X93667732Y-27883633D01*
X93667042Y-27877072D01*
X93608027Y-27695444D01*
X93512540Y-27530056D01*
X93497547Y-27513404D01*
X93427424Y-27435525D01*
X93396706Y-27371518D01*
X93405471Y-27301064D01*
X93411932Y-27288231D01*
X93481027Y-27168556D01*
X93540042Y-26986928D01*
X93554377Y-26850543D01*
X93559314Y-26803565D01*
X93560004Y-26797000D01*
X93552725Y-26727747D01*
X93540732Y-26613635D01*
X93540732Y-26613633D01*
X93540042Y-26607072D01*
X93481027Y-26425444D01*
X93451171Y-26373732D01*
X93400213Y-26285470D01*
X93383475Y-26216475D01*
X93406695Y-26149383D01*
X93462503Y-26105496D01*
X93509332Y-26096470D01*
X95615721Y-26096469D01*
X98384985Y-26096468D01*
X98453106Y-26116470D01*
X98499599Y-26170126D01*
X98509703Y-26240400D01*
X98485812Y-26298032D01*
X98463270Y-26328109D01*
X98463268Y-26328112D01*
X98457885Y-26335295D01*
X98406755Y-26471684D01*
X98400000Y-26533866D01*
X98400000Y-28330134D01*
X98406755Y-28392316D01*
X98457885Y-28528705D01*
X98545239Y-28645261D01*
X98661795Y-28732615D01*
X98798184Y-28783745D01*
X98860366Y-28790500D01*
X100656634Y-28790500D01*
X100718816Y-28783745D01*
X100855205Y-28732615D01*
X100971761Y-28645261D01*
X101059115Y-28528705D01*
X101091744Y-28441667D01*
X101103098Y-28411382D01*
X101145740Y-28354618D01*
X101212302Y-28329918D01*
X101281650Y-28345126D01*
X101316317Y-28373114D01*
X101344750Y-28405938D01*
X101516626Y-28548632D01*
X101709500Y-28661338D01*
X101714325Y-28663180D01*
X101714326Y-28663181D01*
X101723790Y-28666795D01*
X101918192Y-28741030D01*
X101923260Y-28742061D01*
X101923263Y-28742062D01*
X102030517Y-28763883D01*
X102137097Y-28785567D01*
X102142272Y-28785757D01*
X102142274Y-28785757D01*
X102355173Y-28793564D01*
X102355177Y-28793564D01*
X102360337Y-28793753D01*
X102365457Y-28793097D01*
X102365459Y-28793097D01*
X102576788Y-28766025D01*
X102576789Y-28766025D01*
X102581916Y-28765368D01*
X102586866Y-28763883D01*
X102790929Y-28702661D01*
X102790934Y-28702659D01*
X102795884Y-28701174D01*
X102996494Y-28602896D01*
X103178360Y-28473173D01*
X103336596Y-28315489D01*
X103466953Y-28134077D01*
X103468276Y-28135028D01*
X103515145Y-28091857D01*
X103585080Y-28079625D01*
X103650526Y-28107144D01*
X103678375Y-28138994D01*
X103738487Y-28237088D01*
X103884750Y-28405938D01*
X104056626Y-28548632D01*
X104249500Y-28661338D01*
X104254325Y-28663180D01*
X104254326Y-28663181D01*
X104263790Y-28666795D01*
X104458192Y-28741030D01*
X104463260Y-28742061D01*
X104463263Y-28742062D01*
X104570517Y-28763883D01*
X104677097Y-28785567D01*
X104682272Y-28785757D01*
X104682274Y-28785757D01*
X104895173Y-28793564D01*
X104895177Y-28793564D01*
X104900337Y-28793753D01*
X104905457Y-28793097D01*
X104905459Y-28793097D01*
X105116788Y-28766025D01*
X105116789Y-28766025D01*
X105121916Y-28765368D01*
X105126866Y-28763883D01*
X105330929Y-28702661D01*
X105330934Y-28702659D01*
X105335884Y-28701174D01*
X105536494Y-28602896D01*
X105718360Y-28473173D01*
X105876596Y-28315489D01*
X106006953Y-28134077D01*
X106008276Y-28135028D01*
X106055145Y-28091857D01*
X106125080Y-28079625D01*
X106190526Y-28107144D01*
X106218375Y-28138994D01*
X106278487Y-28237088D01*
X106424750Y-28405938D01*
X106596626Y-28548632D01*
X106789500Y-28661338D01*
X106794325Y-28663180D01*
X106794326Y-28663181D01*
X106803790Y-28666795D01*
X106998192Y-28741030D01*
X107003260Y-28742061D01*
X107003263Y-28742062D01*
X107110517Y-28763883D01*
X107217097Y-28785567D01*
X107222272Y-28785757D01*
X107222274Y-28785757D01*
X107435173Y-28793564D01*
X107435177Y-28793564D01*
X107440337Y-28793753D01*
X107445457Y-28793097D01*
X107445459Y-28793097D01*
X107656788Y-28766025D01*
X107656789Y-28766025D01*
X107661916Y-28765368D01*
X107666866Y-28763883D01*
X107870929Y-28702661D01*
X107870934Y-28702659D01*
X107875884Y-28701174D01*
X108076494Y-28602896D01*
X108258360Y-28473173D01*
X108416596Y-28315489D01*
X108546953Y-28134077D01*
X108548276Y-28135028D01*
X108595145Y-28091857D01*
X108665080Y-28079625D01*
X108730526Y-28107144D01*
X108758375Y-28138994D01*
X108818487Y-28237088D01*
X108964750Y-28405938D01*
X109136626Y-28548632D01*
X109329500Y-28661338D01*
X109334325Y-28663180D01*
X109334326Y-28663181D01*
X109343790Y-28666795D01*
X109538192Y-28741030D01*
X109543260Y-28742061D01*
X109543263Y-28742062D01*
X109650517Y-28763883D01*
X109757097Y-28785567D01*
X109762272Y-28785757D01*
X109762274Y-28785757D01*
X109975173Y-28793564D01*
X109975177Y-28793564D01*
X109980337Y-28793753D01*
X109985457Y-28793097D01*
X109985459Y-28793097D01*
X110196788Y-28766025D01*
X110196789Y-28766025D01*
X110201916Y-28765368D01*
X110206866Y-28763883D01*
X110410929Y-28702661D01*
X110410934Y-28702659D01*
X110415884Y-28701174D01*
X110616494Y-28602896D01*
X110798360Y-28473173D01*
X110956596Y-28315489D01*
X111086953Y-28134077D01*
X111088276Y-28135028D01*
X111135145Y-28091857D01*
X111205080Y-28079625D01*
X111270526Y-28107144D01*
X111298375Y-28138994D01*
X111358487Y-28237088D01*
X111504750Y-28405938D01*
X111676626Y-28548632D01*
X111869500Y-28661338D01*
X111874325Y-28663180D01*
X111874326Y-28663181D01*
X111883790Y-28666795D01*
X112078192Y-28741030D01*
X112083260Y-28742061D01*
X112083263Y-28742062D01*
X112190517Y-28763883D01*
X112297097Y-28785567D01*
X112302272Y-28785757D01*
X112302274Y-28785757D01*
X112515173Y-28793564D01*
X112515177Y-28793564D01*
X112520337Y-28793753D01*
X112525457Y-28793097D01*
X112525459Y-28793097D01*
X112736788Y-28766025D01*
X112736789Y-28766025D01*
X112741916Y-28765368D01*
X112746866Y-28763883D01*
X112950929Y-28702661D01*
X112950934Y-28702659D01*
X112955884Y-28701174D01*
X113156494Y-28602896D01*
X113338360Y-28473173D01*
X113496596Y-28315489D01*
X113626953Y-28134077D01*
X113647820Y-28091857D01*
X113723636Y-27938453D01*
X113723637Y-27938451D01*
X113725930Y-27933811D01*
X113790870Y-27720069D01*
X113820029Y-27498590D01*
X113820283Y-27488190D01*
X113821574Y-27435365D01*
X113821574Y-27435361D01*
X113821656Y-27432000D01*
X113803352Y-27209361D01*
X113748931Y-26992702D01*
X113659854Y-26787840D01*
X113538514Y-26600277D01*
X113388170Y-26435051D01*
X113244191Y-26321343D01*
X113203129Y-26263427D01*
X113199897Y-26192504D01*
X113235522Y-26131092D01*
X113298694Y-26098690D01*
X113322284Y-26096462D01*
X117034212Y-26096460D01*
X117093133Y-26096460D01*
X117112518Y-26097960D01*
G37*
%TD.AperFunction*%
%TD*%
M02*
